<?xml version="1.0" encoding="utf-8"?>
<svg xmlns="http://www.w3.org/2000/svg" xmlns:xlink="http://www.w3.org/1999/xlink" width="600" height="400" viewBox="0 0 2400 1600">
<defs>
  <clipPath id="clip6700">
    <rect x="0" y="0" width="2400" height="1600"/>
  </clipPath>
</defs>
<path clip-path="url(#clip6700)" d="
M0 1600 L2400 1600 L2400 0 L0 0  Z
  " fill="#ffffff" fill-rule="evenodd" fill-opacity="1"/>
<defs>
  <clipPath id="clip6701">
    <rect x="480" y="0" width="1681" height="1600"/>
  </clipPath>
</defs>
<path clip-path="url(#clip6700)" d="
M208.77 625.619 L2352.76 625.619 L2352.76 121.675 L208.77 121.675  Z
  " fill="#ffffff" fill-rule="evenodd" fill-opacity="1"/>
<defs>
  <clipPath id="clip6702">
    <rect x="208" y="121" width="2145" height="505"/>
  </clipPath>
</defs>
<polyline clip-path="url(#clip6702)" style="stroke:#000000; stroke-width:2; stroke-opacity:0.1; fill:none" points="
  262.685,625.619 262.685,121.675 
  "/>
<polyline clip-path="url(#clip6702)" style="stroke:#000000; stroke-width:2; stroke-opacity:0.1; fill:none" points="
  939.149,625.619 939.149,121.675 
  "/>
<polyline clip-path="url(#clip6702)" style="stroke:#000000; stroke-width:2; stroke-opacity:0.1; fill:none" points="
  1615.61,625.619 1615.61,121.675 
  "/>
<polyline clip-path="url(#clip6702)" style="stroke:#000000; stroke-width:2; stroke-opacity:0.1; fill:none" points="
  2292.08,625.619 2292.08,121.675 
  "/>
<polyline clip-path="url(#clip6702)" style="stroke:#000000; stroke-width:2; stroke-opacity:0.1; fill:none" points="
  208.77,611.356 2352.76,611.356 
  "/>
<polyline clip-path="url(#clip6702)" style="stroke:#000000; stroke-width:2; stroke-opacity:0.1; fill:none" points="
  208.77,510.442 2352.76,510.442 
  "/>
<polyline clip-path="url(#clip6702)" style="stroke:#000000; stroke-width:2; stroke-opacity:0.1; fill:none" points="
  208.77,409.527 2352.76,409.527 
  "/>
<polyline clip-path="url(#clip6702)" style="stroke:#000000; stroke-width:2; stroke-opacity:0.1; fill:none" points="
  208.77,308.613 2352.76,308.613 
  "/>
<polyline clip-path="url(#clip6702)" style="stroke:#000000; stroke-width:2; stroke-opacity:0.1; fill:none" points="
  208.77,207.698 2352.76,207.698 
  "/>
<polyline clip-path="url(#clip6700)" style="stroke:#000000; stroke-width:4; stroke-opacity:1; fill:none" points="
  208.77,625.619 2352.76,625.619 
  "/>
<polyline clip-path="url(#clip6700)" style="stroke:#000000; stroke-width:4; stroke-opacity:1; fill:none" points="
  208.77,625.619 208.77,121.675 
  "/>
<polyline clip-path="url(#clip6700)" style="stroke:#000000; stroke-width:4; stroke-opacity:1; fill:none" points="
  262.685,625.619 262.685,619.571 
  "/>
<polyline clip-path="url(#clip6700)" style="stroke:#000000; stroke-width:4; stroke-opacity:1; fill:none" points="
  939.149,625.619 939.149,619.571 
  "/>
<polyline clip-path="url(#clip6700)" style="stroke:#000000; stroke-width:4; stroke-opacity:1; fill:none" points="
  1615.61,625.619 1615.61,619.571 
  "/>
<polyline clip-path="url(#clip6700)" style="stroke:#000000; stroke-width:4; stroke-opacity:1; fill:none" points="
  2292.08,625.619 2292.08,619.571 
  "/>
<polyline clip-path="url(#clip6700)" style="stroke:#000000; stroke-width:4; stroke-opacity:1; fill:none" points="
  208.77,611.356 234.498,611.356 
  "/>
<polyline clip-path="url(#clip6700)" style="stroke:#000000; stroke-width:4; stroke-opacity:1; fill:none" points="
  208.77,510.442 234.498,510.442 
  "/>
<polyline clip-path="url(#clip6700)" style="stroke:#000000; stroke-width:4; stroke-opacity:1; fill:none" points="
  208.77,409.527 234.498,409.527 
  "/>
<polyline clip-path="url(#clip6700)" style="stroke:#000000; stroke-width:4; stroke-opacity:1; fill:none" points="
  208.77,308.613 234.498,308.613 
  "/>
<polyline clip-path="url(#clip6700)" style="stroke:#000000; stroke-width:4; stroke-opacity:1; fill:none" points="
  208.77,207.698 234.498,207.698 
  "/>
<g clip-path="url(#clip6700)">
<text style="fill:#000000; fill-opacity:1; font-family:Arial,Helvetica Neue,Helvetica,sans-serif; font-size:48px; text-anchor:middle;" transform="rotate(0, 262.685, 679.619)" x="262.685" y="679.619">0</text>
</g>
<g clip-path="url(#clip6700)">
<text style="fill:#000000; fill-opacity:1; font-family:Arial,Helvetica Neue,Helvetica,sans-serif; font-size:48px; text-anchor:middle;" transform="rotate(0, 939.149, 679.619)" x="939.149" y="679.619">100</text>
</g>
<g clip-path="url(#clip6700)">
<text style="fill:#000000; fill-opacity:1; font-family:Arial,Helvetica Neue,Helvetica,sans-serif; font-size:48px; text-anchor:middle;" transform="rotate(0, 1615.61, 679.619)" x="1615.61" y="679.619">200</text>
</g>
<g clip-path="url(#clip6700)">
<text style="fill:#000000; fill-opacity:1; font-family:Arial,Helvetica Neue,Helvetica,sans-serif; font-size:48px; text-anchor:middle;" transform="rotate(0, 2292.08, 679.619)" x="2292.08" y="679.619">300</text>
</g>
<g clip-path="url(#clip6700)">
<text style="fill:#000000; fill-opacity:1; font-family:Arial,Helvetica Neue,Helvetica,sans-serif; font-size:48px; text-anchor:end;" transform="rotate(0, 184.77, 628.856)" x="184.77" y="628.856">0.0</text>
</g>
<g clip-path="url(#clip6700)">
<text style="fill:#000000; fill-opacity:1; font-family:Arial,Helvetica Neue,Helvetica,sans-serif; font-size:48px; text-anchor:end;" transform="rotate(0, 184.77, 527.942)" x="184.77" y="527.942">0.2</text>
</g>
<g clip-path="url(#clip6700)">
<text style="fill:#000000; fill-opacity:1; font-family:Arial,Helvetica Neue,Helvetica,sans-serif; font-size:48px; text-anchor:end;" transform="rotate(0, 184.77, 427.027)" x="184.77" y="427.027">0.4</text>
</g>
<g clip-path="url(#clip6700)">
<text style="fill:#000000; fill-opacity:1; font-family:Arial,Helvetica Neue,Helvetica,sans-serif; font-size:48px; text-anchor:end;" transform="rotate(0, 184.77, 326.113)" x="184.77" y="326.113">0.6</text>
</g>
<g clip-path="url(#clip6700)">
<text style="fill:#000000; fill-opacity:1; font-family:Arial,Helvetica Neue,Helvetica,sans-serif; font-size:48px; text-anchor:end;" transform="rotate(0, 184.77, 225.198)" x="184.77" y="225.198">0.8</text>
</g>
<g clip-path="url(#clip6700)">
<text style="fill:#000000; fill-opacity:1; font-family:Arial,Helvetica Neue,Helvetica,sans-serif; font-size:84px; text-anchor:middle;" transform="rotate(0, 1280.76, 73.2)" x="1280.76" y="73.2">Impact of shock&apos;s size on scaled IRF: x</text>
</g>
<g clip-path="url(#clip6700)">
<text style="fill:#000000; fill-opacity:1; font-family:Arial,Helvetica Neue,Helvetica,sans-serif; font-size:66px; text-anchor:middle;" transform="rotate(0, 1280.76, 759.48)" x="1280.76" y="759.48">t</text>
</g>
<polyline clip-path="url(#clip6702)" style="stroke:#009af9; stroke-width:4; stroke-opacity:1; fill:none" points="
  269.449,611.356 276.214,574.996 282.979,541.217 289.743,509.884 296.508,480.864 303.272,454.025 310.037,429.239 316.802,406.384 323.566,385.339 330.331,365.991 
  337.096,348.23 343.86,331.952 350.625,317.059 357.39,303.457 364.154,291.059 370.919,279.783 377.683,269.551 384.448,260.292 391.213,251.937 397.977,244.426 
  404.742,237.698 411.507,231.702 418.271,226.386 425.036,221.704 431.801,217.613 438.565,214.074 445.33,211.05 452.095,208.507 458.859,206.413 465.624,204.74 
  472.388,203.46 479.153,202.548 485.918,201.981 492.682,201.738 499.447,201.798 506.212,202.143 512.976,202.755 519.741,203.618 526.506,204.716 533.27,206.035 
  540.035,207.562 546.8,209.284 553.564,211.188 560.329,213.265 567.093,215.503 573.858,217.891 580.623,220.421 587.387,223.084 594.152,225.87 600.917,228.771 
  607.681,231.78 614.446,234.89 621.211,238.092 627.975,241.381 634.74,244.749 641.505,248.192 648.269,251.702 655.034,255.274 661.798,258.902 668.563,262.582 
  675.328,266.309 682.092,270.077 688.857,273.882 695.622,277.72 702.386,281.587 709.151,285.479 715.916,289.391 722.68,293.321 729.445,297.264 736.21,301.217 
  742.974,305.178 749.739,309.143 756.503,313.109 763.268,317.074 770.033,321.035 776.797,324.989 783.562,328.934 790.327,332.867 797.091,336.787 803.856,340.692 
  810.621,344.579 817.385,348.447 824.15,352.293 830.914,356.117 837.679,359.917 844.444,363.691 851.208,367.438 857.973,371.157 864.738,374.847 871.502,378.505 
  878.267,382.133 885.032,385.728 891.796,389.289 898.561,392.817 905.326,396.309 912.09,399.766 918.855,403.187 925.619,406.572 932.384,409.919 939.149,413.228 
  945.913,416.5 952.678,419.733 959.443,422.928 966.207,426.084 972.972,429.201 979.737,432.279 986.501,435.318 993.266,438.317 1000.03,441.277 1006.8,444.198 
  1013.56,447.079 1020.32,449.921 1027.09,452.724 1033.85,455.487 1040.62,458.212 1047.38,460.898 1054.15,463.545 1060.91,466.153 1067.68,468.723 1074.44,471.256 
  1081.21,473.75 1087.97,476.207 1094.74,478.627 1101.5,481.009 1108.26,483.355 1115.03,485.665 1121.79,487.938 1128.56,490.176 1135.32,492.379 1142.09,494.546 
  1148.85,496.679 1155.62,498.778 1162.38,500.842 1169.15,502.873 1175.91,504.871 1182.68,506.836 1189.44,508.769 1196.21,510.67 1202.97,512.539 1209.73,514.377 
  1216.5,516.183 1223.26,517.96 1230.03,519.707 1236.79,521.423 1243.56,523.111 1250.32,524.77 1257.09,526.4 1263.85,528.003 1270.62,529.577 1277.38,531.125 
  1284.15,532.645 1290.91,534.139 1297.67,535.607 1304.44,537.049 1311.2,538.466 1317.97,539.858 1324.73,541.225 1331.5,542.569 1338.26,543.888 1345.03,545.184 
  1351.79,546.457 1358.56,547.707 1365.32,548.934 1372.09,550.14 1378.85,551.324 1385.62,552.487 1392.38,553.629 1399.14,554.75 1405.91,555.851 1412.67,556.931 
  1419.44,557.993 1426.2,559.035 1432.97,560.058 1439.73,561.062 1446.5,562.048 1453.26,563.016 1460.03,563.966 1466.79,564.899 1473.56,565.814 1480.32,566.713 
  1487.08,567.595 1493.85,568.461 1500.61,569.311 1507.38,570.145 1514.14,570.963 1520.91,571.767 1527.67,572.555 1534.44,573.329 1541.2,574.089 1547.97,574.834 
  1554.73,575.566 1561.5,576.283 1568.26,576.988 1575.03,577.679 1581.79,578.357 1588.55,579.022 1595.32,579.676 1602.08,580.316 1608.85,580.945 1615.61,581.562 
  1622.38,582.167 1629.14,582.761 1635.91,583.344 1642.67,583.915 1649.44,584.476 1656.2,585.026 1662.97,585.566 1669.73,586.096 1676.49,586.615 1683.26,587.125 
  1690.02,587.625 1696.79,588.115 1703.55,588.596 1710.32,589.068 1717.08,589.531 1723.85,589.986 1730.61,590.431 1737.38,590.868 1744.14,591.297 1750.91,591.717 
  1757.67,592.13 1764.44,592.534 1771.2,592.931 1777.96,593.32 1784.73,593.702 1791.49,594.076 1798.26,594.443 1805.02,594.803 1811.79,595.157 1818.55,595.503 
  1825.32,595.843 1832.08,596.176 1838.85,596.503 1845.61,596.823 1852.38,597.137 1859.14,597.446 1865.9,597.748 1872.67,598.044 1879.43,598.335 1886.2,598.62 
  1892.96,598.9 1899.73,599.174 1906.49,599.442 1913.26,599.706 1920.02,599.964 1926.79,600.218 1933.55,600.466 1940.32,600.71 1947.08,600.949 1953.84,601.183 
  1960.61,601.413 1967.37,601.639 1974.14,601.86 1980.9,602.076 1987.67,602.289 1994.43,602.497 2001.2,602.701 2007.96,602.901 2014.73,603.098 2021.49,603.29 
  2028.26,603.479 2035.02,603.664 2041.79,603.846 2048.55,604.024 2055.31,604.199 2062.08,604.37 2068.84,604.538 2075.61,604.703 2082.37,604.865 2089.14,605.023 
  2095.9,605.179 2102.67,605.332 2109.43,605.481 2116.2,605.628 2122.96,605.773 2129.73,605.914 2136.49,606.054 2143.25,606.19 2150.02,606.324 2156.78,606.456 
  2163.55,606.586 2170.31,606.713 2177.08,606.838 2183.84,606.962 2190.61,607.083 2197.37,607.202 2204.14,607.32 2210.9,607.436 2217.67,607.551 2224.43,607.664 
  2231.2,607.775 2237.96,607.886 2244.72,607.995 2251.49,608.103 2258.25,608.211 2265.02,608.318 2271.78,608.424 2278.55,608.53 2285.31,608.636 2292.08,608.742 
  
  "/>
<polyline clip-path="url(#clip6702)" style="stroke:#e26f46; stroke-width:4; stroke-opacity:1; fill:none" points="
  269.449,611.356 276.214,573.309 282.979,538.132 289.743,505.637 296.508,475.645 303.272,447.991 310.037,422.518 316.802,399.078 323.566,377.534 330.331,357.758 
  337.096,339.63 343.86,323.04 350.625,307.882 357.39,294.06 364.154,281.485 370.919,270.072 377.683,259.744 384.448,250.428 391.213,242.057 397.977,234.57 
  404.742,227.906 411.507,222.014 418.271,216.841 425.036,212.341 431.801,208.471 438.565,205.19 445.33,202.459 452.095,200.244 458.859,198.511 465.624,197.229 
  472.388,196.369 479.153,195.903 485.918,195.807 492.682,196.057 499.447,196.63 506.212,197.504 512.976,198.661 519.741,200.081 526.506,201.747 533.27,203.642 
  540.035,205.751 546.8,208.058 553.564,210.551 560.329,213.215 567.093,216.038 573.858,219.008 580.623,222.115 587.387,225.348 594.152,228.696 600.917,232.15 
  607.681,235.702 614.446,239.342 621.211,243.063 627.975,246.858 634.74,250.717 641.505,254.636 648.269,258.608 655.034,262.625 661.798,266.684 668.563,270.777 
  675.328,274.9 682.092,279.047 688.857,283.215 695.622,287.398 702.386,291.593 709.151,295.796 715.916,300.002 722.68,304.208 729.445,308.411 736.21,312.609 
  742.974,316.797 749.739,320.973 756.503,325.134 763.268,329.279 770.033,333.404 776.797,337.508 783.562,341.588 790.327,345.643 797.091,349.671 803.856,353.671 
  810.621,357.64 817.385,361.578 824.15,365.482 830.914,369.353 837.679,373.189 844.444,376.989 851.208,380.751 857.973,384.476 864.738,388.162 871.502,391.809 
  878.267,395.416 885.032,398.982 891.796,402.508 898.561,405.992 905.326,409.434 912.09,412.835 918.855,416.194 925.619,419.51 932.384,422.783 939.149,426.014 
  945.913,429.202 952.678,432.347 959.443,435.45 966.207,438.509 972.972,441.526 979.737,444.501 986.501,447.433 993.266,450.323 1000.03,453.171 1006.8,455.977 
  1013.56,458.742 1020.32,461.465 1027.09,464.147 1033.85,466.788 1040.62,469.389 1047.38,471.949 1054.15,474.47 1060.91,476.951 1067.68,479.393 1074.44,481.796 
  1081.21,484.161 1087.97,486.488 1094.74,488.777 1101.5,491.029 1108.26,493.244 1115.03,495.423 1121.79,497.566 1128.56,499.673 1135.32,501.746 1142.09,503.783 
  1148.85,505.786 1155.62,507.756 1162.38,509.692 1169.15,511.595 1175.91,513.466 1182.68,515.304 1189.44,517.111 1196.21,518.887 1202.97,520.632 1209.73,522.346 
  1216.5,524.031 1223.26,525.686 1230.03,527.313 1236.79,528.91 1243.56,530.48 1250.32,532.022 1257.09,533.536 1263.85,535.023 1270.62,536.485 1277.38,537.92 
  1284.15,539.329 1290.91,540.713 1297.67,542.072 1304.44,543.407 1311.2,544.717 1317.97,546.004 1324.73,547.268 1331.5,548.508 1338.26,549.726 1345.03,550.922 
  1351.79,552.096 1358.56,553.249 1365.32,554.381 1372.09,555.491 1378.85,556.582 1385.62,557.652 1392.38,558.703 1399.14,559.734 1405.91,560.746 1412.67,561.74 
  1419.44,562.715 1426.2,563.672 1432.97,564.611 1439.73,565.533 1446.5,566.438 1453.26,567.326 1460.03,568.197 1466.79,569.052 1473.56,569.891 1480.32,570.714 
  1487.08,571.522 1493.85,572.315 1500.61,573.093 1507.38,573.856 1514.14,574.605 1520.91,575.34 1527.67,576.061 1534.44,576.768 1541.2,577.462 1547.97,578.143 
  1554.73,578.811 1561.5,579.466 1568.26,580.109 1575.03,580.74 1581.79,581.359 1588.55,581.966 1595.32,582.562 1602.08,583.146 1608.85,583.719 1615.61,584.281 
  1622.38,584.833 1629.14,585.374 1635.91,585.905 1642.67,586.425 1649.44,586.936 1656.2,587.437 1662.97,587.928 1669.73,588.41 1676.49,588.882 1683.26,589.346 
  1690.02,589.801 1696.79,590.247 1703.55,590.684 1710.32,591.113 1717.08,591.534 1723.85,591.947 1730.61,592.351 1737.38,592.748 1744.14,593.138 1750.91,593.519 
  1757.67,593.894 1764.44,594.261 1771.2,594.621 1777.96,594.974 1784.73,595.321 1791.49,595.66 1798.26,595.993 1805.02,596.32 1811.79,596.64 1818.55,596.954 
  1825.32,597.262 1832.08,597.564 1838.85,597.86 1845.61,598.151 1852.38,598.435 1859.14,598.715 1865.9,598.988 1872.67,599.257 1879.43,599.52 1886.2,599.778 
  1892.96,600.031 1899.73,600.279 1906.49,600.523 1913.26,600.761 1920.02,600.995 1926.79,601.224 1933.55,601.449 1940.32,601.669 1947.08,601.886 1953.84,602.097 
  1960.61,602.305 1967.37,602.509 1974.14,602.708 1980.9,602.904 1987.67,603.096 1994.43,603.284 2001.2,603.469 2007.96,603.65 2014.73,603.827 2021.49,604.001 
  2028.26,604.171 2035.02,604.338 2041.79,604.502 2048.55,604.663 2055.31,604.82 2062.08,604.975 2068.84,605.126 2075.61,605.275 2082.37,605.42 2089.14,605.563 
  2095.9,605.703 2102.67,605.841 2109.43,605.975 2116.2,606.108 2122.96,606.237 2129.73,606.364 2136.49,606.489 2143.25,606.612 2150.02,606.732 2156.78,606.85 
  2163.55,606.966 2170.31,607.08 2177.08,607.192 2183.84,607.302 2190.61,607.41 2197.37,607.516 2204.14,607.621 2210.9,607.723 2217.67,607.825 2224.43,607.925 
  2231.2,608.023 2237.96,608.12 2244.72,608.216 2251.49,608.311 2258.25,608.404 2265.02,608.497 2271.78,608.589 2278.55,608.681 2285.31,608.771 2292.08,608.862 
  
  "/>
<polyline clip-path="url(#clip6702)" style="stroke:#3da44d; stroke-width:4; stroke-opacity:1; fill:none" points="
  269.449,611.356 276.214,572.529 282.979,536.564 289.743,503.278 296.508,472.496 303.272,444.059 310.037,417.814 316.802,393.621 323.566,371.35 330.331,350.876 
  337.096,332.086 343.86,314.873 350.625,299.136 357.39,284.783 364.154,271.725 370.919,259.882 377.683,249.176 384.448,239.536 391.213,230.895 397.977,223.19 
  404.742,216.363 411.507,210.358 418.271,205.123 425.036,200.609 431.801,196.771 438.565,193.566 445.33,190.953 452.095,188.894 458.859,187.354 465.624,186.299 
  472.388,185.697 479.153,185.518 485.918,185.734 492.682,186.319 499.447,187.248 506.212,188.496 512.976,190.043 519.741,191.866 526.506,193.946 533.27,196.264 
  540.035,198.803 546.8,201.546 553.564,204.477 560.329,207.582 567.093,210.846 573.858,214.256 580.623,217.8 587.387,221.466 594.152,225.243 600.917,229.12 
  607.681,233.088 614.446,237.137 621.211,241.258 627.975,245.443 634.74,249.685 641.505,253.975 648.269,258.308 655.034,262.676 661.798,267.074 668.563,271.495 
  675.328,275.934 682.092,280.387 688.857,284.848 695.622,289.313 702.386,293.778 709.151,298.238 715.916,302.691 722.68,307.133 729.445,311.56 736.21,315.969 
  742.974,320.359 749.739,324.726 756.503,329.067 763.268,333.381 770.033,337.666 776.797,341.919 783.562,346.14 790.327,350.325 797.091,354.475 803.856,358.587 
  810.621,362.66 817.385,366.693 824.15,370.686 830.914,374.636 837.679,378.544 844.444,382.409 851.208,386.23 857.973,390.006 864.738,393.737 871.502,397.423 
  878.267,401.063 885.032,404.657 891.796,408.205 898.561,411.706 905.326,415.161 912.09,418.569 918.855,421.93 925.619,425.244 932.384,428.512 939.149,431.734 
  945.913,434.909 952.678,438.038 959.443,441.121 966.207,444.158 972.972,447.149 979.737,450.095 986.501,452.996 993.266,455.853 1000.03,458.665 1006.8,461.433 
  1013.56,464.158 1020.32,466.84 1027.09,469.478 1033.85,472.074 1040.62,474.629 1047.38,477.141 1054.15,479.613 1060.91,482.044 1067.68,484.434 1074.44,486.785 
  1081.21,489.097 1087.97,491.369 1094.74,493.604 1101.5,495.801 1108.26,497.96 1115.03,500.082 1121.79,502.168 1128.56,504.218 1135.32,506.233 1142.09,508.213 
  1148.85,510.158 1155.62,512.07 1162.38,513.948 1169.15,515.793 1175.91,517.605 1182.68,519.386 1189.44,521.135 1196.21,522.852 1202.97,524.54 1209.73,526.197 
  1216.5,527.825 1223.26,529.423 1230.03,530.993 1236.79,532.534 1243.56,534.047 1250.32,535.534 1257.09,536.993 1263.85,538.425 1270.62,539.832 1277.38,541.213 
  1284.15,542.569 1290.91,543.9 1297.67,545.206 1304.44,546.489 1311.2,547.748 1317.97,548.984 1324.73,550.197 1331.5,551.388 1338.26,552.556 1345.03,553.703 
  1351.79,554.829 1358.56,555.934 1365.32,557.018 1372.09,558.082 1378.85,559.127 1385.62,560.151 1392.38,561.157 1399.14,562.144 1405.91,563.112 1412.67,564.063 
  1419.44,564.995 1426.2,565.91 1432.97,566.808 1439.73,567.689 1446.5,568.553 1453.26,569.401 1460.03,570.233 1466.79,571.049 1473.56,571.85 1480.32,572.636 
  1487.08,573.407 1493.85,574.163 1500.61,574.905 1507.38,575.633 1514.14,576.347 1520.91,577.048 1527.67,577.735 1534.44,578.409 1541.2,579.07 1547.97,579.719 
  1554.73,580.356 1561.5,580.98 1568.26,581.592 1575.03,582.193 1581.79,582.782 1588.55,583.36 1595.32,583.927 1602.08,584.483 1608.85,585.028 1615.61,585.563 
  1622.38,586.087 1629.14,586.602 1635.91,587.107 1642.67,587.602 1649.44,588.087 1656.2,588.563 1662.97,589.03 1669.73,589.488 1676.49,589.938 1683.26,590.378 
  1690.02,590.81 1696.79,591.234 1703.55,591.649 1710.32,592.057 1717.08,592.457 1723.85,592.848 1730.61,593.233 1737.38,593.61 1744.14,593.979 1750.91,594.342 
  1757.67,594.697 1764.44,595.046 1771.2,595.388 1777.96,595.723 1784.73,596.051 1791.49,596.374 1798.26,596.69 1805.02,597 1811.79,597.303 1818.55,597.601 
  1825.32,597.894 1832.08,598.18 1838.85,598.461 1845.61,598.736 1852.38,599.006 1859.14,599.271 1865.9,599.531 1872.67,599.785 1879.43,600.035 1886.2,600.279 
  1892.96,600.519 1899.73,600.754 1906.49,600.985 1913.26,601.211 1920.02,601.433 1926.79,601.65 1933.55,601.863 1940.32,602.072 1947.08,602.276 1953.84,602.477 
  1960.61,602.674 1967.37,602.867 1974.14,603.056 1980.9,603.241 1987.67,603.423 1994.43,603.601 2001.2,603.776 2007.96,603.947 2014.73,604.115 2021.49,604.279 
  2028.26,604.441 2035.02,604.599 2041.79,604.754 2048.55,604.906 2055.31,605.055 2062.08,605.201 2068.84,605.344 2075.61,605.484 2082.37,605.621 2089.14,605.756 
  2095.9,605.889 2102.67,606.018 2109.43,606.145 2116.2,606.27 2122.96,606.392 2129.73,606.512 2136.49,606.629 2143.25,606.744 2150.02,606.857 2156.78,606.968 
  2163.55,607.077 2170.31,607.183 2177.08,607.288 2183.84,607.391 2190.61,607.491 2197.37,607.59 2204.14,607.687 2210.9,607.783 2217.67,607.876 2224.43,607.968 
  2231.2,608.059 2237.96,608.148 2244.72,608.235 2251.49,608.322 2258.25,608.406 2265.02,608.49 2271.78,608.572 2278.55,608.654 2285.31,608.734 2292.08,608.814 
  
  "/>
<polyline clip-path="url(#clip6702)" style="stroke:#c271d2; stroke-width:4; stroke-opacity:1; fill:none" points="
  269.449,611.356 276.214,571.884 282.979,534.908 289.743,500.337 296.508,468.076 303.272,438.03 310.037,410.103 316.802,384.198 323.566,360.221 330.331,338.08 
  337.096,317.685 343.86,298.946 350.625,281.779 357.39,266.1 364.154,251.831 370.919,238.894 377.683,227.215 384.448,216.723 391.213,207.35 397.977,199.032 
  404.742,191.706 411.507,185.313 418.271,179.796 425.036,175.101 431.801,171.178 438.565,167.976 445.33,165.451 452.095,163.558 458.859,162.255 465.624,161.503 
  472.388,161.265 479.153,161.504 485.918,162.188 492.682,163.284 499.447,164.763 506.212,166.596 512.976,168.756 519.741,171.218 526.506,173.959 533.27,176.955 
  540.035,180.187 546.8,183.632 553.564,187.274 560.329,191.094 567.093,195.076 573.858,199.204 580.623,203.463 587.387,207.839 594.152,212.321 600.917,216.895 
  607.681,221.55 614.446,226.276 621.211,231.063 627.975,235.901 634.74,240.782 641.505,245.698 648.269,250.64 655.034,255.603 661.798,260.578 668.563,265.562 
  675.328,270.546 682.092,275.528 688.857,280.5 695.622,285.459 702.386,290.401 709.151,295.322 715.916,300.218 722.68,305.086 729.445,309.923 736.21,314.726 
  742.974,319.492 749.739,324.22 756.503,328.907 763.268,333.551 770.033,338.15 776.797,342.704 783.562,347.209 790.327,351.666 797.091,356.073 803.856,360.43 
  810.621,364.734 817.385,368.986 824.15,373.185 830.914,377.33 837.679,381.421 844.444,385.458 851.208,389.44 857.973,393.367 864.738,397.239 871.502,401.056 
  878.267,404.817 885.032,408.524 891.796,412.176 898.561,415.773 905.326,419.316 912.09,422.804 918.855,426.239 925.619,429.619 932.384,432.947 939.149,436.221 
  945.913,439.443 952.678,442.613 959.443,445.731 966.207,448.798 972.972,451.814 979.737,454.781 986.501,457.697 993.266,460.565 1000.03,463.384 1006.8,466.155 
  1013.56,468.879 1020.32,471.556 1027.09,474.187 1033.85,476.773 1040.62,479.313 1047.38,481.809 1054.15,484.261 1060.91,486.67 1067.68,489.037 1074.44,491.361 
  1081.21,493.644 1087.97,495.887 1094.74,498.089 1101.5,500.252 1108.26,502.376 1115.03,504.461 1121.79,506.509 1128.56,508.52 1135.32,510.494 1142.09,512.432 
  1148.85,514.334 1155.62,516.202 1162.38,518.036 1169.15,519.836 1175.91,521.602 1182.68,523.336 1189.44,525.039 1196.21,526.709 1202.97,528.349 1209.73,529.958 
  1216.5,531.537 1223.26,533.087 1230.03,534.608 1236.79,536.101 1243.56,537.565 1250.32,539.002 1257.09,540.413 1263.85,541.796 1270.62,543.154 1277.38,544.487 
  1284.15,545.794 1290.91,547.076 1297.67,548.335 1304.44,549.569 1311.2,550.781 1317.97,551.969 1324.73,553.135 1331.5,554.278 1338.26,555.401 1345.03,556.501 
  1351.79,557.581 1358.56,558.64 1365.32,559.68 1372.09,560.699 1378.85,561.699 1385.62,562.68 1392.38,563.642 1399.14,564.586 1405.91,565.512 1412.67,566.42 
  1419.44,567.311 1426.2,568.184 1432.97,569.041 1439.73,569.882 1446.5,570.707 1453.26,571.515 1460.03,572.308 1466.79,573.086 1473.56,573.85 1480.32,574.598 
  1487.08,575.332 1493.85,576.052 1500.61,576.758 1507.38,577.45 1514.14,578.129 1520.91,578.796 1527.67,579.449 1534.44,580.089 1541.2,580.718 1547.97,581.334 
  1554.73,581.938 1561.5,582.531 1568.26,583.112 1575.03,583.682 1581.79,584.241 1588.55,584.789 1595.32,585.327 1602.08,585.854 1608.85,586.371 1615.61,586.878 
  1622.38,587.375 1629.14,587.863 1635.91,588.341 1642.67,588.81 1649.44,589.269 1656.2,589.72 1662.97,590.162 1669.73,590.596 1676.49,591.021 1683.26,591.438 
  1690.02,591.847 1696.79,592.247 1703.55,592.64 1710.32,593.026 1717.08,593.404 1723.85,593.774 1730.61,594.138 1737.38,594.494 1744.14,594.843 1750.91,595.186 
  1757.67,595.522 1764.44,595.851 1771.2,596.174 1777.96,596.49 1784.73,596.801 1791.49,597.105 1798.26,597.403 1805.02,597.696 1811.79,597.983 1818.55,598.264 
  1825.32,598.54 1832.08,598.81 1838.85,599.075 1845.61,599.335 1852.38,599.59 1859.14,599.84 1865.9,600.085 1872.67,600.325 1879.43,600.56 1886.2,600.791 
  1892.96,601.017 1899.73,601.239 1906.49,601.456 1913.26,601.669 1920.02,601.878 1926.79,602.083 1933.55,602.284 1940.32,602.481 1947.08,602.674 1953.84,602.863 
  1960.61,603.048 1967.37,603.23 1974.14,603.408 1980.9,603.583 1987.67,603.754 1994.43,603.922 2001.2,604.086 2007.96,604.248 2014.73,604.406 2021.49,604.56 
  2028.26,604.712 2035.02,604.861 2041.79,605.007 2048.55,605.15 2055.31,605.29 2062.08,605.427 2068.84,605.562 2075.61,605.693 2082.37,605.823 2089.14,605.949 
  2095.9,606.073 2102.67,606.195 2109.43,606.314 2116.2,606.431 2122.96,606.545 2129.73,606.657 2136.49,606.767 2143.25,606.875 2150.02,606.98 2156.78,607.083 
  2163.55,607.185 2170.31,607.284 2177.08,607.381 2183.84,607.476 2190.61,607.569 2197.37,607.661 2204.14,607.75 2210.9,607.837 2217.67,607.923 2224.43,608.007 
  2231.2,608.09 2237.96,608.17 2244.72,608.249 2251.49,608.326 2258.25,608.402 2265.02,608.476 2271.78,608.549 2278.55,608.62 2285.31,608.689 2292.08,608.758 
  
  "/>
<polyline clip-path="url(#clip6702)" style="stroke:#ac8d18; stroke-width:4; stroke-opacity:1; fill:none" points="
  269.449,611.356 276.214,571.761 282.979,534.393 289.743,499.231 296.508,466.239 303.272,435.368 310.037,406.56 316.802,379.748 323.566,354.863 330.331,331.834 
  337.096,310.583 343.86,291.033 350.625,273.107 357.39,256.728 364.154,241.819 370.919,228.305 377.683,216.113 384.448,205.171 391.213,195.411 397.977,186.766 
  404.742,179.171 411.507,172.564 418.271,166.887 425.036,162.082 431.801,158.094 438.565,154.873 445.33,152.367 452.095,150.531 458.859,149.32 465.624,148.69 
  472.388,148.602 479.153,149.018 485.918,149.9 492.682,151.216 499.447,152.932 506.212,155.019 512.976,157.446 519.741,160.188 526.506,163.218 533.27,166.511 
  540.035,170.047 546.8,173.802 553.564,177.757 560.329,181.892 567.093,186.191 573.858,190.637 580.623,195.213 587.387,199.905 594.152,204.7 600.917,209.585 
  607.681,214.547 614.446,219.576 621.211,224.661 627.975,229.792 634.74,234.96 641.505,240.158 648.269,245.376 655.034,250.608 661.798,255.846 668.563,261.086 
  675.328,266.32 682.092,271.543 688.857,276.751 695.622,281.938 702.386,287.102 709.151,292.236 715.916,297.34 722.68,302.408 729.445,307.437 736.21,312.427 
  742.974,317.372 749.739,322.273 756.503,327.126 763.268,331.93 770.033,336.682 776.797,341.383 783.562,346.03 790.327,350.622 797.091,355.158 803.856,359.638 
  810.621,364.06 817.385,368.425 824.15,372.732 830.914,376.979 837.679,381.168 844.444,385.297 851.208,389.368 857.973,393.378 864.738,397.33 871.502,401.222 
  878.267,405.055 885.032,408.829 891.796,412.544 898.561,416.201 905.326,419.8 912.09,423.342 918.855,426.826 925.619,430.253 932.384,433.624 939.149,436.939 
  945.913,440.199 952.678,443.405 959.443,446.556 966.207,449.653 972.972,452.698 979.737,455.69 986.501,458.63 993.266,461.52 1000.03,464.358 1006.8,467.148 
  1013.56,469.888 1020.32,472.579 1027.09,475.223 1033.85,477.819 1040.62,480.37 1047.38,482.874 1054.15,485.333 1060.91,487.748 1067.68,490.119 1074.44,492.447 
  1081.21,494.733 1087.97,496.976 1094.74,499.179 1101.5,501.341 1108.26,503.464 1115.03,505.547 1121.79,507.592 1128.56,509.599 1135.32,511.568 1142.09,513.501 
  1148.85,515.398 1155.62,517.26 1162.38,519.087 1169.15,520.88 1175.91,522.639 1182.68,524.365 1189.44,526.058 1196.21,527.72 1202.97,529.35 1209.73,530.95 
  1216.5,532.52 1223.26,534.059 1230.03,535.57 1236.79,537.052 1243.56,538.506 1250.32,539.932 1257.09,541.331 1263.85,542.704 1270.62,544.05 1277.38,545.371 
  1284.15,546.667 1290.91,547.938 1297.67,549.184 1304.44,550.407 1311.2,551.607 1317.97,552.783 1324.73,553.937 1331.5,555.069 1338.26,556.179 1345.03,557.268 
  1351.79,558.336 1358.56,559.384 1365.32,560.411 1372.09,561.419 1378.85,562.407 1385.62,563.376 1392.38,564.327 1399.14,565.259 1405.91,566.173 1412.67,567.07 
  1419.44,567.95 1426.2,568.812 1432.97,569.658 1439.73,570.488 1446.5,571.301 1453.26,572.099 1460.03,572.881 1466.79,573.649 1473.56,574.401 1480.32,575.139 
  1487.08,575.863 1493.85,576.572 1500.61,577.268 1507.38,577.951 1514.14,578.62 1520.91,579.276 1527.67,579.92 1534.44,580.551 1541.2,581.17 1547.97,581.777 
  1554.73,582.372 1561.5,582.956 1568.26,583.528 1575.03,584.089 1581.79,584.64 1588.55,585.179 1595.32,585.708 1602.08,586.227 1608.85,586.736 1615.61,587.235 
  1622.38,587.724 1629.14,588.204 1635.91,588.674 1642.67,589.136 1649.44,589.588 1656.2,590.031 1662.97,590.466 1669.73,590.893 1676.49,591.311 1683.26,591.721 
  1690.02,592.123 1696.79,592.517 1703.55,592.903 1710.32,593.282 1717.08,593.654 1723.85,594.018 1730.61,594.375 1737.38,594.725 1744.14,595.069 1750.91,595.405 
  1757.67,595.735 1764.44,596.059 1771.2,596.376 1777.96,596.688 1784.73,596.993 1791.49,597.292 1798.26,597.585 1805.02,597.872 1811.79,598.154 1818.55,598.431 
  1825.32,598.702 1832.08,598.967 1838.85,599.228 1845.61,599.483 1852.38,599.733 1859.14,599.979 1865.9,600.219 1872.67,600.455 1879.43,600.686 1886.2,600.913 
  1892.96,601.135 1899.73,601.353 1906.49,601.567 1913.26,601.776 1920.02,601.981 1926.79,602.183 1933.55,602.38 1940.32,602.573 1947.08,602.763 1953.84,602.949 
  1960.61,603.131 1967.37,603.309 1974.14,603.484 1980.9,603.656 1987.67,603.824 1994.43,603.989 2001.2,604.15 2007.96,604.308 2014.73,604.464 2021.49,604.616 
  2028.26,604.765 2035.02,604.911 2041.79,605.054 2048.55,605.194 2055.31,605.332 2062.08,605.466 2068.84,605.598 2075.61,605.728 2082.37,605.854 2089.14,605.979 
  2095.9,606.1 2102.67,606.219 2109.43,606.336 2116.2,606.451 2122.96,606.563 2129.73,606.672 2136.49,606.78 2143.25,606.885 2150.02,606.988 2156.78,607.089 
  2163.55,607.188 2170.31,607.285 2177.08,607.38 2183.84,607.472 2190.61,607.563 2197.37,607.652 2204.14,607.739 2210.9,607.824 2217.67,607.907 2224.43,607.988 
  2231.2,608.067 2237.96,608.145 2244.72,608.221 2251.49,608.295 2258.25,608.367 2265.02,608.438 2271.78,608.506 2278.55,608.573 2285.31,608.639 2292.08,608.703 
  
  "/>
<polyline clip-path="url(#clip6702)" style="stroke:#00a9ad; stroke-width:4; stroke-opacity:1; fill:none" points="
  269.449,611.356 276.214,571.701 282.979,533.969 289.743,498.22 296.508,464.485 303.272,432.772 310.037,403.064 316.802,375.331 323.566,349.526 330.331,325.597 
  337.096,303.482 343.86,283.114 350.625,264.425 357.39,247.344 364.154,231.798 370.919,217.713 377.683,205.015 384.448,193.634 391.213,183.497 397.977,174.535 
  404.742,166.682 411.507,159.872 418.271,154.042 425.036,149.132 431.801,145.085 438.565,141.844 445.33,139.358 452.095,137.577 458.859,136.452 465.624,135.938 
  472.388,135.992 479.153,136.573 485.918,137.643 492.682,139.165 499.447,141.105 506.212,143.429 512.976,146.107 519.741,149.111 526.506,152.412 533.27,155.984 
  540.035,159.805 546.8,163.85 553.564,168.099 560.329,172.532 567.093,177.129 573.858,181.873 580.623,186.747 587.387,191.737 594.152,196.827 600.917,202.004 
  607.681,207.256 614.446,212.571 621.211,217.938 627.975,223.346 634.74,228.787 641.505,234.251 648.269,239.731 655.034,245.218 661.798,250.707 668.563,256.19 
  675.328,261.661 682.092,267.115 688.857,272.548 695.622,277.954 702.386,283.329 709.151,288.669 715.916,293.971 722.68,299.232 729.445,304.448 736.21,309.617 
  742.974,314.736 749.739,319.804 756.503,324.819 763.268,329.778 770.033,334.68 776.797,339.525 783.562,344.31 790.327,349.035 797.091,353.699 803.856,358.301 
  810.621,362.841 817.385,367.318 824.15,371.732 830.914,376.083 837.679,380.369 844.444,384.593 851.208,388.752 857.973,392.849 864.738,396.881 871.502,400.851 
  878.267,404.758 885.032,408.602 891.796,412.384 898.561,416.104 905.326,419.763 912.09,423.361 918.855,426.899 925.619,430.377 932.384,433.796 939.149,437.156 
  945.913,440.459 952.678,443.704 959.443,446.893 966.207,450.026 972.972,453.103 979.737,456.127 986.501,459.096 993.266,462.012 1000.03,464.876 1006.8,467.689 
  1013.56,470.45 1020.32,473.162 1027.09,475.824 1033.85,478.437 1040.62,481.003 1047.38,483.522 1054.15,485.994 1060.91,488.42 1067.68,490.801 1074.44,493.138 
  1081.21,495.432 1087.97,497.683 1094.74,499.892 1101.5,502.059 1108.26,504.186 1115.03,506.273 1121.79,508.32 1128.56,510.329 1135.32,512.3 1142.09,514.234 
  1148.85,516.131 1155.62,517.992 1162.38,519.817 1169.15,521.608 1175.91,523.365 1182.68,525.088 1189.44,526.779 1196.21,528.437 1202.97,530.063 1209.73,531.659 
  1216.5,533.223 1223.26,534.758 1230.03,536.263 1236.79,537.74 1243.56,539.188 1250.32,540.608 1257.09,542.001 1263.85,543.367 1270.62,544.706 1277.38,546.02 
  1284.15,547.309 1290.91,548.573 1297.67,549.812 1304.44,551.027 1311.2,552.219 1317.97,553.388 1324.73,554.534 1331.5,555.658 1338.26,556.761 1345.03,557.842 
  1351.79,558.902 1358.56,559.941 1365.32,560.961 1372.09,561.96 1378.85,562.941 1385.62,563.902 1392.38,564.844 1399.14,565.769 1405.91,566.675 1412.67,567.564 
  1419.44,568.435 1426.2,569.29 1432.97,570.128 1439.73,570.95 1446.5,571.755 1453.26,572.545 1460.03,573.32 1466.79,574.08 1473.56,574.825 1480.32,575.555 
  1487.08,576.271 1493.85,576.974 1500.61,577.662 1507.38,578.337 1514.14,578.999 1520.91,579.649 1527.67,580.285 1534.44,580.909 1541.2,581.521 1547.97,582.121 
  1554.73,582.71 1561.5,583.287 1568.26,583.852 1575.03,584.407 1581.79,584.951 1588.55,585.484 1595.32,586.007 1602.08,586.52 1608.85,587.022 1615.61,587.515 
  1622.38,587.999 1629.14,588.472 1635.91,588.937 1642.67,589.392 1649.44,589.839 1656.2,590.277 1662.97,590.706 1669.73,591.127 1676.49,591.54 1683.26,591.945 
  1690.02,592.342 1696.79,592.731 1703.55,593.112 1710.32,593.486 1717.08,593.853 1723.85,594.212 1730.61,594.565 1737.38,594.911 1744.14,595.249 1750.91,595.582 
  1757.67,595.907 1764.44,596.227 1771.2,596.54 1777.96,596.847 1784.73,597.148 1791.49,597.443 1798.26,597.732 1805.02,598.016 1811.79,598.294 1818.55,598.566 
  1825.32,598.834 1832.08,599.096 1838.85,599.352 1845.61,599.604 1852.38,599.851 1859.14,600.093 1865.9,600.33 1872.67,600.563 1879.43,600.791 1886.2,601.015 
  1892.96,601.234 1899.73,601.449 1906.49,601.659 1913.26,601.866 1920.02,602.068 1926.79,602.266 1933.55,602.461 1940.32,602.651 1947.08,602.838 1953.84,603.021 
  1960.61,603.201 1967.37,603.377 1974.14,603.549 1980.9,603.719 1987.67,603.884 1994.43,604.047 2001.2,604.206 2007.96,604.362 2014.73,604.515 2021.49,604.665 
  2028.26,604.812 2035.02,604.955 2041.79,605.096 2048.55,605.235 2055.31,605.37 2062.08,605.503 2068.84,605.633 2075.61,605.76 2082.37,605.885 2089.14,606.007 
  2095.9,606.127 2102.67,606.244 2109.43,606.359 2116.2,606.472 2122.96,606.582 2129.73,606.69 2136.49,606.796 2143.25,606.899 2150.02,607.001 2156.78,607.1 
  2163.55,607.197 2170.31,607.292 2177.08,607.385 2183.84,607.475 2190.61,607.564 2197.37,607.651 2204.14,607.736 2210.9,607.819 2217.67,607.9 2224.43,607.979 
  2231.2,608.056 2237.96,608.132 2244.72,608.205 2251.49,608.277 2258.25,608.346 2265.02,608.414 2271.78,608.48 2278.55,608.544 2285.31,608.607 2292.08,608.667 
  
  "/>
<path clip-path="url(#clip6700)" d="
M1738.43 628.555 L2280.76 628.555 L2280.76 205.195 L1738.43 205.195  Z
  " fill="#ffffff" fill-rule="evenodd" fill-opacity="1"/>
<polyline clip-path="url(#clip6700)" style="stroke:#000000; stroke-width:4; stroke-opacity:0; fill:none" points="
  1738.43,628.555 2280.76,628.555 2280.76,205.195 1738.43,205.195 1738.43,628.555 
  "/>
<polyline clip-path="url(#clip6700)" style="stroke:#009af9; stroke-width:4; stroke-opacity:1; fill:none" points="
  1762.43,265.675 1906.43,265.675 
  "/>
<g clip-path="url(#clip6700)">
<text style="fill:#000000; fill-opacity:1; font-family:Arial,Helvetica Neue,Helvetica,sans-serif; font-size:48px; text-anchor:start;" transform="rotate(0, 1930.43, 283.175)" x="1930.43" y="283.175">z(1) = -75.0%</text>
</g>
<polyline clip-path="url(#clip6700)" style="stroke:#e26f46; stroke-width:4; stroke-opacity:1; fill:none" points="
  1762.43,326.155 1906.43,326.155 
  "/>
<g clip-path="url(#clip6700)">
<text style="fill:#000000; fill-opacity:1; font-family:Arial,Helvetica Neue,Helvetica,sans-serif; font-size:48px; text-anchor:start;" transform="rotate(0, 1930.43, 343.655)" x="1930.43" y="343.655">z(1) = -50.0%</text>
</g>
<polyline clip-path="url(#clip6700)" style="stroke:#3da44d; stroke-width:4; stroke-opacity:1; fill:none" points="
  1762.43,386.635 1906.43,386.635 
  "/>
<g clip-path="url(#clip6700)">
<text style="fill:#000000; fill-opacity:1; font-family:Arial,Helvetica Neue,Helvetica,sans-serif; font-size:48px; text-anchor:start;" transform="rotate(0, 1930.43, 404.135)" x="1930.43" y="404.135">z(1) = -25.0%</text>
</g>
<polyline clip-path="url(#clip6700)" style="stroke:#c271d2; stroke-width:4; stroke-opacity:1; fill:none" points="
  1762.43,447.115 1906.43,447.115 
  "/>
<g clip-path="url(#clip6700)">
<text style="fill:#000000; fill-opacity:1; font-family:Arial,Helvetica Neue,Helvetica,sans-serif; font-size:48px; text-anchor:start;" transform="rotate(0, 1930.43, 464.615)" x="1930.43" y="464.615">z(1) = 25.0%</text>
</g>
<polyline clip-path="url(#clip6700)" style="stroke:#ac8d18; stroke-width:4; stroke-opacity:1; fill:none" points="
  1762.43,507.595 1906.43,507.595 
  "/>
<g clip-path="url(#clip6700)">
<text style="fill:#000000; fill-opacity:1; font-family:Arial,Helvetica Neue,Helvetica,sans-serif; font-size:48px; text-anchor:start;" transform="rotate(0, 1930.43, 525.095)" x="1930.43" y="525.095">z(1) = 50.0%</text>
</g>
<polyline clip-path="url(#clip6700)" style="stroke:#00a9ad; stroke-width:4; stroke-opacity:1; fill:none" points="
  1762.43,568.075 1906.43,568.075 
  "/>
<g clip-path="url(#clip6700)">
<text style="fill:#000000; fill-opacity:1; font-family:Arial,Helvetica Neue,Helvetica,sans-serif; font-size:48px; text-anchor:start;" transform="rotate(0, 1930.43, 585.575)" x="1930.43" y="585.575">z(1) = 75.0%</text>
</g>
<path clip-path="url(#clip6700)" d="
M208.77 1425.62 L2352.76 1425.62 L2352.76 921.675 L208.77 921.675  Z
  " fill="#ffffff" fill-rule="evenodd" fill-opacity="1"/>
<defs>
  <clipPath id="clip6703">
    <rect x="208" y="921" width="2145" height="505"/>
  </clipPath>
</defs>
<polyline clip-path="url(#clip6703)" style="stroke:#000000; stroke-width:2; stroke-opacity:0.1; fill:none" points="
  262.685,1425.62 262.685,921.675 
  "/>
<polyline clip-path="url(#clip6703)" style="stroke:#000000; stroke-width:2; stroke-opacity:0.1; fill:none" points="
  939.149,1425.62 939.149,921.675 
  "/>
<polyline clip-path="url(#clip6703)" style="stroke:#000000; stroke-width:2; stroke-opacity:0.1; fill:none" points="
  1615.61,1425.62 1615.61,921.675 
  "/>
<polyline clip-path="url(#clip6703)" style="stroke:#000000; stroke-width:2; stroke-opacity:0.1; fill:none" points="
  2292.08,1425.62 2292.08,921.675 
  "/>
<polyline clip-path="url(#clip6703)" style="stroke:#000000; stroke-width:2; stroke-opacity:0.1; fill:none" points="
  208.77,1386.35 2352.76,1386.35 
  "/>
<polyline clip-path="url(#clip6703)" style="stroke:#000000; stroke-width:2; stroke-opacity:0.1; fill:none" points="
  208.77,1319.81 2352.76,1319.81 
  "/>
<polyline clip-path="url(#clip6703)" style="stroke:#000000; stroke-width:2; stroke-opacity:0.1; fill:none" points="
  208.77,1253.27 2352.76,1253.27 
  "/>
<polyline clip-path="url(#clip6703)" style="stroke:#000000; stroke-width:2; stroke-opacity:0.1; fill:none" points="
  208.77,1186.72 2352.76,1186.72 
  "/>
<polyline clip-path="url(#clip6703)" style="stroke:#000000; stroke-width:2; stroke-opacity:0.1; fill:none" points="
  208.77,1120.18 2352.76,1120.18 
  "/>
<polyline clip-path="url(#clip6703)" style="stroke:#000000; stroke-width:2; stroke-opacity:0.1; fill:none" points="
  208.77,1053.64 2352.76,1053.64 
  "/>
<polyline clip-path="url(#clip6703)" style="stroke:#000000; stroke-width:2; stroke-opacity:0.1; fill:none" points="
  208.77,987.1 2352.76,987.1 
  "/>
<polyline clip-path="url(#clip6700)" style="stroke:#000000; stroke-width:4; stroke-opacity:1; fill:none" points="
  208.77,1425.62 2352.76,1425.62 
  "/>
<polyline clip-path="url(#clip6700)" style="stroke:#000000; stroke-width:4; stroke-opacity:1; fill:none" points="
  208.77,1425.62 208.77,921.675 
  "/>
<polyline clip-path="url(#clip6700)" style="stroke:#000000; stroke-width:4; stroke-opacity:1; fill:none" points="
  262.685,1425.62 262.685,1419.57 
  "/>
<polyline clip-path="url(#clip6700)" style="stroke:#000000; stroke-width:4; stroke-opacity:1; fill:none" points="
  939.149,1425.62 939.149,1419.57 
  "/>
<polyline clip-path="url(#clip6700)" style="stroke:#000000; stroke-width:4; stroke-opacity:1; fill:none" points="
  1615.61,1425.62 1615.61,1419.57 
  "/>
<polyline clip-path="url(#clip6700)" style="stroke:#000000; stroke-width:4; stroke-opacity:1; fill:none" points="
  2292.08,1425.62 2292.08,1419.57 
  "/>
<polyline clip-path="url(#clip6700)" style="stroke:#000000; stroke-width:4; stroke-opacity:1; fill:none" points="
  208.77,1386.35 234.498,1386.35 
  "/>
<polyline clip-path="url(#clip6700)" style="stroke:#000000; stroke-width:4; stroke-opacity:1; fill:none" points="
  208.77,1319.81 234.498,1319.81 
  "/>
<polyline clip-path="url(#clip6700)" style="stroke:#000000; stroke-width:4; stroke-opacity:1; fill:none" points="
  208.77,1253.27 234.498,1253.27 
  "/>
<polyline clip-path="url(#clip6700)" style="stroke:#000000; stroke-width:4; stroke-opacity:1; fill:none" points="
  208.77,1186.72 234.498,1186.72 
  "/>
<polyline clip-path="url(#clip6700)" style="stroke:#000000; stroke-width:4; stroke-opacity:1; fill:none" points="
  208.77,1120.18 234.498,1120.18 
  "/>
<polyline clip-path="url(#clip6700)" style="stroke:#000000; stroke-width:4; stroke-opacity:1; fill:none" points="
  208.77,1053.64 234.498,1053.64 
  "/>
<polyline clip-path="url(#clip6700)" style="stroke:#000000; stroke-width:4; stroke-opacity:1; fill:none" points="
  208.77,987.1 234.498,987.1 
  "/>
<g clip-path="url(#clip6700)">
<text style="fill:#000000; fill-opacity:1; font-family:Arial,Helvetica Neue,Helvetica,sans-serif; font-size:48px; text-anchor:middle;" transform="rotate(0, 262.685, 1479.62)" x="262.685" y="1479.62">0</text>
</g>
<g clip-path="url(#clip6700)">
<text style="fill:#000000; fill-opacity:1; font-family:Arial,Helvetica Neue,Helvetica,sans-serif; font-size:48px; text-anchor:middle;" transform="rotate(0, 939.149, 1479.62)" x="939.149" y="1479.62">100</text>
</g>
<g clip-path="url(#clip6700)">
<text style="fill:#000000; fill-opacity:1; font-family:Arial,Helvetica Neue,Helvetica,sans-serif; font-size:48px; text-anchor:middle;" transform="rotate(0, 1615.61, 1479.62)" x="1615.61" y="1479.62">200</text>
</g>
<g clip-path="url(#clip6700)">
<text style="fill:#000000; fill-opacity:1; font-family:Arial,Helvetica Neue,Helvetica,sans-serif; font-size:48px; text-anchor:middle;" transform="rotate(0, 2292.08, 1479.62)" x="2292.08" y="1479.62">300</text>
</g>
<g clip-path="url(#clip6700)">
<text style="fill:#000000; fill-opacity:1; font-family:Arial,Helvetica Neue,Helvetica,sans-serif; font-size:48px; text-anchor:end;" transform="rotate(0, 184.77, 1403.85)" x="184.77" y="1403.85">-0.75</text>
</g>
<g clip-path="url(#clip6700)">
<text style="fill:#000000; fill-opacity:1; font-family:Arial,Helvetica Neue,Helvetica,sans-serif; font-size:48px; text-anchor:end;" transform="rotate(0, 184.77, 1337.31)" x="184.77" y="1337.31">-0.50</text>
</g>
<g clip-path="url(#clip6700)">
<text style="fill:#000000; fill-opacity:1; font-family:Arial,Helvetica Neue,Helvetica,sans-serif; font-size:48px; text-anchor:end;" transform="rotate(0, 184.77, 1270.77)" x="184.77" y="1270.77">-0.25</text>
</g>
<g clip-path="url(#clip6700)">
<text style="fill:#000000; fill-opacity:1; font-family:Arial,Helvetica Neue,Helvetica,sans-serif; font-size:48px; text-anchor:end;" transform="rotate(0, 184.77, 1204.22)" x="184.77" y="1204.22">0.00</text>
</g>
<g clip-path="url(#clip6700)">
<text style="fill:#000000; fill-opacity:1; font-family:Arial,Helvetica Neue,Helvetica,sans-serif; font-size:48px; text-anchor:end;" transform="rotate(0, 184.77, 1137.68)" x="184.77" y="1137.68">0.25</text>
</g>
<g clip-path="url(#clip6700)">
<text style="fill:#000000; fill-opacity:1; font-family:Arial,Helvetica Neue,Helvetica,sans-serif; font-size:48px; text-anchor:end;" transform="rotate(0, 184.77, 1071.14)" x="184.77" y="1071.14">0.50</text>
</g>
<g clip-path="url(#clip6700)">
<text style="fill:#000000; fill-opacity:1; font-family:Arial,Helvetica Neue,Helvetica,sans-serif; font-size:48px; text-anchor:end;" transform="rotate(0, 184.77, 1004.6)" x="184.77" y="1004.6">0.75</text>
</g>
<g clip-path="url(#clip6700)">
<text style="fill:#000000; fill-opacity:1; font-family:Arial,Helvetica Neue,Helvetica,sans-serif; font-size:84px; text-anchor:middle;" transform="rotate(0, 1280.76, 873.2)" x="1280.76" y="873.2">Impact of shock&apos;s sign on scaled IRF: sign(x - x_ss)*x</text>
</g>
<g clip-path="url(#clip6700)">
<text style="fill:#000000; fill-opacity:1; font-family:Arial,Helvetica Neue,Helvetica,sans-serif; font-size:66px; text-anchor:middle;" transform="rotate(0, 1280.76, 1559.48)" x="1280.76" y="1559.48">t</text>
</g>
<polyline clip-path="url(#clip6703)" style="stroke:#009af9; stroke-width:4; stroke-opacity:1; fill:none" points="
  269.449,1186.72 276.214,1205.9 282.979,1223.72 289.743,1240.25 296.508,1255.56 303.272,1269.72 310.037,1282.79 316.802,1294.85 323.566,1305.95 330.331,1316.16 
  337.096,1325.52 343.86,1334.11 350.625,1341.97 357.39,1349.14 364.154,1355.68 370.919,1361.63 377.683,1367.03 384.448,1371.91 391.213,1376.32 397.977,1380.28 
  404.742,1383.83 411.507,1386.99 418.271,1389.8 425.036,1392.27 431.801,1394.43 438.565,1396.29 445.33,1397.89 452.095,1399.23 458.859,1400.33 465.624,1401.22 
  472.388,1401.89 479.153,1402.37 485.918,1402.67 492.682,1402.8 499.447,1402.77 506.212,1402.59 512.976,1402.26 519.741,1401.81 526.506,1401.23 533.27,1400.53 
  540.035,1399.73 546.8,1398.82 553.564,1397.81 560.329,1396.72 567.093,1395.54 573.858,1394.28 580.623,1392.94 587.387,1391.54 594.152,1390.07 600.917,1388.54 
  607.681,1386.95 614.446,1385.31 621.211,1383.62 627.975,1381.89 634.74,1380.11 641.505,1378.3 648.269,1376.44 655.034,1374.56 661.798,1372.65 668.563,1370.7 
  675.328,1368.74 682.092,1366.75 688.857,1364.74 695.622,1362.72 702.386,1360.68 709.151,1358.63 715.916,1356.56 722.68,1354.49 729.445,1352.41 736.21,1350.32 
  742.974,1348.23 749.739,1346.14 756.503,1344.05 763.268,1341.96 770.033,1339.87 776.797,1337.78 783.562,1335.7 790.327,1333.63 797.091,1331.56 803.856,1329.5 
  810.621,1327.45 817.385,1325.41 824.15,1323.38 830.914,1321.36 837.679,1319.36 844.444,1317.37 851.208,1315.39 857.973,1313.43 864.738,1311.48 871.502,1309.55 
  878.267,1307.64 885.032,1305.74 891.796,1303.87 898.561,1302 905.326,1300.16 912.09,1298.34 918.855,1296.53 925.619,1294.75 932.384,1292.98 939.149,1291.24 
  945.913,1289.51 952.678,1287.81 959.443,1286.12 966.207,1284.46 972.972,1282.81 979.737,1281.19 986.501,1279.59 993.266,1278 1000.03,1276.44 1006.8,1274.9 
  1013.56,1273.38 1020.32,1271.88 1027.09,1270.4 1033.85,1268.95 1040.62,1267.51 1047.38,1266.09 1054.15,1264.7 1060.91,1263.32 1067.68,1261.96 1074.44,1260.63 
  1081.21,1259.31 1087.97,1258.02 1094.74,1256.74 1101.5,1255.48 1108.26,1254.25 1115.03,1253.03 1121.79,1251.83 1128.56,1250.65 1135.32,1249.49 1142.09,1248.34 
  1148.85,1247.22 1155.62,1246.11 1162.38,1245.02 1169.15,1243.95 1175.91,1242.9 1182.68,1241.86 1189.44,1240.84 1196.21,1239.84 1202.97,1238.85 1209.73,1237.88 
  1216.5,1236.93 1223.26,1235.99 1230.03,1235.07 1236.79,1234.16 1243.56,1233.27 1250.32,1232.4 1257.09,1231.54 1263.85,1230.69 1270.62,1229.86 1277.38,1229.05 
  1284.15,1228.24 1290.91,1227.46 1297.67,1226.68 1304.44,1225.92 1311.2,1225.17 1317.97,1224.44 1324.73,1223.72 1331.5,1223.01 1338.26,1222.31 1345.03,1221.63 
  1351.79,1220.96 1358.56,1220.3 1365.32,1219.65 1372.09,1219.02 1378.85,1218.39 1385.62,1217.78 1392.38,1217.18 1399.14,1216.58 1405.91,1216 1412.67,1215.43 
  1419.44,1214.87 1426.2,1214.32 1432.97,1213.78 1439.73,1213.25 1446.5,1212.73 1453.26,1212.22 1460.03,1211.72 1466.79,1211.23 1473.56,1210.75 1480.32,1210.27 
  1487.08,1209.81 1493.85,1209.35 1500.61,1208.9 1507.38,1208.46 1514.14,1208.03 1520.91,1207.61 1527.67,1207.19 1534.44,1206.78 1541.2,1206.38 1547.97,1205.99 
  1554.73,1205.6 1561.5,1205.22 1568.26,1204.85 1575.03,1204.49 1581.79,1204.13 1588.55,1203.78 1595.32,1203.44 1602.08,1203.1 1608.85,1202.77 1615.61,1202.44 
  1622.38,1202.12 1629.14,1201.81 1635.91,1201.5 1642.67,1201.2 1649.44,1200.9 1656.2,1200.61 1662.97,1200.33 1669.73,1200.05 1676.49,1199.77 1683.26,1199.51 
  1690.02,1199.24 1696.79,1198.98 1703.55,1198.73 1710.32,1198.48 1717.08,1198.24 1723.85,1198 1730.61,1197.76 1737.38,1197.53 1744.14,1197.31 1750.91,1197.08 
  1757.67,1196.87 1764.44,1196.65 1771.2,1196.44 1777.96,1196.24 1784.73,1196.04 1791.49,1195.84 1798.26,1195.65 1805.02,1195.46 1811.79,1195.27 1818.55,1195.09 
  1825.32,1194.91 1832.08,1194.73 1838.85,1194.56 1845.61,1194.39 1852.38,1194.22 1859.14,1194.06 1865.9,1193.9 1872.67,1193.75 1879.43,1193.59 1886.2,1193.44 
  1892.96,1193.29 1899.73,1193.15 1906.49,1193.01 1913.26,1192.87 1920.02,1192.73 1926.79,1192.6 1933.55,1192.47 1940.32,1192.34 1947.08,1192.21 1953.84,1192.09 
  1960.61,1191.97 1967.37,1191.85 1974.14,1191.73 1980.9,1191.62 1987.67,1191.51 1994.43,1191.4 2001.2,1191.29 2007.96,1191.18 2014.73,1191.08 2021.49,1190.98 
  2028.26,1190.88 2035.02,1190.78 2041.79,1190.69 2048.55,1190.59 2055.31,1190.5 2062.08,1190.41 2068.84,1190.32 2075.61,1190.23 2082.37,1190.15 2089.14,1190.06 
  2095.9,1189.98 2102.67,1189.9 2109.43,1189.82 2116.2,1189.75 2122.96,1189.67 2129.73,1189.59 2136.49,1189.52 2143.25,1189.45 2150.02,1189.38 2156.78,1189.31 
  2163.55,1189.24 2170.31,1189.17 2177.08,1189.11 2183.84,1189.04 2190.61,1188.98 2197.37,1188.91 2204.14,1188.85 2210.9,1188.79 2217.67,1188.73 2224.43,1188.67 
  2231.2,1188.61 2237.96,1188.55 2244.72,1188.5 2251.49,1188.44 2258.25,1188.38 2265.02,1188.33 2271.78,1188.27 2278.55,1188.21 2285.31,1188.16 2292.08,1188.1 
  
  "/>
<polyline clip-path="url(#clip6703)" style="stroke:#e26f46; stroke-width:4; stroke-opacity:1; fill:none" points="
  269.449,1186.72 276.214,1206.79 282.979,1225.35 289.743,1242.49 296.508,1258.31 303.272,1272.9 310.037,1286.34 316.802,1298.7 323.566,1310.07 330.331,1320.5 
  337.096,1330.06 343.86,1338.81 350.625,1346.81 357.39,1354.1 364.154,1360.73 370.919,1366.75 377.683,1372.2 384.448,1377.12 391.213,1381.53 397.977,1385.48 
  404.742,1389 411.507,1392.1 418.271,1394.83 425.036,1397.21 431.801,1399.25 438.565,1400.98 445.33,1402.42 452.095,1403.59 458.859,1404.5 465.624,1405.18 
  472.388,1405.63 479.153,1405.88 485.918,1405.93 492.682,1405.8 499.447,1405.49 506.212,1405.03 512.976,1404.42 519.741,1403.67 526.506,1402.8 533.27,1401.8 
  540.035,1400.68 546.8,1399.47 553.564,1398.15 560.329,1396.75 567.093,1395.26 573.858,1393.69 580.623,1392.05 587.387,1390.35 594.152,1388.58 600.917,1386.76 
  607.681,1384.88 614.446,1382.96 621.211,1381 627.975,1379 634.74,1376.96 641.505,1374.9 648.269,1372.8 655.034,1370.68 661.798,1368.54 668.563,1366.38 
  675.328,1364.21 682.092,1362.02 688.857,1359.82 695.622,1357.61 702.386,1355.4 709.151,1353.18 715.916,1350.97 722.68,1348.75 729.445,1346.53 736.21,1344.31 
  742.974,1342.11 749.739,1339.9 756.503,1337.71 763.268,1335.52 770.033,1333.35 776.797,1331.18 783.562,1329.03 790.327,1326.89 797.091,1324.76 803.856,1322.65 
  810.621,1320.56 817.385,1318.48 824.15,1316.42 830.914,1314.38 837.679,1312.36 844.444,1310.35 851.208,1308.37 857.973,1306.4 864.738,1304.46 871.502,1302.54 
  878.267,1300.63 885.032,1298.75 891.796,1296.89 898.561,1295.05 905.326,1293.24 912.09,1291.44 918.855,1289.67 925.619,1287.92 932.384,1286.2 939.149,1284.49 
  945.913,1282.81 952.678,1281.15 959.443,1279.52 966.207,1277.9 972.972,1276.31 979.737,1274.74 986.501,1273.19 993.266,1271.67 1000.03,1270.17 1006.8,1268.69 
  1013.56,1267.23 1020.32,1265.79 1027.09,1264.38 1033.85,1262.98 1040.62,1261.61 1047.38,1260.26 1054.15,1258.93 1060.91,1257.62 1067.68,1256.34 1074.44,1255.07 
  1081.21,1253.82 1087.97,1252.59 1094.74,1251.39 1101.5,1250.2 1108.26,1249.03 1115.03,1247.88 1121.79,1246.75 1128.56,1245.64 1135.32,1244.54 1142.09,1243.47 
  1148.85,1242.41 1155.62,1241.37 1162.38,1240.35 1169.15,1239.35 1175.91,1238.36 1182.68,1237.39 1189.44,1236.44 1196.21,1235.5 1202.97,1234.58 1209.73,1233.68 
  1216.5,1232.79 1223.26,1231.92 1230.03,1231.06 1236.79,1230.21 1243.56,1229.39 1250.32,1228.57 1257.09,1227.77 1263.85,1226.99 1270.62,1226.22 1277.38,1225.46 
  1284.15,1224.72 1290.91,1223.99 1297.67,1223.27 1304.44,1222.57 1311.2,1221.88 1317.97,1221.2 1324.73,1220.53 1331.5,1219.88 1338.26,1219.23 1345.03,1218.6 
  1351.79,1217.98 1358.56,1217.38 1365.32,1216.78 1372.09,1216.19 1378.85,1215.62 1385.62,1215.05 1392.38,1214.5 1399.14,1213.95 1405.91,1213.42 1412.67,1212.9 
  1419.44,1212.38 1426.2,1211.88 1432.97,1211.38 1439.73,1210.9 1446.5,1210.42 1453.26,1209.95 1460.03,1209.49 1466.79,1209.04 1473.56,1208.6 1480.32,1208.16 
  1487.08,1207.74 1493.85,1207.32 1500.61,1206.91 1507.38,1206.51 1514.14,1206.11 1520.91,1205.72 1527.67,1205.34 1534.44,1204.97 1541.2,1204.6 1547.97,1204.24 
  1554.73,1203.89 1561.5,1203.55 1568.26,1203.21 1575.03,1202.87 1581.79,1202.55 1588.55,1202.23 1595.32,1201.91 1602.08,1201.6 1608.85,1201.3 1615.61,1201.01 
  1622.38,1200.72 1629.14,1200.43 1635.91,1200.15 1642.67,1199.88 1649.44,1199.61 1656.2,1199.34 1662.97,1199.08 1669.73,1198.83 1676.49,1198.58 1683.26,1198.33 
  1690.02,1198.09 1696.79,1197.86 1703.55,1197.63 1710.32,1197.4 1717.08,1197.18 1723.85,1196.96 1730.61,1196.75 1737.38,1196.54 1744.14,1196.33 1750.91,1196.13 
  1757.67,1195.94 1764.44,1195.74 1771.2,1195.55 1777.96,1195.37 1784.73,1195.18 1791.49,1195 1798.26,1194.83 1805.02,1194.66 1811.79,1194.49 1818.55,1194.32 
  1825.32,1194.16 1832.08,1194 1838.85,1193.84 1845.61,1193.69 1852.38,1193.54 1859.14,1193.39 1865.9,1193.25 1872.67,1193.11 1879.43,1192.97 1886.2,1192.83 
  1892.96,1192.7 1899.73,1192.57 1906.49,1192.44 1913.26,1192.31 1920.02,1192.19 1926.79,1192.07 1933.55,1191.95 1940.32,1191.83 1947.08,1191.72 1953.84,1191.61 
  1960.61,1191.5 1967.37,1191.39 1974.14,1191.29 1980.9,1191.18 1987.67,1191.08 1994.43,1190.98 2001.2,1190.88 2007.96,1190.79 2014.73,1190.7 2021.49,1190.6 
  2028.26,1190.51 2035.02,1190.43 2041.79,1190.34 2048.55,1190.25 2055.31,1190.17 2062.08,1190.09 2068.84,1190.01 2075.61,1189.93 2082.37,1189.85 2089.14,1189.78 
  2095.9,1189.71 2102.67,1189.63 2109.43,1189.56 2116.2,1189.49 2122.96,1189.42 2129.73,1189.36 2136.49,1189.29 2143.25,1189.23 2150.02,1189.16 2156.78,1189.1 
  2163.55,1189.04 2170.31,1188.98 2177.08,1188.92 2183.84,1188.86 2190.61,1188.81 2197.37,1188.75 2204.14,1188.69 2210.9,1188.64 2217.67,1188.59 2224.43,1188.53 
  2231.2,1188.48 2237.96,1188.43 2244.72,1188.38 2251.49,1188.33 2258.25,1188.28 2265.02,1188.23 2271.78,1188.18 2278.55,1188.14 2285.31,1188.09 2292.08,1188.04 
  
  "/>
<polyline clip-path="url(#clip6703)" style="stroke:#3da44d; stroke-width:4; stroke-opacity:1; fill:none" points="
  269.449,1186.72 276.214,1207.21 282.979,1226.18 289.743,1243.74 296.508,1259.97 303.272,1274.97 310.037,1288.82 316.802,1301.58 323.566,1313.33 330.331,1324.13 
  337.096,1334.04 343.86,1343.12 350.625,1351.42 357.39,1358.99 364.154,1365.88 370.919,1372.13 377.683,1377.78 384.448,1382.86 391.213,1387.42 397.977,1391.48 
  404.742,1395.09 411.507,1398.25 418.271,1401.01 425.036,1403.4 431.801,1405.42 438.565,1407.11 445.33,1408.49 452.095,1409.58 458.859,1410.39 465.624,1410.94 
  472.388,1411.26 479.153,1411.36 485.918,1411.24 492.682,1410.93 499.447,1410.44 506.212,1409.78 512.976,1408.97 519.741,1408.01 526.506,1406.91 533.27,1405.69 
  540.035,1404.35 546.8,1402.9 553.564,1401.35 560.329,1399.72 567.093,1398 573.858,1396.2 580.623,1394.33 587.387,1392.39 594.152,1390.4 600.917,1388.36 
  607.681,1386.26 614.446,1384.13 621.211,1381.95 627.975,1379.75 634.74,1377.51 641.505,1375.24 648.269,1372.96 655.034,1370.65 661.798,1368.33 668.563,1366 
  675.328,1363.66 682.092,1361.31 688.857,1358.96 695.622,1356.6 702.386,1354.25 709.151,1351.9 715.916,1349.55 722.68,1347.2 729.445,1344.87 736.21,1342.54 
  742.974,1340.23 749.739,1337.92 756.503,1335.63 763.268,1333.36 770.033,1331.1 776.797,1328.85 783.562,1326.63 790.327,1324.42 797.091,1322.23 803.856,1320.06 
  810.621,1317.91 817.385,1315.79 824.15,1313.68 830.914,1311.6 837.679,1309.53 844.444,1307.49 851.208,1305.48 857.973,1303.49 864.738,1301.52 871.502,1299.57 
  878.267,1297.65 885.032,1295.76 891.796,1293.89 898.561,1292.04 905.326,1290.22 912.09,1288.42 918.855,1286.65 925.619,1284.9 932.384,1283.18 939.149,1281.48 
  945.913,1279.8 952.678,1278.15 959.443,1276.52 966.207,1274.92 972.972,1273.34 979.737,1271.79 986.501,1270.26 993.266,1268.75 1000.03,1267.27 1006.8,1265.81 
  1013.56,1264.37 1020.32,1262.96 1027.09,1261.57 1033.85,1260.2 1040.62,1258.85 1047.38,1257.52 1054.15,1256.22 1060.91,1254.94 1067.68,1253.68 1074.44,1252.44 
  1081.21,1251.22 1087.97,1250.02 1094.74,1248.84 1101.5,1247.68 1108.26,1246.54 1115.03,1245.42 1121.79,1244.32 1128.56,1243.24 1135.32,1242.18 1142.09,1241.13 
  1148.85,1240.11 1155.62,1239.1 1162.38,1238.11 1169.15,1237.13 1175.91,1236.18 1182.68,1235.24 1189.44,1234.32 1196.21,1233.41 1202.97,1232.52 1209.73,1231.65 
  1216.5,1230.79 1223.26,1229.94 1230.03,1229.12 1236.79,1228.3 1243.56,1227.5 1250.32,1226.72 1257.09,1225.95 1263.85,1225.2 1270.62,1224.45 1277.38,1223.72 
  1284.15,1223.01 1290.91,1222.31 1297.67,1221.62 1304.44,1220.94 1311.2,1220.28 1317.97,1219.63 1324.73,1218.99 1331.5,1218.36 1338.26,1217.74 1345.03,1217.14 
  1351.79,1216.54 1358.56,1215.96 1365.32,1215.39 1372.09,1214.83 1378.85,1214.28 1385.62,1213.73 1392.38,1213.2 1399.14,1212.68 1405.91,1212.17 1412.67,1211.67 
  1419.44,1211.18 1426.2,1210.7 1432.97,1210.22 1439.73,1209.76 1446.5,1209.3 1453.26,1208.86 1460.03,1208.42 1466.79,1207.99 1473.56,1207.56 1480.32,1207.15 
  1487.08,1206.74 1493.85,1206.34 1500.61,1205.95 1507.38,1205.57 1514.14,1205.19 1520.91,1204.82 1527.67,1204.46 1534.44,1204.1 1541.2,1203.75 1547.97,1203.41 
  1554.73,1203.08 1561.5,1202.75 1568.26,1202.42 1575.03,1202.11 1581.79,1201.8 1588.55,1201.49 1595.32,1201.19 1602.08,1200.9 1608.85,1200.61 1615.61,1200.33 
  1622.38,1200.05 1629.14,1199.78 1635.91,1199.52 1642.67,1199.25 1649.44,1199 1656.2,1198.75 1662.97,1198.5 1669.73,1198.26 1676.49,1198.02 1683.26,1197.79 
  1690.02,1197.56 1696.79,1197.34 1703.55,1197.12 1710.32,1196.9 1717.08,1196.69 1723.85,1196.49 1730.61,1196.28 1737.38,1196.09 1744.14,1195.89 1750.91,1195.7 
  1757.67,1195.51 1764.44,1195.33 1771.2,1195.15 1777.96,1194.97 1784.73,1194.8 1791.49,1194.63 1798.26,1194.46 1805.02,1194.3 1811.79,1194.14 1818.55,1193.98 
  1825.32,1193.83 1832.08,1193.67 1838.85,1193.53 1845.61,1193.38 1852.38,1193.24 1859.14,1193.1 1865.9,1192.96 1872.67,1192.83 1879.43,1192.7 1886.2,1192.57 
  1892.96,1192.44 1899.73,1192.32 1906.49,1192.19 1913.26,1192.08 1920.02,1191.96 1926.79,1191.84 1933.55,1191.73 1940.32,1191.62 1947.08,1191.51 1953.84,1191.41 
  1960.61,1191.3 1967.37,1191.2 1974.14,1191.1 1980.9,1191 1987.67,1190.91 1994.43,1190.81 2001.2,1190.72 2007.96,1190.63 2014.73,1190.54 2021.49,1190.46 
  2028.26,1190.37 2035.02,1190.29 2041.79,1190.21 2048.55,1190.13 2055.31,1190.05 2062.08,1189.97 2068.84,1189.9 2075.61,1189.82 2082.37,1189.75 2089.14,1189.68 
  2095.9,1189.61 2102.67,1189.54 2109.43,1189.47 2116.2,1189.41 2122.96,1189.34 2129.73,1189.28 2136.49,1189.22 2143.25,1189.16 2150.02,1189.1 2156.78,1189.04 
  2163.55,1188.98 2170.31,1188.92 2177.08,1188.87 2183.84,1188.82 2190.61,1188.76 2197.37,1188.71 2204.14,1188.66 2210.9,1188.61 2217.67,1188.56 2224.43,1188.51 
  2231.2,1188.46 2237.96,1188.42 2244.72,1188.37 2251.49,1188.32 2258.25,1188.28 2265.02,1188.24 2271.78,1188.19 2278.55,1188.15 2285.31,1188.11 2292.08,1188.06 
  
  "/>
<polyline clip-path="url(#clip6703)" style="stroke:#c271d2; stroke-width:4; stroke-opacity:1; fill:none" points="
  269.449,1186.72 276.214,1165.9 282.979,1146.4 289.743,1128.16 296.508,1111.14 303.272,1095.29 310.037,1080.56 316.802,1066.9 323.566,1054.25 330.331,1042.57 
  337.096,1031.81 343.86,1021.93 350.625,1012.87 357.39,1004.6 364.154,997.072 370.919,990.248 377.683,984.087 384.448,978.552 391.213,973.608 397.977,969.22 
  404.742,965.356 411.507,961.983 418.271,959.073 425.036,956.597 431.801,954.527 438.565,952.838 445.33,951.506 452.095,950.508 458.859,949.82 465.624,949.424 
  472.388,949.298 479.153,949.424 485.918,949.785 492.682,950.363 499.447,951.143 506.212,952.11 512.976,953.249 519.741,954.548 526.506,955.994 533.27,957.575 
  540.035,959.279 546.8,961.097 553.564,963.018 560.329,965.033 567.093,967.133 573.858,969.311 580.623,971.558 587.387,973.866 594.152,976.23 600.917,978.643 
  607.681,981.099 614.446,983.592 621.211,986.117 627.975,988.669 634.74,991.244 641.505,993.837 648.269,996.444 655.034,999.062 661.798,1001.69 668.563,1004.32 
  675.328,1006.94 682.092,1009.57 688.857,1012.2 695.622,1014.81 702.386,1017.42 709.151,1020.01 715.916,1022.6 722.68,1025.16 729.445,1027.72 736.21,1030.25 
  742.974,1032.76 749.739,1035.26 756.503,1037.73 763.268,1040.18 770.033,1042.61 776.797,1045.01 783.562,1047.38 790.327,1049.74 797.091,1052.06 803.856,1054.36 
  810.621,1056.63 817.385,1058.87 824.15,1061.09 830.914,1063.27 837.679,1065.43 844.444,1067.56 851.208,1069.66 857.973,1071.73 864.738,1073.78 871.502,1075.79 
  878.267,1077.77 885.032,1079.73 891.796,1081.66 898.561,1083.55 905.326,1085.42 912.09,1087.26 918.855,1089.07 925.619,1090.86 932.384,1092.61 939.149,1094.34 
  945.913,1096.04 952.678,1097.71 959.443,1099.36 966.207,1100.97 972.972,1102.56 979.737,1104.13 986.501,1105.67 993.266,1107.18 1000.03,1108.67 1006.8,1110.13 
  1013.56,1111.57 1020.32,1112.98 1027.09,1114.37 1033.85,1115.73 1040.62,1117.07 1047.38,1118.39 1054.15,1119.68 1060.91,1120.95 1067.68,1122.2 1074.44,1123.43 
  1081.21,1124.63 1087.97,1125.81 1094.74,1126.97 1101.5,1128.12 1108.26,1129.24 1115.03,1130.34 1121.79,1131.42 1128.56,1132.48 1135.32,1133.52 1142.09,1134.54 
  1148.85,1135.54 1155.62,1136.53 1162.38,1137.5 1169.15,1138.45 1175.91,1139.38 1182.68,1140.29 1189.44,1141.19 1196.21,1142.07 1202.97,1142.94 1209.73,1143.79 
  1216.5,1144.62 1223.26,1145.44 1230.03,1146.24 1236.79,1147.03 1243.56,1147.8 1250.32,1148.56 1257.09,1149.3 1263.85,1150.03 1270.62,1150.75 1277.38,1151.45 
  1284.15,1152.14 1290.91,1152.82 1297.67,1153.48 1304.44,1154.13 1311.2,1154.77 1317.97,1155.4 1324.73,1156.01 1331.5,1156.62 1338.26,1157.21 1345.03,1157.79 
  1351.79,1158.36 1358.56,1158.92 1365.32,1159.46 1372.09,1160 1378.85,1160.53 1385.62,1161.05 1392.38,1161.55 1399.14,1162.05 1405.91,1162.54 1412.67,1163.02 
  1419.44,1163.49 1426.2,1163.95 1432.97,1164.4 1439.73,1164.85 1446.5,1165.28 1453.26,1165.71 1460.03,1166.13 1466.79,1166.54 1473.56,1166.94 1480.32,1167.33 
  1487.08,1167.72 1493.85,1168.1 1500.61,1168.47 1507.38,1168.84 1514.14,1169.2 1520.91,1169.55 1527.67,1169.89 1534.44,1170.23 1541.2,1170.56 1547.97,1170.89 
  1554.73,1171.21 1561.5,1171.52 1568.26,1171.83 1575.03,1172.13 1581.79,1172.42 1588.55,1172.71 1595.32,1172.99 1602.08,1173.27 1608.85,1173.54 1615.61,1173.81 
  1622.38,1174.07 1629.14,1174.33 1635.91,1174.58 1642.67,1174.83 1649.44,1175.07 1656.2,1175.31 1662.97,1175.54 1669.73,1175.77 1676.49,1176 1683.26,1176.22 
  1690.02,1176.43 1696.79,1176.64 1703.55,1176.85 1710.32,1177.05 1717.08,1177.25 1723.85,1177.45 1730.61,1177.64 1737.38,1177.83 1744.14,1178.01 1750.91,1178.19 
  1757.67,1178.37 1764.44,1178.54 1771.2,1178.72 1777.96,1178.88 1784.73,1179.05 1791.49,1179.21 1798.26,1179.36 1805.02,1179.52 1811.79,1179.67 1818.55,1179.82 
  1825.32,1179.96 1832.08,1180.11 1838.85,1180.25 1845.61,1180.38 1852.38,1180.52 1859.14,1180.65 1865.9,1180.78 1872.67,1180.9 1879.43,1181.03 1886.2,1181.15 
  1892.96,1181.27 1899.73,1181.39 1906.49,1181.5 1913.26,1181.61 1920.02,1181.72 1926.79,1181.83 1933.55,1181.94 1940.32,1182.04 1947.08,1182.14 1953.84,1182.24 
  1960.61,1182.34 1967.37,1182.44 1974.14,1182.53 1980.9,1182.62 1987.67,1182.71 1994.43,1182.8 2001.2,1182.89 2007.96,1182.97 2014.73,1183.06 2021.49,1183.14 
  2028.26,1183.22 2035.02,1183.3 2041.79,1183.37 2048.55,1183.45 2055.31,1183.52 2062.08,1183.6 2068.84,1183.67 2075.61,1183.74 2082.37,1183.8 2089.14,1183.87 
  2095.9,1183.94 2102.67,1184 2109.43,1184.06 2116.2,1184.13 2122.96,1184.19 2129.73,1184.25 2136.49,1184.3 2143.25,1184.36 2150.02,1184.42 2156.78,1184.47 
  2163.55,1184.52 2170.31,1184.58 2177.08,1184.63 2183.84,1184.68 2190.61,1184.73 2197.37,1184.77 2204.14,1184.82 2210.9,1184.87 2217.67,1184.91 2224.43,1184.96 
  2231.2,1185 2237.96,1185.04 2244.72,1185.08 2251.49,1185.13 2258.25,1185.17 2265.02,1185.2 2271.78,1185.24 2278.55,1185.28 2285.31,1185.32 2292.08,1185.35 
  
  "/>
<polyline clip-path="url(#clip6703)" style="stroke:#ac8d18; stroke-width:4; stroke-opacity:1; fill:none" points="
  269.449,1186.72 276.214,1165.84 282.979,1146.13 289.743,1127.58 296.508,1110.17 303.272,1093.89 310.037,1078.69 316.802,1064.55 323.566,1051.42 330.331,1039.27 
  337.096,1028.06 343.86,1017.75 350.625,1008.3 357.39,999.655 364.154,991.791 370.919,984.662 377.683,978.231 384.448,972.459 391.213,967.31 397.977,962.75 
  404.742,958.743 411.507,955.258 418.271,952.264 425.036,949.729 431.801,947.625 438.565,945.926 445.33,944.604 452.095,943.636 458.859,942.997 465.624,942.665 
  472.388,942.618 479.153,942.837 485.918,943.303 492.682,943.997 499.447,944.902 506.212,946.003 512.976,947.284 519.741,948.73 526.506,950.328 533.27,952.066 
  540.035,953.93 546.8,955.911 553.564,957.997 560.329,960.179 567.093,962.447 573.858,964.792 580.623,967.206 587.387,969.681 594.152,972.21 600.917,974.787 
  607.681,977.405 614.446,980.057 621.211,982.74 627.975,985.446 634.74,988.173 641.505,990.914 648.269,993.667 655.034,996.427 661.798,999.19 668.563,1001.95 
  675.328,1004.71 682.092,1007.47 688.857,1010.22 695.622,1012.95 702.386,1015.68 709.151,1018.39 715.916,1021.08 722.68,1023.75 729.445,1026.4 736.21,1029.04 
  742.974,1031.65 749.739,1034.23 756.503,1036.79 763.268,1039.32 770.033,1041.83 776.797,1044.31 783.562,1046.76 790.327,1049.18 797.091,1051.58 803.856,1053.94 
  810.621,1056.27 817.385,1058.58 824.15,1060.85 830.914,1063.09 837.679,1065.3 844.444,1067.48 851.208,1069.62 857.973,1071.74 864.738,1073.82 871.502,1075.88 
  878.267,1077.9 885.032,1079.89 891.796,1081.85 898.561,1083.78 905.326,1085.68 912.09,1087.55 918.855,1089.38 925.619,1091.19 932.384,1092.97 939.149,1094.72 
  945.913,1096.44 952.678,1098.13 959.443,1099.79 966.207,1101.42 972.972,1103.03 979.737,1104.61 986.501,1106.16 993.266,1107.68 1000.03,1109.18 1006.8,1110.65 
  1013.56,1112.1 1020.32,1113.52 1027.09,1114.91 1033.85,1116.28 1040.62,1117.63 1047.38,1118.95 1054.15,1120.25 1060.91,1121.52 1067.68,1122.77 1074.44,1124 
  1081.21,1125.2 1087.97,1126.39 1094.74,1127.55 1101.5,1128.69 1108.26,1129.81 1115.03,1130.91 1121.79,1131.99 1128.56,1133.05 1135.32,1134.09 1142.09,1135.1 
  1148.85,1136.11 1155.62,1137.09 1162.38,1138.05 1169.15,1139 1175.91,1139.92 1182.68,1140.84 1189.44,1141.73 1196.21,1142.61 1202.97,1143.47 1209.73,1144.31 
  1216.5,1145.14 1223.26,1145.95 1230.03,1146.75 1236.79,1147.53 1243.56,1148.29 1250.32,1149.05 1257.09,1149.79 1263.85,1150.51 1270.62,1151.22 1277.38,1151.92 
  1284.15,1152.6 1290.91,1153.27 1297.67,1153.93 1304.44,1154.57 1311.2,1155.21 1317.97,1155.83 1324.73,1156.44 1331.5,1157.03 1338.26,1157.62 1345.03,1158.19 
  1351.79,1158.76 1358.56,1159.31 1365.32,1159.85 1372.09,1160.38 1378.85,1160.9 1385.62,1161.41 1392.38,1161.92 1399.14,1162.41 1405.91,1162.89 1412.67,1163.36 
  1419.44,1163.83 1426.2,1164.28 1432.97,1164.73 1439.73,1165.17 1446.5,1165.59 1453.26,1166.02 1460.03,1166.43 1466.79,1166.83 1473.56,1167.23 1480.32,1167.62 
  1487.08,1168 1493.85,1168.38 1500.61,1168.74 1507.38,1169.1 1514.14,1169.46 1520.91,1169.8 1527.67,1170.14 1534.44,1170.47 1541.2,1170.8 1547.97,1171.12 
  1554.73,1171.43 1561.5,1171.74 1568.26,1172.04 1575.03,1172.34 1581.79,1172.63 1588.55,1172.92 1595.32,1173.19 1602.08,1173.47 1608.85,1173.74 1615.61,1174 
  1622.38,1174.26 1629.14,1174.51 1635.91,1174.76 1642.67,1175 1649.44,1175.24 1656.2,1175.47 1662.97,1175.7 1669.73,1175.93 1676.49,1176.15 1683.26,1176.37 
  1690.02,1176.58 1696.79,1176.79 1703.55,1176.99 1710.32,1177.19 1717.08,1177.39 1723.85,1177.58 1730.61,1177.77 1737.38,1177.95 1744.14,1178.13 1750.91,1178.31 
  1757.67,1178.48 1764.44,1178.65 1771.2,1178.82 1777.96,1178.99 1784.73,1179.15 1791.49,1179.3 1798.26,1179.46 1805.02,1179.61 1811.79,1179.76 1818.55,1179.91 
  1825.32,1180.05 1832.08,1180.19 1838.85,1180.33 1845.61,1180.46 1852.38,1180.59 1859.14,1180.72 1865.9,1180.85 1872.67,1180.97 1879.43,1181.1 1886.2,1181.22 
  1892.96,1181.33 1899.73,1181.45 1906.49,1181.56 1913.26,1181.67 1920.02,1181.78 1926.79,1181.88 1933.55,1181.99 1940.32,1182.09 1947.08,1182.19 1953.84,1182.29 
  1960.61,1182.38 1967.37,1182.48 1974.14,1182.57 1980.9,1182.66 1987.67,1182.75 1994.43,1182.84 2001.2,1182.92 2007.96,1183.01 2014.73,1183.09 2021.49,1183.17 
  2028.26,1183.25 2035.02,1183.32 2041.79,1183.4 2048.55,1183.47 2055.31,1183.55 2062.08,1183.62 2068.84,1183.69 2075.61,1183.75 2082.37,1183.82 2089.14,1183.89 
  2095.9,1183.95 2102.67,1184.01 2109.43,1184.08 2116.2,1184.14 2122.96,1184.2 2129.73,1184.25 2136.49,1184.31 2143.25,1184.37 2150.02,1184.42 2156.78,1184.47 
  2163.55,1184.53 2170.31,1184.58 2177.08,1184.63 2183.84,1184.68 2190.61,1184.72 2197.37,1184.77 2204.14,1184.82 2210.9,1184.86 2217.67,1184.9 2224.43,1184.95 
  2231.2,1184.99 2237.96,1185.03 2244.72,1185.07 2251.49,1185.11 2258.25,1185.15 2265.02,1185.18 2271.78,1185.22 2278.55,1185.26 2285.31,1185.29 2292.08,1185.32 
  
  "/>
<polyline clip-path="url(#clip6703)" style="stroke:#00a9ad; stroke-width:4; stroke-opacity:1; fill:none" points="
  269.449,1186.72 276.214,1165.81 282.979,1145.9 289.743,1127.04 296.508,1109.25 303.272,1092.52 310.037,1076.85 316.802,1062.22 323.566,1048.61 330.331,1035.98 
  337.096,1024.32 343.86,1013.57 350.625,1003.72 357.39,994.705 364.154,986.505 370.919,979.075 377.683,972.377 384.448,966.373 391.213,961.025 397.977,956.298 
  404.742,952.156 411.507,948.563 418.271,945.488 425.036,942.898 431.801,940.763 438.565,939.053 445.33,937.742 452.095,936.802 458.859,936.209 465.624,935.938 
  472.388,935.966 479.153,936.273 485.918,936.837 492.682,937.64 499.447,938.663 506.212,939.889 512.976,941.302 519.741,942.886 526.506,944.628 533.27,946.512 
  540.035,948.528 546.8,950.662 553.564,952.903 560.329,955.241 567.093,957.666 573.858,960.169 580.623,962.74 587.387,965.372 594.152,968.057 600.917,970.788 
  607.681,973.559 614.446,976.362 621.211,979.193 627.975,982.046 634.74,984.916 641.505,987.799 648.269,990.689 655.034,993.584 661.798,996.479 668.563,999.371 
  675.328,1002.26 682.092,1005.13 688.857,1008 695.622,1010.85 702.386,1013.69 709.151,1016.5 715.916,1019.3 722.68,1022.08 729.445,1024.83 736.21,1027.55 
  742.974,1030.26 749.739,1032.93 756.503,1035.57 763.268,1038.19 770.033,1040.78 776.797,1043.33 783.562,1045.86 790.327,1048.35 797.091,1050.81 803.856,1053.24 
  810.621,1055.63 817.385,1057.99 824.15,1060.32 830.914,1062.62 837.679,1064.88 844.444,1067.1 851.208,1069.3 857.973,1071.46 864.738,1073.59 871.502,1075.68 
  878.267,1077.74 885.032,1079.77 891.796,1081.76 898.561,1083.73 905.326,1085.66 912.09,1087.56 918.855,1089.42 925.619,1091.26 932.384,1093.06 939.149,1094.83 
  945.913,1096.57 952.678,1098.29 959.443,1099.97 966.207,1101.62 972.972,1103.24 979.737,1104.84 986.501,1106.41 993.266,1107.94 1000.03,1109.45 1006.8,1110.94 
  1013.56,1112.4 1020.32,1113.83 1027.09,1115.23 1033.85,1116.61 1040.62,1117.96 1047.38,1119.29 1054.15,1120.59 1060.91,1121.87 1067.68,1123.13 1074.44,1124.36 
  1081.21,1125.57 1087.97,1126.76 1094.74,1127.93 1101.5,1129.07 1108.26,1130.19 1115.03,1131.29 1121.79,1132.37 1128.56,1133.43 1135.32,1134.47 1142.09,1135.49 
  1148.85,1136.49 1155.62,1137.47 1162.38,1138.44 1169.15,1139.38 1175.91,1140.31 1182.68,1141.22 1189.44,1142.11 1196.21,1142.98 1202.97,1143.84 1209.73,1144.68 
  1216.5,1145.51 1223.26,1146.32 1230.03,1147.11 1236.79,1147.89 1243.56,1148.65 1250.32,1149.4 1257.09,1150.14 1263.85,1150.86 1270.62,1151.57 1277.38,1152.26 
  1284.15,1152.94 1290.91,1153.61 1297.67,1154.26 1304.44,1154.9 1311.2,1155.53 1317.97,1156.15 1324.73,1156.75 1331.5,1157.34 1338.26,1157.92 1345.03,1158.49 
  1351.79,1159.05 1358.56,1159.6 1365.32,1160.14 1372.09,1160.67 1378.85,1161.18 1385.62,1161.69 1392.38,1162.19 1399.14,1162.68 1405.91,1163.15 1412.67,1163.62 
  1419.44,1164.08 1426.2,1164.53 1432.97,1164.98 1439.73,1165.41 1446.5,1165.83 1453.26,1166.25 1460.03,1166.66 1466.79,1167.06 1473.56,1167.45 1480.32,1167.84 
  1487.08,1168.22 1493.85,1168.59 1500.61,1168.95 1507.38,1169.31 1514.14,1169.66 1520.91,1170 1527.67,1170.33 1534.44,1170.66 1541.2,1170.99 1547.97,1171.3 
  1554.73,1171.61 1561.5,1171.92 1568.26,1172.22 1575.03,1172.51 1581.79,1172.79 1588.55,1173.08 1595.32,1173.35 1602.08,1173.62 1608.85,1173.89 1615.61,1174.15 
  1622.38,1174.4 1629.14,1174.65 1635.91,1174.9 1642.67,1175.14 1649.44,1175.37 1656.2,1175.6 1662.97,1175.83 1669.73,1176.05 1676.49,1176.27 1683.26,1176.48 
  1690.02,1176.69 1696.79,1176.9 1703.55,1177.1 1710.32,1177.3 1717.08,1177.49 1723.85,1177.68 1730.61,1177.87 1737.38,1178.05 1744.14,1178.23 1750.91,1178.4 
  1757.67,1178.57 1764.44,1178.74 1771.2,1178.91 1777.96,1179.07 1784.73,1179.23 1791.49,1179.38 1798.26,1179.54 1805.02,1179.69 1811.79,1179.83 1818.55,1179.98 
  1825.32,1180.12 1832.08,1180.26 1838.85,1180.39 1845.61,1180.52 1852.38,1180.65 1859.14,1180.78 1865.9,1180.91 1872.67,1181.03 1879.43,1181.15 1886.2,1181.27 
  1892.96,1181.38 1899.73,1181.5 1906.49,1181.61 1913.26,1181.72 1920.02,1181.82 1926.79,1181.93 1933.55,1182.03 1940.32,1182.13 1947.08,1182.23 1953.84,1182.33 
  1960.61,1182.42 1967.37,1182.51 1974.14,1182.61 1980.9,1182.7 1987.67,1182.78 1994.43,1182.87 2001.2,1182.95 2007.96,1183.03 2014.73,1183.12 2021.49,1183.19 
  2028.26,1183.27 2035.02,1183.35 2041.79,1183.42 2048.55,1183.49 2055.31,1183.57 2062.08,1183.64 2068.84,1183.7 2075.61,1183.77 2082.37,1183.84 2089.14,1183.9 
  2095.9,1183.97 2102.67,1184.03 2109.43,1184.09 2116.2,1184.15 2122.96,1184.21 2129.73,1184.26 2136.49,1184.32 2143.25,1184.37 2150.02,1184.43 2156.78,1184.48 
  2163.55,1184.53 2170.31,1184.58 2177.08,1184.63 2183.84,1184.68 2190.61,1184.72 2197.37,1184.77 2204.14,1184.81 2210.9,1184.86 2217.67,1184.9 2224.43,1184.94 
  2231.2,1184.98 2237.96,1185.02 2244.72,1185.06 2251.49,1185.1 2258.25,1185.14 2265.02,1185.17 2271.78,1185.21 2278.55,1185.24 2285.31,1185.27 2292.08,1185.31 
  
  "/>
<path clip-path="url(#clip6700)" d="
M1738.43 1428.56 L2280.76 1428.56 L2280.76 1005.2 L1738.43 1005.2  Z
  " fill="#ffffff" fill-rule="evenodd" fill-opacity="1"/>
<polyline clip-path="url(#clip6700)" style="stroke:#000000; stroke-width:4; stroke-opacity:0; fill:none" points="
  1738.43,1428.56 2280.76,1428.56 2280.76,1005.2 1738.43,1005.2 1738.43,1428.56 
  "/>
<polyline clip-path="url(#clip6700)" style="stroke:#009af9; stroke-width:4; stroke-opacity:1; fill:none" points="
  1762.43,1065.68 1906.43,1065.68 
  "/>
<g clip-path="url(#clip6700)">
<text style="fill:#000000; fill-opacity:1; font-family:Arial,Helvetica Neue,Helvetica,sans-serif; font-size:48px; text-anchor:start;" transform="rotate(0, 1930.43, 1083.18)" x="1930.43" y="1083.18">z(1) = -75.0%</text>
</g>
<polyline clip-path="url(#clip6700)" style="stroke:#e26f46; stroke-width:4; stroke-opacity:1; fill:none" points="
  1762.43,1126.16 1906.43,1126.16 
  "/>
<g clip-path="url(#clip6700)">
<text style="fill:#000000; fill-opacity:1; font-family:Arial,Helvetica Neue,Helvetica,sans-serif; font-size:48px; text-anchor:start;" transform="rotate(0, 1930.43, 1143.66)" x="1930.43" y="1143.66">z(1) = -50.0%</text>
</g>
<polyline clip-path="url(#clip6700)" style="stroke:#3da44d; stroke-width:4; stroke-opacity:1; fill:none" points="
  1762.43,1186.64 1906.43,1186.64 
  "/>
<g clip-path="url(#clip6700)">
<text style="fill:#000000; fill-opacity:1; font-family:Arial,Helvetica Neue,Helvetica,sans-serif; font-size:48px; text-anchor:start;" transform="rotate(0, 1930.43, 1204.14)" x="1930.43" y="1204.14">z(1) = -25.0%</text>
</g>
<polyline clip-path="url(#clip6700)" style="stroke:#c271d2; stroke-width:4; stroke-opacity:1; fill:none" points="
  1762.43,1247.12 1906.43,1247.12 
  "/>
<g clip-path="url(#clip6700)">
<text style="fill:#000000; fill-opacity:1; font-family:Arial,Helvetica Neue,Helvetica,sans-serif; font-size:48px; text-anchor:start;" transform="rotate(0, 1930.43, 1264.62)" x="1930.43" y="1264.62">z(1) = 25.0%</text>
</g>
<polyline clip-path="url(#clip6700)" style="stroke:#ac8d18; stroke-width:4; stroke-opacity:1; fill:none" points="
  1762.43,1307.6 1906.43,1307.6 
  "/>
<g clip-path="url(#clip6700)">
<text style="fill:#000000; fill-opacity:1; font-family:Arial,Helvetica Neue,Helvetica,sans-serif; font-size:48px; text-anchor:start;" transform="rotate(0, 1930.43, 1325.1)" x="1930.43" y="1325.1">z(1) = 50.0%</text>
</g>
<polyline clip-path="url(#clip6700)" style="stroke:#00a9ad; stroke-width:4; stroke-opacity:1; fill:none" points="
  1762.43,1368.08 1906.43,1368.08 
  "/>
<g clip-path="url(#clip6700)">
<text style="fill:#000000; fill-opacity:1; font-family:Arial,Helvetica Neue,Helvetica,sans-serif; font-size:48px; text-anchor:start;" transform="rotate(0, 1930.43, 1385.58)" x="1930.43" y="1385.58">z(1) = 75.0%</text>
</g>
</svg>
