<?xml version="1.0" encoding="utf-8"?>
<svg xmlns="http://www.w3.org/2000/svg" xmlns:xlink="http://www.w3.org/1999/xlink" width="600" height="400" viewBox="0 0 2400 1600">
<defs>
  <clipPath id="clip5100">
    <rect x="0" y="0" width="2400" height="1600"/>
  </clipPath>
</defs>
<path clip-path="url(#clip5100)" d="
M0 1600 L2400 1600 L2400 0 L0 0  Z
  " fill="#ffffff" fill-rule="evenodd" fill-opacity="1"/>
<defs>
  <clipPath id="clip5101">
    <rect x="480" y="0" width="1681" height="1600"/>
  </clipPath>
</defs>
<path clip-path="url(#clip5100)" d="
M140.517 1425.62 L2352.76 1425.62 L2352.76 121.675 L140.517 121.675  Z
  " fill="#ffffff" fill-rule="evenodd" fill-opacity="1"/>
<defs>
  <clipPath id="clip5102">
    <rect x="140" y="121" width="2213" height="1305"/>
  </clipPath>
</defs>
<polyline clip-path="url(#clip5102)" style="stroke:#000000; stroke-width:2; stroke-opacity:0.1; fill:none" points="
  196.147,1425.62 196.147,121.675 
  "/>
<polyline clip-path="url(#clip5102)" style="stroke:#000000; stroke-width:2; stroke-opacity:0.1; fill:none" points="
  894.147,1425.62 894.147,121.675 
  "/>
<polyline clip-path="url(#clip5102)" style="stroke:#000000; stroke-width:2; stroke-opacity:0.1; fill:none" points="
  1592.15,1425.62 1592.15,121.675 
  "/>
<polyline clip-path="url(#clip5102)" style="stroke:#000000; stroke-width:2; stroke-opacity:0.1; fill:none" points="
  2290.15,1425.62 2290.15,121.675 
  "/>
<polyline clip-path="url(#clip5102)" style="stroke:#000000; stroke-width:2; stroke-opacity:0.1; fill:none" points="
  140.517,1302.22 2352.76,1302.22 
  "/>
<polyline clip-path="url(#clip5102)" style="stroke:#000000; stroke-width:2; stroke-opacity:0.1; fill:none" points="
  140.517,1030.49 2352.76,1030.49 
  "/>
<polyline clip-path="url(#clip5102)" style="stroke:#000000; stroke-width:2; stroke-opacity:0.1; fill:none" points="
  140.517,758.758 2352.76,758.758 
  "/>
<polyline clip-path="url(#clip5102)" style="stroke:#000000; stroke-width:2; stroke-opacity:0.1; fill:none" points="
  140.517,487.03 2352.76,487.03 
  "/>
<polyline clip-path="url(#clip5102)" style="stroke:#000000; stroke-width:2; stroke-opacity:0.1; fill:none" points="
  140.517,215.302 2352.76,215.302 
  "/>
<polyline clip-path="url(#clip5100)" style="stroke:#000000; stroke-width:4; stroke-opacity:1; fill:none" points="
  140.517,1425.62 2352.76,1425.62 
  "/>
<polyline clip-path="url(#clip5100)" style="stroke:#000000; stroke-width:4; stroke-opacity:1; fill:none" points="
  140.517,1425.62 140.517,121.675 
  "/>
<polyline clip-path="url(#clip5100)" style="stroke:#000000; stroke-width:4; stroke-opacity:1; fill:none" points="
  196.147,1425.62 196.147,1409.97 
  "/>
<polyline clip-path="url(#clip5100)" style="stroke:#000000; stroke-width:4; stroke-opacity:1; fill:none" points="
  894.147,1425.62 894.147,1409.97 
  "/>
<polyline clip-path="url(#clip5100)" style="stroke:#000000; stroke-width:4; stroke-opacity:1; fill:none" points="
  1592.15,1425.62 1592.15,1409.97 
  "/>
<polyline clip-path="url(#clip5100)" style="stroke:#000000; stroke-width:4; stroke-opacity:1; fill:none" points="
  2290.15,1425.62 2290.15,1409.97 
  "/>
<polyline clip-path="url(#clip5100)" style="stroke:#000000; stroke-width:4; stroke-opacity:1; fill:none" points="
  140.517,1302.22 167.064,1302.22 
  "/>
<polyline clip-path="url(#clip5100)" style="stroke:#000000; stroke-width:4; stroke-opacity:1; fill:none" points="
  140.517,1030.49 167.064,1030.49 
  "/>
<polyline clip-path="url(#clip5100)" style="stroke:#000000; stroke-width:4; stroke-opacity:1; fill:none" points="
  140.517,758.758 167.064,758.758 
  "/>
<polyline clip-path="url(#clip5100)" style="stroke:#000000; stroke-width:4; stroke-opacity:1; fill:none" points="
  140.517,487.03 167.064,487.03 
  "/>
<polyline clip-path="url(#clip5100)" style="stroke:#000000; stroke-width:4; stroke-opacity:1; fill:none" points="
  140.517,215.302 167.064,215.302 
  "/>
<g clip-path="url(#clip5100)">
<text style="fill:#000000; fill-opacity:1; font-family:Arial,Helvetica Neue,Helvetica,sans-serif; font-size:48px; text-anchor:middle;" transform="rotate(0, 196.147, 1479.62)" x="196.147" y="1479.62">0</text>
</g>
<g clip-path="url(#clip5100)">
<text style="fill:#000000; fill-opacity:1; font-family:Arial,Helvetica Neue,Helvetica,sans-serif; font-size:48px; text-anchor:middle;" transform="rotate(0, 894.147, 1479.62)" x="894.147" y="1479.62">100</text>
</g>
<g clip-path="url(#clip5100)">
<text style="fill:#000000; fill-opacity:1; font-family:Arial,Helvetica Neue,Helvetica,sans-serif; font-size:48px; text-anchor:middle;" transform="rotate(0, 1592.15, 1479.62)" x="1592.15" y="1479.62">200</text>
</g>
<g clip-path="url(#clip5100)">
<text style="fill:#000000; fill-opacity:1; font-family:Arial,Helvetica Neue,Helvetica,sans-serif; font-size:48px; text-anchor:middle;" transform="rotate(0, 2290.15, 1479.62)" x="2290.15" y="1479.62">300</text>
</g>
<g clip-path="url(#clip5100)">
<text style="fill:#000000; fill-opacity:1; font-family:Arial,Helvetica Neue,Helvetica,sans-serif; font-size:48px; text-anchor:end;" transform="rotate(0, 116.517, 1319.72)" x="116.517" y="1319.72">50</text>
</g>
<g clip-path="url(#clip5100)">
<text style="fill:#000000; fill-opacity:1; font-family:Arial,Helvetica Neue,Helvetica,sans-serif; font-size:48px; text-anchor:end;" transform="rotate(0, 116.517, 1047.99)" x="116.517" y="1047.99">60</text>
</g>
<g clip-path="url(#clip5100)">
<text style="fill:#000000; fill-opacity:1; font-family:Arial,Helvetica Neue,Helvetica,sans-serif; font-size:48px; text-anchor:end;" transform="rotate(0, 116.517, 776.258)" x="116.517" y="776.258">70</text>
</g>
<g clip-path="url(#clip5100)">
<text style="fill:#000000; fill-opacity:1; font-family:Arial,Helvetica Neue,Helvetica,sans-serif; font-size:48px; text-anchor:end;" transform="rotate(0, 116.517, 504.53)" x="116.517" y="504.53">80</text>
</g>
<g clip-path="url(#clip5100)">
<text style="fill:#000000; fill-opacity:1; font-family:Arial,Helvetica Neue,Helvetica,sans-serif; font-size:48px; text-anchor:end;" transform="rotate(0, 116.517, 232.802)" x="116.517" y="232.802">90</text>
</g>
<g clip-path="url(#clip5100)">
<text style="fill:#000000; fill-opacity:1; font-family:Arial,Helvetica Neue,Helvetica,sans-serif; font-size:84px; text-anchor:middle;" transform="rotate(0, 1246.64, 73.2)" x="1246.64" y="73.2">Convergence of K(t)</text>
</g>
<g clip-path="url(#clip5100)">
<text style="fill:#000000; fill-opacity:1; font-family:Arial,Helvetica Neue,Helvetica,sans-serif; font-size:66px; text-anchor:middle;" transform="rotate(0, 1246.64, 1559.48)" x="1246.64" y="1559.48">t</text>
</g>
<polyline clip-path="url(#clip5102)" style="stroke:#009af9; stroke-width:4; stroke-opacity:1; fill:none" points="
  203.127,1388.71 210.107,1388.71 217.087,1388.71 224.067,1388.71 231.047,1388.71 238.027,1388.71 245.007,1388.71 251.987,1388.71 258.967,1388.71 265.947,1388.71 
  272.927,1388.71 279.907,1388.71 286.887,1388.71 293.867,1388.71 300.847,1388.71 307.827,1388.71 314.807,1388.71 321.787,1388.71 328.767,1388.71 335.747,1388.71 
  342.727,1388.71 349.707,1388.71 356.687,1388.71 363.667,1388.71 370.647,1388.71 377.627,1388.71 384.607,1388.71 391.587,1388.71 398.567,1388.71 405.547,1388.71 
  412.527,1388.71 419.507,1388.71 426.487,1388.71 433.467,1388.71 440.447,1388.71 447.427,1388.71 454.407,1388.71 461.387,1388.71 468.367,1388.71 475.347,1388.71 
  482.327,1388.71 489.307,1388.71 496.287,1388.71 503.267,1388.71 510.247,1388.71 517.227,1388.71 524.207,1388.71 531.187,1388.71 538.167,1388.71 545.147,1388.71 
  552.127,1388.71 559.107,1388.71 566.087,1388.71 573.067,1388.71 580.047,1388.71 587.027,1388.71 594.007,1388.71 600.987,1388.71 607.967,1388.71 614.947,1388.71 
  621.927,1388.71 628.907,1388.71 635.887,1388.71 642.867,1388.71 649.847,1388.71 656.827,1388.71 663.807,1388.71 670.787,1388.71 677.767,1388.71 684.747,1388.71 
  691.727,1388.71 698.707,1388.71 705.687,1388.71 712.667,1388.71 719.647,1388.71 726.627,1388.71 733.607,1388.71 740.587,1388.71 747.567,1388.71 754.547,1388.71 
  761.527,1388.71 768.507,1388.71 775.487,1388.71 782.467,1388.71 789.447,1388.71 796.427,1388.71 803.407,1388.71 810.387,1388.71 817.367,1388.71 824.347,1388.71 
  831.327,1388.71 838.307,1388.71 845.287,1388.71 852.267,1388.71 859.247,1388.71 866.227,1388.71 873.207,1388.71 880.187,1388.71 887.167,1388.71 894.147,1388.71 
  901.127,1388.71 908.107,1388.71 915.087,1388.71 922.067,1388.71 929.047,1388.71 936.027,1388.71 943.007,1388.71 949.987,1388.71 956.967,1388.71 963.947,1388.71 
  970.927,1388.71 977.907,1388.71 984.887,1388.71 991.867,1388.71 998.847,1388.71 1005.83,1388.71 1012.81,1388.71 1019.79,1388.71 1026.77,1388.71 1033.75,1388.71 
  1040.73,1388.71 1047.71,1388.71 1054.69,1388.71 1061.67,1388.71 1068.65,1388.71 1075.63,1388.71 1082.61,1388.71 1089.59,1388.71 1096.57,1388.71 1103.55,1388.71 
  1110.53,1388.71 1117.51,1388.71 1124.49,1388.71 1131.47,1388.71 1138.45,1388.71 1145.43,1388.71 1152.41,1388.71 1159.39,1388.71 1166.37,1388.71 1173.35,1388.71 
  1180.33,1388.71 1187.31,1388.71 1194.29,1388.71 1201.27,1388.71 1208.25,1388.71 1215.23,1388.71 1222.21,1388.71 1229.19,1388.71 1236.17,1388.71 1243.15,1388.71 
  1250.13,1388.71 1257.11,1388.71 1264.09,1388.71 1271.07,1388.71 1278.05,1388.71 1285.03,1388.71 1292.01,1388.71 1298.99,1388.71 1305.97,1388.71 1312.95,1388.71 
  1319.93,1388.71 1326.91,1388.71 1333.89,1388.71 1340.87,1388.71 1347.85,1388.71 1354.83,1388.71 1361.81,1388.71 1368.79,1388.71 1375.77,1388.71 1382.75,1388.71 
  1389.73,1388.71 1396.71,1388.71 1403.69,1388.71 1410.67,1388.71 1417.65,1388.71 1424.63,1388.71 1431.61,1388.71 1438.59,1388.71 1445.57,1388.71 1452.55,1388.71 
  1459.53,1388.71 1466.51,1388.71 1473.49,1388.71 1480.47,1388.71 1487.45,1388.71 1494.43,1388.71 1501.41,1388.71 1508.39,1388.71 1515.37,1388.71 1522.35,1388.71 
  1529.33,1388.71 1536.31,1388.71 1543.29,1388.71 1550.27,1388.71 1557.25,1388.71 1564.23,1388.71 1571.21,1388.71 1578.19,1388.71 1585.17,1388.71 1592.15,1388.71 
  1599.13,1388.71 1606.11,1388.71 1613.09,1388.71 1620.07,1388.71 1627.05,1388.71 1634.03,1388.71 1641.01,1388.71 1647.99,1388.71 1654.97,1388.71 1661.95,1388.71 
  1668.93,1388.71 1675.91,1388.71 1682.89,1388.71 1689.87,1388.71 1696.85,1388.71 1703.83,1388.71 1710.81,1388.71 1717.79,1388.71 1724.77,1388.71 1731.75,1388.71 
  1738.73,1388.71 1745.71,1388.71 1752.69,1388.71 1759.67,1388.71 1766.65,1388.71 1773.63,1388.71 1780.61,1388.71 1787.59,1388.71 1794.57,1388.71 1801.55,1388.71 
  1808.53,1388.71 1815.51,1388.71 1822.49,1388.71 1829.47,1388.71 1836.45,1388.71 1843.43,1388.71 1850.41,1388.71 1857.39,1388.71 1864.37,1388.71 1871.35,1388.71 
  1878.33,1388.71 1885.31,1388.71 1892.29,1388.71 1899.27,1388.71 1906.25,1388.71 1913.23,1388.71 1920.21,1388.71 1927.19,1388.71 1934.17,1388.71 1941.15,1388.71 
  1948.13,1388.71 1955.11,1388.71 1962.09,1388.71 1969.07,1388.71 1976.05,1388.71 1983.03,1388.71 1990.01,1388.71 1996.99,1388.71 2003.97,1388.71 2010.95,1388.71 
  2017.93,1388.71 2024.91,1388.71 2031.89,1388.71 2038.87,1388.71 2045.85,1388.71 2052.83,1388.71 2059.81,1388.71 2066.79,1388.71 2073.77,1388.71 2080.75,1388.71 
  2087.73,1388.71 2094.71,1388.71 2101.69,1388.71 2108.67,1388.71 2115.65,1388.71 2122.63,1388.71 2129.61,1388.71 2136.59,1388.71 2143.57,1388.71 2150.55,1388.71 
  2157.53,1388.71 2164.51,1388.71 2171.49,1388.71 2178.47,1388.71 2185.45,1388.71 2192.43,1388.71 2199.41,1388.71 2206.39,1388.71 2213.37,1388.71 2220.35,1388.71 
  2227.33,1388.71 2234.31,1388.71 2241.29,1388.71 2248.27,1388.71 2255.25,1388.71 2262.23,1388.71 2269.21,1388.71 2276.19,1388.71 2283.17,1388.71 2290.15,1388.71 
  
  "/>
<polyline clip-path="url(#clip5102)" style="stroke:#e26f46; stroke-width:4; stroke-opacity:1; fill:none" points="
  210.107,1337.17 217.087,1287.58 224.067,1239.95 231.047,1194.3 238.027,1150.63 245.007,1108.93 251.987,1069.17 258.967,1031.34 265.947,995.403 272.927,961.313 
  279.907,929.028 286.887,898.501 293.867,869.679 300.847,842.503 307.827,816.91 314.807,792.838 321.787,770.221 328.767,749.001 335.747,729.131 342.727,710.537 
  349.707,693.147 356.687,676.894 363.667,661.716 370.647,647.549 377.627,634.337 384.607,622.041 391.587,610.605 398.567,599.974 405.547,590.099 412.527,580.933 
  419.507,572.43 426.487,564.548 433.467,557.246 440.447,550.487 447.427,544.235 454.407,538.456 461.387,533.12 468.367,528.197 475.347,523.66 482.327,519.483 
  489.307,515.643 496.287,512.117 503.267,508.885 510.247,505.928 517.227,503.227 524.207,500.767 531.187,498.533 538.167,496.509 545.147,494.682 552.127,493.04 
  559.107,491.572 566.087,490.267 573.067,489.114 580.047,488.105 587.027,487.231 594.007,486.482 600.987,485.853 607.967,485.336 614.947,484.924 621.927,484.611 
  628.907,484.391 635.887,484.258 642.867,484.208 649.847,484.236 656.827,484.336 663.807,484.506 670.787,484.74 677.767,485.036 684.747,485.389 691.727,485.796 
  698.707,486.255 705.687,486.761 712.667,487.313 719.647,487.907 726.627,488.542 733.607,489.214 740.587,489.922 747.567,490.663 754.547,491.436 761.527,492.238 
  768.507,493.068 775.487,493.924 782.467,494.805 789.447,495.709 796.427,496.634 803.407,497.579 810.387,498.544 817.367,499.526 824.347,500.525 831.327,501.54 
  838.307,502.569 845.287,503.611 852.267,504.667 859.247,505.734 866.227,506.812 873.207,507.9 880.187,508.998 887.167,510.104 894.147,511.219 901.127,512.341 
  908.107,513.471 915.087,514.606 922.067,515.748 929.047,516.894 936.027,518.046 943.007,519.202 949.987,520.363 956.967,521.527 963.947,522.694 970.927,523.864 
  977.907,525.037 984.887,526.212 991.867,527.39 998.847,528.569 1005.83,529.749 1012.81,530.931 1019.79,532.114 1026.77,533.297 1033.75,534.482 1040.73,535.666 
  1047.71,536.851 1054.69,538.036 1061.67,539.221 1068.65,540.406 1075.63,541.59 1082.61,542.774 1089.59,543.957 1096.57,545.14 1103.55,546.322 1110.53,547.503 
  1117.51,548.682 1124.49,549.861 1131.47,551.039 1138.45,552.215 1145.43,553.39 1152.41,554.563 1159.39,555.735 1166.37,556.906 1173.35,558.075 1180.33,559.242 
  1187.31,560.408 1194.29,561.572 1201.27,562.735 1208.25,563.895 1215.23,565.054 1222.21,566.211 1229.19,567.367 1236.17,568.52 1243.15,569.671 1250.13,570.821 
  1257.11,571.969 1264.09,573.115 1271.07,574.259 1278.05,575.401 1285.03,576.541 1292.01,577.679 1298.99,578.815 1305.97,579.949 1312.95,581.081 1319.93,582.211 
  1326.91,583.339 1333.89,584.466 1340.87,585.59 1347.85,586.712 1354.83,587.833 1361.81,588.951 1368.79,590.068 1375.77,591.182 1382.75,592.295 1389.73,593.405 
  1396.71,594.514 1403.69,595.621 1410.67,596.726 1417.65,597.829 1424.63,598.93 1431.61,600.029 1438.59,601.126 1445.57,602.222 1452.55,603.315 1459.53,604.407 
  1466.51,605.497 1473.49,606.585 1480.47,607.671 1487.45,608.755 1494.43,609.838 1501.41,610.919 1508.39,611.998 1515.37,613.075 1522.35,614.15 1529.33,615.224 
  1536.31,616.296 1543.29,617.366 1550.27,618.435 1557.25,619.502 1564.23,620.567 1571.21,621.63 1578.19,622.692 1585.17,623.752 1592.15,624.81 1599.13,625.867 
  1606.11,626.922 1613.09,627.976 1620.07,629.028 1627.05,630.078 1634.03,631.127 1641.01,632.174 1647.99,633.22 1654.97,634.264 1661.95,635.306 1668.93,636.347 
  1675.91,637.386 1682.89,638.424 1689.87,639.461 1696.85,640.496 1703.83,641.529 1710.81,642.561 1717.79,643.591 1724.77,644.62 1731.75,645.648 1738.73,646.674 
  1745.71,647.698 1752.69,648.721 1759.67,649.743 1766.65,650.764 1773.63,651.783 1780.61,652.8 1787.59,653.816 1794.57,654.831 1801.55,655.844 1808.53,656.857 
  1815.51,657.867 1822.49,658.877 1829.47,659.885 1836.45,660.891 1843.43,661.897 1850.41,662.901 1857.39,663.904 1864.37,664.905 1871.35,665.905 1878.33,666.904 
  1885.31,667.902 1892.29,668.898 1899.27,669.893 1906.25,670.887 1913.23,671.88 1920.21,672.871 1927.19,673.861 1934.17,674.85 1941.15,675.838 1948.13,676.824 
  1955.11,677.809 1962.09,678.793 1969.07,679.776 1976.05,680.758 1983.03,681.738 1990.01,682.717 1996.99,683.695 2003.97,684.672 2010.95,685.648 2017.93,686.623 
  2024.91,687.596 2031.89,688.568 2038.87,689.539 2045.85,690.509 2052.83,691.478 2059.81,692.446 2066.79,693.413 2073.77,694.378 2080.75,695.343 2087.73,696.306 
  2094.71,697.268 2101.69,698.229 2108.67,699.189 2115.65,700.148 2122.63,701.106 2129.61,702.062 2136.59,703.018 2143.57,703.973 2150.55,704.926 2157.53,705.879 
  2164.51,706.83 2171.49,707.78 2178.47,708.73 2185.45,709.678 2192.43,710.625 2199.41,711.571 2206.39,712.516 2213.37,713.46 2220.35,714.403 2227.33,715.345 
  2234.31,716.286 2241.29,717.226 2248.27,718.165 2255.25,719.103 2262.23,720.04 2269.21,720.976 2276.19,721.911 2283.17,722.845 2290.15,723.778 
  "/>
<polyline clip-path="url(#clip5102)" style="stroke:#3da44d; stroke-width:4; stroke-opacity:1; fill:none" points="
  210.107,1292.93 217.087,1201.25 224.067,1113.95 231.047,1031.21 238.027,953.116 245.007,879.712 251.987,810.985 258.967,746.864 265.947,687.248 272.927,632.008 
  279.907,580.995 286.887,534.049 293.867,491.002 300.847,451.678 307.827,415.897 314.807,383.489 321.787,354.282 328.767,328.105 335.747,304.8 342.727,284.196 
  349.707,266.133 356.687,250.458 363.667,237.022 370.647,225.684 377.627,216.311 384.607,208.781 391.587,202.972 398.567,198.767 405.547,196.058 412.527,194.74 
  419.507,194.716 426.487,195.891 433.467,198.177 440.447,201.49 447.427,205.751 454.407,210.887 461.387,216.826 468.367,223.504 475.347,230.857 482.327,238.828 
  489.307,247.361 496.287,256.405 503.267,265.912 510.247,275.835 517.227,286.133 524.207,296.765 531.187,307.694 538.167,318.885 545.147,330.305 552.127,341.923 
  559.107,353.71 566.087,365.641 573.067,377.688 580.047,389.831 587.027,402.046 594.007,414.314 600.987,426.616 607.967,438.934 614.947,451.253 621.927,463.557 
  628.907,475.833 635.887,488.067 642.867,500.249 649.847,512.367 656.827,524.411 663.807,536.373 670.787,548.243 677.767,560.013 684.747,571.678 691.727,583.231 
  698.707,594.665 705.687,605.977 712.667,617.16 719.647,628.211 726.627,639.126 733.607,649.902 740.587,660.537 747.567,671.027 754.547,681.37 761.527,691.565 
  768.507,701.61 775.487,711.505 782.467,721.247 789.447,730.837 796.427,740.275 803.407,749.559 810.387,758.69 817.367,767.668 824.347,776.493 831.327,785.166 
  838.307,793.688 845.287,802.06 852.267,810.281 859.247,818.354 866.227,826.28 873.207,834.059 880.187,841.694 887.167,849.184 894.147,856.533 901.127,863.741 
  908.107,870.81 915.087,877.742 922.067,884.538 929.047,891.2 936.027,897.729 943.007,904.128 949.987,910.399 956.967,916.542 963.947,922.56 970.927,928.454 
  977.907,934.228 984.887,939.881 991.867,945.416 998.847,950.836 1005.83,956.141 1012.81,961.333 1019.79,966.415 1026.77,971.388 1033.75,976.254 1040.73,981.015 
  1047.71,985.672 1054.69,990.227 1061.67,994.682 1068.65,999.039 1075.63,1003.3 1082.61,1007.46 1089.59,1011.54 1096.57,1015.52 1103.55,1019.41 1110.53,1023.21 
  1117.51,1026.92 1124.49,1030.55 1131.47,1034.1 1138.45,1037.56 1145.43,1040.94 1152.41,1044.25 1159.39,1047.47 1166.37,1050.62 1173.35,1053.7 1180.33,1056.7 
  1187.31,1059.63 1194.29,1062.48 1201.27,1065.27 1208.25,1067.99 1215.23,1070.65 1222.21,1073.23 1229.19,1075.76 1236.17,1078.22 1243.15,1080.62 1250.13,1082.96 
  1257.11,1085.24 1264.09,1087.46 1271.07,1089.62 1278.05,1091.73 1285.03,1093.79 1292.01,1095.79 1298.99,1097.74 1305.97,1099.63 1312.95,1101.48 1319.93,1103.28 
  1326.91,1105.03 1333.89,1106.73 1340.87,1108.38 1347.85,1110 1354.83,1111.56 1361.81,1113.09 1368.79,1114.57 1375.77,1116.01 1382.75,1117.41 1389.73,1118.77 
  1396.71,1120.09 1403.69,1121.37 1410.67,1122.62 1417.65,1123.83 1424.63,1125.01 1431.61,1126.15 1438.59,1127.26 1445.57,1128.33 1452.55,1129.37 1459.53,1130.39 
  1466.51,1131.37 1473.49,1132.32 1480.47,1133.24 1487.45,1134.14 1494.43,1135.01 1501.41,1135.85 1508.39,1136.66 1515.37,1137.45 1522.35,1138.22 1529.33,1138.96 
  1536.31,1139.68 1543.29,1140.37 1550.27,1141.05 1557.25,1141.7 1564.23,1142.33 1571.21,1142.94 1578.19,1143.54 1585.17,1144.11 1592.15,1144.67 1599.13,1145.2 
  1606.11,1145.72 1613.09,1146.23 1620.07,1146.72 1627.05,1147.19 1634.03,1147.65 1641.01,1148.09 1647.99,1148.52 1654.97,1148.94 1661.95,1149.34 1668.93,1149.74 
  1675.91,1150.12 1682.89,1150.49 1689.87,1150.85 1696.85,1151.19 1703.83,1151.53 1710.81,1151.87 1717.79,1152.19 1724.77,1152.5 1731.75,1152.81 1738.73,1153.11 
  1745.71,1153.4 1752.69,1153.69 1759.67,1153.97 1766.65,1154.24 1773.63,1154.51 1780.61,1154.78 1787.59,1155.04 1794.57,1155.3 1801.55,1155.56 1808.53,1155.81 
  1815.51,1156.06 1822.49,1156.31 1829.47,1156.56 1836.45,1156.81 1843.43,1157.06 1850.41,1157.3 1857.39,1157.55 1864.37,1157.8 1871.35,1158.05 1878.33,1158.3 
  1885.31,1158.55 1892.29,1158.8 1899.27,1159.06 1906.25,1159.32 1913.23,1159.58 1920.21,1159.84 1927.19,1160.11 1934.17,1160.38 1941.15,1160.66 1948.13,1160.94 
  1955.11,1161.22 1962.09,1161.51 1969.07,1161.8 1976.05,1162.1 1983.03,1162.4 1990.01,1162.71 1996.99,1163.02 2003.97,1163.33 2010.95,1163.65 2017.93,1163.97 
  2024.91,1164.3 2031.89,1164.63 2038.87,1164.97 2045.85,1165.3 2052.83,1165.64 2059.81,1165.98 2066.79,1166.32 2073.77,1166.66 2080.75,1167 2087.73,1167.34 
  2094.71,1167.67 2101.69,1168 2108.67,1168.32 2115.65,1168.64 2122.63,1168.95 2129.61,1169.24 2136.59,1169.52 2143.57,1169.79 2150.55,1170.03 2157.53,1170.26 
  2164.51,1170.46 2171.49,1170.64 2178.47,1170.78 2185.45,1170.89 2192.43,1170.96 2199.41,1170.98 2206.39,1170.96 2213.37,1170.88 2220.35,1170.75 2227.33,1170.55 
  2234.31,1170.28 2241.29,1169.93 2248.27,1169.5 2255.25,1168.98 2262.23,1168.35 2269.21,1167.62 2276.19,1166.78 2283.17,1165.81 2290.15,1164.75 
  "/>
<polyline clip-path="url(#clip5102)" style="stroke:#c271d2; stroke-width:4; stroke-opacity:1; fill:none" points="
  210.107,1289.29 217.087,1193.99 224.067,1103.17 231.047,1017.06 238.027,935.799 245.007,859.463 251.987,788.053 258.967,721.517 265.947,659.759 272.927,602.653 
  279.907,550.05 286.887,501.785 293.867,457.679 300.847,417.548 307.827,381.216 314.807,348.496 321.787,319.2 328.767,293.144 335.747,270.149 342.727,250.036 
  349.707,232.635 356.687,217.778 363.667,205.307 370.647,195.069 377.627,186.921 384.607,180.724 391.587,176.348 398.567,173.668 405.547,172.564 412.527,172.925 
  419.507,174.644 426.487,177.62 433.467,181.758 440.447,186.967 447.427,193.162 454.407,200.265 461.387,208.198 468.367,216.891 475.347,226.278 482.327,236.295 
  489.307,246.884 496.287,257.989 503.267,269.558 510.247,281.543 517.227,293.898 524.207,306.581 531.187,319.551 538.167,332.771 545.147,346.207 552.127,359.827 
  559.107,373.599 566.087,387.497 573.067,401.494 580.047,415.565 587.027,429.689 594.007,443.844 600.987,458.011 607.967,472.173 614.947,486.313 621.927,500.417 
  628.907,514.469 635.887,528.457 642.867,542.37 649.847,556.197 656.827,569.928 663.807,583.554 670.787,597.067 677.767,610.46 684.747,623.726 691.727,636.859 
  698.707,649.854 705.687,662.706 712.667,675.411 719.647,687.965 726.627,700.365 733.607,712.608 740.587,724.693 747.567,736.615 754.547,748.375 761.527,759.971 
  768.507,771.402 775.487,782.667 782.467,793.765 789.447,804.697 796.427,815.462 803.407,826.061 810.387,836.493 817.367,846.76 824.347,856.863 831.327,866.801 
  838.307,876.576 845.287,886.19 852.267,895.643 859.247,904.937 866.227,914.072 873.207,923.052 880.187,931.877 887.167,940.548 894.147,949.068 901.127,957.439 
  908.107,965.661 915.087,973.738 922.067,981.67 929.047,989.46 936.027,997.109 943.007,1004.62 949.987,1012 956.967,1019.24 963.947,1026.34 970.927,1033.32 
  977.907,1040.17 984.887,1046.89 991.867,1053.49 998.847,1059.96 1005.83,1066.31 1012.81,1072.55 1019.79,1078.67 1026.77,1084.67 1033.75,1090.56 1040.73,1096.34 
  1047.71,1102.01 1054.69,1107.57 1061.67,1113.03 1068.65,1118.38 1075.63,1123.64 1082.61,1128.79 1089.59,1133.84 1096.57,1138.8 1103.55,1143.66 1110.53,1148.43 
  1117.51,1153.1 1124.49,1157.69 1131.47,1162.19 1138.45,1166.6 1145.43,1170.93 1152.41,1175.17 1159.39,1179.34 1166.37,1183.42 1173.35,1187.42 1180.33,1191.34 
  1187.31,1195.19 1194.29,1198.97 1201.27,1202.67 1208.25,1206.3 1215.23,1209.86 1222.21,1213.35 1229.19,1216.77 1236.17,1220.12 1243.15,1223.41 1250.13,1226.64 
  1257.11,1229.8 1264.09,1232.9 1271.07,1235.94 1278.05,1238.92 1285.03,1241.84 1292.01,1244.71 1298.99,1247.51 1305.97,1250.27 1312.95,1252.97 1319.93,1255.61 
  1326.91,1258.21 1333.89,1260.75 1340.87,1263.25 1347.85,1265.69 1354.83,1268.09 1361.81,1270.44 1368.79,1272.74 1375.77,1275 1382.75,1277.21 1389.73,1279.38 
  1396.71,1281.51 1403.69,1283.59 1410.67,1285.64 1417.65,1287.64 1424.63,1289.6 1431.61,1291.53 1438.59,1293.42 1445.57,1295.27 1452.55,1297.08 1459.53,1298.86 
  1466.51,1300.6 1473.49,1302.3 1480.47,1303.98 1487.45,1305.62 1494.43,1307.22 1501.41,1308.8 1508.39,1310.34 1515.37,1311.86 1522.35,1313.34 1529.33,1314.8 
  1536.31,1316.22 1543.29,1317.62 1550.27,1318.99 1557.25,1320.33 1564.23,1321.64 1571.21,1322.93 1578.19,1324.19 1585.17,1325.43 1592.15,1326.64 1599.13,1327.83 
  1606.11,1329 1613.09,1330.14 1620.07,1331.26 1627.05,1332.36 1634.03,1333.43 1641.01,1334.48 1647.99,1335.52 1654.97,1336.53 1661.95,1337.52 1668.93,1338.49 
  1675.91,1339.45 1682.89,1340.38 1689.87,1341.3 1696.85,1342.19 1703.83,1343.07 1710.81,1343.94 1717.79,1344.78 1724.77,1345.61 1731.75,1346.42 1738.73,1347.22 
  1745.71,1348 1752.69,1348.77 1759.67,1349.52 1766.65,1350.26 1773.63,1350.98 1780.61,1351.69 1787.59,1352.39 1794.57,1353.07 1801.55,1353.74 1808.53,1354.4 
  1815.51,1355.05 1822.49,1355.69 1829.47,1356.31 1836.45,1356.92 1843.43,1357.53 1850.41,1358.12 1857.39,1358.7 1864.37,1359.28 1871.35,1359.84 1878.33,1360.4 
  1885.31,1360.94 1892.29,1361.48 1899.27,1362.02 1906.25,1362.54 1913.23,1363.06 1920.21,1363.57 1927.19,1364.07 1934.17,1364.57 1941.15,1365.06 1948.13,1365.54 
  1955.11,1366.02 1962.09,1366.5 1969.07,1366.97 1976.05,1367.43 1983.03,1367.89 1990.01,1368.35 1996.99,1368.8 2003.97,1369.25 2010.95,1369.7 2017.93,1370.14 
  2024.91,1370.58 2031.89,1371.02 2038.87,1371.45 2045.85,1371.88 2052.83,1372.3 2059.81,1372.72 2066.79,1373.14 2073.77,1373.56 2080.75,1373.97 2087.73,1374.37 
  2094.71,1374.77 2101.69,1375.17 2108.67,1375.56 2115.65,1375.94 2122.63,1376.31 2129.61,1376.67 2136.59,1377.02 2143.57,1377.36 2150.55,1377.69 2157.53,1378 
  2164.51,1378.29 2171.49,1378.56 2178.47,1378.81 2185.45,1379.04 2192.43,1379.23 2199.41,1379.39 2206.39,1379.52 2213.37,1379.6 2220.35,1379.64 2227.33,1379.63 
  2234.31,1379.57 2241.29,1379.44 2248.27,1379.24 2255.25,1378.96 2262.23,1378.6 2269.21,1378.15 2276.19,1377.6 2283.17,1376.93 2290.15,1376.17 
  "/>
<polyline clip-path="url(#clip5102)" style="stroke:#ac8d18; stroke-width:4; stroke-opacity:1; fill:none" points="
  210.107,1288.63 217.087,1192.6 224.067,1100.99 231.047,1014.06 238.027,931.967 245.007,854.8 251.987,782.573 258.967,715.243 265.947,652.723 272.927,594.896 
  279.907,541.618 286.887,492.725 293.867,448.041 300.847,407.383 307.827,370.585 314.807,337.454 321.787,307.802 328.767,281.443 335.747,258.193 342.727,237.873 
  349.707,220.31 356.687,205.335 363.667,192.789 370.647,182.515 377.627,174.366 384.607,168.203 391.587,163.891 398.567,161.302 405.547,160.315 412.527,160.816 
  419.507,162.696 426.487,165.853 433.467,170.188 440.447,175.61 447.427,182.032 454.407,189.373 461.387,197.556 468.367,206.507 475.347,216.16 482.327,226.45 
  489.307,237.316 496.287,248.702 503.267,260.556 510.247,272.827 517.227,285.469 524.207,298.439 531.187,311.696 538.167,325.202 545.147,338.921 552.127,352.821 
  559.107,366.872 566.087,381.044 573.067,395.31 580.047,409.648 587.027,424.033 594.007,438.445 600.987,452.863 607.967,467.271 614.947,481.652 621.927,495.99 
  628.907,510.271 635.887,524.483 642.867,538.614 649.847,552.653 656.827,566.59 663.807,580.416 670.787,594.124 677.767,607.706 684.747,621.155 691.727,634.467 
  698.707,647.634 705.687,660.654 712.667,673.521 719.647,686.233 726.627,698.785 733.607,711.176 740.587,723.404 747.567,735.465 754.547,747.36 761.527,759.086 
  768.507,770.643 775.487,782.03 782.467,793.246 789.447,804.293 796.427,815.169 803.407,825.875 810.387,836.412 817.367,846.78 824.347,856.981 831.327,867.014 
  838.307,876.881 845.287,886.584 852.267,896.124 859.247,905.501 866.227,914.719 873.207,923.777 880.187,932.679 887.167,941.425 894.147,950.017 901.127,958.457 
  908.107,966.748 915.087,974.89 922.067,982.886 929.047,990.738 936.027,998.448 943.007,1006.02 949.987,1013.45 956.967,1020.74 963.947,1027.91 970.927,1034.93 
  977.907,1041.83 984.887,1048.6 991.867,1055.25 998.847,1061.77 1005.83,1068.17 1012.81,1074.45 1019.79,1080.61 1026.77,1086.65 1033.75,1092.58 1040.73,1098.4 
  1047.71,1104.11 1054.69,1109.71 1061.67,1115.2 1068.65,1120.59 1075.63,1125.88 1082.61,1131.06 1089.59,1136.15 1096.57,1141.13 1103.55,1146.03 1110.53,1150.83 
  1117.51,1155.53 1124.49,1160.15 1131.47,1164.68 1138.45,1169.12 1145.43,1173.47 1152.41,1177.74 1159.39,1181.93 1166.37,1186.04 1173.35,1190.07 1180.33,1194.02 
  1187.31,1197.89 1194.29,1201.69 1201.27,1205.42 1208.25,1209.07 1215.23,1212.65 1222.21,1216.17 1229.19,1219.61 1236.17,1222.99 1243.15,1226.3 1250.13,1229.55 
  1257.11,1232.73 1264.09,1235.86 1271.07,1238.92 1278.05,1241.92 1285.03,1244.87 1292.01,1247.76 1298.99,1250.59 1305.97,1253.36 1312.95,1256.09 1319.93,1258.76 
  1326.91,1261.37 1333.89,1263.94 1340.87,1266.46 1347.85,1268.93 1354.83,1271.35 1361.81,1273.72 1368.79,1276.05 1375.77,1278.33 1382.75,1280.57 1389.73,1282.76 
  1396.71,1284.91 1403.69,1287.02 1410.67,1289.09 1417.65,1291.12 1424.63,1293.1 1431.61,1295.05 1438.59,1296.97 1445.57,1298.84 1452.55,1300.68 1459.53,1302.48 
  1466.51,1304.25 1473.49,1305.98 1480.47,1307.68 1487.45,1309.35 1494.43,1310.98 1501.41,1312.59 1508.39,1314.16 1515.37,1315.7 1522.35,1317.21 1529.33,1318.69 
  1536.31,1320.14 1543.29,1321.57 1550.27,1322.96 1557.25,1324.33 1564.23,1325.68 1571.21,1326.99 1578.19,1328.28 1585.17,1329.55 1592.15,1330.79 1599.13,1332.01 
  1606.11,1333.2 1613.09,1334.37 1620.07,1335.52 1627.05,1336.64 1634.03,1337.74 1641.01,1338.82 1647.99,1339.88 1654.97,1340.92 1661.95,1341.94 1668.93,1342.94 
  1675.91,1343.92 1682.89,1344.88 1689.87,1345.82 1696.85,1346.74 1703.83,1347.64 1710.81,1348.53 1717.79,1349.4 1724.77,1350.25 1731.75,1351.08 1738.73,1351.9 
  1745.71,1352.7 1752.69,1353.49 1759.67,1354.25 1766.65,1355.01 1773.63,1355.75 1780.61,1356.47 1787.59,1357.18 1794.57,1357.88 1801.55,1358.56 1808.53,1359.22 
  1815.51,1359.88 1822.49,1360.52 1829.47,1361.14 1836.45,1361.76 1843.43,1362.36 1850.41,1362.95 1857.39,1363.53 1864.37,1364.09 1871.35,1364.65 1878.33,1365.19 
  1885.31,1365.72 1892.29,1366.24 1899.27,1366.76 1906.25,1367.26 1913.23,1367.75 1920.21,1368.23 1927.19,1368.7 1934.17,1369.16 1941.15,1369.61 1948.13,1370.06 
  1955.11,1370.49 1962.09,1370.92 1969.07,1371.34 1976.05,1371.75 1983.03,1372.16 1990.01,1372.55 1996.99,1372.94 2003.97,1373.33 2010.95,1373.7 2017.93,1374.08 
  2024.91,1374.44 2031.89,1374.8 2038.87,1375.16 2045.85,1375.51 2052.83,1375.85 2059.81,1376.19 2066.79,1376.53 2073.77,1376.86 2080.75,1377.19 2087.73,1377.52 
  2094.71,1377.84 2101.69,1378.16 2108.67,1378.48 2115.65,1378.79 2122.63,1379.1 2129.61,1379.4 2136.59,1379.71 2143.57,1380.01 2150.55,1380.3 2157.53,1380.59 
  2164.51,1380.88 2171.49,1381.16 2178.47,1381.44 2185.45,1381.71 2192.43,1381.97 2199.41,1382.22 2206.39,1382.46 2213.37,1382.69 2220.35,1382.9 2227.33,1383.1 
  2234.31,1383.28 2241.29,1383.43 2248.27,1383.56 2255.25,1383.66 2262.23,1383.72 2269.21,1383.75 2276.19,1383.73 2283.17,1383.66 2290.15,1383.54 
  "/>
<polyline clip-path="url(#clip5102)" style="stroke:#00a9ad; stroke-width:4; stroke-opacity:1; fill:none" points="
  210.107,1288.63 217.087,1192.58 224.067,1100.94 231.047,1013.97 238.027,931.819 245.007,854.591 251.987,782.295 258.967,714.891 265.947,652.295 272.927,594.39 
  279.907,541.033 286.887,492.063 293.867,447.303 300.847,406.571 307.827,369.704 314.807,336.509 321.787,306.798 328.767,280.383 335.747,257.083 342.727,236.717 
  349.707,219.112 356.687,204.101 363.667,191.523 370.647,181.222 377.627,173.051 384.607,166.87 391.587,162.543 398.567,159.943 405.547,158.949 412.527,159.445 
  419.507,161.324 426.487,164.481 433.467,168.82 440.447,174.248 447.427,180.678 454.407,188.029 461.387,196.223 468.367,205.187 475.347,214.855 482.327,225.16 
  489.307,236.042 496.287,247.446 503.267,259.318 510.247,271.608 517.227,284.269 524.207,297.259 531.187,310.535 538.167,324.061 545.147,337.801 552.127,351.721 
  559.107,365.791 566.087,379.983 573.067,394.269 580.047,408.626 587.027,423.029 594.007,437.459 600.987,451.896 607.967,466.321 614.947,480.718 621.927,495.073 
  628.907,509.37 635.887,523.597 642.867,537.742 649.847,551.794 656.827,565.744 663.807,579.583 670.787,593.303 677.767,606.896 684.747,620.356 691.727,633.677 
  698.707,646.854 705.687,659.883 712.667,672.758 719.647,685.477 726.627,698.037 733.607,710.434 740.587,722.668 747.567,734.735 754.547,746.634 761.527,758.364 
  768.507,769.925 775.487,781.315 782.467,792.535 789.447,803.584 796.427,814.462 803.407,825.17 810.387,835.708 817.367,846.077 824.347,856.278 831.327,866.311 
  838.307,876.179 845.287,885.881 852.267,895.42 859.247,904.796 866.227,914.012 873.207,923.069 880.187,931.968 887.167,940.712 894.147,949.301 901.127,957.739 
  908.107,966.026 915.087,974.166 922.067,982.158 929.047,990.006 936.027,997.712 943.007,1005.28 949.987,1012.7 956.967,1020 963.947,1027.15 970.927,1034.18 
  977.907,1041.07 984.887,1047.83 991.867,1054.47 998.847,1060.99 1005.83,1067.38 1012.81,1073.65 1019.79,1079.81 1026.77,1085.85 1033.75,1091.77 1040.73,1097.58 
  1047.71,1103.28 1054.69,1108.88 1061.67,1114.36 1068.65,1119.74 1075.63,1125.02 1082.61,1130.2 1089.59,1135.28 1096.57,1140.26 1103.55,1145.14 1110.53,1149.93 
  1117.51,1154.63 1124.49,1159.24 1131.47,1163.76 1138.45,1168.19 1145.43,1172.54 1152.41,1176.8 1159.39,1180.98 1166.37,1185.08 1173.35,1189.1 1180.33,1193.04 
  1187.31,1196.9 1194.29,1200.69 1201.27,1204.41 1208.25,1208.05 1215.23,1211.63 1222.21,1215.13 1229.19,1218.56 1236.17,1221.93 1243.15,1225.24 1250.13,1228.47 
  1257.11,1231.65 1264.09,1234.76 1271.07,1237.82 1278.05,1240.81 1285.03,1243.74 1292.01,1246.62 1298.99,1249.44 1305.97,1252.21 1312.95,1254.92 1319.93,1257.58 
  1326.91,1260.19 1333.89,1262.74 1340.87,1265.25 1347.85,1267.71 1354.83,1270.12 1361.81,1272.48 1368.79,1274.79 1375.77,1277.07 1382.75,1279.29 1389.73,1281.48 
  1396.71,1283.62 1403.69,1285.71 1410.67,1287.77 1417.65,1289.79 1424.63,1291.77 1431.61,1293.71 1438.59,1295.61 1445.57,1297.47 1452.55,1299.3 1459.53,1301.09 
  1466.51,1302.85 1473.49,1304.57 1480.47,1306.26 1487.45,1307.92 1494.43,1309.54 1501.41,1311.13 1508.39,1312.69 1515.37,1314.22 1522.35,1315.72 1529.33,1317.19 
  1536.31,1318.64 1543.29,1320.05 1550.27,1321.44 1557.25,1322.8 1564.23,1324.13 1571.21,1325.44 1578.19,1326.72 1585.17,1327.97 1592.15,1329.21 1599.13,1330.41 
  1606.11,1331.6 1613.09,1332.76 1620.07,1333.9 1627.05,1335.01 1634.03,1336.11 1641.01,1337.18 1647.99,1338.23 1654.97,1339.26 1661.95,1340.27 1668.93,1341.26 
  1675.91,1342.24 1682.89,1343.19 1689.87,1344.12 1696.85,1345.04 1703.83,1345.94 1710.81,1346.82 1717.79,1347.68 1724.77,1348.52 1731.75,1349.35 1738.73,1350.16 
  1745.71,1350.96 1752.69,1351.74 1759.67,1352.51 1766.65,1353.26 1773.63,1353.99 1780.61,1354.71 1787.59,1355.42 1794.57,1356.11 1801.55,1356.79 1808.53,1357.45 
  1815.51,1358.11 1822.49,1358.74 1829.47,1359.37 1836.45,1359.98 1843.43,1360.58 1850.41,1361.17 1857.39,1361.75 1864.37,1362.31 1871.35,1362.87 1878.33,1363.41 
  1885.31,1363.94 1892.29,1364.46 1899.27,1364.97 1906.25,1365.47 1913.23,1365.96 1920.21,1366.44 1927.19,1366.91 1934.17,1367.37 1941.15,1367.82 1948.13,1368.26 
  1955.11,1368.69 1962.09,1369.11 1969.07,1369.53 1976.05,1369.93 1983.03,1370.33 1990.01,1370.72 1996.99,1371.11 2003.97,1371.48 2010.95,1371.85 2017.93,1372.21 
  2024.91,1372.57 2031.89,1372.91 2038.87,1373.26 2045.85,1373.59 2052.83,1373.92 2059.81,1374.24 2066.79,1374.56 2073.77,1374.88 2080.75,1375.19 2087.73,1375.49 
  2094.71,1375.79 2101.69,1376.08 2108.67,1376.38 2115.65,1376.66 2122.63,1376.95 2129.61,1377.23 2136.59,1377.5 2143.57,1377.77 2150.55,1378.04 2157.53,1378.31 
  2164.51,1378.57 2171.49,1378.83 2178.47,1379.08 2185.45,1379.33 2192.43,1379.57 2199.41,1379.81 2206.39,1380.04 2213.37,1380.27 2220.35,1380.49 2227.33,1380.69 
  2234.31,1380.89 2241.29,1381.07 2248.27,1381.24 2255.25,1381.39 2262.23,1381.53 2269.21,1381.63 2276.19,1381.72 2283.17,1381.77 2290.15,1381.79 
  "/>
<polyline clip-path="url(#clip5102)" style="stroke:#ed5d92; stroke-width:4; stroke-opacity:1; fill:none" points="
  210.107,1288.65 217.087,1192.62 224.067,1100.99 231.047,1014.02 238.027,931.872 245.007,854.636 251.987,782.329 258.967,714.91 265.947,652.296 272.927,594.37 
  279.907,540.991 286.887,491.996 293.867,447.212 300.847,406.455 307.827,369.564 314.807,336.346 321.787,306.613 328.767,280.177 335.747,256.857 342.727,236.473 
  349.707,218.852 356.687,203.826 363.667,191.234 370.647,180.921 377.627,172.741 384.607,166.551 391.587,162.217 398.567,159.612 405.547,158.613 412.527,159.107 
  419.507,160.984 426.487,164.141 433.467,168.48 440.447,173.909 447.427,180.342 454.407,187.696 461.387,195.894 468.367,204.864 475.347,214.537 482.327,224.848 
  489.307,235.737 496.287,247.148 503.267,259.027 510.247,271.325 517.227,283.994 524.207,296.992 531.187,310.277 538.167,323.811 545.147,337.559 552.127,351.488 
  559.107,365.567 566.087,379.767 573.067,394.062 580.047,408.427 587.027,422.84 594.007,437.278 600.987,451.723 607.967,466.156 614.947,480.562 621.927,494.924 
  628.907,509.228 635.887,523.462 642.867,537.615 649.847,551.674 656.827,565.631 663.807,579.476 670.787,593.202 677.767,606.802 684.747,620.267 691.727,633.594 
  698.707,646.777 705.687,659.81 712.667,672.691 719.647,685.414 726.627,697.978 733.607,710.38 740.587,722.618 747.567,734.688 754.547,746.591 761.527,758.325 
  768.507,769.889 775.487,781.283 782.467,792.506 789.447,803.557 796.427,814.438 803.407,825.149 810.387,835.689 817.367,846.061 824.347,856.264 831.327,866.3 
  838.307,876.169 845.287,885.873 852.267,895.414 859.247,904.792 866.227,914.009 873.207,923.068 880.187,931.968 887.167,940.713 894.147,949.304 901.127,957.743 
  908.107,966.032 915.087,974.172 922.067,982.165 929.047,990.015 936.027,997.721 943.007,1005.29 949.987,1012.72 956.967,1020.01 963.947,1027.16 970.927,1034.19 
  977.907,1041.08 984.887,1047.85 991.867,1054.49 998.847,1061 1005.83,1067.4 1012.81,1073.67 1019.79,1079.82 1026.77,1085.86 1033.75,1091.79 1040.73,1097.6 
  1047.71,1103.3 1054.69,1108.89 1061.67,1114.38 1068.65,1119.76 1075.63,1125.04 1082.61,1130.22 1089.59,1135.3 1096.57,1140.28 1103.55,1145.16 1110.53,1149.95 
  1117.51,1154.65 1124.49,1159.26 1131.47,1163.78 1138.45,1168.21 1145.43,1172.56 1152.41,1176.82 1159.39,1181 1166.37,1185.1 1173.35,1189.12 1180.33,1193.06 
  1187.31,1196.92 1194.29,1200.71 1201.27,1204.43 1208.25,1208.07 1215.23,1211.64 1222.21,1215.15 1229.19,1218.58 1236.17,1221.95 1243.15,1225.25 1250.13,1228.49 
  1257.11,1231.67 1264.09,1234.78 1271.07,1237.83 1278.05,1240.82 1285.03,1243.76 1292.01,1246.64 1298.99,1249.46 1305.97,1252.22 1312.95,1254.93 1319.93,1257.59 
  1326.91,1260.2 1333.89,1262.76 1340.87,1265.26 1347.85,1267.72 1354.83,1270.13 1361.81,1272.49 1368.79,1274.81 1375.77,1277.08 1382.75,1279.3 1389.73,1281.49 
  1396.71,1283.63 1403.69,1285.72 1410.67,1287.78 1417.65,1289.8 1424.63,1291.77 1431.61,1293.71 1438.59,1295.61 1445.57,1297.48 1452.55,1299.3 1459.53,1301.1 
  1466.51,1302.85 1473.49,1304.57 1480.47,1306.26 1487.45,1307.92 1494.43,1309.54 1501.41,1311.13 1508.39,1312.69 1515.37,1314.22 1522.35,1315.72 1529.33,1317.19 
  1536.31,1318.63 1543.29,1320.05 1550.27,1321.43 1557.25,1322.79 1564.23,1324.12 1571.21,1325.43 1578.19,1326.71 1585.17,1327.96 1592.15,1329.19 1599.13,1330.4 
  1606.11,1331.58 1613.09,1332.74 1620.07,1333.88 1627.05,1335 1634.03,1336.09 1641.01,1337.16 1647.99,1338.21 1654.97,1339.24 1661.95,1340.25 1668.93,1341.24 
  1675.91,1342.22 1682.89,1343.17 1689.87,1344.1 1696.85,1345.02 1703.83,1345.91 1710.81,1346.79 1717.79,1347.66 1724.77,1348.5 1731.75,1349.33 1738.73,1350.14 
  1745.71,1350.94 1752.69,1351.72 1759.67,1352.49 1766.65,1353.24 1773.63,1353.98 1780.61,1354.7 1787.59,1355.41 1794.57,1356.1 1801.55,1356.78 1808.53,1357.45 
  1815.51,1358.1 1822.49,1358.74 1829.47,1359.37 1836.45,1359.98 1843.43,1360.59 1850.41,1361.18 1857.39,1361.76 1864.37,1362.33 1871.35,1362.88 1878.33,1363.43 
  1885.31,1363.96 1892.29,1364.49 1899.27,1365 1906.25,1365.5 1913.23,1366 1920.21,1366.48 1927.19,1366.95 1934.17,1367.42 1941.15,1367.87 1948.13,1368.32 
  1955.11,1368.75 1962.09,1369.18 1969.07,1369.6 1976.05,1370.01 1983.03,1370.41 1990.01,1370.8 1996.99,1371.19 2003.97,1371.57 2010.95,1371.94 2017.93,1372.3 
  2024.91,1372.65 2031.89,1373 2038.87,1373.34 2045.85,1373.68 2052.83,1374 2059.81,1374.32 2066.79,1374.64 2073.77,1374.95 2080.75,1375.25 2087.73,1375.55 
  2094.71,1375.84 2101.69,1376.13 2108.67,1376.41 2115.65,1376.68 2122.63,1376.95 2129.61,1377.22 2136.59,1377.48 2143.57,1377.74 2150.55,1377.99 2157.53,1378.24 
  2164.51,1378.48 2171.49,1378.72 2178.47,1378.96 2185.45,1379.19 2192.43,1379.41 2199.41,1379.64 2206.39,1379.86 2213.37,1380.07 2220.35,1380.28 2227.33,1380.48 
  2234.31,1380.67 2241.29,1380.86 2248.27,1381.04 2255.25,1381.21 2262.23,1381.36 2269.21,1381.51 2276.19,1381.64 2283.17,1381.76 2290.15,1381.86 
  "/>
<polyline clip-path="url(#clip5102)" style="stroke:#c68125; stroke-width:4; stroke-opacity:1; fill:none" points="
  210.107,1288.66 217.087,1192.65 224.067,1101.03 231.047,1014.07 238.027,931.923 245.007,854.693 251.987,782.388 258.967,714.97 265.947,652.356 272.927,594.429 
  279.907,541.046 286.887,492.048 293.867,447.258 300.847,406.496 307.827,369.599 314.807,336.375 321.787,306.636 328.767,280.194 335.747,256.868 342.727,236.478 
  349.707,218.851 356.687,203.819 363.667,191.222 370.647,180.905 377.627,172.72 384.607,166.526 391.587,162.189 398.567,159.58 405.547,158.579 412.527,159.071 
  419.507,160.945 426.487,164.1 433.467,168.438 440.447,173.866 447.427,180.298 454.407,187.651 461.387,195.849 468.367,204.818 475.347,214.49 482.327,224.802 
  489.307,235.691 496.287,247.103 503.267,258.983 510.247,271.281 517.227,283.952 524.207,296.95 531.187,310.237 538.167,323.772 545.147,337.522 552.127,351.452 
  559.107,365.532 566.087,379.734 573.067,394.031 580.047,408.397 587.027,422.811 594.007,437.251 600.987,451.698 607.967,466.132 614.947,480.539 621.927,494.903 
  628.907,509.209 635.887,523.445 642.867,537.598 649.847,551.659 656.827,565.617 663.807,579.464 670.787,593.191 677.767,606.792 684.747,620.259 691.727,633.587 
  698.707,646.77 705.687,659.804 712.667,672.686 719.647,685.41 726.627,697.975 733.607,710.378 740.587,722.616 747.567,734.688 754.547,746.591 761.527,758.326 
  768.507,769.89 775.487,781.284 782.467,792.508 789.447,803.56 796.427,814.441 803.407,825.152 810.387,835.693 817.367,846.065 824.347,856.268 831.327,866.304 
  838.307,876.174 845.287,885.878 852.267,895.419 859.247,904.797 866.227,914.015 873.207,923.073 880.187,931.974 887.167,940.719 894.147,949.31 901.127,957.749 
  908.107,966.038 915.087,974.178 922.067,982.172 929.047,990.021 936.027,997.728 943.007,1005.29 949.987,1012.72 956.967,1020.01 963.947,1027.17 970.927,1034.19 
  977.907,1041.09 984.887,1047.85 991.867,1054.49 998.847,1061.01 1005.83,1067.4 1012.81,1073.68 1019.79,1079.83 1026.77,1085.87 1033.75,1091.79 1040.73,1097.61 
  1047.71,1103.31 1054.69,1108.9 1061.67,1114.39 1068.65,1119.77 1075.63,1125.05 1082.61,1130.22 1089.59,1135.3 1096.57,1140.28 1103.55,1145.17 1110.53,1149.96 
  1117.51,1154.66 1124.49,1159.26 1131.47,1163.78 1138.45,1168.22 1145.43,1172.56 1152.41,1176.82 1159.39,1181 1166.37,1185.1 1173.35,1189.12 1180.33,1193.06 
  1187.31,1196.93 1194.29,1200.72 1201.27,1204.43 1208.25,1208.08 1215.23,1211.65 1222.21,1215.15 1229.19,1218.59 1236.17,1221.95 1243.15,1225.26 1250.13,1228.5 
  1257.11,1231.67 1264.09,1234.78 1271.07,1237.84 1278.05,1240.83 1285.03,1243.76 1292.01,1246.64 1298.99,1249.46 1305.97,1252.23 1312.95,1254.94 1319.93,1257.6 
  1326.91,1260.2 1333.89,1262.76 1340.87,1265.27 1347.85,1267.72 1354.83,1270.13 1361.81,1272.49 1368.79,1274.81 1375.77,1277.08 1382.75,1279.31 1389.73,1281.49 
  1396.71,1283.63 1403.69,1285.73 1410.67,1287.78 1417.65,1289.8 1424.63,1291.78 1431.61,1293.72 1438.59,1295.62 1445.57,1297.48 1452.55,1299.31 1459.53,1301.1 
  1466.51,1302.86 1473.49,1304.58 1480.47,1306.27 1487.45,1307.92 1494.43,1309.54 1501.41,1311.14 1508.39,1312.7 1515.37,1314.22 1522.35,1315.72 1529.33,1317.19 
  1536.31,1318.64 1543.29,1320.05 1550.27,1321.43 1557.25,1322.79 1564.23,1324.12 1571.21,1325.43 1578.19,1326.71 1585.17,1327.97 1592.15,1329.2 1599.13,1330.4 
  1606.11,1331.59 1613.09,1332.74 1620.07,1333.88 1627.05,1335 1634.03,1336.09 1641.01,1337.16 1647.99,1338.21 1654.97,1339.24 1661.95,1340.25 1668.93,1341.24 
  1675.91,1342.21 1682.89,1343.16 1689.87,1344.1 1696.85,1345.01 1703.83,1345.91 1710.81,1346.79 1717.79,1347.65 1724.77,1348.49 1731.75,1349.32 1738.73,1350.14 
  1745.71,1350.93 1752.69,1351.71 1759.67,1352.48 1766.65,1353.23 1773.63,1353.97 1780.61,1354.69 1787.59,1355.39 1794.57,1356.09 1801.55,1356.77 1808.53,1357.43 
  1815.51,1358.09 1822.49,1358.73 1829.47,1359.36 1836.45,1359.97 1843.43,1360.57 1850.41,1361.17 1857.39,1361.75 1864.37,1362.31 1871.35,1362.87 1878.33,1363.42 
  1885.31,1363.95 1892.29,1364.48 1899.27,1364.99 1906.25,1365.5 1913.23,1365.99 1920.21,1366.48 1927.19,1366.95 1934.17,1367.42 1941.15,1367.87 1948.13,1368.32 
  1955.11,1368.76 1962.09,1369.19 1969.07,1369.61 1976.05,1370.02 1983.03,1370.42 1990.01,1370.82 1996.99,1371.21 2003.97,1371.59 2010.95,1371.96 2017.93,1372.33 
  2024.91,1372.68 2031.89,1373.03 2038.87,1373.38 2045.85,1373.71 2052.83,1374.04 2059.81,1374.36 2066.79,1374.68 2073.77,1374.99 2080.75,1375.29 2087.73,1375.59 
  2094.71,1375.88 2101.69,1376.16 2108.67,1376.44 2115.65,1376.72 2122.63,1376.98 2129.61,1377.25 2136.59,1377.5 2143.57,1377.76 2150.55,1378 2157.53,1378.24 
  2164.51,1378.48 2171.49,1378.71 2178.47,1378.94 2185.45,1379.16 2192.43,1379.38 2199.41,1379.59 2206.39,1379.8 2213.37,1380.01 2220.35,1380.21 2227.33,1380.4 
  2234.31,1380.59 2241.29,1380.77 2248.27,1380.95 2255.25,1381.12 2262.23,1381.29 2269.21,1381.45 2276.19,1381.6 2283.17,1381.74 2290.15,1381.87 
  "/>
<polyline clip-path="url(#clip5102)" style="stroke:#00a98d; stroke-width:4; stroke-opacity:1; fill:none" points="
  210.107,1288.67 217.087,1192.65 224.067,1101.04 231.047,1014.08 238.027,931.939 245.007,854.711 251.987,782.409 258.967,714.993 265.947,652.38 272.927,594.453 
  279.907,541.072 286.887,492.074 293.867,447.284 300.847,406.521 307.827,369.624 314.807,336.399 321.787,306.659 328.767,280.217 335.747,256.89 342.727,236.499 
  349.707,218.87 356.687,203.838 363.667,191.24 370.647,180.921 377.627,172.735 384.607,166.54 391.587,162.202 398.567,159.592 405.547,158.59 412.527,159.081 
  419.507,160.955 426.487,164.109 433.467,168.446 440.447,173.873 447.427,180.304 454.407,187.657 461.387,195.854 468.367,204.823 475.347,214.495 482.327,224.806 
  489.307,235.695 496.287,247.106 503.267,258.986 510.247,271.284 517.227,283.954 524.207,296.953 531.187,310.239 538.167,323.774 545.147,337.524 552.127,351.454 
  559.107,365.534 566.087,379.736 573.067,394.033 580.047,408.399 587.027,422.813 594.007,437.253 600.987,451.7 607.967,466.135 614.947,480.541 621.927,494.905 
  628.907,509.211 635.887,523.447 642.867,537.601 649.847,551.661 656.827,565.62 663.807,579.467 670.787,593.194 677.767,606.794 684.747,620.261 691.727,633.589 
  698.707,646.773 705.687,659.807 712.667,672.689 719.647,685.413 726.627,697.978 733.607,710.381 740.587,722.619 747.567,734.691 754.547,746.594 761.527,758.329 
  768.507,769.893 775.487,781.287 782.467,792.51 789.447,803.563 796.427,814.444 803.407,825.155 810.387,835.696 817.367,846.068 824.347,856.271 831.327,866.307 
  838.307,876.176 845.287,885.881 852.267,895.421 859.247,904.8 866.227,914.017 873.207,923.076 880.187,931.977 887.167,940.722 894.147,949.313 901.127,957.752 
  908.107,966.04 915.087,974.18 922.067,982.174 929.047,990.023 936.027,997.73 943.007,1005.3 949.987,1012.72 956.967,1020.02 963.947,1027.17 970.927,1034.2 
  977.907,1041.09 984.887,1047.86 991.867,1054.5 998.847,1061.01 1005.83,1067.4 1012.81,1073.68 1019.79,1079.83 1026.77,1085.87 1033.75,1091.79 1040.73,1097.61 
  1047.71,1103.31 1054.69,1108.9 1061.67,1114.39 1068.65,1119.77 1075.63,1125.05 1082.61,1130.22 1089.59,1135.3 1096.57,1140.28 1103.55,1145.17 1110.53,1149.96 
  1117.51,1154.66 1124.49,1159.27 1131.47,1163.78 1138.45,1168.22 1145.43,1172.56 1152.41,1176.82 1159.39,1181 1166.37,1185.1 1173.35,1189.12 1180.33,1193.06 
  1187.31,1196.93 1194.29,1200.72 1201.27,1204.43 1208.25,1208.08 1215.23,1211.65 1222.21,1215.15 1229.19,1218.59 1236.17,1221.96 1243.15,1225.26 1250.13,1228.5 
  1257.11,1231.67 1264.09,1234.78 1271.07,1237.84 1278.05,1240.83 1285.03,1243.76 1292.01,1246.64 1298.99,1249.46 1305.97,1252.23 1312.95,1254.94 1319.93,1257.6 
  1326.91,1260.2 1333.89,1262.76 1340.87,1265.27 1347.85,1267.72 1354.83,1270.13 1361.81,1272.49 1368.79,1274.81 1375.77,1277.08 1382.75,1279.31 1389.73,1281.49 
  1396.71,1283.63 1403.69,1285.73 1410.67,1287.78 1417.65,1289.8 1424.63,1291.78 1431.61,1293.72 1438.59,1295.62 1445.57,1297.48 1452.55,1299.31 1459.53,1301.1 
  1466.51,1302.86 1473.49,1304.58 1480.47,1306.27 1487.45,1307.92 1494.43,1309.54 1501.41,1311.14 1508.39,1312.7 1515.37,1314.23 1522.35,1315.72 1529.33,1317.19 
  1536.31,1318.64 1543.29,1320.05 1550.27,1321.44 1557.25,1322.79 1564.23,1324.13 1571.21,1325.43 1578.19,1326.71 1585.17,1327.97 1592.15,1329.2 1599.13,1330.4 
  1606.11,1331.59 1613.09,1332.75 1620.07,1333.88 1627.05,1335 1634.03,1336.09 1641.01,1337.16 1647.99,1338.21 1654.97,1339.24 1661.95,1340.25 1668.93,1341.24 
  1675.91,1342.21 1682.89,1343.16 1689.87,1344.1 1696.85,1345.01 1703.83,1345.91 1710.81,1346.79 1717.79,1347.65 1724.77,1348.5 1731.75,1349.32 1738.73,1350.14 
  1745.71,1350.93 1752.69,1351.71 1759.67,1352.48 1766.65,1353.23 1773.63,1353.96 1780.61,1354.69 1787.59,1355.39 1794.57,1356.09 1801.55,1356.77 1808.53,1357.43 
  1815.51,1358.08 1822.49,1358.72 1829.47,1359.35 1836.45,1359.97 1843.43,1360.57 1850.41,1361.16 1857.39,1361.74 1864.37,1362.31 1871.35,1362.87 1878.33,1363.41 
  1885.31,1363.95 1892.29,1364.47 1899.27,1364.99 1906.25,1365.49 1913.23,1365.99 1920.21,1366.47 1927.19,1366.95 1934.17,1367.41 1941.15,1367.87 1948.13,1368.32 
  1955.11,1368.75 1962.09,1369.18 1969.07,1369.6 1976.05,1370.02 1983.03,1370.42 1990.01,1370.82 1996.99,1371.21 2003.97,1371.59 2010.95,1371.96 2017.93,1372.33 
  2024.91,1372.69 2031.89,1373.04 2038.87,1373.38 2045.85,1373.72 2052.83,1374.05 2059.81,1374.37 2066.79,1374.69 2073.77,1375 2080.75,1375.3 2087.73,1375.6 
  2094.71,1375.89 2101.69,1376.18 2108.67,1376.46 2115.65,1376.73 2122.63,1377 2129.61,1377.26 2136.59,1377.52 2143.57,1377.77 2150.55,1378.01 2157.53,1378.25 
  2164.51,1378.49 2171.49,1378.72 2178.47,1378.95 2185.45,1379.17 2192.43,1379.38 2199.41,1379.59 2206.39,1379.8 2213.37,1380 2220.35,1380.19 2227.33,1380.38 
  2234.31,1380.57 2241.29,1380.75 2248.27,1380.93 2255.25,1381.1 2262.23,1381.27 2269.21,1381.43 2276.19,1381.58 2283.17,1381.73 2290.15,1381.87 
  "/>
<polyline clip-path="url(#clip5102)" style="stroke:#8e971d; stroke-width:4; stroke-opacity:1; fill:none" points="
  210.107,1288.67 217.087,1192.65 224.067,1101.04 231.047,1014.08 238.027,931.941 245.007,854.713 251.987,782.411 258.967,714.996 265.947,652.383 272.927,594.457 
  279.907,541.075 286.887,492.077 293.867,447.288 300.847,406.525 307.827,369.628 314.807,336.403 321.787,306.663 328.767,280.221 335.747,256.894 342.727,236.502 
  349.707,218.874 356.687,203.841 363.667,191.243 370.647,180.925 377.627,172.739 384.607,166.544 391.587,162.205 398.567,159.596 405.547,158.593 412.527,159.084 
  419.507,160.957 426.487,164.111 433.467,168.448 440.447,173.875 447.427,180.306 454.407,187.659 461.387,195.856 468.367,204.825 475.347,214.497 482.327,224.808 
  489.307,235.697 496.287,247.108 503.267,258.987 510.247,271.286 517.227,283.956 524.207,296.954 531.187,310.24 538.167,323.776 545.147,337.525 552.127,351.455 
  559.107,365.536 566.087,379.737 573.067,394.034 580.047,408.4 587.027,422.814 594.007,437.254 600.987,451.7 607.967,466.135 614.947,480.542 621.927,494.906 
  628.907,509.212 635.887,523.448 642.867,537.601 649.847,551.662 656.827,565.62 663.807,579.467 670.787,593.194 677.767,606.795 684.747,620.262 691.727,633.59 
  698.707,646.773 705.687,659.808 712.667,672.689 719.647,685.414 726.627,697.979 733.607,710.381 740.587,722.619 747.567,734.691 754.547,746.595 761.527,758.329 
  768.507,769.894 775.487,781.288 782.467,792.511 789.447,803.563 796.427,814.444 803.407,825.155 810.387,835.696 817.367,846.068 824.347,856.271 831.327,866.307 
  838.307,876.177 845.287,885.881 852.267,895.422 859.247,904.8 866.227,914.018 873.207,923.076 880.187,931.977 887.167,940.722 894.147,949.313 901.127,957.752 
  908.107,966.04 915.087,974.18 922.067,982.174 929.047,990.023 936.027,997.73 943.007,1005.3 949.987,1012.72 956.967,1020.02 963.947,1027.17 970.927,1034.2 
  977.907,1041.09 984.887,1047.86 991.867,1054.5 998.847,1061.01 1005.83,1067.4 1012.81,1073.68 1019.79,1079.83 1026.77,1085.87 1033.75,1091.79 1040.73,1097.61 
  1047.71,1103.31 1054.69,1108.9 1061.67,1114.39 1068.65,1119.77 1075.63,1125.05 1082.61,1130.22 1089.59,1135.3 1096.57,1140.28 1103.55,1145.17 1110.53,1149.96 
  1117.51,1154.66 1124.49,1159.27 1131.47,1163.78 1138.45,1168.22 1145.43,1172.56 1152.41,1176.82 1159.39,1181 1166.37,1185.1 1173.35,1189.12 1180.33,1193.06 
  1187.31,1196.93 1194.29,1200.72 1201.27,1204.43 1208.25,1208.08 1215.23,1211.65 1222.21,1215.15 1229.19,1218.59 1236.17,1221.96 1243.15,1225.26 1250.13,1228.5 
  1257.11,1231.67 1264.09,1234.78 1271.07,1237.84 1278.05,1240.83 1285.03,1243.76 1292.01,1246.64 1298.99,1249.46 1305.97,1252.23 1312.95,1254.94 1319.93,1257.6 
  1326.91,1260.2 1333.89,1262.76 1340.87,1265.27 1347.85,1267.72 1354.83,1270.13 1361.81,1272.49 1368.79,1274.81 1375.77,1277.08 1382.75,1279.31 1389.73,1281.49 
  1396.71,1283.63 1403.69,1285.73 1410.67,1287.78 1417.65,1289.8 1424.63,1291.78 1431.61,1293.72 1438.59,1295.62 1445.57,1297.48 1452.55,1299.31 1459.53,1301.1 
  1466.51,1302.86 1473.49,1304.58 1480.47,1306.27 1487.45,1307.92 1494.43,1309.54 1501.41,1311.14 1508.39,1312.7 1515.37,1314.22 1522.35,1315.72 1529.33,1317.19 
  1536.31,1318.64 1543.29,1320.05 1550.27,1321.43 1557.25,1322.79 1564.23,1324.13 1571.21,1325.43 1578.19,1326.71 1585.17,1327.97 1592.15,1329.2 1599.13,1330.4 
  1606.11,1331.59 1613.09,1332.75 1620.07,1333.88 1627.05,1335 1634.03,1336.09 1641.01,1337.16 1647.99,1338.21 1654.97,1339.24 1661.95,1340.25 1668.93,1341.24 
  1675.91,1342.21 1682.89,1343.16 1689.87,1344.1 1696.85,1345.01 1703.83,1345.91 1710.81,1346.79 1717.79,1347.65 1724.77,1348.5 1731.75,1349.32 1738.73,1350.14 
  1745.71,1350.93 1752.69,1351.71 1759.67,1352.48 1766.65,1353.23 1773.63,1353.96 1780.61,1354.69 1787.59,1355.39 1794.57,1356.09 1801.55,1356.77 1808.53,1357.43 
  1815.51,1358.08 1822.49,1358.72 1829.47,1359.35 1836.45,1359.97 1843.43,1360.57 1850.41,1361.16 1857.39,1361.74 1864.37,1362.31 1871.35,1362.87 1878.33,1363.41 
  1885.31,1363.95 1892.29,1364.47 1899.27,1364.99 1906.25,1365.49 1913.23,1365.99 1920.21,1366.47 1927.19,1366.95 1934.17,1367.41 1941.15,1367.87 1948.13,1368.31 
  1955.11,1368.75 1962.09,1369.18 1969.07,1369.6 1976.05,1370.02 1983.03,1370.42 1990.01,1370.82 1996.99,1371.21 2003.97,1371.59 2010.95,1371.96 2017.93,1372.33 
  2024.91,1372.68 2031.89,1373.03 2038.87,1373.38 2045.85,1373.72 2052.83,1374.05 2059.81,1374.37 2066.79,1374.69 2073.77,1375 2080.75,1375.3 2087.73,1375.6 
  2094.71,1375.89 2101.69,1376.18 2108.67,1376.46 2115.65,1376.73 2122.63,1377 2129.61,1377.26 2136.59,1377.52 2143.57,1377.77 2150.55,1378.02 2157.53,1378.26 
  2164.51,1378.49 2171.49,1378.72 2178.47,1378.95 2185.45,1379.17 2192.43,1379.38 2199.41,1379.59 2206.39,1379.8 2213.37,1380 2220.35,1380.19 2227.33,1380.38 
  2234.31,1380.57 2241.29,1380.75 2248.27,1380.92 2255.25,1381.1 2262.23,1381.26 2269.21,1381.42 2276.19,1381.58 2283.17,1381.73 2290.15,1381.87 
  "/>
<polyline clip-path="url(#clip5102)" style="stroke:#00a8cb; stroke-width:4; stroke-opacity:1; fill:none" points="
  210.107,1288.67 217.087,1192.65 224.067,1101.04 231.047,1014.08 238.027,931.941 245.007,854.713 251.987,782.411 258.967,714.996 265.947,652.383 272.927,594.457 
  279.907,541.075 286.887,492.077 293.867,447.288 300.847,406.525 307.827,369.628 314.807,336.403 321.787,306.663 328.767,280.221 335.747,256.894 342.727,236.503 
  349.707,218.874 356.687,203.842 363.667,191.243 370.647,180.925 377.627,172.739 384.607,166.544 391.587,162.205 398.567,159.596 405.547,158.594 412.527,159.084 
  419.507,160.958 426.487,164.112 433.467,168.448 440.447,173.876 447.427,180.307 454.407,187.659 461.387,195.856 468.367,204.825 475.347,214.497 482.327,224.808 
  489.307,235.697 496.287,247.108 503.267,258.988 510.247,271.286 517.227,283.956 524.207,296.954 531.187,310.24 538.167,323.776 545.147,337.525 552.127,351.455 
  559.107,365.536 566.087,379.737 573.067,394.034 580.047,408.4 587.027,422.814 594.007,437.254 600.987,451.7 607.967,466.135 614.947,480.542 621.927,494.906 
  628.907,509.212 635.887,523.448 642.867,537.601 649.847,551.662 656.827,565.621 663.807,579.467 670.787,593.195 677.767,606.795 684.747,620.262 691.727,633.59 
  698.707,646.773 705.687,659.808 712.667,672.689 719.647,685.414 726.627,697.979 733.607,710.382 740.587,722.62 747.567,734.691 754.547,746.595 761.527,758.329 
  768.507,769.894 775.487,781.288 782.467,792.511 789.447,803.563 796.427,814.445 803.407,825.156 810.387,835.696 817.367,846.068 824.347,856.271 831.327,866.307 
  838.307,876.177 845.287,885.881 852.267,895.422 859.247,904.8 866.227,914.018 873.207,923.076 880.187,931.977 887.167,940.722 894.147,949.313 901.127,957.752 
  908.107,966.04 915.087,974.181 922.067,982.174 929.047,990.024 936.027,997.73 943.007,1005.3 949.987,1012.72 956.967,1020.02 963.947,1027.17 970.927,1034.2 
  977.907,1041.09 984.887,1047.86 991.867,1054.5 998.847,1061.01 1005.83,1067.41 1012.81,1073.68 1019.79,1079.83 1026.77,1085.87 1033.75,1091.8 1040.73,1097.61 
  1047.71,1103.31 1054.69,1108.9 1061.67,1114.39 1068.65,1119.77 1075.63,1125.05 1082.61,1130.22 1089.59,1135.3 1096.57,1140.28 1103.55,1145.17 1110.53,1149.96 
  1117.51,1154.66 1124.49,1159.27 1131.47,1163.78 1138.45,1168.22 1145.43,1172.56 1152.41,1176.82 1159.39,1181 1166.37,1185.1 1173.35,1189.12 1180.33,1193.06 
  1187.31,1196.93 1194.29,1200.72 1201.27,1204.43 1208.25,1208.08 1215.23,1211.65 1222.21,1215.15 1229.19,1218.59 1236.17,1221.96 1243.15,1225.26 1250.13,1228.5 
  1257.11,1231.67 1264.09,1234.78 1271.07,1237.84 1278.05,1240.83 1285.03,1243.76 1292.01,1246.64 1298.99,1249.46 1305.97,1252.23 1312.95,1254.94 1319.93,1257.6 
  1326.91,1260.2 1333.89,1262.76 1340.87,1265.27 1347.85,1267.72 1354.83,1270.13 1361.81,1272.49 1368.79,1274.81 1375.77,1277.08 1382.75,1279.31 1389.73,1281.49 
  1396.71,1283.63 1403.69,1285.73 1410.67,1287.78 1417.65,1289.8 1424.63,1291.78 1431.61,1293.72 1438.59,1295.62 1445.57,1297.48 1452.55,1299.31 1459.53,1301.1 
  1466.51,1302.86 1473.49,1304.58 1480.47,1306.27 1487.45,1307.92 1494.43,1309.54 1501.41,1311.14 1508.39,1312.7 1515.37,1314.23 1522.35,1315.72 1529.33,1317.19 
  1536.31,1318.64 1543.29,1320.05 1550.27,1321.44 1557.25,1322.79 1564.23,1324.13 1571.21,1325.43 1578.19,1326.71 1585.17,1327.97 1592.15,1329.2 1599.13,1330.4 
  1606.11,1331.59 1613.09,1332.75 1620.07,1333.88 1627.05,1335 1634.03,1336.09 1641.01,1337.16 1647.99,1338.21 1654.97,1339.24 1661.95,1340.25 1668.93,1341.24 
  1675.91,1342.21 1682.89,1343.17 1689.87,1344.1 1696.85,1345.01 1703.83,1345.91 1710.81,1346.79 1717.79,1347.65 1724.77,1348.5 1731.75,1349.32 1738.73,1350.14 
  1745.71,1350.93 1752.69,1351.71 1759.67,1352.48 1766.65,1353.23 1773.63,1353.96 1780.61,1354.69 1787.59,1355.39 1794.57,1356.09 1801.55,1356.77 1808.53,1357.43 
  1815.51,1358.08 1822.49,1358.73 1829.47,1359.35 1836.45,1359.97 1843.43,1360.57 1850.41,1361.16 1857.39,1361.74 1864.37,1362.31 1871.35,1362.87 1878.33,1363.41 
  1885.31,1363.95 1892.29,1364.47 1899.27,1364.99 1906.25,1365.49 1913.23,1365.99 1920.21,1366.47 1927.19,1366.95 1934.17,1367.41 1941.15,1367.87 1948.13,1368.31 
  1955.11,1368.75 1962.09,1369.18 1969.07,1369.6 1976.05,1370.02 1983.03,1370.42 1990.01,1370.82 1996.99,1371.21 2003.97,1371.59 2010.95,1371.96 2017.93,1372.33 
  2024.91,1372.68 2031.89,1373.04 2038.87,1373.38 2045.85,1373.72 2052.83,1374.05 2059.81,1374.37 2066.79,1374.69 2073.77,1375 2080.75,1375.3 2087.73,1375.6 
  2094.71,1375.89 2101.69,1376.18 2108.67,1376.46 2115.65,1376.73 2122.63,1377 2129.61,1377.26 2136.59,1377.52 2143.57,1377.77 2150.55,1378.02 2157.53,1378.26 
  2164.51,1378.49 2171.49,1378.72 2178.47,1378.95 2185.45,1379.17 2192.43,1379.38 2199.41,1379.59 2206.39,1379.8 2213.37,1380 2220.35,1380.19 2227.33,1380.38 
  2234.31,1380.57 2241.29,1380.75 2248.27,1380.92 2255.25,1381.1 2262.23,1381.26 2269.21,1381.42 2276.19,1381.58 2283.17,1381.73 2290.15,1381.87 
  "/>
<polyline clip-path="url(#clip5102)" style="stroke:#9b7fe8; stroke-width:4; stroke-opacity:1; fill:none" points="
  210.107,1288.67 217.087,1192.65 224.067,1101.04 231.047,1014.08 238.027,931.941 245.007,854.713 251.987,782.411 258.967,714.996 265.947,652.383 272.927,594.457 
  279.907,541.075 286.887,492.077 293.867,447.288 300.847,406.525 307.827,369.628 314.807,336.403 321.787,306.663 328.767,280.221 335.747,256.894 342.727,236.503 
  349.707,218.874 356.687,203.842 363.667,191.243 370.647,180.925 377.627,172.739 384.607,166.544 391.587,162.205 398.567,159.596 405.547,158.594 412.527,159.084 
  419.507,160.958 426.487,164.112 433.467,168.448 440.447,173.876 447.427,180.307 454.407,187.659 461.387,195.856 468.367,204.825 475.347,214.497 482.327,224.808 
  489.307,235.697 496.287,247.108 503.267,258.988 510.247,271.286 517.227,283.956 524.207,296.954 531.187,310.24 538.167,323.776 545.147,337.525 552.127,351.455 
  559.107,365.536 566.087,379.737 573.067,394.034 580.047,408.4 587.027,422.814 594.007,437.254 600.987,451.7 607.967,466.135 614.947,480.542 621.927,494.906 
  628.907,509.212 635.887,523.448 642.867,537.601 649.847,551.662 656.827,565.62 663.807,579.467 670.787,593.194 677.767,606.795 684.747,620.262 691.727,633.59 
  698.707,646.773 705.687,659.808 712.667,672.689 719.647,685.414 726.627,697.979 733.607,710.381 740.587,722.619 747.567,734.691 754.547,746.595 761.527,758.329 
  768.507,769.894 775.487,781.288 782.467,792.511 789.447,803.563 796.427,814.445 803.407,825.155 810.387,835.696 817.367,846.068 824.347,856.271 831.327,866.307 
  838.307,876.177 845.287,885.881 852.267,895.422 859.247,904.8 866.227,914.018 873.207,923.076 880.187,931.977 887.167,940.722 894.147,949.313 901.127,957.752 
  908.107,966.04 915.087,974.181 922.067,982.174 929.047,990.023 936.027,997.73 943.007,1005.3 949.987,1012.72 956.967,1020.02 963.947,1027.17 970.927,1034.2 
  977.907,1041.09 984.887,1047.86 991.867,1054.5 998.847,1061.01 1005.83,1067.41 1012.81,1073.68 1019.79,1079.83 1026.77,1085.87 1033.75,1091.8 1040.73,1097.61 
  1047.71,1103.31 1054.69,1108.9 1061.67,1114.39 1068.65,1119.77 1075.63,1125.05 1082.61,1130.22 1089.59,1135.3 1096.57,1140.28 1103.55,1145.17 1110.53,1149.96 
  1117.51,1154.66 1124.49,1159.27 1131.47,1163.78 1138.45,1168.22 1145.43,1172.56 1152.41,1176.82 1159.39,1181 1166.37,1185.1 1173.35,1189.12 1180.33,1193.06 
  1187.31,1196.93 1194.29,1200.72 1201.27,1204.43 1208.25,1208.08 1215.23,1211.65 1222.21,1215.15 1229.19,1218.59 1236.17,1221.96 1243.15,1225.26 1250.13,1228.5 
  1257.11,1231.67 1264.09,1234.78 1271.07,1237.84 1278.05,1240.83 1285.03,1243.76 1292.01,1246.64 1298.99,1249.46 1305.97,1252.23 1312.95,1254.94 1319.93,1257.6 
  1326.91,1260.2 1333.89,1262.76 1340.87,1265.27 1347.85,1267.72 1354.83,1270.13 1361.81,1272.49 1368.79,1274.81 1375.77,1277.08 1382.75,1279.31 1389.73,1281.49 
  1396.71,1283.63 1403.69,1285.73 1410.67,1287.78 1417.65,1289.8 1424.63,1291.78 1431.61,1293.72 1438.59,1295.62 1445.57,1297.48 1452.55,1299.31 1459.53,1301.1 
  1466.51,1302.86 1473.49,1304.58 1480.47,1306.27 1487.45,1307.92 1494.43,1309.54 1501.41,1311.14 1508.39,1312.7 1515.37,1314.23 1522.35,1315.72 1529.33,1317.19 
  1536.31,1318.64 1543.29,1320.05 1550.27,1321.43 1557.25,1322.79 1564.23,1324.13 1571.21,1325.43 1578.19,1326.71 1585.17,1327.97 1592.15,1329.2 1599.13,1330.4 
  1606.11,1331.59 1613.09,1332.75 1620.07,1333.88 1627.05,1335 1634.03,1336.09 1641.01,1337.16 1647.99,1338.21 1654.97,1339.24 1661.95,1340.25 1668.93,1341.24 
  1675.91,1342.21 1682.89,1343.17 1689.87,1344.1 1696.85,1345.01 1703.83,1345.91 1710.81,1346.79 1717.79,1347.65 1724.77,1348.5 1731.75,1349.32 1738.73,1350.14 
  1745.71,1350.93 1752.69,1351.71 1759.67,1352.48 1766.65,1353.23 1773.63,1353.96 1780.61,1354.69 1787.59,1355.39 1794.57,1356.09 1801.55,1356.77 1808.53,1357.43 
  1815.51,1358.08 1822.49,1358.72 1829.47,1359.35 1836.45,1359.97 1843.43,1360.57 1850.41,1361.16 1857.39,1361.74 1864.37,1362.31 1871.35,1362.87 1878.33,1363.41 
  1885.31,1363.95 1892.29,1364.47 1899.27,1364.99 1906.25,1365.49 1913.23,1365.99 1920.21,1366.47 1927.19,1366.95 1934.17,1367.41 1941.15,1367.87 1948.13,1368.31 
  1955.11,1368.75 1962.09,1369.18 1969.07,1369.6 1976.05,1370.02 1983.03,1370.42 1990.01,1370.82 1996.99,1371.21 2003.97,1371.59 2010.95,1371.96 2017.93,1372.33 
  2024.91,1372.68 2031.89,1373.04 2038.87,1373.38 2045.85,1373.72 2052.83,1374.05 2059.81,1374.37 2066.79,1374.69 2073.77,1375 2080.75,1375.3 2087.73,1375.6 
  2094.71,1375.89 2101.69,1376.18 2108.67,1376.46 2115.65,1376.73 2122.63,1377 2129.61,1377.26 2136.59,1377.52 2143.57,1377.77 2150.55,1378.02 2157.53,1378.26 
  2164.51,1378.49 2171.49,1378.72 2178.47,1378.95 2185.45,1379.17 2192.43,1379.38 2199.41,1379.59 2206.39,1379.8 2213.37,1380 2220.35,1380.19 2227.33,1380.38 
  2234.31,1380.57 2241.29,1380.75 2248.27,1380.92 2255.25,1381.1 2262.23,1381.26 2269.21,1381.42 2276.19,1381.58 2283.17,1381.73 2290.15,1381.87 
  "/>
<polyline clip-path="url(#clip5102)" style="stroke:#608cf6; stroke-width:4; stroke-opacity:1; fill:none" points="
  210.107,1288.67 217.087,1192.65 224.067,1101.04 231.047,1014.08 238.027,931.941 245.007,854.713 251.987,782.411 258.967,714.996 265.947,652.383 272.927,594.457 
  279.907,541.075 286.887,492.077 293.867,447.288 300.847,406.525 307.827,369.628 314.807,336.403 321.787,306.663 328.767,280.221 335.747,256.894 342.727,236.503 
  349.707,218.874 356.687,203.842 363.667,191.243 370.647,180.925 377.627,172.739 384.607,166.544 391.587,162.205 398.567,159.596 405.547,158.594 412.527,159.084 
  419.507,160.958 426.487,164.112 433.467,168.448 440.447,173.876 447.427,180.307 454.407,187.659 461.387,195.856 468.367,204.825 475.347,214.497 482.327,224.808 
  489.307,235.697 496.287,247.108 503.267,258.988 510.247,271.286 517.227,283.956 524.207,296.954 531.187,310.24 538.167,323.776 545.147,337.525 552.127,351.455 
  559.107,365.536 566.087,379.737 573.067,394.034 580.047,408.4 587.027,422.814 594.007,437.254 600.987,451.7 607.967,466.135 614.947,480.542 621.927,494.906 
  628.907,509.212 635.887,523.448 642.867,537.601 649.847,551.662 656.827,565.62 663.807,579.467 670.787,593.194 677.767,606.795 684.747,620.262 691.727,633.59 
  698.707,646.773 705.687,659.808 712.667,672.689 719.647,685.414 726.627,697.979 733.607,710.381 740.587,722.619 747.567,734.691 754.547,746.595 761.527,758.329 
  768.507,769.894 775.487,781.288 782.467,792.511 789.447,803.563 796.427,814.445 803.407,825.155 810.387,835.696 817.367,846.068 824.347,856.271 831.327,866.307 
  838.307,876.177 845.287,885.881 852.267,895.422 859.247,904.8 866.227,914.018 873.207,923.076 880.187,931.977 887.167,940.722 894.147,949.313 901.127,957.752 
  908.107,966.04 915.087,974.181 922.067,982.174 929.047,990.023 936.027,997.73 943.007,1005.3 949.987,1012.72 956.967,1020.02 963.947,1027.17 970.927,1034.2 
  977.907,1041.09 984.887,1047.86 991.867,1054.5 998.847,1061.01 1005.83,1067.41 1012.81,1073.68 1019.79,1079.83 1026.77,1085.87 1033.75,1091.8 1040.73,1097.61 
  1047.71,1103.31 1054.69,1108.9 1061.67,1114.39 1068.65,1119.77 1075.63,1125.05 1082.61,1130.22 1089.59,1135.3 1096.57,1140.28 1103.55,1145.17 1110.53,1149.96 
  1117.51,1154.66 1124.49,1159.27 1131.47,1163.78 1138.45,1168.22 1145.43,1172.56 1152.41,1176.82 1159.39,1181 1166.37,1185.1 1173.35,1189.12 1180.33,1193.06 
  1187.31,1196.93 1194.29,1200.72 1201.27,1204.43 1208.25,1208.08 1215.23,1211.65 1222.21,1215.15 1229.19,1218.59 1236.17,1221.96 1243.15,1225.26 1250.13,1228.5 
  1257.11,1231.67 1264.09,1234.78 1271.07,1237.84 1278.05,1240.83 1285.03,1243.76 1292.01,1246.64 1298.99,1249.46 1305.97,1252.23 1312.95,1254.94 1319.93,1257.6 
  1326.91,1260.2 1333.89,1262.76 1340.87,1265.27 1347.85,1267.72 1354.83,1270.13 1361.81,1272.49 1368.79,1274.81 1375.77,1277.08 1382.75,1279.31 1389.73,1281.49 
  1396.71,1283.63 1403.69,1285.73 1410.67,1287.78 1417.65,1289.8 1424.63,1291.78 1431.61,1293.72 1438.59,1295.62 1445.57,1297.48 1452.55,1299.31 1459.53,1301.1 
  1466.51,1302.86 1473.49,1304.58 1480.47,1306.27 1487.45,1307.92 1494.43,1309.54 1501.41,1311.14 1508.39,1312.7 1515.37,1314.23 1522.35,1315.72 1529.33,1317.19 
  1536.31,1318.64 1543.29,1320.05 1550.27,1321.43 1557.25,1322.79 1564.23,1324.13 1571.21,1325.43 1578.19,1326.71 1585.17,1327.97 1592.15,1329.2 1599.13,1330.4 
  1606.11,1331.59 1613.09,1332.75 1620.07,1333.88 1627.05,1335 1634.03,1336.09 1641.01,1337.16 1647.99,1338.21 1654.97,1339.24 1661.95,1340.25 1668.93,1341.24 
  1675.91,1342.21 1682.89,1343.17 1689.87,1344.1 1696.85,1345.01 1703.83,1345.91 1710.81,1346.79 1717.79,1347.65 1724.77,1348.5 1731.75,1349.32 1738.73,1350.14 
  1745.71,1350.93 1752.69,1351.71 1759.67,1352.48 1766.65,1353.23 1773.63,1353.96 1780.61,1354.69 1787.59,1355.39 1794.57,1356.09 1801.55,1356.77 1808.53,1357.43 
  1815.51,1358.08 1822.49,1358.72 1829.47,1359.35 1836.45,1359.97 1843.43,1360.57 1850.41,1361.16 1857.39,1361.74 1864.37,1362.31 1871.35,1362.87 1878.33,1363.41 
  1885.31,1363.95 1892.29,1364.47 1899.27,1364.99 1906.25,1365.49 1913.23,1365.99 1920.21,1366.47 1927.19,1366.95 1934.17,1367.41 1941.15,1367.87 1948.13,1368.31 
  1955.11,1368.75 1962.09,1369.18 1969.07,1369.6 1976.05,1370.02 1983.03,1370.42 1990.01,1370.82 1996.99,1371.21 2003.97,1371.59 2010.95,1371.96 2017.93,1372.33 
  2024.91,1372.68 2031.89,1373.04 2038.87,1373.38 2045.85,1373.72 2052.83,1374.05 2059.81,1374.37 2066.79,1374.69 2073.77,1375 2080.75,1375.3 2087.73,1375.6 
  2094.71,1375.89 2101.69,1376.18 2108.67,1376.46 2115.65,1376.73 2122.63,1377 2129.61,1377.26 2136.59,1377.52 2143.57,1377.77 2150.55,1378.02 2157.53,1378.26 
  2164.51,1378.49 2171.49,1378.72 2178.47,1378.95 2185.45,1379.17 2192.43,1379.38 2199.41,1379.59 2206.39,1379.8 2213.37,1380 2220.35,1380.19 2227.33,1380.38 
  2234.31,1380.57 2241.29,1380.75 2248.27,1380.92 2255.25,1381.1 2262.23,1381.26 2269.21,1381.42 2276.19,1381.58 2283.17,1381.73 2290.15,1381.87 
  "/>
<path clip-path="url(#clip5100)" d="
M1799.94 1051.92 L2280.76 1051.92 L2280.76 205.195 L1799.94 205.195  Z
  " fill="#ffffff" fill-rule="evenodd" fill-opacity="1"/>
<polyline clip-path="url(#clip5100)" style="stroke:#000000; stroke-width:4; stroke-opacity:1; fill:none" points="
  1799.94,1051.92 2280.76,1051.92 2280.76,205.195 1799.94,205.195 1799.94,1051.92 
  "/>
<polyline clip-path="url(#clip5100)" style="stroke:#009af9; stroke-width:4; stroke-opacity:1; fill:none" points="
  1823.94,265.675 1967.94,265.675 
  "/>
<g clip-path="url(#clip5100)">
<text style="fill:#000000; fill-opacity:1; font-family:Arial,Helvetica Neue,Helvetica,sans-serif; font-size:48px; text-anchor:start;" transform="rotate(0, 1991.94, 283.175)" x="1991.94" y="283.175">Iteration 0</text>
</g>
<polyline clip-path="url(#clip5100)" style="stroke:#e26f46; stroke-width:4; stroke-opacity:1; fill:none" points="
  1823.94,326.155 1967.94,326.155 
  "/>
<g clip-path="url(#clip5100)">
<text style="fill:#000000; fill-opacity:1; font-family:Arial,Helvetica Neue,Helvetica,sans-serif; font-size:48px; text-anchor:start;" transform="rotate(0, 1991.94, 343.655)" x="1991.94" y="343.655">Iteration 1</text>
</g>
<polyline clip-path="url(#clip5100)" style="stroke:#3da44d; stroke-width:4; stroke-opacity:1; fill:none" points="
  1823.94,386.635 1967.94,386.635 
  "/>
<g clip-path="url(#clip5100)">
<text style="fill:#000000; fill-opacity:1; font-family:Arial,Helvetica Neue,Helvetica,sans-serif; font-size:48px; text-anchor:start;" transform="rotate(0, 1991.94, 404.135)" x="1991.94" y="404.135">Iteration 5</text>
</g>
<polyline clip-path="url(#clip5100)" style="stroke:#c271d2; stroke-width:4; stroke-opacity:1; fill:none" points="
  1823.94,447.115 1967.94,447.115 
  "/>
<g clip-path="url(#clip5100)">
<text style="fill:#000000; fill-opacity:1; font-family:Arial,Helvetica Neue,Helvetica,sans-serif; font-size:48px; text-anchor:start;" transform="rotate(0, 1991.94, 464.615)" x="1991.94" y="464.615">Iteration 10</text>
</g>
<polyline clip-path="url(#clip5100)" style="stroke:#ac8d18; stroke-width:4; stroke-opacity:1; fill:none" points="
  1823.94,507.595 1967.94,507.595 
  "/>
<g clip-path="url(#clip5100)">
<text style="fill:#000000; fill-opacity:1; font-family:Arial,Helvetica Neue,Helvetica,sans-serif; font-size:48px; text-anchor:start;" transform="rotate(0, 1991.94, 525.095)" x="1991.94" y="525.095">Iteration 15</text>
</g>
<polyline clip-path="url(#clip5100)" style="stroke:#00a9ad; stroke-width:4; stroke-opacity:1; fill:none" points="
  1823.94,568.075 1967.94,568.075 
  "/>
<g clip-path="url(#clip5100)">
<text style="fill:#000000; fill-opacity:1; font-family:Arial,Helvetica Neue,Helvetica,sans-serif; font-size:48px; text-anchor:start;" transform="rotate(0, 1991.94, 585.575)" x="1991.94" y="585.575">Iteration 20</text>
</g>
<polyline clip-path="url(#clip5100)" style="stroke:#ed5d92; stroke-width:4; stroke-opacity:1; fill:none" points="
  1823.94,628.555 1967.94,628.555 
  "/>
<g clip-path="url(#clip5100)">
<text style="fill:#000000; fill-opacity:1; font-family:Arial,Helvetica Neue,Helvetica,sans-serif; font-size:48px; text-anchor:start;" transform="rotate(0, 1991.94, 646.055)" x="1991.94" y="646.055">Iteration 25</text>
</g>
<polyline clip-path="url(#clip5100)" style="stroke:#c68125; stroke-width:4; stroke-opacity:1; fill:none" points="
  1823.94,689.035 1967.94,689.035 
  "/>
<g clip-path="url(#clip5100)">
<text style="fill:#000000; fill-opacity:1; font-family:Arial,Helvetica Neue,Helvetica,sans-serif; font-size:48px; text-anchor:start;" transform="rotate(0, 1991.94, 706.535)" x="1991.94" y="706.535">Iteration 30</text>
</g>
<polyline clip-path="url(#clip5100)" style="stroke:#00a98d; stroke-width:4; stroke-opacity:1; fill:none" points="
  1823.94,749.515 1967.94,749.515 
  "/>
<g clip-path="url(#clip5100)">
<text style="fill:#000000; fill-opacity:1; font-family:Arial,Helvetica Neue,Helvetica,sans-serif; font-size:48px; text-anchor:start;" transform="rotate(0, 1991.94, 767.015)" x="1991.94" y="767.015">Iteration 35</text>
</g>
<polyline clip-path="url(#clip5100)" style="stroke:#8e971d; stroke-width:4; stroke-opacity:1; fill:none" points="
  1823.94,809.995 1967.94,809.995 
  "/>
<g clip-path="url(#clip5100)">
<text style="fill:#000000; fill-opacity:1; font-family:Arial,Helvetica Neue,Helvetica,sans-serif; font-size:48px; text-anchor:start;" transform="rotate(0, 1991.94, 827.495)" x="1991.94" y="827.495">Iteration 40</text>
</g>
<polyline clip-path="url(#clip5100)" style="stroke:#00a8cb; stroke-width:4; stroke-opacity:1; fill:none" points="
  1823.94,870.475 1967.94,870.475 
  "/>
<g clip-path="url(#clip5100)">
<text style="fill:#000000; fill-opacity:1; font-family:Arial,Helvetica Neue,Helvetica,sans-serif; font-size:48px; text-anchor:start;" transform="rotate(0, 1991.94, 887.975)" x="1991.94" y="887.975">Iteration 45</text>
</g>
<polyline clip-path="url(#clip5100)" style="stroke:#9b7fe8; stroke-width:4; stroke-opacity:1; fill:none" points="
  1823.94,930.955 1967.94,930.955 
  "/>
<g clip-path="url(#clip5100)">
<text style="fill:#000000; fill-opacity:1; font-family:Arial,Helvetica Neue,Helvetica,sans-serif; font-size:48px; text-anchor:start;" transform="rotate(0, 1991.94, 948.455)" x="1991.94" y="948.455">Iteration 50</text>
</g>
<polyline clip-path="url(#clip5100)" style="stroke:#608cf6; stroke-width:4; stroke-opacity:1; fill:none" points="
  1823.94,991.435 1967.94,991.435 
  "/>
<g clip-path="url(#clip5100)">
<text style="fill:#000000; fill-opacity:1; font-family:Arial,Helvetica Neue,Helvetica,sans-serif; font-size:48px; text-anchor:start;" transform="rotate(0, 1991.94, 1008.94)" x="1991.94" y="1008.94">Iteration 55</text>
</g>
</svg>
