<?xml version="1.0" encoding="utf-8"?>
<svg xmlns="http://www.w3.org/2000/svg" xmlns:xlink="http://www.w3.org/1999/xlink" width="600" height="400" viewBox="0 0 2400 1600">
<defs>
  <clipPath id="clip7100">
    <rect x="0" y="0" width="2400" height="1600"/>
  </clipPath>
</defs>
<path clip-path="url(#clip7100)" d="
M0 1600 L2400 1600 L2400 0 L0 0  Z
  " fill="#ffffff" fill-rule="evenodd" fill-opacity="1"/>
<defs>
  <clipPath id="clip7101">
    <rect x="480" y="0" width="1681" height="1600"/>
  </clipPath>
</defs>
<path clip-path="url(#clip7100)" d="
M195.389 625.619 L2352.76 625.619 L2352.76 47.2441 L195.389 47.2441  Z
  " fill="#ffffff" fill-rule="evenodd" fill-opacity="1"/>
<defs>
  <clipPath id="clip7102">
    <rect x="195" y="47" width="2158" height="579"/>
  </clipPath>
</defs>
<polyline clip-path="url(#clip7102)" style="stroke:#000000; stroke-width:2; stroke-opacity:0.1; fill:none" points="
  255.429,625.619 255.429,47.2441 
  "/>
<polyline clip-path="url(#clip7102)" style="stroke:#000000; stroke-width:2; stroke-opacity:0.1; fill:none" points="
  764.496,625.619 764.496,47.2441 
  "/>
<polyline clip-path="url(#clip7102)" style="stroke:#000000; stroke-width:2; stroke-opacity:0.1; fill:none" points="
  1273.56,625.619 1273.56,47.2441 
  "/>
<polyline clip-path="url(#clip7102)" style="stroke:#000000; stroke-width:2; stroke-opacity:0.1; fill:none" points="
  1782.63,625.619 1782.63,47.2441 
  "/>
<polyline clip-path="url(#clip7102)" style="stroke:#000000; stroke-width:2; stroke-opacity:0.1; fill:none" points="
  2291.7,625.619 2291.7,47.2441 
  "/>
<polyline clip-path="url(#clip7102)" style="stroke:#000000; stroke-width:2; stroke-opacity:0.1; fill:none" points="
  195.389,574.842 2352.76,574.842 
  "/>
<polyline clip-path="url(#clip7102)" style="stroke:#000000; stroke-width:2; stroke-opacity:0.1; fill:none" points="
  195.389,449.855 2352.76,449.855 
  "/>
<polyline clip-path="url(#clip7102)" style="stroke:#000000; stroke-width:2; stroke-opacity:0.1; fill:none" points="
  195.389,324.868 2352.76,324.868 
  "/>
<polyline clip-path="url(#clip7102)" style="stroke:#000000; stroke-width:2; stroke-opacity:0.1; fill:none" points="
  195.389,199.881 2352.76,199.881 
  "/>
<polyline clip-path="url(#clip7102)" style="stroke:#000000; stroke-width:2; stroke-opacity:0.1; fill:none" points="
  195.389,74.8941 2352.76,74.8941 
  "/>
<polyline clip-path="url(#clip7100)" style="stroke:#000000; stroke-width:4; stroke-opacity:1; fill:none" points="
  195.389,625.619 2352.76,625.619 
  "/>
<polyline clip-path="url(#clip7100)" style="stroke:#000000; stroke-width:4; stroke-opacity:1; fill:none" points="
  195.389,625.619 195.389,47.2441 
  "/>
<polyline clip-path="url(#clip7100)" style="stroke:#000000; stroke-width:4; stroke-opacity:1; fill:none" points="
  255.429,625.619 255.429,618.678 
  "/>
<polyline clip-path="url(#clip7100)" style="stroke:#000000; stroke-width:4; stroke-opacity:1; fill:none" points="
  764.496,625.619 764.496,618.678 
  "/>
<polyline clip-path="url(#clip7100)" style="stroke:#000000; stroke-width:4; stroke-opacity:1; fill:none" points="
  1273.56,625.619 1273.56,618.678 
  "/>
<polyline clip-path="url(#clip7100)" style="stroke:#000000; stroke-width:4; stroke-opacity:1; fill:none" points="
  1782.63,625.619 1782.63,618.678 
  "/>
<polyline clip-path="url(#clip7100)" style="stroke:#000000; stroke-width:4; stroke-opacity:1; fill:none" points="
  2291.7,625.619 2291.7,618.678 
  "/>
<polyline clip-path="url(#clip7100)" style="stroke:#000000; stroke-width:4; stroke-opacity:1; fill:none" points="
  195.389,574.842 221.278,574.842 
  "/>
<polyline clip-path="url(#clip7100)" style="stroke:#000000; stroke-width:4; stroke-opacity:1; fill:none" points="
  195.389,449.855 221.278,449.855 
  "/>
<polyline clip-path="url(#clip7100)" style="stroke:#000000; stroke-width:4; stroke-opacity:1; fill:none" points="
  195.389,324.868 221.278,324.868 
  "/>
<polyline clip-path="url(#clip7100)" style="stroke:#000000; stroke-width:4; stroke-opacity:1; fill:none" points="
  195.389,199.881 221.278,199.881 
  "/>
<polyline clip-path="url(#clip7100)" style="stroke:#000000; stroke-width:4; stroke-opacity:1; fill:none" points="
  195.389,74.8941 221.278,74.8941 
  "/>
<g clip-path="url(#clip7100)">
<text style="fill:#000000; fill-opacity:1; font-family:Arial,Helvetica Neue,Helvetica,sans-serif; font-size:48px; text-anchor:middle;" transform="rotate(0, 255.429, 679.619)" x="255.429" y="679.619">0</text>
</g>
<g clip-path="url(#clip7100)">
<text style="fill:#000000; fill-opacity:1; font-family:Arial,Helvetica Neue,Helvetica,sans-serif; font-size:48px; text-anchor:middle;" transform="rotate(0, 764.496, 679.619)" x="764.496" y="679.619">500</text>
</g>
<g clip-path="url(#clip7100)">
<text style="fill:#000000; fill-opacity:1; font-family:Arial,Helvetica Neue,Helvetica,sans-serif; font-size:48px; text-anchor:middle;" transform="rotate(0, 1273.56, 679.619)" x="1273.56" y="679.619">1000</text>
</g>
<g clip-path="url(#clip7100)">
<text style="fill:#000000; fill-opacity:1; font-family:Arial,Helvetica Neue,Helvetica,sans-serif; font-size:48px; text-anchor:middle;" transform="rotate(0, 1782.63, 679.619)" x="1782.63" y="679.619">1500</text>
</g>
<g clip-path="url(#clip7100)">
<text style="fill:#000000; fill-opacity:1; font-family:Arial,Helvetica Neue,Helvetica,sans-serif; font-size:48px; text-anchor:middle;" transform="rotate(0, 2291.7, 679.619)" x="2291.7" y="679.619">2000</text>
</g>
<g clip-path="url(#clip7100)">
<text style="fill:#000000; fill-opacity:1; font-family:Arial,Helvetica Neue,Helvetica,sans-serif; font-size:48px; text-anchor:end;" transform="rotate(0, 171.389, 592.342)" x="171.389" y="592.342">-4</text>
</g>
<g clip-path="url(#clip7100)">
<text style="fill:#000000; fill-opacity:1; font-family:Arial,Helvetica Neue,Helvetica,sans-serif; font-size:48px; text-anchor:end;" transform="rotate(0, 171.389, 467.355)" x="171.389" y="467.355">-2</text>
</g>
<g clip-path="url(#clip7100)">
<text style="fill:#000000; fill-opacity:1; font-family:Arial,Helvetica Neue,Helvetica,sans-serif; font-size:48px; text-anchor:end;" transform="rotate(0, 171.389, 342.368)" x="171.389" y="342.368">0</text>
</g>
<g clip-path="url(#clip7100)">
<text style="fill:#000000; fill-opacity:1; font-family:Arial,Helvetica Neue,Helvetica,sans-serif; font-size:48px; text-anchor:end;" transform="rotate(0, 171.389, 217.381)" x="171.389" y="217.381">2</text>
</g>
<g clip-path="url(#clip7100)">
<text style="fill:#000000; fill-opacity:1; font-family:Arial,Helvetica Neue,Helvetica,sans-serif; font-size:48px; text-anchor:end;" transform="rotate(0, 171.389, 92.3941)" x="171.389" y="92.3941">4</text>
</g>
<g clip-path="url(#clip7100)">
<text style="fill:#000000; fill-opacity:1; font-family:Arial,Helvetica Neue,Helvetica,sans-serif; font-size:66px; text-anchor:middle;" transform="rotate(0, 1274.07, 759.48)" x="1274.07" y="759.48">t</text>
</g>
<polyline clip-path="url(#clip7102)" style="stroke:#009af9; stroke-width:4; stroke-opacity:1; fill:none" points="
  256.447,324.868 257.465,353.045 258.483,367.09 259.501,393.199 260.519,362.79 261.537,291.785 262.556,276.795 263.574,287.698 264.592,273.866 265.61,292.58 
  266.628,311.712 267.646,312.973 268.664,309.567 269.683,252.439 270.701,281.946 271.719,280.659 272.737,290.725 273.755,280.884 274.773,280.837 275.791,330.023 
  276.809,280.891 277.828,326.74 278.846,292.103 279.864,328.327 280.882,428.499 281.9,425.671 282.918,415.952 283.936,387.393 284.955,393.972 285.973,409.368 
  286.991,445.156 288.009,408.034 289.027,394.452 290.045,392.13 291.063,384.348 292.081,365.1 293.1,335.074 294.118,350.61 295.136,373.223 296.154,418.979 
  297.172,416.812 298.19,446.344 299.208,458.466 300.227,461.711 301.245,497.481 302.263,492.541 303.281,479.084 304.299,484.226 305.317,507.908 306.335,515.877 
  307.354,544.798 308.372,550.914 309.39,561.26 310.408,571.932 311.426,570.034 312.444,541.92 313.462,455.71 314.48,458.857 315.499,413.315 316.517,410.483 
  317.535,439.189 318.553,464.369 319.571,411.155 320.589,423.204 321.607,467.716 322.626,456.532 323.644,436.037 324.662,442.906 325.68,425.597 326.698,401.174 
  327.716,391.676 328.734,323.874 329.752,368.123 330.771,361.765 331.789,383.374 332.807,375.125 333.825,422.146 334.843,479.03 335.861,469.025 336.879,436.921 
  337.898,454.306 338.916,439.785 339.934,466.855 340.952,453.596 341.97,472.432 342.988,458.957 344.006,488.421 345.025,454.764 346.043,443.606 347.061,398.751 
  348.079,425.735 349.097,430.616 350.115,417.068 351.133,379.194 352.151,333.212 353.17,330.297 354.188,356.065 355.206,368.359 356.224,418.162 357.242,429.818 
  358.26,418.863 359.278,454.079 360.297,415.457 361.315,439.419 362.333,410.162 363.351,446.382 364.369,450.016 365.387,402.989 366.405,353.834 367.423,328.075 
  368.442,307.52 369.46,305.128 370.478,282.938 371.496,312.743 372.514,260.105 373.532,277.752 374.55,236.976 375.569,241.039 376.587,261.578 377.605,278.149 
  378.623,262.375 379.641,258.068 380.659,187.409 381.677,197.491 382.695,205.808 383.714,198.398 384.732,234.534 385.75,213.649 386.768,191.579 387.786,192.706 
  388.804,190.367 389.822,238.692 390.841,122.842 391.859,106.924 392.877,128.164 393.895,148.508 394.913,89.7582 395.931,123.972 396.949,164.52 397.968,192.608 
  398.986,212.073 400.004,283.639 401.022,272.202 402.04,282.847 403.058,260.046 404.076,260.08 405.094,321.834 406.113,324.49 407.131,347.773 408.149,352.603 
  409.167,350.041 410.185,364.096 411.203,324.307 412.221,338.642 413.24,343.295 414.258,315.511 415.276,362.709 416.294,441.663 417.312,407.021 418.33,356.486 
  419.348,401.356 420.366,423.326 421.385,416.904 422.403,387.551 423.421,411.595 424.439,369.274 425.457,399.308 426.475,432.269 427.493,452.257 428.512,391.458 
  429.53,427.315 430.548,424.2 431.566,389.122 432.584,350.51 433.602,339.719 434.62,341.718 435.639,326.511 436.657,321.74 437.675,311.504 438.693,337.808 
  439.711,278.309 440.729,293.44 441.747,241.722 442.765,171.493 443.784,139.286 444.802,164.527 445.82,131.005 446.838,163.259 447.856,225.152 448.874,240.964 
  449.892,274.371 450.911,251.171 451.929,260.438 452.947,283.8 453.965,328.959 454.983,335.184 456.001,372.896 457.019,339.859 458.037,325.756 459.056,341.092 
  460.074,293.883 461.092,256.7 462.11,226.954 463.128,226.382 464.146,209.025 465.164,217 466.183,220.772 467.201,167.898 468.219,149.095 469.237,168.386 
  470.255,169.24 471.273,183.306 472.291,136.786 473.31,142.193 474.328,131.407 475.346,193.452 476.364,121.046 477.382,179.467 478.4,185.623 479.418,203.592 
  480.436,208.696 481.455,256.525 482.473,312.65 483.491,299.87 484.509,322.264 485.527,314.994 486.545,270.248 487.563,285.628 488.582,256.912 489.6,232.693 
  490.618,209.824 491.636,232.767 492.654,251.302 493.672,285.088 494.69,254.864 495.708,287.976 496.727,313.05 497.745,288.607 498.763,334.05 499.781,377.466 
  500.799,371.88 501.817,388.169 502.835,358.087 503.854,352.439 504.872,346.591 505.89,336.282 506.908,346.28 507.926,322.636 508.944,365.864 509.962,394.574 
  510.98,345.597 511.999,341.909 513.017,362.44 514.035,339.071 515.053,341.295 516.071,332.681 517.089,330.431 518.107,376.719 519.126,432.259 520.144,407.546 
  521.162,445.558 522.18,427.703 523.198,459.414 524.216,429.662 525.234,407.412 526.253,413.394 527.271,396.829 528.289,331.587 529.307,368.06 530.325,354.124 
  531.343,343.614 532.361,328.948 533.379,323.533 534.398,342.601 535.416,390.943 536.434,428.815 537.452,455.043 538.47,452.345 539.488,438.219 540.506,405.71 
  541.525,424.005 542.543,407.81 543.561,438.82 544.579,431.874 545.597,442.085 546.615,388.044 547.633,364.475 548.651,375.503 549.67,385.61 550.688,359.4 
  551.706,359.759 552.724,352.295 553.742,320.458 554.76,326.456 555.778,301.013 556.797,274.535 557.815,263.044 558.833,234.565 559.851,255.328 560.869,282.16 
  561.887,231.455 562.905,224.566 563.924,227.634 564.942,250.558 565.96,258.499 566.978,262.178 567.996,237.012 569.014,281.288 570.032,274.794 571.05,352.835 
  572.069,355.643 573.087,351.633 574.105,346.105 575.123,367.049 576.141,374.251 577.159,416.299 578.177,440.565 579.196,420.642 580.214,414.821 581.232,356.657 
  582.25,376.294 583.268,350.543 584.286,375.585 585.304,370.989 586.322,368.552 587.341,353.619 588.359,357.849 589.377,357.403 590.395,355.154 591.413,304.097 
  592.431,234.848 593.449,259.224 594.468,269.41 595.486,303.925 596.504,257.404 597.522,268.842 598.54,232.849 599.558,255.465 600.576,291.273 601.594,286.83 
  602.613,362.132 603.631,349.067 604.649,332.593 605.667,327.248 606.685,351.602 607.703,351.607 608.721,383.968 609.74,373.296 610.758,357.739 611.776,436.679 
  612.794,400.836 613.812,379.143 614.83,374.947 615.848,349.285 616.867,354.762 617.885,358.744 618.903,354.175 619.921,344.316 620.939,272.167 621.957,223.259 
  622.975,239.135 623.993,217.379 625.012,220.733 626.03,259.934 627.048,294.508 628.066,309.005 629.084,339.106 630.102,369.12 631.12,373.716 632.139,372.951 
  633.157,444.107 634.175,429.212 635.193,397.29 636.211,350.013 637.229,338.949 638.247,331.606 639.265,282.312 640.284,241.498 641.302,274.649 642.32,278.551 
  643.338,285.503 644.356,278.076 645.374,291.265 646.392,285.664 647.411,332.064 648.429,341.417 649.447,350.046 650.465,356.954 651.483,386.743 652.501,416.652 
  653.519,455.075 654.538,474.674 655.556,464.685 656.574,403.346 657.592,403.769 658.61,397.55 659.628,380.206 660.646,394.308 661.664,425.772 662.683,431.075 
  663.701,418.866 664.719,404.274 665.737,391.678 666.755,424.311 667.773,393.217 668.791,373.444 669.81,392.231 670.828,396.636 671.846,420.055 672.864,384.566 
  673.882,346.383 674.9,384.225 675.918,404.062 676.936,425.877 677.955,430.31 678.973,437.099 679.991,349.412 681.009,311.682 682.027,295.524 683.045,300.466 
  684.063,279.185 685.082,267.501 686.1,251.593 687.118,267.185 688.136,281.782 689.154,333.7 690.172,319.63 691.19,297.035 692.208,245.233 693.227,298.05 
  694.245,320.723 695.263,330.732 696.281,297.92 697.299,279.365 698.317,258.583 699.335,276.54 700.354,280.537 701.372,276.906 702.39,273.252 703.408,251.74 
  704.426,236.954 705.444,226.529 706.462,218.334 707.481,223.164 708.499,190.608 709.517,218.272 710.535,260.104 711.553,183.169 712.571,147.44 713.589,156.188 
  714.607,194.536 715.626,229.551 716.644,232.516 717.662,245.094 718.68,258.945 719.698,289.793 720.716,284.894 721.734,284.051 722.753,294.559 723.771,342.175 
  724.789,368.988 725.807,392.132 726.825,407.341 727.843,366.42 728.861,342.788 729.879,374.328 730.898,402.051 731.916,363.734 732.934,335.376 733.952,270.265 
  734.97,264.309 735.988,222.103 737.006,246.709 738.025,210.901 739.043,195.715 740.061,219.364 741.079,249.281 742.097,192.81 743.115,137.67 744.133,120.44 
  745.152,148.039 746.17,186.723 747.188,183.638 748.206,182.937 749.224,220.054 750.242,241.609 751.26,275.376 752.278,278.596 753.297,255.92 754.315,291.723 
  755.333,284.521 756.351,316.922 757.369,286.729 758.387,282.271 759.405,280.376 760.424,311.451 761.442,311.199 762.46,286.065 763.478,338.806 764.496,349.682 
  765.514,303.71 766.532,356.249 767.55,386.388 768.569,413.58 769.587,394.349 770.605,439.267 771.623,421.435 772.641,449.387 773.659,492.936 774.677,499.421 
  775.696,474.468 776.714,472.936 777.732,488.494 778.75,440.651 779.768,494.258 780.786,455.741 781.804,454.02 782.822,395.427 783.841,335.903 784.859,353.705 
  785.877,340.245 786.895,316.63 787.913,333.791 788.931,315.789 789.949,308.495 790.968,291.087 791.986,226.075 793.004,245.184 794.022,308.715 795.04,314.149 
  796.058,324.075 797.076,340.207 798.095,374.853 799.113,314.054 800.131,320.869 801.149,314.313 802.167,264.126 803.185,260.269 804.203,310.134 805.221,399.606 
  806.24,385.137 807.258,392.34 808.276,385.446 809.294,388.036 810.312,401.124 811.33,386.225 812.348,394.053 813.367,402.174 814.385,387.272 815.403,415.672 
  816.421,475.376 817.439,487.922 818.457,467.526 819.475,449.66 820.493,476.173 821.512,490.741 822.53,489.433 823.548,468.182 824.566,471.265 825.584,513.729 
  826.602,496.474 827.62,490.136 828.639,489.287 829.657,405.179 830.675,415.504 831.693,404.883 832.711,365.738 833.729,337.709 834.747,332.577 835.766,359.122 
  836.784,420.363 837.802,391.334 838.82,451.101 839.838,467.814 840.856,506.638 841.874,517.37 842.892,533.534 843.911,493.198 844.929,454.785 845.947,433.457 
  846.965,421.498 847.983,409.541 849.001,361.2 850.019,338.319 851.038,395.241 852.056,372.848 853.074,375.358 854.092,379.504 855.11,350.221 856.128,370.87 
  857.146,347.083 858.164,363.047 859.183,350.936 860.201,348.895 861.219,357.885 862.237,312.249 863.255,284.21 864.273,277.207 865.291,278.108 866.31,306.247 
  867.328,323.875 868.346,369.893 869.364,334.694 870.382,382.366 871.4,366.378 872.418,351.411 873.437,393.617 874.455,332.363 875.473,291.953 876.491,246.602 
  877.509,292.618 878.527,311.697 879.545,354.504 880.563,311.893 881.582,338.306 882.6,291.448 883.618,310.573 884.636,309.355 885.654,282.812 886.672,335.691 
  887.69,387.723 888.709,424.501 889.727,421.093 890.745,365.784 891.763,405.235 892.781,418.398 893.799,429.804 894.817,462.164 895.835,484.488 896.854,499.986 
  897.872,452.357 898.89,431.081 899.908,450.642 900.926,447.473 901.944,391.748 902.962,398.379 903.981,395.356 904.999,376.55 906.017,359.574 907.035,307.458 
  908.053,318.701 909.071,335.363 910.089,324.025 911.107,367.722 912.126,332.823 913.144,297.427 914.162,358.533 915.18,387.36 916.198,382.082 917.216,374.16 
  918.234,394.758 919.253,323.465 920.271,283.891 921.289,271.862 922.307,259.837 923.325,292.82 924.343,293.285 925.361,264.164 926.38,284.733 927.398,271.658 
  928.416,253.165 929.434,256.439 930.452,250.669 931.47,235.031 932.488,238.322 933.506,267.705 934.525,291.945 935.543,328.282 936.561,297.861 937.579,277.503 
  938.597,281.55 939.615,244.388 940.633,189.751 941.652,221.455 942.67,168.946 943.688,189.925 944.706,189.649 945.724,212.896 946.742,216.191 947.76,201.814 
  948.778,203.482 949.797,237.79 950.815,249.767 951.833,221.881 952.851,208.569 953.869,223.224 954.887,200.659 955.905,196.467 956.924,177.663 957.942,219.323 
  958.96,254.558 959.978,307.518 960.996,243.28 962.014,216.023 963.032,226.812 964.051,241.698 965.069,199.371 966.087,281.01 967.105,306.263 968.123,313.719 
  969.141,315.998 970.159,292.186 971.177,330.689 972.196,384.302 973.214,354.791 974.232,335.635 975.25,277.523 976.268,321.522 977.286,263.424 978.304,273.807 
  979.323,251.909 980.341,261.952 981.359,318.384 982.377,303.197 983.395,287.99 984.413,345.829 985.431,349.933 986.449,402.158 987.468,393.69 988.486,411.102 
  989.504,350.442 990.522,338.933 991.54,359.322 992.558,396.641 993.576,328.264 994.595,256.34 995.613,242.065 996.631,250.9 997.649,270.36 998.667,305.146 
  999.685,283.746 1000.7,349.465 1001.72,387.614 1002.74,386.807 1003.76,426.965 1004.78,405.027 1005.79,410.974 1006.81,424.711 1007.83,364.755 1008.85,343.213 
  1009.87,382.764 1010.88,443.062 1011.9,473.514 1012.92,471.437 1013.94,521.573 1014.96,545.103 1015.98,555.12 1016.99,592.57 1018.01,552.476 1019.03,590.24 
  1020.05,589.552 1021.07,581.814 1022.08,554.937 1023.1,546.241 1024.12,535.425 1025.14,518.285 1026.16,525.02 1027.17,521.371 1028.19,502.394 1029.21,520.623 
  1030.23,548.446 1031.25,571.778 1032.27,531.642 1033.28,479.575 1034.3,522.148 1035.32,514.31 1036.34,501.171 1037.36,527.175 1038.37,529.279 1039.39,513.188 
  1040.41,447.513 1041.43,430.803 1042.45,451.902 1043.47,417.419 1044.48,468.513 1045.5,403.127 1046.52,414.48 1047.54,399.116 1048.56,406.75 1049.57,366.982 
  1050.59,329.822 1051.61,334.111 1052.63,300.45 1053.65,317.731 1054.66,331.914 1055.68,255.407 1056.7,274.355 1057.72,278.053 1058.74,278.993 1059.76,285.857 
  1060.77,295.374 1061.79,235.505 1062.81,229.893 1063.83,274.114 1064.85,297.722 1065.86,349.715 1066.88,372.285 1067.9,339.874 1068.92,314.004 1069.94,246.213 
  1070.95,243.318 1071.97,280.375 1072.99,227.877 1074.01,182.893 1075.03,196.494 1076.05,269.692 1077.06,267.993 1078.08,274.794 1079.1,293.446 1080.12,265.634 
  1081.14,299.034 1082.15,299.067 1083.17,333.02 1084.19,316.44 1085.21,299.301 1086.23,269.94 1087.24,235.7 1088.26,286.001 1089.28,325.001 1090.3,281.898 
  1091.32,261.745 1092.34,244.419 1093.35,216.343 1094.37,219.795 1095.39,270.718 1096.41,289.169 1097.43,281.547 1098.44,230.134 1099.46,231.034 1100.48,282.453 
  1101.5,260.286 1102.52,300.485 1103.53,303.783 1104.55,314.762 1105.57,381.934 1106.59,371.447 1107.61,371.435 1108.63,370.086 1109.64,364.046 1110.66,320.46 
  1111.68,323.614 1112.7,396.049 1113.72,344.765 1114.73,313.757 1115.75,346.284 1116.77,292.518 1117.79,331.057 1118.81,317.483 1119.83,285.087 1120.84,257.264 
  1121.86,222.433 1122.88,219.28 1123.9,246.683 1124.92,265.054 1125.93,244.79 1126.95,266.025 1127.97,291.425 1128.99,269.067 1130.01,285.195 1131.02,329.124 
  1132.04,329.497 1133.06,285.459 1134.08,317.022 1135.1,346.442 1136.12,328.484 1137.13,342.76 1138.15,337.747 1139.17,336.556 1140.19,338.649 1141.21,367.503 
  1142.22,370.54 1143.24,389.014 1144.26,387.415 1145.28,354.743 1146.3,399.37 1147.31,406.029 1148.33,387.603 1149.35,417.129 1150.37,387.536 1151.39,406.675 
  1152.41,404.074 1153.42,434.431 1154.44,441.402 1155.46,435.574 1156.48,370.307 1157.5,349.795 1158.51,424.699 1159.53,444.278 1160.55,441.903 1161.57,425.92 
  1162.59,479.458 1163.6,455.757 1164.62,460.126 1165.64,470.638 1166.66,526.833 1167.68,539.974 1168.7,554.521 1169.71,482.817 1170.73,506.659 1171.75,548.311 
  1172.77,609.25 1173.79,593.584 1174.8,570.788 1175.82,588.549 1176.84,568.382 1177.86,577.155 1178.88,560.929 1179.9,518.918 1180.91,518.065 1181.93,502.618 
  1182.95,501.416 1183.97,485.112 1184.99,426.179 1186,394.113 1187.02,411.771 1188.04,444.222 1189.06,471.435 1190.08,498.023 1191.09,443.24 1192.11,539.205 
  1193.13,541.103 1194.15,502.742 1195.17,470.134 1196.19,402.06 1197.2,396.346 1198.22,340.823 1199.24,291.491 1200.26,302.842 1201.28,283.223 1202.29,295.042 
  1203.31,312.241 1204.33,280.721 1205.35,256.273 1206.37,312.41 1207.38,339.399 1208.4,354.247 1209.42,355.261 1210.44,320.712 1211.46,285.399 1212.48,298.443 
  1213.49,320.716 1214.51,342.358 1215.53,369.041 1216.55,371.837 1217.57,399.29 1218.58,429.477 1219.6,442.449 1220.62,433.119 1221.64,451.75 1222.66,429.941 
  1223.67,406.96 1224.69,381.655 1225.71,314.644 1226.73,289.847 1227.75,287.933 1228.77,241.781 1229.78,163.111 1230.8,198.672 1231.82,165.515 1232.84,183.943 
  1233.86,197.42 1234.87,184.66 1235.89,185.622 1236.91,236.168 1237.93,238.25 1238.95,171.142 1239.97,154.196 1240.98,176.023 1242,201.903 1243.02,204.113 
  1244.04,241.429 1245.06,314.584 1246.07,335.59 1247.09,305.319 1248.11,273.985 1249.13,209.904 1250.15,252.856 1251.16,227.061 1252.18,202.228 1253.2,210.459 
  1254.22,230.926 1255.24,213.161 1256.26,226.441 1257.27,255.22 1258.29,241.426 1259.31,293.117 1260.33,297.977 1261.35,275.688 1262.36,321.364 1263.38,331.433 
  1264.4,299.898 1265.42,287.671 1266.44,325.491 1267.45,334.142 1268.47,355.642 1269.49,340.256 1270.51,381.854 1271.53,357.592 1272.55,333.555 1273.56,337.093 
  1274.58,368.016 1275.6,380.718 1276.62,401.686 1277.64,415.514 1278.65,405.418 1279.67,434.135 1280.69,402.364 1281.71,418.144 1282.73,468.589 1283.74,419.905 
  1284.76,413.681 1285.78,336.436 1286.8,324.403 1287.82,349.254 1288.84,372.624 1289.85,351.985 1290.87,369.897 1291.89,377.787 1292.91,397.119 1293.93,408.774 
  1294.94,389.279 1295.96,353.882 1296.98,328.381 1298,354.932 1299.02,331.797 1300.04,329.6 1301.05,265.279 1302.07,279.882 1303.09,290.842 1304.11,258.349 
  1305.13,284.153 1306.14,226.504 1307.16,220.885 1308.18,231.674 1309.2,269.653 1310.22,275.596 1311.23,244.218 1312.25,226.454 1313.27,285.385 1314.29,264.998 
  1315.31,298.432 1316.33,347.761 1317.34,345.827 1318.36,329.672 1319.38,360.235 1320.4,364.691 1321.42,384.361 1322.43,416.045 1323.45,356.992 1324.47,306.99 
  1325.49,281.865 1326.51,284.411 1327.52,299.652 1328.54,292.118 1329.56,246.643 1330.58,290.531 1331.6,248.826 1332.62,272.157 1333.63,252.53 1334.65,342.736 
  1335.67,289.335 1336.69,320.008 1337.71,295.145 1338.72,289.845 1339.74,344.897 1340.76,323.542 1341.78,301.678 1342.8,296.03 1343.81,373.942 1344.83,394.23 
  1345.85,440.866 1346.87,429.539 1347.89,439.386 1348.91,447.672 1349.92,473.901 1350.94,434.797 1351.96,441.673 1352.98,446.739 1354,448.937 1355.01,464.924 
  1356.03,486.749 1357.05,428.708 1358.07,401.599 1359.09,420.948 1360.1,416.914 1361.12,377.643 1362.14,363.794 1363.16,390.182 1364.18,359.558 1365.2,324.121 
  1366.21,321.437 1367.23,421.06 1368.25,418.128 1369.27,368.582 1370.29,397.293 1371.3,396.212 1372.32,394.29 1373.34,360.945 1374.36,368.626 1375.38,344.768 
  1376.4,325.494 1377.41,359.059 1378.43,337.075 1379.45,295.385 1380.47,320.262 1381.49,324.427 1382.5,334.212 1383.52,329.575 1384.54,333.371 1385.56,317.619 
  1386.58,279.608 1387.59,264.367 1388.61,243.131 1389.63,237.528 1390.65,237.849 1391.67,192.09 1392.69,163.163 1393.7,166.663 1394.72,203.635 1395.74,193.233 
  1396.76,172.839 1397.78,206.649 1398.79,182.294 1399.81,193.558 1400.83,164.122 1401.85,206.651 1402.87,260.547 1403.88,286.339 1404.9,308.96 1405.92,316.75 
  1406.94,322.233 1407.96,259.336 1408.98,298.877 1409.99,321.974 1411.01,293.051 1412.03,345.929 1413.05,352.467 1414.07,338.31 1415.08,318.32 1416.1,301.163 
  1417.12,362.178 1418.14,366.778 1419.16,410.883 1420.17,391.798 1421.19,366.65 1422.21,397.106 1423.23,366.858 1424.25,332.873 1425.27,394.262 1426.28,413.961 
  1427.3,394.918 1428.32,355.171 1429.34,380.385 1430.36,397.566 1431.37,402.374 1432.39,383.409 1433.41,364.265 1434.43,323.768 1435.45,308.749 1436.47,289.292 
  1437.48,260.635 1438.5,256.307 1439.52,205.998 1440.54,195.849 1441.56,207.421 1442.57,203.98 1443.59,212.4 1444.61,228.213 1445.63,158.358 1446.65,139.632 
  1447.66,166.25 1448.68,207.039 1449.7,188.929 1450.72,179.936 1451.74,150.534 1452.76,98.3197 1453.77,89.8889 1454.79,66.161 1455.81,71.1299 1456.83,98.0673 
  1457.85,132.139 1458.86,151.213 1459.88,162.792 1460.9,162.592 1461.92,174.898 1462.94,222.358 1463.95,200.166 1464.97,226.26 1465.99,243.147 1467.01,223.726 
  1468.03,171.993 1469.05,210.546 1470.06,236.438 1471.08,262.334 1472.1,310.882 1473.12,312.281 1474.14,300.112 1475.15,332.899 1476.17,339.331 1477.19,331.605 
  1478.21,355.729 1479.23,374.617 1480.24,358.35 1481.26,339.531 1482.28,328.639 1483.3,303.328 1484.32,232.113 1485.34,264.745 1486.35,269.914 1487.37,223.609 
  1488.39,261.922 1489.41,286.629 1490.43,292.06 1491.44,262.519 1492.46,255.986 1493.48,236.219 1494.5,241.672 1495.52,263.362 1496.54,263.403 1497.55,272.979 
  1498.57,285.155 1499.59,260.309 1500.61,274.718 1501.63,283.544 1502.64,316.358 1503.66,295.642 1504.68,316.561 1505.7,286.485 1506.72,232.478 1507.73,215.077 
  1508.75,229.221 1509.77,224.899 1510.79,221.359 1511.81,274.957 1512.83,218.422 1513.84,240.979 1514.86,195.493 1515.88,164.631 1516.9,130.715 1517.92,143.031 
  1518.93,237.492 1519.95,306.922 1520.97,362.379 1521.99,363.145 1523.01,354.199 1524.02,344.179 1525.04,331.803 1526.06,333.433 1527.08,300.699 1528.1,303.97 
  1529.12,320.011 1530.13,293.662 1531.15,347.154 1532.17,345.195 1533.19,315.684 1534.21,309.198 1535.22,286.21 1536.24,245.444 1537.26,278.776 1538.28,246.945 
  1539.3,256.697 1540.31,271.012 1541.33,329.928 1542.35,337.51 1543.37,298.654 1544.39,304.896 1545.41,319.745 1546.42,378.374 1547.44,357.613 1548.46,353.231 
  1549.48,353.098 1550.5,332.298 1551.51,370.471 1552.53,394.878 1553.55,376.84 1554.57,365.436 1555.59,347.873 1556.6,349.158 1557.62,354.489 1558.64,356.624 
  1559.66,325.396 1560.68,338.827 1561.7,341.404 1562.71,307.028 1563.73,274.084 1564.75,280.026 1565.77,235.378 1566.79,193.207 1567.8,190.029 1568.82,263.291 
  1569.84,237.144 1570.86,210.275 1571.88,218.539 1572.9,252.468 1573.91,276.992 1574.93,266.482 1575.95,247.14 1576.97,245.899 1577.99,243.108 1579,252.492 
  1580.02,230.578 1581.04,207.162 1582.06,175.768 1583.08,242.845 1584.09,217.89 1585.11,236.807 1586.13,263.263 1587.15,300.549 1588.17,259.407 1589.19,279.065 
  1590.2,343.914 1591.22,320.078 1592.24,312.634 1593.26,307.58 1594.28,341.005 1595.29,343.041 1596.31,337.559 1597.33,343.415 1598.35,418.902 1599.37,405.076 
  1600.38,380.214 1601.4,383.348 1602.42,391.409 1603.44,420.436 1604.46,461.962 1605.48,474.486 1606.49,468.554 1607.51,420.821 1608.53,389.259 1609.55,342.086 
  1610.57,390.28 1611.58,397.883 1612.6,399.607 1613.62,438.068 1614.64,399.422 1615.66,376.229 1616.67,395.65 1617.69,385.783 1618.71,428.945 1619.73,410.365 
  1620.75,415.452 1621.77,360.17 1622.78,334.704 1623.8,340.342 1624.82,365.242 1625.84,305.687 1626.86,277.501 1627.87,269.029 1628.89,243.248 1629.91,224.088 
  1630.93,168.892 1631.95,167.138 1632.97,174.407 1633.98,172.308 1635,163.173 1636.02,144.792 1637.04,207.406 1638.06,263.656 1639.07,280.405 1640.09,281.363 
  1641.11,272.927 1642.13,369.142 1643.15,327.465 1644.16,337.028 1645.18,347.478 1646.2,327.323 1647.22,335.681 1648.24,263.677 1649.26,304.558 1650.27,317.521 
  1651.29,350.444 1652.31,331.805 1653.33,282.337 1654.35,296.663 1655.36,234.925 1656.38,212.744 1657.4,202.958 1658.42,222.557 1659.44,281.832 1660.45,333.184 
  1661.47,351.161 1662.49,356.356 1663.51,355 1664.53,370.29 1665.55,368.618 1666.56,260.823 1667.58,340.414 1668.6,343.35 1669.62,337.543 1670.64,328.536 
  1671.65,312.627 1672.67,303.641 1673.69,318.194 1674.71,326.362 1675.73,279.078 1676.74,307.149 1677.76,318.667 1678.78,393.347 1679.8,420.698 1680.82,389.66 
  1681.84,390.066 1682.85,421.692 1683.87,432.225 1684.89,395.186 1685.91,424.376 1686.93,388.048 1687.94,362.072 1688.96,366.769 1689.98,396.259 1691,374.992 
  1692.02,384.129 1693.04,347.597 1694.05,298.249 1695.07,296.621 1696.09,285.015 1697.11,279.25 1698.13,217.73 1699.14,223.317 1700.16,201.648 1701.18,177.725 
  1702.2,164.203 1703.22,231.93 1704.23,247.792 1705.25,232.557 1706.27,226.559 1707.29,243.979 1708.31,260.493 1709.33,250.329 1710.34,209.062 1711.36,226.314 
  1712.38,212.344 1713.4,295.049 1714.42,332.852 1715.43,294.011 1716.45,356.387 1717.47,368.295 1718.49,410.065 1719.51,337.22 1720.52,339.644 1721.54,311.988 
  1722.56,256.757 1723.58,249.134 1724.6,276.784 1725.62,293.33 1726.63,301.373 1727.65,287.989 1728.67,314.128 1729.69,291.816 1730.71,289.77 1731.72,249.636 
  1732.74,258.217 1733.76,267.683 1734.78,337.416 1735.8,358.849 1736.81,324.059 1737.83,362.39 1738.85,329.046 1739.87,342.739 1740.89,359.255 1741.91,378.954 
  1742.92,365.651 1743.94,388.468 1744.96,379.987 1745.98,425.353 1747,451.399 1748.01,420.057 1749.03,438.796 1750.05,410.792 1751.07,370.9 1752.09,347.112 
  1753.11,349.813 1754.12,328.434 1755.14,352.82 1756.16,387.734 1757.18,373.922 1758.2,398.558 1759.21,399.187 1760.23,381.279 1761.25,358.682 1762.27,358.429 
  1763.29,388.824 1764.3,428.513 1765.32,403.271 1766.34,396.561 1767.36,393.161 1768.38,378.815 1769.4,330.231 1770.41,279.516 1771.43,251.629 1772.45,261.182 
  1773.47,277.096 1774.49,226.842 1775.5,214.705 1776.52,246.402 1777.54,230.325 1778.56,211.916 1779.58,255.903 1780.59,244.11 1781.61,210.555 1782.63,213.154 
  1783.65,215.218 1784.67,195.347 1785.69,164.53 1786.7,205.1 1787.72,195.363 1788.74,193.299 1789.76,168.146 1790.78,174.234 1791.79,189.947 1792.81,201.915 
  1793.83,225.689 1794.85,271.848 1795.87,296.991 1796.88,350.314 1797.9,277.176 1798.92,282.595 1799.94,288.86 1800.96,329.832 1801.98,261.408 1802.99,280.353 
  1804.01,225.77 1805.03,180.212 1806.05,188.147 1807.07,198.4 1808.08,203.233 1809.1,182.942 1810.12,151.371 1811.14,192.846 1812.16,213.516 1813.17,183.68 
  1814.19,205.976 1815.21,202.771 1816.23,203.434 1817.25,232.95 1818.27,201.025 1819.28,189.808 1820.3,152.209 1821.32,182.501 1822.34,180.123 1823.36,243.427 
  1824.37,281.659 1825.39,280.022 1826.41,278.405 1827.43,209.833 1828.45,228.118 1829.47,211.912 1830.48,180.911 1831.5,185.06 1832.52,161.579 1833.54,118.908 
  1834.56,106.834 1835.57,131.905 1836.59,94.4921 1837.61,84.3379 1838.63,83.6033 1839.65,113.183 1840.66,102.971 1841.68,87.2568 1842.7,109.378 1843.72,144.532 
  1844.74,163.438 1845.76,155.465 1846.77,82.7405 1847.79,63.6132 1848.81,112.874 1849.83,119.499 1850.85,131.645 1851.86,142.352 1852.88,131.226 1853.9,175.738 
  1854.92,167.87 1855.94,181.252 1856.95,254.982 1857.97,271.613 1858.99,341.043 1860.01,355.296 1861.03,392.017 1862.05,415.187 1863.06,417.893 1864.08,354.762 
  1865.1,313.937 1866.12,360.063 1867.14,341.368 1868.15,311.16 1869.17,289.58 1870.19,243.68 1871.21,232.668 1872.23,220.599 1873.24,259.297 1874.26,230.315 
  1875.28,262.243 1876.3,308.806 1877.32,356.929 1878.34,349.894 1879.35,391.311 1880.37,297.939 1881.39,305.971 1882.41,296.033 1883.43,347.923 1884.44,413.156 
  1885.46,358.87 1886.48,328.912 1887.5,286.097 1888.52,302.404 1889.54,340.41 1890.55,326.156 1891.57,362.993 1892.59,416.051 1893.61,400.014 1894.63,369.613 
  1895.64,395.928 1896.66,410.121 1897.68,377.141 1898.7,348.495 1899.72,337.429 1900.73,306.375 1901.75,280.905 1902.77,369.605 1903.79,343.079 1904.81,366.569 
  1905.83,355.575 1906.84,324.657 1907.86,318.669 1908.88,344.092 1909.9,311.064 1910.92,241.325 1911.93,289.021 1912.95,250.764 1913.97,314.686 1914.99,286.881 
  1916.01,247.584 1917.02,271.502 1918.04,248.049 1919.06,227.419 1920.08,223.337 1921.1,252.325 1922.12,294.788 1923.13,325.279 1924.15,329.704 1925.17,248.76 
  1926.19,223.091 1927.21,227.48 1928.22,263.512 1929.24,211.967 1930.26,186.995 1931.28,256.809 1932.3,240.08 1933.31,238.787 1934.33,252.562 1935.35,276.082 
  1936.37,274.94 1937.39,256.694 1938.41,302.452 1939.42,290.729 1940.44,265.122 1941.46,246.352 1942.48,268.746 1943.5,287.076 1944.51,356.548 1945.53,394.913 
  1946.55,394.318 1947.57,452.169 1948.59,418.481 1949.61,401.435 1950.62,371.915 1951.64,345.429 1952.66,350.693 1953.68,339.171 1954.7,330.745 1955.71,323.807 
  1956.73,423.688 1957.75,399.741 1958.77,410.854 1959.79,418.915 1960.8,421.728 1961.82,434.055 1962.84,435.665 1963.86,488.876 1964.88,522.326 1965.9,477.6 
  1966.91,490.311 1967.93,435.442 1968.95,405.293 1969.97,443.57 1970.99,456.804 1972,488.592 1973.02,465.931 1974.04,478.879 1975.06,496.603 1976.08,403.367 
  1977.09,423.692 1978.11,440.506 1979.13,417.752 1980.15,418.615 1981.17,417.957 1982.19,412.44 1983.2,464.362 1984.22,397.182 1985.24,367.002 1986.26,352.878 
  1987.28,381.573 1988.29,397.648 1989.31,386.313 1990.33,378.422 1991.35,408.854 1992.37,400.007 1993.38,351.293 1994.4,361.469 1995.42,386.158 1996.44,381.738 
  1997.46,369.985 1998.48,378.217 1999.49,437.604 2000.51,480.142 2001.53,440.944 2002.55,440.025 2003.57,433.115 2004.58,442.553 2005.6,412.798 2006.62,446.518 
  2007.64,454.452 2008.66,474.562 2009.68,476.888 2010.69,493.289 2011.71,455.222 2012.73,495.08 2013.75,460.34 2014.77,399.006 2015.78,397.054 2016.8,351.9 
  2017.82,339.887 2018.84,346.172 2019.86,379.588 2020.87,377.935 2021.89,355.597 2022.91,389.216 2023.93,393.721 2024.95,438.943 2025.97,377.248 2026.98,387.609 
  2028,319.674 2029.02,283.811 2030.04,266.239 2031.06,290.795 2032.07,230.456 2033.09,219.707 2034.11,223.674 2035.13,185.802 2036.15,203.196 2037.16,235.091 
  2038.18,269.604 2039.2,264.095 2040.22,271.338 2041.24,287.448 2042.26,319.234 2043.27,307.286 2044.29,315.32 2045.31,279.712 2046.33,293.36 2047.35,302.298 
  2048.36,305.205 2049.38,281.815 2050.4,311.798 2051.42,372.625 2052.44,409.889 2053.45,453.398 2054.47,413.132 2055.49,403.375 2056.51,414.214 2057.53,419.621 
  2058.55,400.628 2059.56,422.689 2060.58,400.144 2061.6,378.35 2062.62,400.108 2063.64,341.306 2064.65,336.539 2065.67,326.424 2066.69,364.721 2067.71,370.498 
  2068.73,382.718 2069.74,400.911 2070.76,437.874 2071.78,429.425 2072.8,414.676 2073.82,372.129 2074.84,377.299 2075.85,353.032 2076.87,373.491 2077.89,367.952 
  2078.91,360.55 2079.93,329.684 2080.94,286.664 2081.96,305.291 2082.98,301.774 2084,284.284 2085.02,268.799 2086.04,258.496 2087.05,252.22 2088.07,249.983 
  2089.09,278.223 2090.11,300.332 2091.13,277.649 2092.14,305.131 2093.16,295.87 2094.18,304.454 2095.2,312.454 2096.22,335.603 2097.23,285.301 2098.25,296.234 
  2099.27,305.728 2100.29,326.237 2101.31,328.111 2102.33,337.434 2103.34,363.322 2104.36,378.928 2105.38,393.684 2106.4,389.592 2107.42,317.647 2108.43,286.187 
  2109.45,335.719 2110.47,315.327 2111.49,318.652 2112.51,295.218 2113.52,300.496 2114.54,326.429 2115.56,334.976 2116.58,322.012 2117.6,295.475 2118.62,322.787 
  2119.63,286.336 2120.65,315.42 2121.67,285.432 2122.69,249.338 2123.71,237.078 2124.72,268.469 2125.74,299.115 2126.76,269.493 2127.78,253.275 2128.8,324.963 
  2129.81,325.505 2130.83,359.948 2131.85,355.25 2132.87,381.419 2133.89,403.566 2134.91,403.544 2135.92,418.186 2136.94,377.011 2137.96,340.983 2138.98,347.181 
  2140,334.79 2141.01,355.854 2142.03,380.918 2143.05,405.567 2144.07,433.655 2145.09,386.532 2146.11,405.936 2147.12,376.433 2148.14,375.643 2149.16,350.912 
  2150.18,318.656 2151.2,324.313 2152.21,288.532 2153.23,256.303 2154.25,244.854 2155.27,217.868 2156.29,212.713 2157.3,224.666 2158.32,208.308 2159.34,199.724 
  2160.36,182.463 2161.38,160.016 2162.4,161.413 2163.41,109.21 2164.43,113.901 2165.45,117.351 2166.47,136.418 2167.49,73.6787 2168.5,152.588 2169.52,182.216 
  2170.54,191.304 2171.56,187.972 2172.58,241.774 2173.59,196.138 2174.61,239.529 2175.63,214.044 2176.65,190.472 2177.67,121.663 2178.69,171.179 2179.7,224.226 
  2180.72,215.994 2181.74,276.576 2182.76,254.323 2183.78,224.094 2184.79,238.699 2185.81,229.401 2186.83,249.08 2187.85,242.896 2188.87,275.837 2189.88,266.356 
  2190.9,309.198 2191.92,324.687 2192.94,254.56 2193.96,219.615 2194.98,212.372 2195.99,229.422 2197.01,308.323 2198.03,307.399 2199.05,372.894 2200.07,413.571 
  2201.08,430.109 2202.1,403.459 2203.12,382.699 2204.14,437.366 2205.16,406.921 2206.18,451.007 2207.19,403.863 2208.21,365.762 2209.23,371.831 2210.25,342.066 
  2211.27,348.203 2212.28,266.002 2213.3,270.433 2214.32,269.06 2215.34,265.09 2216.36,240.017 2217.37,264.872 2218.39,262.765 2219.41,232.566 2220.43,225.199 
  2221.45,220.362 2222.47,237.567 2223.48,220.34 2224.5,224.129 2225.52,243.45 2226.54,244.391 2227.56,283.553 2228.57,303.719 2229.59,320.184 2230.61,298.997 
  2231.63,262.318 2232.65,224.91 2233.66,283.405 2234.68,308.83 2235.7,308.599 2236.72,245.303 2237.74,216.422 2238.76,208.441 2239.77,207.711 2240.79,240.46 
  2241.81,209.652 2242.83,292.091 2243.85,365.775 2244.86,315.359 2245.88,325.142 2246.9,275.655 2247.92,260.549 2248.94,237.114 2249.95,251.582 2250.97,253.362 
  2251.99,274.629 2253.01,270.119 2254.03,289.004 2255.05,323.313 2256.06,358.089 2257.08,399.538 2258.1,369.16 2259.12,305.854 2260.14,325.19 2261.15,354.669 
  2262.17,406.513 2263.19,424.769 2264.21,392.574 2265.23,389.422 2266.24,377.986 2267.26,374.167 2268.28,353.863 2269.3,382.222 2270.32,389.476 2271.34,355.125 
  2272.35,353.152 2273.37,363.523 2274.39,396.503 2275.41,398.668 2276.43,368.216 2277.44,379.822 2278.46,365.386 2279.48,354.495 2280.5,352.43 2281.52,337.19 
  2282.54,271.341 2283.55,249.581 2284.57,278.228 2285.59,284.5 2286.61,274.959 2287.63,312.474 2288.64,327.678 2289.66,332.865 2290.68,306.555 2291.7,321.535 
  
  "/>
<path clip-path="url(#clip7100)" d="
M1976.55 251.724 L2280.76 251.724 L2280.76 130.764 L1976.55 130.764  Z
  " fill="#ffffff" fill-rule="evenodd" fill-opacity="1"/>
<polyline clip-path="url(#clip7100)" style="stroke:#000000; stroke-width:4; stroke-opacity:0; fill:none" points="
  1976.55,251.724 2280.76,251.724 2280.76,130.764 1976.55,130.764 1976.55,251.724 
  "/>
<polyline clip-path="url(#clip7100)" style="stroke:#009af9; stroke-width:4; stroke-opacity:1; fill:none" points="
  2000.55,191.244 2144.55,191.244 
  "/>
<g clip-path="url(#clip7100)">
<text style="fill:#000000; fill-opacity:1; font-family:Arial,Helvetica Neue,Helvetica,sans-serif; font-size:48px; text-anchor:start;" transform="rotate(0, 2168.55, 208.744)" x="2168.55" y="208.744">z_t</text>
</g>
<path clip-path="url(#clip7100)" d="
M195.389 1425.62 L2352.76 1425.62 L2352.76 847.244 L195.389 847.244  Z
  " fill="#ffffff" fill-rule="evenodd" fill-opacity="1"/>
<defs>
  <clipPath id="clip7103">
    <rect x="195" y="847" width="2158" height="579"/>
  </clipPath>
</defs>
<polyline clip-path="url(#clip7103)" style="stroke:#000000; stroke-width:2; stroke-opacity:0.1; fill:none" points="
  255.429,1425.62 255.429,847.244 
  "/>
<polyline clip-path="url(#clip7103)" style="stroke:#000000; stroke-width:2; stroke-opacity:0.1; fill:none" points="
  764.496,1425.62 764.496,847.244 
  "/>
<polyline clip-path="url(#clip7103)" style="stroke:#000000; stroke-width:2; stroke-opacity:0.1; fill:none" points="
  1273.56,1425.62 1273.56,847.244 
  "/>
<polyline clip-path="url(#clip7103)" style="stroke:#000000; stroke-width:2; stroke-opacity:0.1; fill:none" points="
  1782.63,1425.62 1782.63,847.244 
  "/>
<polyline clip-path="url(#clip7103)" style="stroke:#000000; stroke-width:2; stroke-opacity:0.1; fill:none" points="
  2291.7,1425.62 2291.7,847.244 
  "/>
<polyline clip-path="url(#clip7103)" style="stroke:#000000; stroke-width:2; stroke-opacity:0.1; fill:none" points="
  195.389,1419.28 2352.76,1419.28 
  "/>
<polyline clip-path="url(#clip7103)" style="stroke:#000000; stroke-width:2; stroke-opacity:0.1; fill:none" points="
  195.389,1294.1 2352.76,1294.1 
  "/>
<polyline clip-path="url(#clip7103)" style="stroke:#000000; stroke-width:2; stroke-opacity:0.1; fill:none" points="
  195.389,1168.92 2352.76,1168.92 
  "/>
<polyline clip-path="url(#clip7103)" style="stroke:#000000; stroke-width:2; stroke-opacity:0.1; fill:none" points="
  195.389,1043.73 2352.76,1043.73 
  "/>
<polyline clip-path="url(#clip7103)" style="stroke:#000000; stroke-width:2; stroke-opacity:0.1; fill:none" points="
  195.389,918.55 2352.76,918.55 
  "/>
<polyline clip-path="url(#clip7100)" style="stroke:#000000; stroke-width:4; stroke-opacity:1; fill:none" points="
  195.389,1425.62 2352.76,1425.62 
  "/>
<polyline clip-path="url(#clip7100)" style="stroke:#000000; stroke-width:4; stroke-opacity:1; fill:none" points="
  195.389,1425.62 195.389,847.244 
  "/>
<polyline clip-path="url(#clip7100)" style="stroke:#000000; stroke-width:4; stroke-opacity:1; fill:none" points="
  255.429,1425.62 255.429,1418.68 
  "/>
<polyline clip-path="url(#clip7100)" style="stroke:#000000; stroke-width:4; stroke-opacity:1; fill:none" points="
  764.496,1425.62 764.496,1418.68 
  "/>
<polyline clip-path="url(#clip7100)" style="stroke:#000000; stroke-width:4; stroke-opacity:1; fill:none" points="
  1273.56,1425.62 1273.56,1418.68 
  "/>
<polyline clip-path="url(#clip7100)" style="stroke:#000000; stroke-width:4; stroke-opacity:1; fill:none" points="
  1782.63,1425.62 1782.63,1418.68 
  "/>
<polyline clip-path="url(#clip7100)" style="stroke:#000000; stroke-width:4; stroke-opacity:1; fill:none" points="
  2291.7,1425.62 2291.7,1418.68 
  "/>
<polyline clip-path="url(#clip7100)" style="stroke:#000000; stroke-width:4; stroke-opacity:1; fill:none" points="
  195.389,1419.28 221.278,1419.28 
  "/>
<polyline clip-path="url(#clip7100)" style="stroke:#000000; stroke-width:4; stroke-opacity:1; fill:none" points="
  195.389,1294.1 221.278,1294.1 
  "/>
<polyline clip-path="url(#clip7100)" style="stroke:#000000; stroke-width:4; stroke-opacity:1; fill:none" points="
  195.389,1168.92 221.278,1168.92 
  "/>
<polyline clip-path="url(#clip7100)" style="stroke:#000000; stroke-width:4; stroke-opacity:1; fill:none" points="
  195.389,1043.73 221.278,1043.73 
  "/>
<polyline clip-path="url(#clip7100)" style="stroke:#000000; stroke-width:4; stroke-opacity:1; fill:none" points="
  195.389,918.55 221.278,918.55 
  "/>
<g clip-path="url(#clip7100)">
<text style="fill:#000000; fill-opacity:1; font-family:Arial,Helvetica Neue,Helvetica,sans-serif; font-size:48px; text-anchor:middle;" transform="rotate(0, 255.429, 1479.62)" x="255.429" y="1479.62">0</text>
</g>
<g clip-path="url(#clip7100)">
<text style="fill:#000000; fill-opacity:1; font-family:Arial,Helvetica Neue,Helvetica,sans-serif; font-size:48px; text-anchor:middle;" transform="rotate(0, 764.496, 1479.62)" x="764.496" y="1479.62">500</text>
</g>
<g clip-path="url(#clip7100)">
<text style="fill:#000000; fill-opacity:1; font-family:Arial,Helvetica Neue,Helvetica,sans-serif; font-size:48px; text-anchor:middle;" transform="rotate(0, 1273.56, 1479.62)" x="1273.56" y="1479.62">1000</text>
</g>
<g clip-path="url(#clip7100)">
<text style="fill:#000000; fill-opacity:1; font-family:Arial,Helvetica Neue,Helvetica,sans-serif; font-size:48px; text-anchor:middle;" transform="rotate(0, 1782.63, 1479.62)" x="1782.63" y="1479.62">1500</text>
</g>
<g clip-path="url(#clip7100)">
<text style="fill:#000000; fill-opacity:1; font-family:Arial,Helvetica Neue,Helvetica,sans-serif; font-size:48px; text-anchor:middle;" transform="rotate(0, 2291.7, 1479.62)" x="2291.7" y="1479.62">2000</text>
</g>
<g clip-path="url(#clip7100)">
<text style="fill:#000000; fill-opacity:1; font-family:Arial,Helvetica Neue,Helvetica,sans-serif; font-size:48px; text-anchor:end;" transform="rotate(0, 171.389, 1436.78)" x="171.389" y="1436.78">-100</text>
</g>
<g clip-path="url(#clip7100)">
<text style="fill:#000000; fill-opacity:1; font-family:Arial,Helvetica Neue,Helvetica,sans-serif; font-size:48px; text-anchor:end;" transform="rotate(0, 171.389, 1311.6)" x="171.389" y="1311.6">-50</text>
</g>
<g clip-path="url(#clip7100)">
<text style="fill:#000000; fill-opacity:1; font-family:Arial,Helvetica Neue,Helvetica,sans-serif; font-size:48px; text-anchor:end;" transform="rotate(0, 171.389, 1186.42)" x="171.389" y="1186.42">0</text>
</g>
<g clip-path="url(#clip7100)">
<text style="fill:#000000; fill-opacity:1; font-family:Arial,Helvetica Neue,Helvetica,sans-serif; font-size:48px; text-anchor:end;" transform="rotate(0, 171.389, 1061.23)" x="171.389" y="1061.23">50</text>
</g>
<g clip-path="url(#clip7100)">
<text style="fill:#000000; fill-opacity:1; font-family:Arial,Helvetica Neue,Helvetica,sans-serif; font-size:48px; text-anchor:end;" transform="rotate(0, 171.389, 936.05)" x="171.389" y="936.05">100</text>
</g>
<g clip-path="url(#clip7100)">
<text style="fill:#000000; fill-opacity:1; font-family:Arial,Helvetica Neue,Helvetica,sans-serif; font-size:66px; text-anchor:middle;" transform="rotate(0, 1274.07, 1559.48)" x="1274.07" y="1559.48">t</text>
</g>
<polyline clip-path="url(#clip7103)" style="stroke:#009af9; stroke-width:4; stroke-opacity:1; fill:none" points="
  256.447,1168.92 257.465,1168.92 258.483,1169 259.501,1169.21 260.519,1169.62 261.537,1170.11 262.556,1170.46 263.574,1170.64 264.592,1170.68 265.61,1170.55 
  266.628,1170.33 267.646,1170.07 268.664,1169.79 269.683,1169.48 270.701,1168.96 271.719,1168.34 272.737,1167.62 273.755,1166.84 274.773,1165.97 275.791,1165.03 
  276.809,1164.16 277.828,1163.22 278.846,1162.36 279.864,1161.45 280.882,1160.62 281.9,1160.17 282.918,1160.08 283.936,1160.27 284.955,1160.65 285.973,1161.22 
  286.991,1162.02 288.009,1163.14 289.027,1164.43 290.045,1165.86 291.063,1167.39 292.081,1169 293.1,1170.62 294.118,1172.15 295.136,1173.66 296.154,1175.2 
  297.172,1176.92 298.19,1178.8 299.208,1180.91 300.227,1183.27 301.245,1185.88 302.263,1188.82 303.281,1192.05 304.299,1195.5 305.317,1199.18 306.335,1203.14 
  307.354,1207.37 308.372,1211.95 309.39,1216.86 310.408,1222.11 311.426,1227.7 312.444,1233.59 313.462,1239.68 314.48,1245.67 315.499,1251.58 316.517,1257.28 
  317.535,1262.75 318.553,1268.1 319.571,1273.42 320.589,1278.54 321.607,1283.5 322.626,1288.45 323.644,1293.34 324.662,1298.13 325.68,1302.82 326.698,1307.38 
  327.716,1311.72 328.734,1315.84 329.752,1319.53 330.771,1322.96 331.789,1326.12 332.807,1329.1 333.825,1331.89 334.843,1334.63 335.861,1337.5 336.879,1340.47 
  337.898,1343.41 338.916,1346.39 339.934,1349.35 340.952,1352.37 341.97,1355.41 342.988,1358.52 344.006,1361.64 345.025,1364.87 346.043,1368.1 347.061,1371.27 
  348.079,1374.26 349.097,1377.16 350.115,1379.99 351.133,1382.7 352.151,1385.2 353.17,1387.34 354.188,1389.14 355.206,1390.71 356.224,1392.1 357.242,1393.47 
  358.26,1394.86 359.278,1396.23 360.297,1397.69 361.315,1399.11 362.333,1400.57 363.351,1401.97 364.369,1403.43 365.387,1404.95 366.405,1406.38 367.423,1407.58 
  368.442,1408.47 369.46,1409.02 370.478,1409.25 371.496,1409.1 372.514,1408.7 373.532,1407.89 374.55,1406.77 375.569,1405.22 376.587,1403.3 377.605,1401.08 
  378.623,1398.64 379.641,1395.96 380.659,1393.04 381.677,1389.67 382.695,1385.92 383.714,1381.84 384.732,1377.44 385.75,1372.86 386.768,1368.04 387.786,1362.93 
  388.804,1357.58 389.822,1351.98 390.841,1346.31 391.859,1340.23 392.877,1333.7 393.895,1326.84 394.913,1319.74 395.931,1312.23 396.949,1304.45 397.968,1296.57 
  398.986,1288.67 400.004,1280.84 401.022,1273.3 402.04,1266 403.058,1258.97 404.076,1252.13 405.094,1245.48 406.113,1239.19 407.131,1233.27 408.149,1227.76 
  409.167,1222.67 410.185,1217.95 411.203,1213.64 412.221,1209.58 413.24,1205.8 414.258,1202.32 415.276,1199.02 416.294,1196.03 417.312,1193.59 418.33,1191.56 
  419.348,1189.74 420.366,1188.27 421.385,1187.19 422.403,1186.45 423.421,1185.94 424.439,1185.72 425.457,1185.63 426.475,1185.77 427.493,1186.22 428.512,1187.01 
  429.53,1187.93 430.548,1189.09 431.566,1190.46 432.584,1191.91 433.602,1193.32 434.62,1194.65 435.639,1195.93 436.657,1197.09 437.675,1198.14 438.693,1199.05 
  439.711,1199.92 440.729,1200.55 441.747,1201.01 442.765,1201.16 443.784,1200.78 444.802,1199.82 445.82,1198.39 446.838,1196.41 447.856,1194.04 448.874,1191.48 
  449.892,1188.8 450.911,1186.13 451.929,1183.38 452.947,1180.6 453.965,1177.87 454.983,1175.33 456.001,1172.99 457.019,1170.95 458.037,1169.1 459.056,1167.38 
  460.074,1165.83 461.092,1164.29 462.11,1162.66 463.128,1160.84 464.146,1158.84 465.164,1156.63 466.183,1154.24 467.201,1151.7 468.219,1148.86 469.237,1145.67 
  470.255,1142.24 471.273,1138.56 472.291,1134.72 473.31,1130.58 474.328,1126.18 475.346,1121.5 476.364,1116.77 477.382,1111.76 478.4,1106.69 479.418,1101.57 
  480.436,1096.49 481.455,1091.44 482.473,1086.6 483.491,1082.12 484.509,1077.95 485.527,1074.15 486.545,1070.66 487.563,1067.34 488.582,1064.22 489.6,1061.21 
  490.618,1058.22 491.636,1055.19 492.654,1052.18 493.672,1049.26 494.69,1046.54 495.708,1043.9 496.727,1041.45 497.745,1039.25 498.763,1037.22 499.781,1035.48 
  500.799,1034.16 501.817,1033.21 502.835,1032.66 503.854,1032.38 504.872,1032.34 505.89,1032.51 506.908,1032.83 507.926,1033.34 508.944,1033.94 509.962,1034.77 
  510.98,1035.88 511.999,1037.12 513.017,1038.45 514.035,1039.94 515.053,1041.5 516.071,1043.14 517.089,1044.81 518.107,1046.5 519.126,1048.37 520.144,1050.55 
  521.162,1052.96 522.18,1055.7 523.198,1058.67 524.216,1061.96 525.234,1065.45 526.253,1069.05 527.271,1072.77 528.289,1076.56 529.307,1080.19 530.325,1083.79 
  531.343,1087.32 532.361,1090.74 533.379,1094.02 534.398,1097.14 535.416,1100.18 536.434,1103.28 537.452,1106.55 538.47,1110.06 539.488,1113.78 540.506,1117.65 
  541.525,1121.55 542.543,1125.54 543.561,1129.55 544.579,1133.67 545.597,1137.87 546.615,1142.17 547.633,1146.4 548.651,1150.48 549.67,1154.45 550.688,1158.35 
  551.706,1162.1 552.724,1165.71 553.742,1169.16 554.76,1172.36 555.778,1175.34 556.797,1178.04 557.815,1180.4 558.833,1182.39 559.851,1183.95 560.869,1185.17 
  561.887,1186.16 562.905,1186.77 563.924,1187 564.942,1186.89 565.96,1186.53 566.978,1186 567.996,1185.28 569.014,1184.32 570.032,1183.28 571.05,1182.13 
  572.069,1181.13 573.087,1180.29 574.105,1179.57 575.123,1178.97 576.141,1178.53 577.159,1178.27 578.177,1178.29 579.196,1178.67 580.214,1179.31 581.232,1180.16 
  582.25,1181.05 583.268,1182.02 584.286,1183 585.304,1184.04 586.322,1185.13 587.341,1186.26 588.359,1187.38 589.377,1188.52 590.395,1189.67 591.413,1190.8 
  592.431,1191.77 593.449,1192.38 594.468,1192.72 595.486,1192.84 596.504,1192.86 597.522,1192.65 598.54,1192.27 599.558,1191.59 600.576,1190.72 601.594,1189.77 
  602.613,1188.75 603.631,1187.88 604.649,1187.13 605.667,1186.43 606.685,1185.77 607.703,1185.22 608.721,1184.77 609.74,1184.53 610.758,1184.43 611.776,1184.43 
  612.794,1184.75 613.812,1185.26 614.83,1185.89 615.848,1186.61 616.867,1187.34 617.885,1188.09 618.903,1188.9 619.921,1189.72 620.939,1190.54 621.957,1191.11 
  622.975,1191.3 623.993,1191.19 625.012,1190.73 626.03,1189.94 627.048,1188.98 628.066,1187.97 629.084,1186.96 630.102,1186.04 631.12,1185.3 632.139,1184.76 
  633.157,1184.39 634.175,1184.41 635.193,1184.72 636.211,1185.22 637.229,1185.75 638.247,1186.27 639.265,1186.74 640.284,1187.02 641.302,1187.01 642.32,1186.83 
  643.338,1186.49 644.356,1186.04 645.374,1185.45 646.392,1184.78 647.411,1184.01 648.429,1183.31 649.447,1182.69 650.465,1182.18 651.483,1181.79 652.501,1181.62 
  653.519,1181.73 654.538,1182.22 655.556,1183.13 656.574,1184.4 657.592,1185.81 658.61,1187.35 659.628,1188.99 660.646,1190.66 661.664,1192.4 662.683,1194.31 
  663.701,1196.38 664.719,1198.57 665.737,1200.83 666.755,1203.1 667.773,1205.5 668.791,1207.89 669.81,1210.23 670.828,1212.59 671.846,1214.97 672.864,1217.45 
  673.882,1219.89 674.9,1222.19 675.918,1224.46 676.936,1226.77 677.955,1229.18 678.973,1231.7 679.991,1234.33 681.009,1236.8 682.027,1238.99 683.045,1240.87 
  684.063,1242.47 685.082,1243.76 686.1,1244.73 687.118,1245.32 688.136,1245.62 689.154,1245.7 690.172,1245.72 691.19,1245.65 692.208,1245.44 693.227,1244.92 
  694.245,1244.28 695.263,1243.6 696.281,1242.93 697.299,1242.17 698.317,1241.24 699.335,1240.1 700.354,1238.83 701.372,1237.45 702.39,1235.93 703.408,1234.29 
  704.426,1232.47 705.444,1230.43 706.462,1228.16 707.481,1225.65 708.499,1222.94 709.517,1219.94 710.535,1216.75 711.553,1213.52 712.571,1210.02 713.589,1206.16 
  714.607,1201.99 715.626,1197.66 716.644,1193.29 717.662,1188.9 718.68,1184.54 719.698,1180.25 720.716,1176.12 721.734,1172.12 722.753,1168.27 723.771,1164.6 
  724.789,1161.22 725.807,1158.22 726.825,1155.64 727.843,1153.51 728.861,1151.66 729.879,1150.03 730.898,1148.67 731.916,1147.65 732.934,1146.85 733.952,1146.17 
  734.97,1145.38 735.988,1144.48 737.006,1143.35 738.025,1142.08 739.043,1140.57 740.061,1138.79 741.079,1136.83 742.097,1134.8 743.115,1132.52 744.133,1129.84 
  745.152,1126.75 746.17,1123.34 747.188,1119.78 748.206,1116.08 749.224,1112.24 750.242,1108.37 751.26,1104.57 752.278,1100.93 753.297,1097.43 754.315,1094.03 
  755.333,1090.82 756.351,1087.78 757.369,1085 758.387,1082.37 759.405,1079.86 760.424,1077.48 761.442,1075.29 762.46,1073.32 763.478,1071.45 764.496,1069.86 
  765.514,1068.55 766.532,1067.38 767.55,1066.5 768.569,1065.97 769.587,1065.86 770.605,1066.08 771.623,1066.73 772.641,1067.75 773.659,1069.19 774.677,1071.14 
  775.696,1073.6 776.714,1076.43 777.732,1079.63 778.75,1083.19 779.768,1086.95 780.786,1091.04 781.804,1095.34 782.822,1099.81 783.841,1104.24 784.859,1108.46 
  785.877,1112.54 786.895,1116.44 787.913,1120.08 788.931,1123.55 789.949,1126.79 790.968,1129.81 791.986,1132.57 793.004,1134.87 794.022,1136.8 795.04,1138.58 
  796.058,1140.25 797.076,1141.83 798.095,1143.38 799.113,1145 800.131,1146.5 801.149,1147.92 802.167,1149.22 803.185,1150.27 804.203,1151.07 805.221,1151.77 
  806.24,1152.68 807.258,1153.73 808.276,1154.93 809.294,1156.26 810.312,1157.71 811.33,1159.31 812.348,1161 813.367,1162.8 814.385,1164.71 815.403,1166.68 
  816.421,1168.82 817.439,1171.27 818.457,1174.04 819.475,1177.07 820.493,1180.26 821.512,1183.69 822.53,1187.37 823.548,1191.28 824.566,1195.33 825.584,1199.53 
  826.602,1203.97 827.62,1208.61 828.639,1213.38 829.657,1218.29 830.675,1223.06 831.693,1227.73 832.711,1232.26 833.729,1236.56 834.747,1240.53 835.766,1244.18 
  836.784,1247.62 837.802,1251.04 838.82,1254.37 839.838,1257.76 840.856,1261.28 841.874,1265.01 842.892,1268.99 843.911,1273.24 844.929,1277.61 845.947,1281.99 
  846.965,1286.28 847.983,1290.47 849.001,1294.5 850.019,1298.25 851.038,1301.66 852.056,1304.93 853.074,1308 854.092,1310.89 855.11,1313.6 856.128,1316.08 
  857.146,1318.4 858.164,1320.49 859.183,1322.41 860.201,1324.14 861.219,1325.69 862.237,1327.1 863.255,1328.22 864.273,1329 865.291,1329.43 866.31,1329.53 
  867.328,1329.42 868.346,1329.17 869.364,1328.93 870.382,1328.58 871.4,1328.28 872.418,1327.99 873.437,1327.65 874.455,1327.4 875.473,1327.03 876.491,1326.43 
  877.509,1325.47 878.527,1324.33 879.545,1323.09 880.563,1321.87 881.582,1320.54 882.6,1319.2 883.618,1317.7 884.636,1316.12 885.654,1314.46 886.672,1312.65 
  887.69,1310.87 888.709,1309.27 889.727,1307.95 890.745,1306.88 891.763,1305.88 892.781,1305.07 893.799,1304.47 894.817,1304.11 895.835,1304.06 896.854,1304.38 
  897.872,1305.1 898.89,1306.03 899.908,1307.08 900.926,1308.3 901.944,1309.69 902.962,1311.05 903.981,1312.4 904.999,1313.74 906.017,1314.99 907.035,1316.12 
  908.053,1316.96 909.071,1317.58 910.089,1318.06 911.107,1318.35 912.126,1318.61 913.144,1318.73 914.162,1318.62 915.18,1318.47 916.198,1318.38 917.216,1318.33 
  918.234,1318.29 919.253,1318.33 920.271,1318.22 921.289,1317.85 922.307,1317.2 923.325,1316.25 924.343,1315.13 925.361,1313.84 926.38,1312.33 927.398,1310.66 
  928.416,1308.81 929.434,1306.73 930.452,1304.44 931.47,1301.94 932.488,1299.19 933.506,1296.24 934.525,1293.17 935.543,1290.08 936.561,1287.09 937.579,1284.11 
  938.597,1281.06 939.615,1277.98 940.633,1274.76 941.652,1271.24 942.67,1267.53 943.688,1263.5 944.706,1259.23 945.724,1254.75 946.742,1250.13 947.76,1245.39 
  948.778,1240.52 949.797,1235.52 950.815,1230.52 951.833,1225.57 952.851,1220.56 953.869,1215.47 954.887,1210.36 955.905,1205.16 956.924,1199.87 957.942,1194.43 
  958.96,1189 959.978,1183.69 960.996,1178.67 962.014,1173.74 963.032,1168.79 964.051,1163.87 965.069,1159.04 966.087,1154.14 967.105,1149.45 968.123,1145.03 
  969.141,1140.9 970.159,1137.06 971.177,1133.42 972.196,1130.07 973.214,1127.18 974.232,1124.62 975.25,1122.32 976.268,1120.07 977.286,1118.01 978.304,1115.96 
  979.323,1113.95 980.341,1111.9 981.359,1109.85 982.377,1107.97 983.395,1106.21 984.413,1104.51 985.431,1103.08 986.449,1101.9 987.468,1101.11 988.486,1100.65 
  989.504,1100.56 990.522,1100.63 991.54,1100.8 992.558,1101.14 993.576,1101.74 994.595,1102.37 995.613,1102.81 996.631,1103.03 997.649,1103.07 998.667,1103 
  999.685,1102.93 1000.7,1102.79 1001.72,1102.81 1002.74,1103.1 1003.76,1103.62 1004.78,1104.48 1005.79,1105.59 1006.81,1106.96 1007.83,1108.6 1008.85,1110.31 
  1009.87,1112.02 1010.88,1113.85 1011.9,1115.97 1012.92,1118.46 1013.94,1121.28 1014.96,1124.55 1015.98,1128.32 1016.99,1132.58 1018.01,1137.41 1019.03,1142.63 
  1020.05,1148.33 1021.07,1154.45 1022.08,1160.95 1023.1,1167.71 1024.12,1174.68 1025.14,1181.79 1026.16,1188.99 1027.17,1196.28 1028.19,1203.64 1029.21,1211 
  1030.23,1218.39 1031.25,1225.91 1032.27,1233.61 1033.28,1241.36 1034.3,1248.97 1035.32,1256.59 1036.34,1264.17 1037.36,1271.68 1038.37,1279.21 1039.39,1286.75 
  1040.41,1294.24 1041.43,1301.48 1042.45,1308.41 1043.47,1315.14 1044.48,1321.55 1045.5,1327.81 1046.52,1333.74 1047.54,1339.38 1048.56,1344.72 1049.57,1349.79 
  1050.59,1354.47 1051.61,1358.67 1052.63,1362.43 1053.65,1365.68 1054.66,1368.5 1055.68,1370.96 1056.7,1372.85 1057.72,1374.26 1058.74,1375.25 1059.76,1375.83 
  1060.77,1376.06 1061.79,1375.98 1062.81,1375.45 1063.83,1374.46 1064.85,1373.19 1065.86,1371.73 1066.88,1370.26 1067.9,1368.85 1068.92,1367.39 1069.94,1365.81 
  1070.95,1363.91 1071.97,1361.71 1072.99,1359.32 1074.01,1356.61 1075.03,1353.47 1076.05,1349.95 1077.06,1346.34 1078.08,1342.61 1079.1,1338.81 1080.12,1335 
  1081.14,1331.12 1082.15,1327.26 1083.17,1323.43 1084.19,1319.75 1085.21,1316.15 1086.23,1312.58 1087.24,1308.94 1088.26,1305.16 1089.28,1301.39 1090.3,1297.76 
  1091.32,1294.11 1092.34,1290.41 1093.35,1286.59 1094.37,1282.58 1095.39,1278.41 1096.41,1274.26 1097.43,1270.18 1098.44,1266.15 1099.46,1261.99 1100.48,1257.73 
  1101.5,1253.54 1102.52,1249.35 1103.53,1245.28 1104.55,1241.37 1105.57,1237.61 1106.59,1234.23 1107.61,1231.17 1108.63,1228.4 1109.64,1225.9 1110.66,1223.62 
  1111.68,1221.43 1112.7,1219.34 1113.72,1217.56 1114.73,1215.92 1115.75,1214.31 1116.77,1212.84 1117.79,1211.32 1118.81,1209.89 1119.83,1208.49 1120.84,1207.03 
  1121.86,1205.41 1122.88,1203.53 1123.9,1201.43 1124.92,1199.19 1125.93,1196.88 1126.95,1194.45 1127.97,1191.96 1128.99,1189.53 1130.01,1187.06 1131.02,1184.6 
  1132.04,1182.31 1133.06,1180.18 1134.08,1178.06 1135.1,1176.07 1136.12,1174.27 1137.13,1172.6 1138.15,1171.1 1139.17,1169.76 1140.19,1168.54 1141.21,1167.45 
  1142.22,1166.55 1143.24,1165.87 1144.26,1165.42 1145.28,1165.19 1146.3,1165.07 1147.31,1165.19 1148.33,1165.55 1149.35,1166.08 1150.37,1166.88 1151.39,1167.81 
  1152.41,1168.94 1153.42,1170.23 1154.44,1171.77 1155.46,1173.57 1156.48,1175.57 1157.5,1177.56 1158.51,1179.49 1159.53,1181.57 1160.55,1183.87 1161.57,1186.36 
  1162.59,1188.96 1163.6,1191.84 1164.62,1194.91 1165.64,1198.15 1166.66,1201.58 1167.68,1205.37 1168.7,1209.53 1169.71,1214.07 1170.73,1218.73 1171.75,1223.57 
  1172.77,1228.71 1173.79,1234.29 1174.8,1240.25 1175.82,1246.48 1176.84,1253.01 1177.86,1259.75 1178.88,1266.7 1179.9,1273.8 1180.91,1280.91 1181.93,1288.03 
  1182.95,1295.07 1183.97,1302.03 1184.99,1308.87 1186,1315.42 1187.02,1321.59 1188.04,1327.46 1189.06,1333.13 1190.08,1338.71 1191.09,1344.29 1192.11,1349.66 
  1193.13,1355.15 1194.15,1360.74 1195.17,1366.31 1196.19,1371.76 1197.2,1376.87 1198.22,1381.66 1199.24,1385.95 1200.26,1389.64 1201.28,1392.79 1202.29,1395.38 
  1203.31,1397.5 1204.33,1399.22 1205.35,1400.47 1206.37,1401.2 1207.38,1401.64 1208.4,1401.88 1209.42,1401.97 1210.44,1401.94 1211.46,1401.69 1212.48,1401.13 
  1213.49,1400.3 1214.51,1399.31 1215.53,1398.22 1216.55,1397.13 1217.57,1396.05 1218.58,1395.07 1219.6,1394.26 1220.62,1393.65 1221.64,1393.21 1222.66,1392.97 
  1223.67,1392.86 1224.69,1392.81 1225.71,1392.74 1226.73,1392.42 1227.75,1391.81 1228.77,1390.91 1229.78,1389.6 1230.8,1387.66 1231.82,1385.25 1232.84,1382.3 
  1233.86,1378.9 1234.87,1375.13 1235.89,1370.98 1236.91,1366.48 1237.93,1361.81 1238.95,1357 1239.97,1351.84 1240.98,1346.31 1242,1340.53 1243.02,1334.58 
  1244.04,1328.5 1245.06,1322.42 1246.07,1316.59 1247.09,1311.03 1248.11,1305.67 1249.13,1300.38 1250.15,1294.97 1251.16,1289.57 1252.18,1284.13 1253.2,1278.56 
  1254.22,1272.91 1255.24,1267.25 1256.26,1261.52 1257.27,1255.79 1258.29,1250.16 1259.31,1244.56 1260.33,1239.19 1261.35,1234.02 1262.36,1229 1263.38,1224.25 
  1264.4,1219.79 1265.42,1215.5 1266.44,1211.35 1267.45,1207.46 1268.47,1203.83 1269.49,1200.52 1270.51,1197.46 1271.53,1194.75 1272.55,1192.29 1273.56,1190.02 
  1274.58,1187.92 1275.6,1186.09 1276.62,1184.53 1277.64,1183.3 1278.65,1182.43 1279.67,1181.85 1280.69,1181.66 1281.71,1181.69 1282.73,1182.01 1283.74,1182.74 
  1284.76,1183.7 1285.78,1184.85 1286.8,1185.93 1287.82,1186.92 1288.84,1187.9 1289.85,1188.93 1290.87,1189.96 1291.89,1191.02 1292.91,1192.16 1293.93,1193.41 
  1294.94,1194.83 1295.96,1196.32 1296.98,1197.77 1298,1199.1 1299.02,1200.41 1300.04,1201.64 1301.05,1202.78 1302.07,1203.61 1303.09,1204.22 1304.11,1204.64 
  1305.13,1204.79 1306.14,1204.75 1307.16,1204.37 1308.18,1203.65 1309.2,1202.65 1310.22,1201.51 1311.23,1200.26 1312.25,1198.8 1313.27,1197.12 1314.29,1195.4 
  1315.31,1193.57 1316.33,1191.75 1317.34,1190.09 1318.36,1188.59 1319.38,1187.18 1320.4,1185.95 1321.42,1184.9 1322.43,1184.09 1323.45,1183.61 1324.47,1183.24 
  1325.49,1182.82 1326.51,1182.28 1327.52,1181.64 1328.54,1180.95 1329.56,1180.2 1330.58,1179.25 1331.6,1178.24 1332.62,1177.05 1333.63,1175.77 1334.65,1174.34 
  1335.67,1173.05 1336.69,1171.72 1337.71,1170.48 1338.72,1169.23 1339.74,1167.95 1340.76,1166.82 1341.78,1165.77 1342.8,1164.71 1343.81,1163.64 1344.83,1162.81 
  1345.85,1162.26 1346.87,1162.12 1347.89,1162.31 1348.91,1162.85 1349.92,1163.73 1350.94,1165.02 1351.96,1166.56 1352.98,1168.35 1354,1170.39 1355.01,1172.68 
  1356.03,1175.24 1357.05,1178.11 1358.07,1181.1 1359.09,1184.1 1360.1,1187.16 1361.12,1190.3 1362.14,1193.35 1363.16,1196.29 1364.18,1199.2 1365.2,1201.99 
  1366.21,1204.54 1367.23,1206.89 1368.25,1209.35 1369.27,1211.87 1370.29,1214.31 1371.3,1216.76 1372.32,1219.21 1373.34,1221.66 1374.36,1224.01 1375.38,1226.3 
  1376.4,1228.44 1377.41,1230.37 1378.43,1232.23 1379.45,1233.95 1380.47,1235.4 1381.49,1236.66 1382.5,1237.78 1383.52,1238.78 1384.54,1239.66 1385.56,1240.46 
  1386.58,1241.1 1387.59,1241.49 1388.61,1241.6 1389.63,1241.37 1390.65,1240.83 1391.67,1239.98 1392.69,1238.72 1393.7,1236.96 1394.72,1234.74 1395.74,1232.24 
  1396.76,1229.43 1397.78,1226.28 1398.79,1222.92 1399.81,1219.28 1400.83,1215.41 1401.85,1211.25 1402.87,1206.95 1403.88,1202.72 1404.9,1198.61 1405.92,1194.69 
  1406.94,1190.99 1407.96,1187.51 1408.98,1184.03 1409.99,1180.7 1411.01,1177.57 1412.03,1174.54 1413.05,1171.78 1414.07,1169.3 1415.08,1167.03 1416.1,1164.9 
  1417.12,1162.86 1418.14,1161.07 1419.16,1159.54 1420.17,1158.41 1421.19,1157.57 1422.21,1156.94 1423.23,1156.58 1424.25,1156.39 1425.27,1156.26 1426.28,1156.37 
  1427.3,1156.77 1428.32,1157.37 1429.34,1158.04 1430.36,1158.83 1431.37,1159.81 1432.39,1160.97 1433.41,1162.24 1434.43,1163.55 1435.45,1164.77 1436.47,1165.85 
  1437.48,1166.75 1438.5,1167.4 1439.52,1167.79 1440.54,1167.77 1441.56,1167.35 1442.57,1166.59 1443.59,1165.5 1444.61,1164.13 1445.63,1162.55 1446.65,1160.56 
  1447.66,1158.12 1448.68,1155.35 1449.7,1152.4 1450.72,1149.24 1451.74,1145.85 1452.76,1142.15 1453.77,1138.02 1454.79,1133.44 1455.81,1128.4 1456.83,1122.92 
  1457.85,1117.14 1458.86,1111.18 1459.88,1105.12 1460.9,1099.02 1461.92,1092.89 1462.94,1086.78 1463.95,1080.81 1464.97,1074.94 1465.99,1069.24 1467.01,1063.77 
  1468.03,1058.44 1469.05,1053.1 1470.06,1047.88 1471.08,1042.84 1472.1,1038.06 1473.12,1033.69 1474.14,1029.7 1475.15,1026.06 1476.17,1022.83 1477.19,1020 
  1478.21,1017.52 1479.23,1015.46 1480.24,1013.85 1481.26,1012.61 1482.28,1011.66 1483.3,1010.94 1484.32,1010.36 1485.34,1009.71 1486.35,1009.07 1487.37,1008.46 
  1488.39,1007.73 1489.41,1007.02 1490.43,1006.41 1491.44,1005.91 1492.46,1005.4 1493.48,1004.87 1494.5,1004.25 1495.52,1003.57 1496.54,1002.91 1497.55,1002.25 
  1498.57,1001.63 1499.59,1001.1 1500.61,1000.57 1501.63,1000.1 1502.64,999.695 1503.66,999.469 1504.68,999.344 1505.7,999.366 1506.72,999.439 1507.73,999.382 
  1508.75,999.149 1509.77,998.804 1510.79,998.339 1511.81,997.736 1512.83,997.176 1513.84,996.484 1514.86,995.741 1515.88,994.816 1516.9,993.625 1517.92,992.07 
  1518.93,990.213 1519.95,988.371 1520.97,986.761 1521.99,985.549 1523.01,984.706 1524.02,984.182 1525.04,983.929 1526.06,983.895 1527.08,984.067 1528.1,984.336 
  1529.12,984.707 1530.13,985.223 1531.15,985.801 1532.17,986.595 1533.19,987.579 1534.21,988.656 1535.22,989.807 1536.24,990.93 1537.26,991.912 1538.28,992.854 
  1539.3,993.66 1540.31,994.372 1541.33,995.039 1542.35,995.835 1543.37,996.787 1544.39,997.774 1545.41,998.805 1546.42,999.913 1547.44,1001.27 1548.46,1002.81 
  1549.48,1004.48 1550.5,1006.28 1551.51,1008.13 1552.53,1010.16 1553.55,1012.43 1554.57,1014.87 1555.59,1017.41 1556.6,1020.01 1557.62,1022.65 1558.64,1025.35 
  1559.66,1028.1 1560.68,1030.81 1561.7,1033.5 1562.71,1036.2 1563.73,1038.78 1564.75,1041.15 1565.77,1043.35 1566.79,1045.24 1567.8,1046.7 1568.82,1047.75 
  1569.84,1048.65 1570.86,1049.34 1571.88,1049.73 1572.9,1049.86 1573.91,1049.87 1574.93,1049.84 1575.95,1049.73 1576.97,1049.5 1577.99,1049.15 1579,1048.69 
  1580.02,1048.14 1581.04,1047.44 1582.06,1046.53 1583.08,1045.32 1584.09,1044.06 1585.11,1042.66 1586.13,1041.2 1587.15,1039.76 1588.17,1038.46 1589.19,1037.17 
  1590.2,1035.96 1591.22,1035.02 1592.24,1034.27 1593.26,1033.66 1594.28,1033.16 1595.29,1032.89 1596.31,1032.82 1597.33,1032.92 1598.35,1033.21 1599.37,1033.9 
  1600.38,1034.93 1601.4,1036.2 1602.42,1037.7 1603.44,1039.42 1604.46,1041.45 1605.48,1043.9 1606.49,1046.77 1607.51,1050 1608.53,1053.42 1609.55,1056.91 
  1610.57,1060.33 1611.58,1063.83 1612.6,1067.42 1613.62,1071.09 1614.64,1074.95 1615.66,1078.86 1616.67,1082.76 1617.69,1086.69 1618.71,1090.61 1619.73,1094.67 
  1620.75,1098.78 1621.77,1102.94 1622.78,1107 1623.8,1110.86 1624.82,1114.57 1625.84,1118.2 1626.86,1121.57 1627.87,1124.6 1628.89,1127.3 1629.91,1129.62 
  1630.93,1131.51 1631.95,1132.82 1632.97,1133.57 1633.98,1133.84 1635,1133.65 1636.02,1132.98 1637.04,1131.84 1638.06,1130.43 1639.07,1128.96 1640.09,1127.47 
  1641.11,1125.99 1642.13,1124.49 1643.15,1123.27 1644.16,1122.18 1645.18,1121.25 1646.2,1120.5 1647.22,1119.87 1648.24,1119.36 1649.26,1118.74 1650.27,1118.14 
  1651.29,1117.61 1652.31,1117.25 1653.33,1116.98 1654.35,1116.66 1655.36,1116.32 1656.38,1115.78 1657.4,1114.98 1658.42,1113.91 1659.44,1112.64 1660.45,1111.37 
  1661.47,1110.27 1662.49,1109.39 1663.51,1108.74 1664.53,1108.28 1665.55,1108.05 1666.56,1108.04 1667.58,1107.9 1668.6,1107.87 1669.62,1107.96 1670.64,1108.16 
  1671.65,1108.42 1672.67,1108.66 1673.69,1108.89 1674.71,1109.15 1675.73,1109.45 1676.74,1109.65 1677.76,1109.85 1678.78,1110.08 1679.8,1110.56 1680.82,1111.37 
  1681.84,1112.38 1682.85,1113.58 1683.87,1115.05 1684.89,1116.82 1685.91,1118.73 1686.93,1120.86 1687.94,1123.08 1688.96,1125.31 1689.98,1127.56 1691,1129.92 
  1692.02,1132.32 1693.04,1134.77 1694.05,1137.17 1695.07,1139.35 1696.09,1141.33 1697.11,1143.08 1698.13,1144.6 1699.14,1145.71 1700.16,1146.44 1701.18,1146.76 
  1702.2,1146.61 1703.22,1145.99 1704.23,1145.15 1705.25,1144.13 1706.27,1142.92 1707.29,1141.5 1708.31,1139.94 1709.33,1138.3 1710.34,1136.57 1711.36,1134.61 
  1712.38,1132.51 1713.4,1130.25 1714.42,1128.07 1715.43,1126.1 1716.45,1124.22 1717.47,1122.59 1718.49,1121.25 1719.51,1120.32 1720.52,1119.54 1721.54,1118.92 
  1722.56,1118.34 1723.58,1117.63 1724.6,1116.78 1725.62,1115.89 1726.63,1115.03 1727.65,1114.19 1728.67,1113.36 1729.69,1112.62 1730.71,1111.87 1731.72,1111.11 
  1732.74,1110.23 1733.76,1109.27 1734.78,1108.25 1735.8,1107.4 1736.81,1106.77 1737.83,1106.25 1738.85,1105.94 1739.87,1105.74 1740.89,1105.68 1741.91,1105.8 
  1742.92,1106.14 1743.94,1106.66 1744.96,1107.41 1745.98,1108.34 1747,1109.58 1748.01,1111.19 1749.03,1113.03 1750.05,1115.15 1751.07,1117.46 1752.09,1119.8 
  1753.11,1122.1 1754.12,1124.35 1755.14,1126.51 1756.16,1128.66 1757.18,1130.9 1758.2,1133.18 1759.21,1135.58 1760.23,1138.08 1761.25,1140.62 1762.27,1143.11 
  1763.29,1145.56 1764.3,1148.05 1765.32,1150.72 1766.34,1153.47 1767.36,1156.26 1768.38,1159.08 1769.4,1161.88 1770.41,1164.52 1771.43,1166.83 1772.45,1168.76 
  1773.47,1170.38 1774.49,1171.72 1775.5,1172.66 1776.52,1173.18 1777.54,1173.41 1778.56,1173.31 1779.58,1172.87 1780.59,1172.22 1781.61,1171.36 1782.63,1170.2 
  1783.65,1168.76 1784.67,1167.06 1785.69,1165.08 1786.7,1162.73 1787.72,1160.17 1788.74,1157.39 1789.76,1154.4 1790.78,1151.13 1791.79,1147.63 1792.81,1143.96 
  1793.83,1140.17 1794.85,1136.34 1795.87,1132.64 1796.88,1129.14 1797.9,1125.99 1798.92,1122.96 1799.94,1120.04 1800.96,1117.26 1801.98,1114.73 1802.99,1112.23 
  1804.01,1109.82 1805.03,1107.33 1806.05,1104.61 1807.07,1101.71 1808.08,1098.68 1809.1,1095.54 1810.12,1092.23 1811.14,1088.69 1812.16,1085.06 1813.17,1081.4 
  1814.19,1077.64 1815.21,1073.84 1816.23,1070.01 1817.25,1066.15 1818.27,1062.36 1819.28,1058.55 1820.3,1054.68 1821.32,1050.65 1822.34,1046.57 1823.36,1042.43 
  1824.37,1038.41 1825.39,1034.64 1826.41,1031.11 1827.43,1027.8 1828.45,1024.5 1829.47,1021.26 1830.48,1018.04 1831.5,1014.73 1832.52,1011.36 1833.54,1007.86 
  1834.56,1004.1 1835.57,1000.08 1836.59,995.875 1837.61,991.397 1838.63,986.64 1839.65,981.621 1840.66,976.457 1841.68,971.135 1842.7,965.607 1843.72,959.974 
  1844.74,954.351 1845.76,948.801 1846.77,943.292 1847.79,937.609 1848.81,931.718 1849.83,925.783 1850.85,919.834 1851.86,913.905 1852.88,908.051 1853.9,902.236 
  1854.92,896.601 1855.94,891.12 1856.95,885.82 1857.97,880.927 1858.99,876.482 1860.01,872.675 1861.03,869.515 1862.05,867.072 1863.06,865.371 1864.08,864.372 
  1865.1,863.842 1866.12,863.613 1867.14,863.813 1868.15,864.361 1869.17,865.14 1870.19,866.058 1871.21,866.973 1872.23,867.847 1873.24,868.636 1874.26,869.45 
  1875.28,870.214 1876.3,871.031 1877.32,872.036 1878.34,873.359 1879.35,874.958 1880.37,876.948 1881.39,879.011 1882.41,881.163 1883.43,883.365 1884.44,885.771 
  1885.46,888.571 1886.48,891.569 1887.5,894.657 1888.52,897.673 1889.54,900.687 1890.55,903.807 1891.57,906.977 1892.59,910.301 1893.61,913.945 1894.63,917.821 
  1895.64,921.805 1896.66,925.985 1897.68,930.382 1898.7,934.876 1899.72,939.36 1900.73,943.8 1901.75,948.102 1902.77,952.189 1903.79,956.333 1904.81,960.461 
  1905.83,964.646 1906.84,968.839 1907.86,972.941 1908.88,976.931 1909.9,980.888 1910.92,984.715 1911.93,988.201 1912.95,991.523 1913.97,994.566 1914.99,997.549 
  1916.01,1000.37 1917.02,1002.91 1918.04,1005.28 1919.06,1007.4 1920.08,1009.23 1921.1,1010.77 1922.12,1012.13 1923.13,1013.46 1924.15,1014.84 1925.17,1016.29 
  1926.19,1017.55 1927.21,1018.56 1928.22,1019.35 1929.24,1020.03 1930.26,1020.45 1931.28,1020.57 1932.3,1020.61 1933.31,1020.52 1934.33,1020.32 1935.35,1020.05 
  1936.37,1019.8 1937.39,1019.55 1938.41,1019.25 1939.42,1019.05 1940.44,1018.9 1941.46,1018.73 1942.48,1018.45 1943.5,1018.16 1944.51,1017.91 1945.53,1017.92 
  1946.55,1018.29 1947.57,1018.99 1948.59,1020.18 1949.61,1021.72 1950.62,1023.53 1951.64,1025.51 1952.66,1027.56 1953.68,1029.69 1954.7,1031.86 1955.71,1034.02 
  1956.73,1036.17 1957.75,1038.6 1958.77,1041.24 1959.79,1044.09 1960.8,1047.17 1961.82,1050.46 1962.84,1053.98 1963.86,1057.71 1964.88,1061.79 1965.9,1066.28 
  1966.91,1071.04 1967.93,1076.07 1968.95,1081.18 1969.97,1086.27 1970.99,1091.46 1972,1096.78 1973.02,1102.3 1974.04,1107.94 1975.06,1113.73 1976.08,1119.69 
  1977.09,1125.54 1978.11,1131.34 1979.13,1137.12 1980.15,1142.82 1981.17,1148.46 1982.19,1154.01 1983.2,1159.46 1984.22,1164.96 1985.24,1170.31 1986.26,1175.43 
  1987.28,1180.27 1988.29,1184.95 1989.31,1189.52 1990.33,1193.95 1991.35,1198.22 1992.37,1202.43 1993.38,1206.57 1994.4,1210.47 1995.42,1214.18 1996.44,1217.79 
  1997.46,1221.28 1998.48,1224.63 1999.49,1227.88 2000.51,1231.21 2001.53,1234.73 2002.55,1238.31 2003.57,1241.95 2004.58,1245.61 2005.6,1249.32 2006.62,1252.97 
  2007.64,1256.67 2008.66,1260.42 2009.68,1264.29 2010.69,1268.27 2011.71,1272.41 2012.73,1276.56 2013.75,1280.84 2014.77,1285.15 2015.78,1289.28 2016.8,1293.23 
  2017.82,1296.88 2018.84,1300.18 2019.86,1303.2 2020.87,1306.06 2021.89,1308.75 2022.91,1311.21 2023.93,1313.56 2024.95,1315.85 2025.97,1318.19 2026.98,1320.4 
  2028,1322.52 2029.02,1324.34 2030.04,1325.75 2031.06,1326.74 2032.07,1327.4 2033.09,1327.58 2034.11,1327.26 2035.13,1326.5 2036.15,1325.2 2037.16,1323.48 
  2038.18,1321.44 2039.2,1319.21 2040.22,1316.79 2041.24,1314.23 2042.26,1311.58 2043.27,1308.96 2044.29,1306.34 2045.31,1303.73 2046.33,1301.04 2047.35,1298.3 
  2048.36,1295.56 2049.38,1292.82 2050.4,1290.03 2051.42,1287.26 2052.44,1284.71 2053.45,1282.5 2054.47,1280.73 2055.49,1279.25 2056.51,1278.01 2057.53,1277.04 
  2058.55,1276.32 2059.56,1275.79 2060.58,1275.49 2061.6,1275.33 2062.62,1275.25 2063.64,1275.3 2064.65,1275.29 2065.67,1275.22 2066.69,1275.07 2067.71,1274.95 
  2068.73,1274.87 2069.74,1274.86 2070.76,1275 2071.78,1275.38 2072.8,1275.95 2073.82,1276.66 2074.84,1277.37 2075.85,1278.11 2076.87,1278.78 2077.89,1279.45 
  2078.91,1280.09 2079.93,1280.71 2080.94,1281.2 2081.96,1281.43 2082.98,1281.47 2084,1281.34 2085.02,1280.98 2086.04,1280.36 2087.05,1279.48 2088.07,1278.33 
  2089.09,1276.92 2090.11,1275.36 2091.13,1273.73 2092.14,1271.96 2093.16,1270.16 2094.18,1268.29 2095.2,1266.4 2096.22,1264.51 2097.23,1262.69 2098.25,1260.78 
  2099.27,1258.82 2100.29,1256.84 2101.31,1254.91 2102.33,1253.04 2103.34,1251.27 2104.36,1249.66 2105.38,1248.26 2106.4,1247.08 2107.42,1246.12 2108.43,1245.13 
  2109.45,1244.02 2110.47,1242.97 2111.49,1241.88 2112.51,1240.78 2113.52,1239.6 2114.54,1238.36 2115.56,1237.15 2116.58,1235.98 2117.6,1234.82 2118.62,1233.6 
  2119.63,1232.38 2120.65,1231.07 2121.67,1229.77 2122.69,1228.37 2123.71,1226.77 2124.72,1224.96 2125.74,1223.05 2126.76,1221.14 2127.78,1219.13 2128.8,1216.97 
  2129.81,1214.9 2130.83,1212.94 2131.85,1211.17 2132.87,1209.59 2133.89,1208.25 2134.91,1207.21 2135.92,1206.46 2136.94,1206 2137.96,1205.71 2138.98,1205.46 
  2140,1205.26 2141.01,1205.07 2142.03,1204.96 2143.05,1205 2144.07,1205.25 2145.09,1205.78 2146.11,1206.43 2147.12,1207.26 2148.14,1208.14 2149.16,1209.08 
  2150.18,1209.98 2151.2,1210.77 2152.21,1211.48 2153.23,1211.99 2154.25,1212.2 2155.27,1212.1 2156.29,1211.64 2157.3,1210.8 2158.32,1209.67 2159.34,1208.2 
  2160.36,1206.4 2161.38,1204.23 2162.4,1201.64 2163.41,1198.67 2164.43,1195.18 2165.45,1191.22 2166.47,1186.85 2167.49,1182.14 2168.5,1176.95 2169.52,1171.56 
  2170.54,1166.08 2171.56,1160.54 2172.58,1154.95 2173.59,1149.49 2174.61,1144.01 2175.63,1138.67 2176.65,1133.37 2177.67,1128.04 2178.69,1122.46 2179.7,1116.83 
  2180.72,1111.31 2181.74,1105.86 2182.76,1100.68 2183.78,1095.7 2184.79,1090.8 2185.81,1086.05 2186.83,1081.41 2187.85,1076.94 2188.87,1072.59 2189.88,1068.47 
  2190.9,1064.55 2191.92,1060.96 2192.94,1057.73 2193.96,1054.61 2194.98,1051.48 2195.99,1048.33 2197.01,1045.2 2198.03,1042.35 2199.05,1039.77 2200.07,1037.64 
  2201.08,1036.06 2202.1,1035.04 2203.12,1034.47 2204.14,1034.26 2205.16,1034.54 2206.18,1035.2 2207.19,1036.33 2208.21,1037.75 2209.23,1039.33 2210.25,1041.06 
  2211.27,1042.86 2212.28,1044.74 2213.3,1046.43 2214.32,1047.95 2215.34,1049.31 2216.36,1050.53 2217.37,1051.51 2218.39,1052.35 2219.41,1053.05 2220.43,1053.53 
  2221.45,1053.78 2222.47,1053.79 2223.48,1053.65 2224.5,1053.3 2225.52,1052.77 2226.54,1052.13 2227.56,1051.39 2228.57,1050.67 2229.59,1050.05 2230.61,1049.59 
  2231.63,1049.2 2232.65,1048.75 2233.66,1048.14 2234.68,1047.57 2235.7,1047.11 2236.72,1046.74 2237.74,1046.27 2238.76,1045.61 2239.77,1044.75 2240.79,1043.7 
  2241.81,1042.57 2242.83,1041.29 2243.85,1040.1 2244.86,1039.25 2245.88,1038.56 2246.9,1038.04 2247.92,1037.53 2248.94,1036.98 2249.95,1036.31 2250.97,1035.57 
  2251.99,1034.79 2253.01,1034.02 2254.03,1033.27 2255.05,1032.6 2256.06,1032.1 2257.08,1031.87 2258.1,1032.03 2259.12,1032.45 2260.14,1032.91 2261.15,1033.48 
  2262.17,1034.22 2263.19,1035.29 2264.21,1036.73 2265.23,1038.41 2266.24,1040.29 2267.26,1042.34 2268.28,1044.51 2269.3,1046.74 2270.32,1049.11 2271.34,1051.63 
  2272.35,1054.19 2273.37,1056.78 2274.39,1059.43 2275.41,1062.22 2276.43,1065.14 2277.44,1068.09 2278.46,1071.12 2279.48,1074.15 2280.5,1077.15 2281.52,1080.14 
  2282.54,1083.05 2283.55,1085.67 2284.57,1087.96 2285.59,1090.03 2286.61,1091.91 2287.63,1093.57 2288.64,1095.15 2289.66,1096.71 2290.68,1098.27 2291.7,1099.73 
  
  "/>
<path clip-path="url(#clip7100)" d="
M1968.51 1051.72 L2280.76 1051.72 L2280.76 930.764 L1968.51 930.764  Z
  " fill="#ffffff" fill-rule="evenodd" fill-opacity="1"/>
<polyline clip-path="url(#clip7100)" style="stroke:#000000; stroke-width:4; stroke-opacity:0; fill:none" points="
  1968.51,1051.72 2280.76,1051.72 2280.76,930.764 1968.51,930.764 1968.51,1051.72 
  "/>
<polyline clip-path="url(#clip7100)" style="stroke:#009af9; stroke-width:4; stroke-opacity:1; fill:none" points="
  1992.51,991.244 2136.51,991.244 
  "/>
<g clip-path="url(#clip7100)">
<text style="fill:#000000; fill-opacity:1; font-family:Arial,Helvetica Neue,Helvetica,sans-serif; font-size:48px; text-anchor:start;" transform="rotate(0, 2160.51, 1008.74)" x="2160.51" y="1008.74">K_t</text>
</g>
</svg>
