<?xml version="1.0" encoding="utf-8"?>
<svg xmlns="http://www.w3.org/2000/svg" xmlns:xlink="http://www.w3.org/1999/xlink" width="600" height="400" viewBox="0 0 2400 1600">
<defs>
  <clipPath id="clip4700">
    <rect x="0" y="0" width="2400" height="1600"/>
  </clipPath>
</defs>
<path clip-path="url(#clip4700)" d="
M0 1600 L2400 1600 L2400 0 L0 0  Z
  " fill="#ffffff" fill-rule="evenodd" fill-opacity="1"/>
<defs>
  <clipPath id="clip4701">
    <rect x="480" y="0" width="1681" height="1600"/>
  </clipPath>
</defs>
<path clip-path="url(#clip4700)" d="
M296.041 1425.62 L2352.76 1425.62 L2352.76 47.2441 L296.041 47.2441  Z
  " fill="#ffffff" fill-rule="evenodd" fill-opacity="1"/>
<defs>
  <clipPath id="clip4702">
    <rect x="296" y="47" width="2058" height="1379"/>
  </clipPath>
</defs>
<polyline clip-path="url(#clip4702)" style="stroke:#000000; stroke-width:2; stroke-opacity:0.1; fill:none" points="
  519.599,1425.62 519.599,47.2441 
  "/>
<polyline clip-path="url(#clip4702)" style="stroke:#000000; stroke-width:2; stroke-opacity:0.1; fill:none" points="
  856.629,1425.62 856.629,47.2441 
  "/>
<polyline clip-path="url(#clip4702)" style="stroke:#000000; stroke-width:2; stroke-opacity:0.1; fill:none" points="
  1193.66,1425.62 1193.66,47.2441 
  "/>
<polyline clip-path="url(#clip4702)" style="stroke:#000000; stroke-width:2; stroke-opacity:0.1; fill:none" points="
  1530.69,1425.62 1530.69,47.2441 
  "/>
<polyline clip-path="url(#clip4702)" style="stroke:#000000; stroke-width:2; stroke-opacity:0.1; fill:none" points="
  1867.72,1425.62 1867.72,47.2441 
  "/>
<polyline clip-path="url(#clip4702)" style="stroke:#000000; stroke-width:2; stroke-opacity:0.1; fill:none" points="
  2204.75,1425.62 2204.75,47.2441 
  "/>
<polyline clip-path="url(#clip4702)" style="stroke:#000000; stroke-width:2; stroke-opacity:0.1; fill:none" points="
  296.041,1237.04 2352.76,1237.04 
  "/>
<polyline clip-path="url(#clip4702)" style="stroke:#000000; stroke-width:2; stroke-opacity:0.1; fill:none" points="
  296.041,982.089 2352.76,982.089 
  "/>
<polyline clip-path="url(#clip4702)" style="stroke:#000000; stroke-width:2; stroke-opacity:0.1; fill:none" points="
  296.041,727.138 2352.76,727.138 
  "/>
<polyline clip-path="url(#clip4702)" style="stroke:#000000; stroke-width:2; stroke-opacity:0.1; fill:none" points="
  296.041,472.186 2352.76,472.186 
  "/>
<polyline clip-path="url(#clip4702)" style="stroke:#000000; stroke-width:2; stroke-opacity:0.1; fill:none" points="
  296.041,217.235 2352.76,217.235 
  "/>
<polyline clip-path="url(#clip4700)" style="stroke:#000000; stroke-width:4; stroke-opacity:1; fill:none" points="
  296.041,1425.62 2352.76,1425.62 
  "/>
<polyline clip-path="url(#clip4700)" style="stroke:#000000; stroke-width:4; stroke-opacity:1; fill:none" points="
  296.041,1425.62 296.041,47.2441 
  "/>
<polyline clip-path="url(#clip4700)" style="stroke:#000000; stroke-width:4; stroke-opacity:1; fill:none" points="
  519.599,1425.62 519.599,1409.08 
  "/>
<polyline clip-path="url(#clip4700)" style="stroke:#000000; stroke-width:4; stroke-opacity:1; fill:none" points="
  856.629,1425.62 856.629,1409.08 
  "/>
<polyline clip-path="url(#clip4700)" style="stroke:#000000; stroke-width:4; stroke-opacity:1; fill:none" points="
  1193.66,1425.62 1193.66,1409.08 
  "/>
<polyline clip-path="url(#clip4700)" style="stroke:#000000; stroke-width:4; stroke-opacity:1; fill:none" points="
  1530.69,1425.62 1530.69,1409.08 
  "/>
<polyline clip-path="url(#clip4700)" style="stroke:#000000; stroke-width:4; stroke-opacity:1; fill:none" points="
  1867.72,1425.62 1867.72,1409.08 
  "/>
<polyline clip-path="url(#clip4700)" style="stroke:#000000; stroke-width:4; stroke-opacity:1; fill:none" points="
  2204.75,1425.62 2204.75,1409.08 
  "/>
<polyline clip-path="url(#clip4700)" style="stroke:#000000; stroke-width:4; stroke-opacity:1; fill:none" points="
  296.041,1237.04 320.722,1237.04 
  "/>
<polyline clip-path="url(#clip4700)" style="stroke:#000000; stroke-width:4; stroke-opacity:1; fill:none" points="
  296.041,982.089 320.722,982.089 
  "/>
<polyline clip-path="url(#clip4700)" style="stroke:#000000; stroke-width:4; stroke-opacity:1; fill:none" points="
  296.041,727.138 320.722,727.138 
  "/>
<polyline clip-path="url(#clip4700)" style="stroke:#000000; stroke-width:4; stroke-opacity:1; fill:none" points="
  296.041,472.186 320.722,472.186 
  "/>
<polyline clip-path="url(#clip4700)" style="stroke:#000000; stroke-width:4; stroke-opacity:1; fill:none" points="
  296.041,217.235 320.722,217.235 
  "/>
<g clip-path="url(#clip4700)">
<text style="fill:#000000; fill-opacity:1; font-family:Arial,Helvetica Neue,Helvetica,sans-serif; font-size:48px; text-anchor:middle;" transform="rotate(0, 519.599, 1479.62)" x="519.599" y="1479.62">40</text>
</g>
<g clip-path="url(#clip4700)">
<text style="fill:#000000; fill-opacity:1; font-family:Arial,Helvetica Neue,Helvetica,sans-serif; font-size:48px; text-anchor:middle;" transform="rotate(0, 856.629, 1479.62)" x="856.629" y="1479.62">45</text>
</g>
<g clip-path="url(#clip4700)">
<text style="fill:#000000; fill-opacity:1; font-family:Arial,Helvetica Neue,Helvetica,sans-serif; font-size:48px; text-anchor:middle;" transform="rotate(0, 1193.66, 1479.62)" x="1193.66" y="1479.62">50</text>
</g>
<g clip-path="url(#clip4700)">
<text style="fill:#000000; fill-opacity:1; font-family:Arial,Helvetica Neue,Helvetica,sans-serif; font-size:48px; text-anchor:middle;" transform="rotate(0, 1530.69, 1479.62)" x="1530.69" y="1479.62">55</text>
</g>
<g clip-path="url(#clip4700)">
<text style="fill:#000000; fill-opacity:1; font-family:Arial,Helvetica Neue,Helvetica,sans-serif; font-size:48px; text-anchor:middle;" transform="rotate(0, 1867.72, 1479.62)" x="1867.72" y="1479.62">60</text>
</g>
<g clip-path="url(#clip4700)">
<text style="fill:#000000; fill-opacity:1; font-family:Arial,Helvetica Neue,Helvetica,sans-serif; font-size:48px; text-anchor:middle;" transform="rotate(0, 2204.75, 1479.62)" x="2204.75" y="1479.62">65</text>
</g>
<g clip-path="url(#clip4700)">
<text style="fill:#000000; fill-opacity:1; font-family:Arial,Helvetica Neue,Helvetica,sans-serif; font-size:48px; text-anchor:end;" transform="rotate(0, 272.041, 1254.54)" x="272.041" y="1254.54">1.0196</text>
</g>
<g clip-path="url(#clip4700)">
<text style="fill:#000000; fill-opacity:1; font-family:Arial,Helvetica Neue,Helvetica,sans-serif; font-size:48px; text-anchor:end;" transform="rotate(0, 272.041, 999.589)" x="272.041" y="999.589">1.0197</text>
</g>
<g clip-path="url(#clip4700)">
<text style="fill:#000000; fill-opacity:1; font-family:Arial,Helvetica Neue,Helvetica,sans-serif; font-size:48px; text-anchor:end;" transform="rotate(0, 272.041, 744.638)" x="272.041" y="744.638">1.0198</text>
</g>
<g clip-path="url(#clip4700)">
<text style="fill:#000000; fill-opacity:1; font-family:Arial,Helvetica Neue,Helvetica,sans-serif; font-size:48px; text-anchor:end;" transform="rotate(0, 272.041, 489.686)" x="272.041" y="489.686">1.0199</text>
</g>
<g clip-path="url(#clip4700)">
<text style="fill:#000000; fill-opacity:1; font-family:Arial,Helvetica Neue,Helvetica,sans-serif; font-size:48px; text-anchor:end;" transform="rotate(0, 272.041, 234.735)" x="272.041" y="234.735">1.0200</text>
</g>
<g clip-path="url(#clip4700)">
<text style="fill:#000000; fill-opacity:1; font-family:Arial,Helvetica Neue,Helvetica,sans-serif; font-size:66px; text-anchor:middle;" transform="rotate(0, 1324.4, 1559.48)" x="1324.4" y="1559.48">Capital</text>
</g>
<g clip-path="url(#clip4700)">
<text style="fill:#000000; fill-opacity:1; font-family:Arial,Helvetica Neue,Helvetica,sans-serif; font-size:66px; text-anchor:middle;" transform="rotate(-90, 89.2861, 736.431)" x="89.2861" y="736.431">Interest rate</text>
</g>
<polyline clip-path="url(#clip4702)" style="stroke:#009af9; stroke-width:4; stroke-opacity:1; fill:none" points="
  945.383,86.2547 948.931,155.812 952.479,225.242 956.026,294.547 959.574,363.726 963.122,432.781 966.669,501.71 970.217,570.515 973.765,639.196 977.312,707.754 
  980.86,776.188 984.408,844.5 987.955,912.688 991.503,980.755 995.051,1048.7 998.599,1116.52 1002.15,1184.23 1005.69,1251.81 1009.24,1319.27 1012.79,1386.61 
  
  "/>
<polyline clip-path="url(#clip4702)" style="stroke:#e26f46; stroke-width:4; stroke-opacity:1; fill:none" points="
  2294.55,86.2547 2102.85,155.812 1925.96,225.242 1763.03,294.547 1613.14,363.726 1475.31,432.781 1348.57,501.71 1231.97,570.515 1124.62,639.196 1025.67,707.754 
  934.306,776.188 849.807,844.5 771.514,912.688 698.831,980.755 631.239,1048.7 568.25,1116.52 509.42,1184.23 454.362,1251.81 402.743,1319.27 354.25,1386.61 
  
  "/>
<path clip-path="url(#clip4700)" d="
M1858.86 312.204 L2280.76 312.204 L2280.76 130.764 L1858.86 130.764  Z
  " fill="#ffffff" fill-rule="evenodd" fill-opacity="1"/>
<polyline clip-path="url(#clip4700)" style="stroke:#000000; stroke-width:4; stroke-opacity:1; fill:none" points="
  1858.86,312.204 2280.76,312.204 2280.76,130.764 1858.86,130.764 1858.86,312.204 
  "/>
<polyline clip-path="url(#clip4700)" style="stroke:#009af9; stroke-width:4; stroke-opacity:1; fill:none" points="
  1882.86,191.244 2026.86,191.244 
  "/>
<g clip-path="url(#clip4700)">
<text style="fill:#000000; fill-opacity:1; font-family:Arial,Helvetica Neue,Helvetica,sans-serif; font-size:48px; text-anchor:start;" transform="rotate(0, 2050.86, 208.744)" x="2050.86" y="208.744">Demand</text>
</g>
<polyline clip-path="url(#clip4700)" style="stroke:#e26f46; stroke-width:4; stroke-opacity:1; fill:none" points="
  1882.86,251.724 2026.86,251.724 
  "/>
<g clip-path="url(#clip4700)">
<text style="fill:#000000; fill-opacity:1; font-family:Arial,Helvetica Neue,Helvetica,sans-serif; font-size:48px; text-anchor:start;" transform="rotate(0, 2050.86, 269.224)" x="2050.86" y="269.224">Supply</text>
</g>
</svg>
