<?xml version="1.0" encoding="utf-8"?>
<svg xmlns="http://www.w3.org/2000/svg" xmlns:xlink="http://www.w3.org/1999/xlink" width="600" height="400" viewBox="0 0 2400 1600">
<defs>
  <clipPath id="clip6300">
    <rect x="0" y="0" width="2400" height="1600"/>
  </clipPath>
</defs>
<path clip-path="url(#clip6300)" d="
M0 1600 L2400 1600 L2400 0 L0 0  Z
  " fill="#ffffff" fill-rule="evenodd" fill-opacity="1"/>
<defs>
  <clipPath id="clip6301">
    <rect x="480" y="0" width="1681" height="1600"/>
  </clipPath>
</defs>
<path clip-path="url(#clip6300)" d="
M168.627 625.619 L2352.76 625.619 L2352.76 121.675 L168.627 121.675  Z
  " fill="#ffffff" fill-rule="evenodd" fill-opacity="1"/>
<defs>
  <clipPath id="clip6302">
    <rect x="168" y="121" width="2185" height="505"/>
  </clipPath>
</defs>
<polyline clip-path="url(#clip6302)" style="stroke:#000000; stroke-width:2; stroke-opacity:0.1; fill:none" points="
  223.551,625.619 223.551,121.675 
  "/>
<polyline clip-path="url(#clip6302)" style="stroke:#000000; stroke-width:2; stroke-opacity:0.1; fill:none" points="
  912.681,625.619 912.681,121.675 
  "/>
<polyline clip-path="url(#clip6302)" style="stroke:#000000; stroke-width:2; stroke-opacity:0.1; fill:none" points="
  1601.81,625.619 1601.81,121.675 
  "/>
<polyline clip-path="url(#clip6302)" style="stroke:#000000; stroke-width:2; stroke-opacity:0.1; fill:none" points="
  2290.94,625.619 2290.94,121.675 
  "/>
<polyline clip-path="url(#clip6302)" style="stroke:#000000; stroke-width:2; stroke-opacity:0.1; fill:none" points="
  168.627,563.814 2352.76,563.814 
  "/>
<polyline clip-path="url(#clip6302)" style="stroke:#000000; stroke-width:2; stroke-opacity:0.1; fill:none" points="
  168.627,500.425 2352.76,500.425 
  "/>
<polyline clip-path="url(#clip6302)" style="stroke:#000000; stroke-width:2; stroke-opacity:0.1; fill:none" points="
  168.627,437.036 2352.76,437.036 
  "/>
<polyline clip-path="url(#clip6302)" style="stroke:#000000; stroke-width:2; stroke-opacity:0.1; fill:none" points="
  168.627,373.647 2352.76,373.647 
  "/>
<polyline clip-path="url(#clip6302)" style="stroke:#000000; stroke-width:2; stroke-opacity:0.1; fill:none" points="
  168.627,310.258 2352.76,310.258 
  "/>
<polyline clip-path="url(#clip6302)" style="stroke:#000000; stroke-width:2; stroke-opacity:0.1; fill:none" points="
  168.627,246.869 2352.76,246.869 
  "/>
<polyline clip-path="url(#clip6302)" style="stroke:#000000; stroke-width:2; stroke-opacity:0.1; fill:none" points="
  168.627,183.48 2352.76,183.48 
  "/>
<polyline clip-path="url(#clip6300)" style="stroke:#000000; stroke-width:4; stroke-opacity:1; fill:none" points="
  168.627,625.619 2352.76,625.619 
  "/>
<polyline clip-path="url(#clip6300)" style="stroke:#000000; stroke-width:4; stroke-opacity:1; fill:none" points="
  168.627,625.619 168.627,121.675 
  "/>
<polyline clip-path="url(#clip6300)" style="stroke:#000000; stroke-width:4; stroke-opacity:1; fill:none" points="
  223.551,625.619 223.551,619.571 
  "/>
<polyline clip-path="url(#clip6300)" style="stroke:#000000; stroke-width:4; stroke-opacity:1; fill:none" points="
  912.681,625.619 912.681,619.571 
  "/>
<polyline clip-path="url(#clip6300)" style="stroke:#000000; stroke-width:4; stroke-opacity:1; fill:none" points="
  1601.81,625.619 1601.81,619.571 
  "/>
<polyline clip-path="url(#clip6300)" style="stroke:#000000; stroke-width:4; stroke-opacity:1; fill:none" points="
  2290.94,625.619 2290.94,619.571 
  "/>
<polyline clip-path="url(#clip6300)" style="stroke:#000000; stroke-width:4; stroke-opacity:1; fill:none" points="
  168.627,563.814 194.836,563.814 
  "/>
<polyline clip-path="url(#clip6300)" style="stroke:#000000; stroke-width:4; stroke-opacity:1; fill:none" points="
  168.627,500.425 194.836,500.425 
  "/>
<polyline clip-path="url(#clip6300)" style="stroke:#000000; stroke-width:4; stroke-opacity:1; fill:none" points="
  168.627,437.036 194.836,437.036 
  "/>
<polyline clip-path="url(#clip6300)" style="stroke:#000000; stroke-width:4; stroke-opacity:1; fill:none" points="
  168.627,373.647 194.836,373.647 
  "/>
<polyline clip-path="url(#clip6300)" style="stroke:#000000; stroke-width:4; stroke-opacity:1; fill:none" points="
  168.627,310.258 194.836,310.258 
  "/>
<polyline clip-path="url(#clip6300)" style="stroke:#000000; stroke-width:4; stroke-opacity:1; fill:none" points="
  168.627,246.869 194.836,246.869 
  "/>
<polyline clip-path="url(#clip6300)" style="stroke:#000000; stroke-width:4; stroke-opacity:1; fill:none" points="
  168.627,183.48 194.836,183.48 
  "/>
<g clip-path="url(#clip6300)">
<text style="fill:#000000; fill-opacity:1; font-family:Arial,Helvetica Neue,Helvetica,sans-serif; font-size:48px; text-anchor:middle;" transform="rotate(0, 223.551, 679.619)" x="223.551" y="679.619">0</text>
</g>
<g clip-path="url(#clip6300)">
<text style="fill:#000000; fill-opacity:1; font-family:Arial,Helvetica Neue,Helvetica,sans-serif; font-size:48px; text-anchor:middle;" transform="rotate(0, 912.681, 679.619)" x="912.681" y="679.619">100</text>
</g>
<g clip-path="url(#clip6300)">
<text style="fill:#000000; fill-opacity:1; font-family:Arial,Helvetica Neue,Helvetica,sans-serif; font-size:48px; text-anchor:middle;" transform="rotate(0, 1601.81, 679.619)" x="1601.81" y="679.619">200</text>
</g>
<g clip-path="url(#clip6300)">
<text style="fill:#000000; fill-opacity:1; font-family:Arial,Helvetica Neue,Helvetica,sans-serif; font-size:48px; text-anchor:middle;" transform="rotate(0, 2290.94, 679.619)" x="2290.94" y="679.619">300</text>
</g>
<g clip-path="url(#clip6300)">
<text style="fill:#000000; fill-opacity:1; font-family:Arial,Helvetica Neue,Helvetica,sans-serif; font-size:48px; text-anchor:end;" transform="rotate(0, 144.627, 581.314)" x="144.627" y="581.314">-60</text>
</g>
<g clip-path="url(#clip6300)">
<text style="fill:#000000; fill-opacity:1; font-family:Arial,Helvetica Neue,Helvetica,sans-serif; font-size:48px; text-anchor:end;" transform="rotate(0, 144.627, 517.925)" x="144.627" y="517.925">-40</text>
</g>
<g clip-path="url(#clip6300)">
<text style="fill:#000000; fill-opacity:1; font-family:Arial,Helvetica Neue,Helvetica,sans-serif; font-size:48px; text-anchor:end;" transform="rotate(0, 144.627, 454.536)" x="144.627" y="454.536">-20</text>
</g>
<g clip-path="url(#clip6300)">
<text style="fill:#000000; fill-opacity:1; font-family:Arial,Helvetica Neue,Helvetica,sans-serif; font-size:48px; text-anchor:end;" transform="rotate(0, 144.627, 391.147)" x="144.627" y="391.147">0</text>
</g>
<g clip-path="url(#clip6300)">
<text style="fill:#000000; fill-opacity:1; font-family:Arial,Helvetica Neue,Helvetica,sans-serif; font-size:48px; text-anchor:end;" transform="rotate(0, 144.627, 327.758)" x="144.627" y="327.758">20</text>
</g>
<g clip-path="url(#clip6300)">
<text style="fill:#000000; fill-opacity:1; font-family:Arial,Helvetica Neue,Helvetica,sans-serif; font-size:48px; text-anchor:end;" transform="rotate(0, 144.627, 264.369)" x="144.627" y="264.369">40</text>
</g>
<g clip-path="url(#clip6300)">
<text style="fill:#000000; fill-opacity:1; font-family:Arial,Helvetica Neue,Helvetica,sans-serif; font-size:48px; text-anchor:end;" transform="rotate(0, 144.627, 200.98)" x="144.627" y="200.98">60</text>
</g>
<g clip-path="url(#clip6300)">
<text style="fill:#000000; fill-opacity:1; font-family:Arial,Helvetica Neue,Helvetica,sans-serif; font-size:84px; text-anchor:middle;" transform="rotate(0, 1260.69, 73.2)" x="1260.69" y="73.2">% deviation aggregate productivity</text>
</g>
<g clip-path="url(#clip6300)">
<text style="fill:#000000; fill-opacity:1; font-family:Arial,Helvetica Neue,Helvetica,sans-serif; font-size:66px; text-anchor:middle;" transform="rotate(0, 1260.69, 759.48)" x="1260.69" y="759.48">t</text>
</g>
<polyline clip-path="url(#clip6302)" style="stroke:#009af9; stroke-width:4; stroke-opacity:1; fill:none" points="
  230.442,611.356 237.333,605.669 244.224,599.889 251.116,594.033 258.007,588.121 264.898,582.169 271.79,576.195 278.681,570.215 285.572,564.245 292.464,558.299 
  299.355,552.392 306.246,546.536 313.137,540.743 320.029,535.024 326.92,529.389 333.811,523.846 340.703,518.405 347.594,513.071 354.485,507.851 361.377,502.749 
  368.268,497.771 375.159,492.92 382.05,488.198 388.942,483.608 395.833,479.151 402.724,474.828 409.616,470.64 416.507,466.585 423.398,462.664 430.29,458.875 
  437.181,455.218 444.072,451.69 450.964,448.289 457.855,445.014 464.746,441.862 471.637,438.829 478.529,435.914 485.42,433.113 492.311,430.424 499.203,427.844 
  506.094,425.369 512.985,422.995 519.877,420.721 526.768,418.543 533.659,416.457 540.55,414.461 547.442,412.551 554.333,410.725 561.224,408.978 568.116,407.309 
  575.007,405.714 581.898,404.191 588.79,402.736 595.681,401.347 602.572,400.021 609.463,398.756 616.355,397.55 623.246,396.398 630.137,395.301 637.029,394.254 
  643.92,393.256 650.811,392.305 657.703,391.399 664.594,390.535 671.485,389.713 678.376,388.929 685.268,388.183 692.159,387.472 699.05,386.795 705.942,386.151 
  712.833,385.538 719.724,384.954 726.616,384.398 733.507,383.87 740.398,383.366 747.289,382.887 754.181,382.432 761.072,381.999 767.963,381.586 774.855,381.194 
  781.746,380.821 788.637,380.466 795.529,380.129 802.42,379.808 809.311,379.503 816.202,379.212 823.094,378.936 829.985,378.674 836.876,378.425 843.768,378.187 
  850.659,377.962 857.55,377.748 864.442,377.544 871.333,377.35 878.224,377.166 885.115,376.991 892.007,376.825 898.898,376.666 905.789,376.516 912.681,376.373 
  919.572,376.238 926.463,376.109 933.355,375.986 940.246,375.869 947.137,375.759 954.028,375.653 960.92,375.553 967.811,375.458 974.702,375.368 981.594,375.282 
  988.485,375.201 995.376,375.123 1002.27,375.049 1009.16,374.979 1016.05,374.913 1022.94,374.85 1029.83,374.79 1036.72,374.733 1043.62,374.678 1050.51,374.627 
  1057.4,374.578 1064.29,374.532 1071.18,374.487 1078.07,374.445 1084.96,374.406 1091.85,374.368 1098.75,374.332 1105.64,374.297 1112.53,374.265 1119.42,374.234 
  1126.31,374.205 1133.2,374.177 1140.09,374.15 1146.98,374.125 1153.88,374.101 1160.77,374.079 1167.66,374.057 1174.55,374.037 1181.44,374.017 1188.33,373.999 
  1195.22,373.981 1202.12,373.964 1209.01,373.948 1215.9,373.933 1222.79,373.919 1229.68,373.905 1236.57,373.893 1243.46,373.88 1250.35,373.869 1257.25,373.858 
  1264.14,373.847 1271.03,373.837 1277.92,373.827 1284.81,373.818 1291.7,373.81 1298.59,373.802 1305.48,373.794 1312.38,373.787 1319.27,373.78 1326.16,373.773 
  1333.05,373.767 1339.94,373.761 1346.83,373.755 1353.72,373.75 1360.62,373.744 1367.51,373.74 1374.4,373.735 1381.29,373.731 1388.18,373.726 1395.07,373.722 
  1401.96,373.719 1408.85,373.715 1415.75,373.712 1422.64,373.708 1429.53,373.705 1436.42,373.702 1443.31,373.7 1450.2,373.697 1457.09,373.694 1463.98,373.692 
  1470.88,373.69 1477.77,373.688 1484.66,373.686 1491.55,373.684 1498.44,373.682 1505.33,373.68 1512.22,373.678 1519.12,373.677 1526.01,373.675 1532.9,373.674 
  1539.79,373.673 1546.68,373.671 1553.57,373.67 1560.46,373.669 1567.35,373.668 1574.25,373.667 1581.14,373.666 1588.03,373.665 1594.92,373.664 1601.81,373.663 
  1608.7,373.662 1615.59,373.662 1622.48,373.661 1629.38,373.66 1636.27,373.659 1643.16,373.659 1650.05,373.658 1656.94,373.658 1663.83,373.657 1670.72,373.657 
  1677.62,373.656 1684.51,373.656 1691.4,373.655 1698.29,373.655 1705.18,373.654 1712.07,373.654 1718.96,373.654 1725.85,373.653 1732.75,373.653 1739.64,373.653 
  1746.53,373.652 1753.42,373.652 1760.31,373.652 1767.2,373.652 1774.09,373.651 1780.98,373.651 1787.88,373.651 1794.77,373.651 1801.66,373.651 1808.55,373.65 
  1815.44,373.65 1822.33,373.65 1829.22,373.65 1836.12,373.65 1843.01,373.65 1849.9,373.649 1856.79,373.649 1863.68,373.649 1870.57,373.649 1877.46,373.649 
  1884.35,373.649 1891.25,373.649 1898.14,373.649 1905.03,373.649 1911.92,373.648 1918.81,373.648 1925.7,373.648 1932.59,373.648 1939.48,373.648 1946.38,373.648 
  1953.27,373.648 1960.16,373.648 1967.05,373.648 1973.94,373.648 1980.83,373.648 1987.72,373.648 1994.61,373.648 2001.51,373.648 2008.4,373.648 2015.29,373.648 
  2022.18,373.648 2029.07,373.648 2035.96,373.648 2042.85,373.647 2049.75,373.647 2056.64,373.647 2063.53,373.647 2070.42,373.647 2077.31,373.647 2084.2,373.647 
  2091.09,373.647 2097.98,373.647 2104.88,373.647 2111.77,373.647 2118.66,373.647 2125.55,373.647 2132.44,373.647 2139.33,373.647 2146.22,373.647 2153.11,373.647 
  2160.01,373.647 2166.9,373.647 2173.79,373.647 2180.68,373.647 2187.57,373.647 2194.46,373.647 2201.35,373.647 2208.25,373.647 2215.14,373.647 2222.03,373.647 
  2228.92,373.647 2235.81,373.647 2242.7,373.647 2249.59,373.647 2256.48,373.647 2263.38,373.647 2270.27,373.647 2277.16,373.647 2284.05,373.647 2290.94,373.647 
  
  "/>
<polyline clip-path="url(#clip6302)" style="stroke:#e26f46; stroke-width:4; stroke-opacity:1; fill:none" points="
  230.442,532.12 237.333,526.531 244.224,521.04 251.116,515.652 258.007,510.376 264.898,505.216 271.79,500.178 278.681,495.265 285.572,490.479 292.464,485.825 
  299.355,481.303 306.246,476.915 313.137,472.661 320.029,468.541 326.92,464.555 333.811,460.702 340.703,456.981 347.594,453.391 354.485,449.928 361.377,446.592 
  368.268,443.38 375.159,440.29 382.05,437.318 388.942,434.462 395.833,431.719 402.724,429.086 409.616,426.56 416.507,424.138 423.398,421.816 430.29,419.591 
  437.181,417.461 444.072,415.421 450.964,413.47 457.855,411.603 464.746,409.818 471.637,408.112 478.529,406.481 485.42,404.923 492.311,403.436 499.203,402.015 
  506.094,400.659 512.985,399.365 519.877,398.13 526.768,396.952 533.659,395.828 540.55,394.757 547.442,393.736 554.333,392.762 561.224,391.834 568.116,390.95 
  575.007,390.108 581.898,389.306 588.79,388.541 595.681,387.814 602.572,387.121 609.463,386.461 616.355,385.832 623.246,385.234 630.137,384.665 637.029,384.124 
  643.92,383.608 650.811,383.118 657.703,382.651 664.594,382.207 671.485,381.784 678.376,381.382 685.268,381 692.159,380.637 699.05,380.291 705.942,379.962 
  712.833,379.649 719.724,379.352 726.616,379.069 733.507,378.8 740.398,378.544 747.289,378.301 754.181,378.07 761.072,377.851 767.963,377.642 774.855,377.443 
  781.746,377.254 788.637,377.075 795.529,376.905 802.42,376.742 809.311,376.588 816.202,376.442 823.094,376.303 829.985,376.171 836.876,376.045 843.768,375.925 
  850.659,375.812 857.55,375.704 864.442,375.601 871.333,375.504 878.224,375.411 885.115,375.323 892.007,375.24 898.898,375.16 905.789,375.085 912.681,375.013 
  919.572,374.945 926.463,374.88 933.355,374.819 940.246,374.76 947.137,374.705 954.028,374.652 960.92,374.602 967.811,374.554 974.702,374.509 981.594,374.466 
  988.485,374.425 995.376,374.386 1002.27,374.349 1009.16,374.314 1016.05,374.281 1022.94,374.249 1029.83,374.219 1036.72,374.19 1043.62,374.163 1050.51,374.137 
  1057.4,374.113 1064.29,374.09 1071.18,374.067 1078.07,374.046 1084.96,374.026 1091.85,374.007 1098.75,373.989 1105.64,373.972 1112.53,373.956 1119.42,373.941 
  1126.31,373.926 1133.2,373.912 1140.09,373.899 1146.98,373.886 1153.88,373.874 1160.77,373.863 1167.66,373.852 1174.55,373.842 1181.44,373.832 1188.33,373.823 
  1195.22,373.814 1202.12,373.806 1209.01,373.798 1215.9,373.79 1222.79,373.783 1229.68,373.776 1236.57,373.77 1243.46,373.764 1250.35,373.758 1257.25,373.752 
  1264.14,373.747 1271.03,373.742 1277.92,373.737 1284.81,373.733 1291.7,373.728 1298.59,373.724 1305.48,373.72 1312.38,373.717 1319.27,373.713 1326.16,373.71 
  1333.05,373.707 1339.94,373.704 1346.83,373.701 1353.72,373.698 1360.62,373.696 1367.51,373.693 1374.4,373.691 1381.29,373.689 1388.18,373.687 1395.07,373.685 
  1401.96,373.683 1408.85,373.681 1415.75,373.679 1422.64,373.678 1429.53,373.676 1436.42,373.675 1443.31,373.673 1450.2,373.672 1457.09,373.671 1463.98,373.669 
  1470.88,373.668 1477.77,373.667 1484.66,373.666 1491.55,373.665 1498.44,373.664 1505.33,373.663 1512.22,373.663 1519.12,373.662 1526.01,373.661 1532.9,373.66 
  1539.79,373.66 1546.68,373.659 1553.57,373.658 1560.46,373.658 1567.35,373.657 1574.25,373.657 1581.14,373.656 1588.03,373.656 1594.92,373.655 1601.81,373.655 
  1608.7,373.655 1615.59,373.654 1622.48,373.654 1629.38,373.653 1636.27,373.653 1643.16,373.653 1650.05,373.653 1656.94,373.652 1663.83,373.652 1670.72,373.652 
  1677.62,373.651 1684.51,373.651 1691.4,373.651 1698.29,373.651 1705.18,373.651 1712.07,373.65 1718.96,373.65 1725.85,373.65 1732.75,373.65 1739.64,373.65 
  1746.53,373.65 1753.42,373.649 1760.31,373.649 1767.2,373.649 1774.09,373.649 1780.98,373.649 1787.88,373.649 1794.77,373.649 1801.66,373.649 1808.55,373.649 
  1815.44,373.649 1822.33,373.648 1829.22,373.648 1836.12,373.648 1843.01,373.648 1849.9,373.648 1856.79,373.648 1863.68,373.648 1870.57,373.648 1877.46,373.648 
  1884.35,373.648 1891.25,373.648 1898.14,373.648 1905.03,373.648 1911.92,373.648 1918.81,373.648 1925.7,373.648 1932.59,373.648 1939.48,373.648 1946.38,373.647 
  1953.27,373.647 1960.16,373.647 1967.05,373.647 1973.94,373.647 1980.83,373.647 1987.72,373.647 1994.61,373.647 2001.51,373.647 2008.4,373.647 2015.29,373.647 
  2022.18,373.647 2029.07,373.647 2035.96,373.647 2042.85,373.647 2049.75,373.647 2056.64,373.647 2063.53,373.647 2070.42,373.647 2077.31,373.647 2084.2,373.647 
  2091.09,373.647 2097.98,373.647 2104.88,373.647 2111.77,373.647 2118.66,373.647 2125.55,373.647 2132.44,373.647 2139.33,373.647 2146.22,373.647 2153.11,373.647 
  2160.01,373.647 2166.9,373.647 2173.79,373.647 2180.68,373.647 2187.57,373.647 2194.46,373.647 2201.35,373.647 2208.25,373.647 2215.14,373.647 2222.03,373.647 
  2228.92,373.647 2235.81,373.647 2242.7,373.647 2249.59,373.647 2256.48,373.647 2263.38,373.647 2270.27,373.647 2277.16,373.647 2284.05,373.647 2290.94,373.647 
  
  "/>
<polyline clip-path="url(#clip6302)" style="stroke:#3da44d; stroke-width:4; stroke-opacity:1; fill:none" points="
  230.442,452.883 237.333,449.439 244.224,446.121 251.116,442.927 258.007,439.854 264.898,436.899 271.79,434.059 278.681,431.333 285.572,428.715 292.464,426.204 
  299.355,423.796 306.246,421.489 313.137,419.278 320.029,417.161 326.92,415.135 333.811,413.196 340.703,411.341 347.594,409.567 354.485,407.872 361.377,406.252 
  368.268,404.704 375.159,403.226 382.05,401.815 388.942,400.468 395.833,399.183 402.724,397.956 409.616,396.786 416.507,395.671 423.398,394.607 430.29,393.592 
  437.181,392.626 444.072,391.704 450.964,390.826 457.855,389.99 464.746,389.193 471.637,388.434 478.529,387.712 485.42,387.023 492.311,386.368 499.203,385.744 
  506.094,385.151 512.985,384.585 519.877,384.048 526.768,383.536 533.659,383.049 540.55,382.585 547.442,382.144 554.333,381.725 561.224,381.326 568.116,380.947 
  575.007,380.586 581.898,380.242 588.79,379.916 595.681,379.605 602.572,379.31 609.463,379.029 616.355,378.762 623.246,378.509 630.137,378.267 637.029,378.038 
  643.92,377.82 650.811,377.612 657.703,377.415 664.594,377.228 671.485,377.05 678.376,376.881 685.268,376.72 692.159,376.567 699.05,376.421 705.942,376.283 
  712.833,376.152 719.724,376.027 726.616,375.909 733.507,375.796 740.398,375.689 747.289,375.587 754.181,375.49 761.072,375.398 767.963,375.311 774.855,375.228 
  781.746,375.149 788.637,375.074 795.529,375.003 802.42,374.935 809.311,374.871 816.202,374.81 823.094,374.752 829.985,374.697 836.876,374.644 843.768,374.595 
  850.659,374.547 857.55,374.502 864.442,374.46 871.333,374.419 878.224,374.38 885.115,374.344 892.007,374.309 898.898,374.276 905.789,374.244 912.681,374.215 
  919.572,374.186 926.463,374.159 933.355,374.134 940.246,374.109 947.137,374.086 954.028,374.064 960.92,374.043 967.811,374.024 974.702,374.005 981.594,373.987 
  988.485,373.97 995.376,373.954 1002.27,373.938 1009.16,373.924 1016.05,373.91 1022.94,373.897 1029.83,373.884 1036.72,373.873 1043.62,373.861 1050.51,373.851 
  1057.4,373.84 1064.29,373.831 1071.18,373.821 1078.07,373.813 1084.96,373.804 1091.85,373.797 1098.75,373.789 1105.64,373.782 1112.53,373.775 1119.42,373.769 
  1126.31,373.763 1133.2,373.757 1140.09,373.751 1146.98,373.746 1153.88,373.741 1160.77,373.737 1167.66,373.732 1174.55,373.728 1181.44,373.724 1188.33,373.72 
  1195.22,373.716 1202.12,373.713 1209.01,373.709 1215.9,373.706 1222.79,373.703 1229.68,373.701 1236.57,373.698 1243.46,373.695 1250.35,373.693 1257.25,373.691 
  1264.14,373.688 1271.03,373.686 1277.92,373.684 1284.81,373.682 1291.7,373.681 1298.59,373.679 1305.48,373.677 1312.38,373.676 1319.27,373.674 1326.16,373.673 
  1333.05,373.672 1339.94,373.671 1346.83,373.669 1353.72,373.668 1360.62,373.667 1367.51,373.666 1374.4,373.665 1381.29,373.664 1388.18,373.663 1395.07,373.663 
  1401.96,373.662 1408.85,373.661 1415.75,373.66 1422.64,373.66 1429.53,373.659 1436.42,373.658 1443.31,373.658 1450.2,373.657 1457.09,373.657 1463.98,373.656 
  1470.88,373.656 1477.77,373.655 1484.66,373.655 1491.55,373.655 1498.44,373.654 1505.33,373.654 1512.22,373.653 1519.12,373.653 1526.01,373.653 1532.9,373.652 
  1539.79,373.652 1546.68,373.652 1553.57,373.652 1560.46,373.651 1567.35,373.651 1574.25,373.651 1581.14,373.651 1588.03,373.651 1594.92,373.65 1601.81,373.65 
  1608.7,373.65 1615.59,373.65 1622.48,373.65 1629.38,373.65 1636.27,373.649 1643.16,373.649 1650.05,373.649 1656.94,373.649 1663.83,373.649 1670.72,373.649 
  1677.62,373.649 1684.51,373.649 1691.4,373.649 1698.29,373.649 1705.18,373.648 1712.07,373.648 1718.96,373.648 1725.85,373.648 1732.75,373.648 1739.64,373.648 
  1746.53,373.648 1753.42,373.648 1760.31,373.648 1767.2,373.648 1774.09,373.648 1780.98,373.648 1787.88,373.648 1794.77,373.648 1801.66,373.648 1808.55,373.648 
  1815.44,373.648 1822.33,373.648 1829.22,373.647 1836.12,373.647 1843.01,373.647 1849.9,373.647 1856.79,373.647 1863.68,373.647 1870.57,373.647 1877.46,373.647 
  1884.35,373.647 1891.25,373.647 1898.14,373.647 1905.03,373.647 1911.92,373.647 1918.81,373.647 1925.7,373.647 1932.59,373.647 1939.48,373.647 1946.38,373.647 
  1953.27,373.647 1960.16,373.647 1967.05,373.647 1973.94,373.647 1980.83,373.647 1987.72,373.647 1994.61,373.647 2001.51,373.647 2008.4,373.647 2015.29,373.647 
  2022.18,373.647 2029.07,373.647 2035.96,373.647 2042.85,373.647 2049.75,373.647 2056.64,373.647 2063.53,373.647 2070.42,373.647 2077.31,373.647 2084.2,373.647 
  2091.09,373.647 2097.98,373.647 2104.88,373.647 2111.77,373.647 2118.66,373.647 2125.55,373.647 2132.44,373.647 2139.33,373.647 2146.22,373.647 2153.11,373.647 
  2160.01,373.647 2166.9,373.647 2173.79,373.647 2180.68,373.647 2187.57,373.647 2194.46,373.647 2201.35,373.647 2208.25,373.647 2215.14,373.647 2222.03,373.647 
  2228.92,373.647 2235.81,373.647 2242.7,373.647 2249.59,373.647 2256.48,373.647 2263.38,373.647 2270.27,373.647 2277.16,373.647 2284.05,373.647 2290.94,373.647 
  
  "/>
<polyline clip-path="url(#clip6302)" style="stroke:#c271d2; stroke-width:4; stroke-opacity:1; fill:none" points="
  230.442,294.41 237.333,298.806 244.224,302.937 251.116,306.821 258.007,310.474 264.898,313.913 271.79,317.151 278.681,320.201 285.572,323.076 292.464,325.786 
  299.355,328.343 306.246,330.754 313.137,333.031 320.029,335.18 326.92,337.21 333.811,339.127 340.703,340.939 347.594,342.652 354.485,344.272 361.377,345.803 
  368.268,347.252 375.159,348.622 382.05,349.919 388.942,351.146 395.833,352.309 402.724,353.409 409.616,354.451 416.507,355.438 423.398,356.372 430.29,357.258 
  437.181,358.097 444.072,358.893 450.964,359.646 457.855,360.361 464.746,361.038 471.637,361.68 478.529,362.289 485.42,362.867 492.311,363.414 499.203,363.934 
  506.094,364.426 512.985,364.894 519.877,365.337 526.768,365.758 533.659,366.157 540.55,366.535 547.442,366.895 554.333,367.236 561.224,367.559 568.116,367.866 
  575.007,368.158 581.898,368.435 588.79,368.697 595.681,368.947 602.572,369.183 609.463,369.408 616.355,369.621 623.246,369.824 630.137,370.016 637.029,370.199 
  643.92,370.372 650.811,370.536 657.703,370.693 664.594,370.841 671.485,370.982 678.376,371.116 685.268,371.243 692.159,371.363 699.05,371.478 705.942,371.587 
  712.833,371.69 719.724,371.788 726.616,371.881 733.507,371.97 740.398,372.054 747.289,372.134 754.181,372.21 761.072,372.282 767.963,372.35 774.855,372.415 
  781.746,372.477 788.637,372.535 795.529,372.591 802.42,372.644 809.311,372.694 816.202,372.742 823.094,372.787 829.985,372.83 836.876,372.871 843.768,372.91 
  850.659,372.947 857.55,372.982 864.442,373.015 871.333,373.047 878.224,373.077 885.115,373.105 892.007,373.132 898.898,373.158 905.789,373.183 912.681,373.206 
  919.572,373.228 926.463,373.249 933.355,373.269 940.246,373.288 947.137,373.306 954.028,373.323 960.92,373.339 967.811,373.354 974.702,373.369 981.594,373.383 
  988.485,373.396 995.376,373.409 1002.27,373.421 1009.16,373.432 1016.05,373.443 1022.94,373.453 1029.83,373.463 1036.72,373.472 1043.62,373.481 1050.51,373.489 
  1057.4,373.497 1064.29,373.504 1071.18,373.511 1078.07,373.518 1084.96,373.525 1091.85,373.531 1098.75,373.537 1105.64,373.542 1112.53,373.547 1119.42,373.552 
  1126.31,373.557 1133.2,373.561 1140.09,373.566 1146.98,373.57 1153.88,373.574 1160.77,373.577 1167.66,373.581 1174.55,373.584 1181.44,373.587 1188.33,373.59 
  1195.22,373.593 1202.12,373.596 1209.01,373.598 1215.9,373.601 1222.79,373.603 1229.68,373.605 1236.57,373.607 1243.46,373.609 1250.35,373.611 1257.25,373.613 
  1264.14,373.615 1271.03,373.616 1277.92,373.618 1284.81,373.619 1291.7,373.621 1298.59,373.622 1305.48,373.623 1312.38,373.624 1319.27,373.626 1326.16,373.627 
  1333.05,373.628 1339.94,373.629 1346.83,373.629 1353.72,373.63 1360.62,373.631 1367.51,373.632 1374.4,373.633 1381.29,373.633 1388.18,373.634 1395.07,373.635 
  1401.96,373.635 1408.85,373.636 1415.75,373.636 1422.64,373.637 1429.53,373.637 1436.42,373.638 1443.31,373.638 1450.2,373.639 1457.09,373.639 1463.98,373.64 
  1470.88,373.64 1477.77,373.64 1484.66,373.641 1491.55,373.641 1498.44,373.641 1505.33,373.642 1512.22,373.642 1519.12,373.642 1526.01,373.642 1532.9,373.643 
  1539.79,373.643 1546.68,373.643 1553.57,373.643 1560.46,373.643 1567.35,373.644 1574.25,373.644 1581.14,373.644 1588.03,373.644 1594.92,373.644 1601.81,373.644 
  1608.7,373.644 1615.59,373.645 1622.48,373.645 1629.38,373.645 1636.27,373.645 1643.16,373.645 1650.05,373.645 1656.94,373.645 1663.83,373.645 1670.72,373.645 
  1677.62,373.645 1684.51,373.645 1691.4,373.646 1698.29,373.646 1705.18,373.646 1712.07,373.646 1718.96,373.646 1725.85,373.646 1732.75,373.646 1739.64,373.646 
  1746.53,373.646 1753.42,373.646 1760.31,373.646 1767.2,373.646 1774.09,373.646 1780.98,373.646 1787.88,373.646 1794.77,373.646 1801.66,373.646 1808.55,373.646 
  1815.44,373.646 1822.33,373.646 1829.22,373.646 1836.12,373.646 1843.01,373.646 1849.9,373.646 1856.79,373.646 1863.68,373.647 1870.57,373.647 1877.46,373.647 
  1884.35,373.647 1891.25,373.647 1898.14,373.647 1905.03,373.647 1911.92,373.647 1918.81,373.647 1925.7,373.647 1932.59,373.647 1939.48,373.647 1946.38,373.647 
  1953.27,373.647 1960.16,373.647 1967.05,373.647 1973.94,373.647 1980.83,373.647 1987.72,373.647 1994.61,373.647 2001.51,373.647 2008.4,373.647 2015.29,373.647 
  2022.18,373.647 2029.07,373.647 2035.96,373.647 2042.85,373.647 2049.75,373.647 2056.64,373.647 2063.53,373.647 2070.42,373.647 2077.31,373.647 2084.2,373.647 
  2091.09,373.647 2097.98,373.647 2104.88,373.647 2111.77,373.647 2118.66,373.647 2125.55,373.647 2132.44,373.647 2139.33,373.647 2146.22,373.647 2153.11,373.647 
  2160.01,373.647 2166.9,373.647 2173.79,373.647 2180.68,373.647 2187.57,373.647 2194.46,373.647 2201.35,373.647 2208.25,373.647 2215.14,373.647 2222.03,373.647 
  2228.92,373.647 2235.81,373.647 2242.7,373.647 2249.59,373.647 2256.48,373.647 2263.38,373.647 2270.27,373.647 2277.16,373.647 2284.05,373.647 2290.94,373.647 
  
  "/>
<polyline clip-path="url(#clip6302)" style="stroke:#ac8d18; stroke-width:4; stroke-opacity:1; fill:none" points="
  230.442,215.174 237.333,224.715 244.224,233.602 251.116,241.887 258.007,249.619 264.898,256.841 271.79,263.592 278.681,269.909 285.572,275.823 292.464,281.364 
  299.355,286.559 306.246,291.434 313.137,296.01 320.029,300.309 326.92,304.35 333.811,308.15 340.703,311.725 347.594,315.091 354.485,318.26 361.377,321.246 
  368.268,324.061 375.159,326.715 382.05,329.219 388.942,331.582 395.833,333.812 402.724,335.917 409.616,337.906 416.507,339.786 423.398,341.562 430.29,343.24 
  437.181,344.828 444.072,346.329 450.964,347.749 457.855,349.093 464.746,350.365 471.637,351.568 478.529,352.708 485.42,353.787 492.311,354.809 499.203,355.777 
  506.094,356.694 512.985,357.563 519.877,358.386 526.768,359.166 533.659,359.906 540.55,360.607 547.442,361.271 554.333,361.901 561.224,362.499 568.116,363.065 
  575.007,363.603 581.898,364.112 588.79,364.596 595.681,365.055 602.572,365.49 609.463,365.902 616.355,366.294 623.246,366.666 630.137,367.018 637.029,367.353 
  643.92,367.671 650.811,367.972 657.703,368.258 664.594,368.53 671.485,368.788 678.376,369.032 685.268,369.265 692.159,369.485 699.05,369.695 705.942,369.893 
  712.833,370.082 719.724,370.261 726.616,370.432 733.507,370.593 740.398,370.746 747.289,370.892 754.181,371.03 761.072,371.162 767.963,371.286 774.855,371.405 
  781.746,371.517 788.637,371.624 795.529,371.726 802.42,371.822 809.311,371.913 816.202,372 823.094,372.083 829.985,372.161 836.876,372.236 843.768,372.306 
  850.659,372.374 857.55,372.437 864.442,372.498 871.333,372.555 878.224,372.61 885.115,372.662 892.007,372.711 898.898,372.758 905.789,372.803 912.681,372.845 
  919.572,372.885 926.463,372.923 933.355,372.959 940.246,372.994 947.137,373.027 954.028,373.058 960.92,373.087 967.811,373.115 974.702,373.142 981.594,373.167 
  988.485,373.191 995.376,373.214 1002.27,373.235 1009.16,373.256 1016.05,373.276 1022.94,373.294 1029.83,373.312 1036.72,373.329 1043.62,373.345 1050.51,373.36 
  1057.4,373.374 1064.29,373.388 1071.18,373.401 1078.07,373.413 1084.96,373.425 1091.85,373.436 1098.75,373.446 1105.64,373.456 1112.53,373.466 1119.42,373.475 
  1126.31,373.484 1133.2,373.492 1140.09,373.499 1146.98,373.507 1153.88,373.514 1160.77,373.52 1167.66,373.527 1174.55,373.533 1181.44,373.539 1188.33,373.544 
  1195.22,373.549 1202.12,373.554 1209.01,373.559 1215.9,373.563 1222.79,373.567 1229.68,373.571 1236.57,373.575 1243.46,373.579 1250.35,373.582 1257.25,373.585 
  1264.14,373.588 1271.03,373.591 1277.92,373.594 1284.81,373.597 1291.7,373.599 1298.59,373.602 1305.48,373.604 1312.38,373.606 1319.27,373.608 1326.16,373.61 
  1333.05,373.612 1339.94,373.614 1346.83,373.615 1353.72,373.617 1360.62,373.618 1367.51,373.62 1374.4,373.621 1381.29,373.622 1388.18,373.624 1395.07,373.625 
  1401.96,373.626 1408.85,373.627 1415.75,373.628 1422.64,373.629 1429.53,373.63 1436.42,373.631 1443.31,373.631 1450.2,373.632 1457.09,373.633 1463.98,373.634 
  1470.88,373.634 1477.77,373.635 1484.66,373.636 1491.55,373.636 1498.44,373.637 1505.33,373.637 1512.22,373.638 1519.12,373.638 1526.01,373.639 1532.9,373.639 
  1539.79,373.639 1546.68,373.64 1553.57,373.64 1560.46,373.64 1567.35,373.641 1574.25,373.641 1581.14,373.641 1588.03,373.642 1594.92,373.642 1601.81,373.642 
  1608.7,373.642 1615.59,373.643 1622.48,373.643 1629.38,373.643 1636.27,373.643 1643.16,373.643 1650.05,373.644 1656.94,373.644 1663.83,373.644 1670.72,373.644 
  1677.62,373.644 1684.51,373.644 1691.4,373.644 1698.29,373.645 1705.18,373.645 1712.07,373.645 1718.96,373.645 1725.85,373.645 1732.75,373.645 1739.64,373.645 
  1746.53,373.645 1753.42,373.645 1760.31,373.645 1767.2,373.645 1774.09,373.646 1780.98,373.646 1787.88,373.646 1794.77,373.646 1801.66,373.646 1808.55,373.646 
  1815.44,373.646 1822.33,373.646 1829.22,373.646 1836.12,373.646 1843.01,373.646 1849.9,373.646 1856.79,373.646 1863.68,373.646 1870.57,373.646 1877.46,373.646 
  1884.35,373.646 1891.25,373.646 1898.14,373.646 1905.03,373.646 1911.92,373.646 1918.81,373.646 1925.7,373.646 1932.59,373.646 1939.48,373.646 1946.38,373.647 
  1953.27,373.647 1960.16,373.647 1967.05,373.647 1973.94,373.647 1980.83,373.647 1987.72,373.647 1994.61,373.647 2001.51,373.647 2008.4,373.647 2015.29,373.647 
  2022.18,373.647 2029.07,373.647 2035.96,373.647 2042.85,373.647 2049.75,373.647 2056.64,373.647 2063.53,373.647 2070.42,373.647 2077.31,373.647 2084.2,373.647 
  2091.09,373.647 2097.98,373.647 2104.88,373.647 2111.77,373.647 2118.66,373.647 2125.55,373.647 2132.44,373.647 2139.33,373.647 2146.22,373.647 2153.11,373.647 
  2160.01,373.647 2166.9,373.647 2173.79,373.647 2180.68,373.647 2187.57,373.647 2194.46,373.647 2201.35,373.647 2208.25,373.647 2215.14,373.647 2222.03,373.647 
  2228.92,373.647 2235.81,373.647 2242.7,373.647 2249.59,373.647 2256.48,373.647 2263.38,373.647 2270.27,373.647 2277.16,373.647 2284.05,373.647 2290.94,373.647 
  
  "/>
<polyline clip-path="url(#clip6302)" style="stroke:#00a9ad; stroke-width:4; stroke-opacity:1; fill:none" points="
  230.442,135.938 237.333,151.242 244.224,165.39 251.116,178.487 258.007,190.626 264.898,201.892 271.79,212.359 278.681,222.095 285.572,231.161 292.464,239.61 
  299.355,247.494 306.246,254.855 313.137,261.735 320.029,268.171 326.92,274.195 333.811,279.838 340.703,285.129 347.594,290.091 354.485,294.75 361.377,299.125 
  368.268,303.236 375.159,307.102 382.05,310.739 388.942,314.163 395.833,317.386 402.724,320.423 409.616,323.285 416.507,325.983 423.398,328.528 430.29,330.93 
  437.181,333.196 444.072,335.336 450.964,337.357 457.855,339.267 464.746,341.071 471.637,342.777 478.529,344.389 485.42,345.914 492.311,347.357 499.203,348.722 
  506.094,350.013 512.985,351.236 519.877,352.393 526.768,353.489 533.659,354.527 540.55,355.509 547.442,356.44 554.333,357.323 561.224,358.158 568.116,358.95 
  575.007,359.701 581.898,360.413 588.79,361.087 595.681,361.727 602.572,362.334 609.463,362.909 616.355,363.454 623.246,363.972 630.137,364.462 637.029,364.928 
  643.92,365.369 650.811,365.788 657.703,366.186 664.594,366.563 671.485,366.921 678.376,367.261 685.268,367.583 692.159,367.889 699.05,368.179 705.942,368.455 
  712.833,368.716 719.724,368.965 726.616,369.201 733.507,369.424 740.398,369.637 747.289,369.838 754.181,370.03 761.072,370.212 767.963,370.384 774.855,370.548 
  781.746,370.704 788.637,370.852 795.529,370.992 802.42,371.125 809.311,371.252 816.202,371.372 823.094,371.486 829.985,371.595 836.876,371.698 843.768,371.795 
  850.659,371.888 857.55,371.976 864.442,372.06 871.333,372.14 878.224,372.215 885.115,372.287 892.007,372.355 898.898,372.42 905.789,372.481 912.681,372.54 
  919.572,372.595 926.463,372.648 933.355,372.698 940.246,372.745 947.137,372.79 954.028,372.833 960.92,372.874 967.811,372.913 974.702,372.949 981.594,372.984 
  988.485,373.018 995.376,373.049 1002.27,373.079 1009.16,373.107 1016.05,373.134 1022.94,373.16 1029.83,373.184 1036.72,373.207 1043.62,373.229 1050.51,373.25 
  1057.4,373.27 1064.29,373.289 1071.18,373.307 1078.07,373.324 1084.96,373.34 1091.85,373.355 1098.75,373.37 1105.64,373.384 1112.53,373.397 1119.42,373.41 
  1126.31,373.421 1133.2,373.433 1140.09,373.443 1146.98,373.454 1153.88,373.463 1160.77,373.472 1167.66,373.481 1174.55,373.489 1181.44,373.497 1188.33,373.505 
  1195.22,373.512 1202.12,373.519 1209.01,373.525 1215.9,373.531 1222.79,373.537 1229.68,373.542 1236.57,373.548 1243.46,373.553 1250.35,373.557 1257.25,373.562 
  1264.14,373.566 1271.03,373.57 1277.92,373.574 1284.81,373.578 1291.7,373.581 1298.59,373.584 1305.48,373.587 1312.38,373.59 1319.27,373.593 1326.16,373.596 
  1333.05,373.598 1339.94,373.601 1346.83,373.603 1353.72,373.605 1360.62,373.607 1367.51,373.609 1374.4,373.611 1381.29,373.613 1388.18,373.615 1395.07,373.616 
  1401.96,373.618 1408.85,373.619 1415.75,373.621 1422.64,373.622 1429.53,373.623 1436.42,373.624 1443.31,373.626 1450.2,373.627 1457.09,373.628 1463.98,373.629 
  1470.88,373.63 1477.77,373.63 1484.66,373.631 1491.55,373.632 1498.44,373.633 1505.33,373.633 1512.22,373.634 1519.12,373.635 1526.01,373.635 1532.9,373.636 
  1539.79,373.636 1546.68,373.637 1553.57,373.638 1560.46,373.638 1567.35,373.638 1574.25,373.639 1581.14,373.639 1588.03,373.64 1594.92,373.64 1601.81,373.64 
  1608.7,373.641 1615.59,373.641 1622.48,373.641 1629.38,373.642 1636.27,373.642 1643.16,373.642 1650.05,373.642 1656.94,373.643 1663.83,373.643 1670.72,373.643 
  1677.62,373.643 1684.51,373.643 1691.4,373.644 1698.29,373.644 1705.18,373.644 1712.07,373.644 1718.96,373.644 1725.85,373.644 1732.75,373.644 1739.64,373.645 
  1746.53,373.645 1753.42,373.645 1760.31,373.645 1767.2,373.645 1774.09,373.645 1780.98,373.645 1787.88,373.645 1794.77,373.645 1801.66,373.645 1808.55,373.645 
  1815.44,373.646 1822.33,373.646 1829.22,373.646 1836.12,373.646 1843.01,373.646 1849.9,373.646 1856.79,373.646 1863.68,373.646 1870.57,373.646 1877.46,373.646 
  1884.35,373.646 1891.25,373.646 1898.14,373.646 1905.03,373.646 1911.92,373.646 1918.81,373.646 1925.7,373.646 1932.59,373.646 1939.48,373.646 1946.38,373.646 
  1953.27,373.646 1960.16,373.646 1967.05,373.646 1973.94,373.646 1980.83,373.646 1987.72,373.647 1994.61,373.647 2001.51,373.647 2008.4,373.647 2015.29,373.647 
  2022.18,373.647 2029.07,373.647 2035.96,373.647 2042.85,373.647 2049.75,373.647 2056.64,373.647 2063.53,373.647 2070.42,373.647 2077.31,373.647 2084.2,373.647 
  2091.09,373.647 2097.98,373.647 2104.88,373.647 2111.77,373.647 2118.66,373.647 2125.55,373.647 2132.44,373.647 2139.33,373.647 2146.22,373.647 2153.11,373.647 
  2160.01,373.647 2166.9,373.647 2173.79,373.647 2180.68,373.647 2187.57,373.647 2194.46,373.647 2201.35,373.647 2208.25,373.647 2215.14,373.647 2222.03,373.647 
  2228.92,373.647 2235.81,373.647 2242.7,373.647 2249.59,373.647 2256.48,373.647 2263.38,373.647 2270.27,373.647 2277.16,373.647 2284.05,373.647 2290.94,373.647 
  
  "/>
<path clip-path="url(#clip6300)" d="
M1556.58 628.555 L2280.76 628.555 L2280.76 205.195 L1556.58 205.195  Z
  " fill="#ffffff" fill-rule="evenodd" fill-opacity="1"/>
<polyline clip-path="url(#clip6300)" style="stroke:#000000; stroke-width:4; stroke-opacity:0; fill:none" points="
  1556.58,628.555 2280.76,628.555 2280.76,205.195 1556.58,205.195 1556.58,628.555 
  "/>
<polyline clip-path="url(#clip6300)" style="stroke:#009af9; stroke-width:4; stroke-opacity:1; fill:none" points="
  1580.58,265.675 1724.58,265.675 
  "/>
<g clip-path="url(#clip6300)">
<text style="fill:#000000; fill-opacity:1; font-family:Arial,Helvetica Neue,Helvetica,sans-serif; font-size:48px; text-anchor:start;" transform="rotate(0, 1748.58, 283.175)" x="1748.58" y="283.175">z(t) with z(1) = -75.0%</text>
</g>
<polyline clip-path="url(#clip6300)" style="stroke:#e26f46; stroke-width:4; stroke-opacity:1; fill:none" points="
  1580.58,326.155 1724.58,326.155 
  "/>
<g clip-path="url(#clip6300)">
<text style="fill:#000000; fill-opacity:1; font-family:Arial,Helvetica Neue,Helvetica,sans-serif; font-size:48px; text-anchor:start;" transform="rotate(0, 1748.58, 343.655)" x="1748.58" y="343.655">z(t) with z(1) = -50.0%</text>
</g>
<polyline clip-path="url(#clip6300)" style="stroke:#3da44d; stroke-width:4; stroke-opacity:1; fill:none" points="
  1580.58,386.635 1724.58,386.635 
  "/>
<g clip-path="url(#clip6300)">
<text style="fill:#000000; fill-opacity:1; font-family:Arial,Helvetica Neue,Helvetica,sans-serif; font-size:48px; text-anchor:start;" transform="rotate(0, 1748.58, 404.135)" x="1748.58" y="404.135">z(t) with z(1) = -25.0%</text>
</g>
<polyline clip-path="url(#clip6300)" style="stroke:#c271d2; stroke-width:4; stroke-opacity:1; fill:none" points="
  1580.58,447.115 1724.58,447.115 
  "/>
<g clip-path="url(#clip6300)">
<text style="fill:#000000; fill-opacity:1; font-family:Arial,Helvetica Neue,Helvetica,sans-serif; font-size:48px; text-anchor:start;" transform="rotate(0, 1748.58, 464.615)" x="1748.58" y="464.615">z(t) with z(1) = 25.0%</text>
</g>
<polyline clip-path="url(#clip6300)" style="stroke:#ac8d18; stroke-width:4; stroke-opacity:1; fill:none" points="
  1580.58,507.595 1724.58,507.595 
  "/>
<g clip-path="url(#clip6300)">
<text style="fill:#000000; fill-opacity:1; font-family:Arial,Helvetica Neue,Helvetica,sans-serif; font-size:48px; text-anchor:start;" transform="rotate(0, 1748.58, 525.095)" x="1748.58" y="525.095">z(t) with z(1) = 50.0%</text>
</g>
<polyline clip-path="url(#clip6300)" style="stroke:#00a9ad; stroke-width:4; stroke-opacity:1; fill:none" points="
  1580.58,568.075 1724.58,568.075 
  "/>
<g clip-path="url(#clip6300)">
<text style="fill:#000000; fill-opacity:1; font-family:Arial,Helvetica Neue,Helvetica,sans-serif; font-size:48px; text-anchor:start;" transform="rotate(0, 1748.58, 585.575)" x="1748.58" y="585.575">z(t) with z(1) = 75.0%</text>
</g>
<path clip-path="url(#clip6300)" d="
M168.627 1425.62 L2352.76 1425.62 L2352.76 921.675 L168.627 921.675  Z
  " fill="#ffffff" fill-rule="evenodd" fill-opacity="1"/>
<defs>
  <clipPath id="clip6303">
    <rect x="168" y="921" width="2185" height="505"/>
  </clipPath>
</defs>
<polyline clip-path="url(#clip6303)" style="stroke:#000000; stroke-width:2; stroke-opacity:0.1; fill:none" points="
  223.551,1425.62 223.551,921.675 
  "/>
<polyline clip-path="url(#clip6303)" style="stroke:#000000; stroke-width:2; stroke-opacity:0.1; fill:none" points="
  912.681,1425.62 912.681,921.675 
  "/>
<polyline clip-path="url(#clip6303)" style="stroke:#000000; stroke-width:2; stroke-opacity:0.1; fill:none" points="
  1601.81,1425.62 1601.81,921.675 
  "/>
<polyline clip-path="url(#clip6303)" style="stroke:#000000; stroke-width:2; stroke-opacity:0.1; fill:none" points="
  2290.94,1425.62 2290.94,921.675 
  "/>
<polyline clip-path="url(#clip6303)" style="stroke:#000000; stroke-width:2; stroke-opacity:0.1; fill:none" points="
  168.627,1363.81 2352.76,1363.81 
  "/>
<polyline clip-path="url(#clip6303)" style="stroke:#000000; stroke-width:2; stroke-opacity:0.1; fill:none" points="
  168.627,1300.43 2352.76,1300.43 
  "/>
<polyline clip-path="url(#clip6303)" style="stroke:#000000; stroke-width:2; stroke-opacity:0.1; fill:none" points="
  168.627,1237.04 2352.76,1237.04 
  "/>
<polyline clip-path="url(#clip6303)" style="stroke:#000000; stroke-width:2; stroke-opacity:0.1; fill:none" points="
  168.627,1173.65 2352.76,1173.65 
  "/>
<polyline clip-path="url(#clip6303)" style="stroke:#000000; stroke-width:2; stroke-opacity:0.1; fill:none" points="
  168.627,1110.26 2352.76,1110.26 
  "/>
<polyline clip-path="url(#clip6303)" style="stroke:#000000; stroke-width:2; stroke-opacity:0.1; fill:none" points="
  168.627,1046.87 2352.76,1046.87 
  "/>
<polyline clip-path="url(#clip6303)" style="stroke:#000000; stroke-width:2; stroke-opacity:0.1; fill:none" points="
  168.627,983.48 2352.76,983.48 
  "/>
<polyline clip-path="url(#clip6300)" style="stroke:#000000; stroke-width:4; stroke-opacity:1; fill:none" points="
  168.627,1425.62 2352.76,1425.62 
  "/>
<polyline clip-path="url(#clip6300)" style="stroke:#000000; stroke-width:4; stroke-opacity:1; fill:none" points="
  168.627,1425.62 168.627,921.675 
  "/>
<polyline clip-path="url(#clip6300)" style="stroke:#000000; stroke-width:4; stroke-opacity:1; fill:none" points="
  223.551,1425.62 223.551,1419.57 
  "/>
<polyline clip-path="url(#clip6300)" style="stroke:#000000; stroke-width:4; stroke-opacity:1; fill:none" points="
  912.681,1425.62 912.681,1419.57 
  "/>
<polyline clip-path="url(#clip6300)" style="stroke:#000000; stroke-width:4; stroke-opacity:1; fill:none" points="
  1601.81,1425.62 1601.81,1419.57 
  "/>
<polyline clip-path="url(#clip6300)" style="stroke:#000000; stroke-width:4; stroke-opacity:1; fill:none" points="
  2290.94,1425.62 2290.94,1419.57 
  "/>
<polyline clip-path="url(#clip6300)" style="stroke:#000000; stroke-width:4; stroke-opacity:1; fill:none" points="
  168.627,1363.81 194.836,1363.81 
  "/>
<polyline clip-path="url(#clip6300)" style="stroke:#000000; stroke-width:4; stroke-opacity:1; fill:none" points="
  168.627,1300.43 194.836,1300.43 
  "/>
<polyline clip-path="url(#clip6300)" style="stroke:#000000; stroke-width:4; stroke-opacity:1; fill:none" points="
  168.627,1237.04 194.836,1237.04 
  "/>
<polyline clip-path="url(#clip6300)" style="stroke:#000000; stroke-width:4; stroke-opacity:1; fill:none" points="
  168.627,1173.65 194.836,1173.65 
  "/>
<polyline clip-path="url(#clip6300)" style="stroke:#000000; stroke-width:4; stroke-opacity:1; fill:none" points="
  168.627,1110.26 194.836,1110.26 
  "/>
<polyline clip-path="url(#clip6300)" style="stroke:#000000; stroke-width:4; stroke-opacity:1; fill:none" points="
  168.627,1046.87 194.836,1046.87 
  "/>
<polyline clip-path="url(#clip6300)" style="stroke:#000000; stroke-width:4; stroke-opacity:1; fill:none" points="
  168.627,983.48 194.836,983.48 
  "/>
<g clip-path="url(#clip6300)">
<text style="fill:#000000; fill-opacity:1; font-family:Arial,Helvetica Neue,Helvetica,sans-serif; font-size:48px; text-anchor:middle;" transform="rotate(0, 223.551, 1479.62)" x="223.551" y="1479.62">0</text>
</g>
<g clip-path="url(#clip6300)">
<text style="fill:#000000; fill-opacity:1; font-family:Arial,Helvetica Neue,Helvetica,sans-serif; font-size:48px; text-anchor:middle;" transform="rotate(0, 912.681, 1479.62)" x="912.681" y="1479.62">100</text>
</g>
<g clip-path="url(#clip6300)">
<text style="fill:#000000; fill-opacity:1; font-family:Arial,Helvetica Neue,Helvetica,sans-serif; font-size:48px; text-anchor:middle;" transform="rotate(0, 1601.81, 1479.62)" x="1601.81" y="1479.62">200</text>
</g>
<g clip-path="url(#clip6300)">
<text style="fill:#000000; fill-opacity:1; font-family:Arial,Helvetica Neue,Helvetica,sans-serif; font-size:48px; text-anchor:middle;" transform="rotate(0, 2290.94, 1479.62)" x="2290.94" y="1479.62">300</text>
</g>
<g clip-path="url(#clip6300)">
<text style="fill:#000000; fill-opacity:1; font-family:Arial,Helvetica Neue,Helvetica,sans-serif; font-size:48px; text-anchor:end;" transform="rotate(0, 144.627, 1381.31)" x="144.627" y="1381.31">0.4</text>
</g>
<g clip-path="url(#clip6300)">
<text style="fill:#000000; fill-opacity:1; font-family:Arial,Helvetica Neue,Helvetica,sans-serif; font-size:48px; text-anchor:end;" transform="rotate(0, 144.627, 1317.93)" x="144.627" y="1317.93">0.6</text>
</g>
<g clip-path="url(#clip6300)">
<text style="fill:#000000; fill-opacity:1; font-family:Arial,Helvetica Neue,Helvetica,sans-serif; font-size:48px; text-anchor:end;" transform="rotate(0, 144.627, 1254.54)" x="144.627" y="1254.54">0.8</text>
</g>
<g clip-path="url(#clip6300)">
<text style="fill:#000000; fill-opacity:1; font-family:Arial,Helvetica Neue,Helvetica,sans-serif; font-size:48px; text-anchor:end;" transform="rotate(0, 144.627, 1191.15)" x="144.627" y="1191.15">1.0</text>
</g>
<g clip-path="url(#clip6300)">
<text style="fill:#000000; fill-opacity:1; font-family:Arial,Helvetica Neue,Helvetica,sans-serif; font-size:48px; text-anchor:end;" transform="rotate(0, 144.627, 1127.76)" x="144.627" y="1127.76">1.2</text>
</g>
<g clip-path="url(#clip6300)">
<text style="fill:#000000; fill-opacity:1; font-family:Arial,Helvetica Neue,Helvetica,sans-serif; font-size:48px; text-anchor:end;" transform="rotate(0, 144.627, 1064.37)" x="144.627" y="1064.37">1.4</text>
</g>
<g clip-path="url(#clip6300)">
<text style="fill:#000000; fill-opacity:1; font-family:Arial,Helvetica Neue,Helvetica,sans-serif; font-size:48px; text-anchor:end;" transform="rotate(0, 144.627, 1000.98)" x="144.627" y="1000.98">1.6</text>
</g>
<g clip-path="url(#clip6300)">
<text style="fill:#000000; fill-opacity:1; font-family:Arial,Helvetica Neue,Helvetica,sans-serif; font-size:84px; text-anchor:middle;" transform="rotate(0, 1260.69, 873.2)" x="1260.69" y="873.2">Aggregate productivity</text>
</g>
<g clip-path="url(#clip6300)">
<text style="fill:#000000; fill-opacity:1; font-family:Arial,Helvetica Neue,Helvetica,sans-serif; font-size:66px; text-anchor:middle;" transform="rotate(0, 1260.69, 1559.48)" x="1260.69" y="1559.48">t</text>
</g>
<polyline clip-path="url(#clip6303)" style="stroke:#009af9; stroke-width:4; stroke-opacity:1; fill:none" points="
  230.442,1411.36 237.333,1405.67 244.224,1399.89 251.116,1394.03 258.007,1388.12 264.898,1382.17 271.79,1376.2 278.681,1370.22 285.572,1364.25 292.464,1358.3 
  299.355,1352.39 306.246,1346.54 313.137,1340.74 320.029,1335.02 326.92,1329.39 333.811,1323.85 340.703,1318.4 347.594,1313.07 354.485,1307.85 361.377,1302.75 
  368.268,1297.77 375.159,1292.92 382.05,1288.2 388.942,1283.61 395.833,1279.15 402.724,1274.83 409.616,1270.64 416.507,1266.58 423.398,1262.66 430.29,1258.88 
  437.181,1255.22 444.072,1251.69 450.964,1248.29 457.855,1245.01 464.746,1241.86 471.637,1238.83 478.529,1235.91 485.42,1233.11 492.311,1230.42 499.203,1227.84 
  506.094,1225.37 512.985,1223 519.877,1220.72 526.768,1218.54 533.659,1216.46 540.55,1214.46 547.442,1212.55 554.333,1210.72 561.224,1208.98 568.116,1207.31 
  575.007,1205.71 581.898,1204.19 588.79,1202.74 595.681,1201.35 602.572,1200.02 609.463,1198.76 616.355,1197.55 623.246,1196.4 630.137,1195.3 637.029,1194.25 
  643.92,1193.26 650.811,1192.31 657.703,1191.4 664.594,1190.54 671.485,1189.71 678.376,1188.93 685.268,1188.18 692.159,1187.47 699.05,1186.8 705.942,1186.15 
  712.833,1185.54 719.724,1184.95 726.616,1184.4 733.507,1183.87 740.398,1183.37 747.289,1182.89 754.181,1182.43 761.072,1182 767.963,1181.59 774.855,1181.19 
  781.746,1180.82 788.637,1180.47 795.529,1180.13 802.42,1179.81 809.311,1179.5 816.202,1179.21 823.094,1178.94 829.985,1178.67 836.876,1178.42 843.768,1178.19 
  850.659,1177.96 857.55,1177.75 864.442,1177.54 871.333,1177.35 878.224,1177.17 885.115,1176.99 892.007,1176.82 898.898,1176.67 905.789,1176.52 912.681,1176.37 
  919.572,1176.24 926.463,1176.11 933.355,1175.99 940.246,1175.87 947.137,1175.76 954.028,1175.65 960.92,1175.55 967.811,1175.46 974.702,1175.37 981.594,1175.28 
  988.485,1175.2 995.376,1175.12 1002.27,1175.05 1009.16,1174.98 1016.05,1174.91 1022.94,1174.85 1029.83,1174.79 1036.72,1174.73 1043.62,1174.68 1050.51,1174.63 
  1057.4,1174.58 1064.29,1174.53 1071.18,1174.49 1078.07,1174.45 1084.96,1174.41 1091.85,1174.37 1098.75,1174.33 1105.64,1174.3 1112.53,1174.26 1119.42,1174.23 
  1126.31,1174.2 1133.2,1174.18 1140.09,1174.15 1146.98,1174.13 1153.88,1174.1 1160.77,1174.08 1167.66,1174.06 1174.55,1174.04 1181.44,1174.02 1188.33,1174 
  1195.22,1173.98 1202.12,1173.96 1209.01,1173.95 1215.9,1173.93 1222.79,1173.92 1229.68,1173.91 1236.57,1173.89 1243.46,1173.88 1250.35,1173.87 1257.25,1173.86 
  1264.14,1173.85 1271.03,1173.84 1277.92,1173.83 1284.81,1173.82 1291.7,1173.81 1298.59,1173.8 1305.48,1173.79 1312.38,1173.79 1319.27,1173.78 1326.16,1173.77 
  1333.05,1173.77 1339.94,1173.76 1346.83,1173.76 1353.72,1173.75 1360.62,1173.74 1367.51,1173.74 1374.4,1173.73 1381.29,1173.73 1388.18,1173.73 1395.07,1173.72 
  1401.96,1173.72 1408.85,1173.72 1415.75,1173.71 1422.64,1173.71 1429.53,1173.71 1436.42,1173.7 1443.31,1173.7 1450.2,1173.7 1457.09,1173.69 1463.98,1173.69 
  1470.88,1173.69 1477.77,1173.69 1484.66,1173.69 1491.55,1173.68 1498.44,1173.68 1505.33,1173.68 1512.22,1173.68 1519.12,1173.68 1526.01,1173.68 1532.9,1173.67 
  1539.79,1173.67 1546.68,1173.67 1553.57,1173.67 1560.46,1173.67 1567.35,1173.67 1574.25,1173.67 1581.14,1173.67 1588.03,1173.66 1594.92,1173.66 1601.81,1173.66 
  1608.7,1173.66 1615.59,1173.66 1622.48,1173.66 1629.38,1173.66 1636.27,1173.66 1643.16,1173.66 1650.05,1173.66 1656.94,1173.66 1663.83,1173.66 1670.72,1173.66 
  1677.62,1173.66 1684.51,1173.66 1691.4,1173.66 1698.29,1173.65 1705.18,1173.65 1712.07,1173.65 1718.96,1173.65 1725.85,1173.65 1732.75,1173.65 1739.64,1173.65 
  1746.53,1173.65 1753.42,1173.65 1760.31,1173.65 1767.2,1173.65 1774.09,1173.65 1780.98,1173.65 1787.88,1173.65 1794.77,1173.65 1801.66,1173.65 1808.55,1173.65 
  1815.44,1173.65 1822.33,1173.65 1829.22,1173.65 1836.12,1173.65 1843.01,1173.65 1849.9,1173.65 1856.79,1173.65 1863.68,1173.65 1870.57,1173.65 1877.46,1173.65 
  1884.35,1173.65 1891.25,1173.65 1898.14,1173.65 1905.03,1173.65 1911.92,1173.65 1918.81,1173.65 1925.7,1173.65 1932.59,1173.65 1939.48,1173.65 1946.38,1173.65 
  1953.27,1173.65 1960.16,1173.65 1967.05,1173.65 1973.94,1173.65 1980.83,1173.65 1987.72,1173.65 1994.61,1173.65 2001.51,1173.65 2008.4,1173.65 2015.29,1173.65 
  2022.18,1173.65 2029.07,1173.65 2035.96,1173.65 2042.85,1173.65 2049.75,1173.65 2056.64,1173.65 2063.53,1173.65 2070.42,1173.65 2077.31,1173.65 2084.2,1173.65 
  2091.09,1173.65 2097.98,1173.65 2104.88,1173.65 2111.77,1173.65 2118.66,1173.65 2125.55,1173.65 2132.44,1173.65 2139.33,1173.65 2146.22,1173.65 2153.11,1173.65 
  2160.01,1173.65 2166.9,1173.65 2173.79,1173.65 2180.68,1173.65 2187.57,1173.65 2194.46,1173.65 2201.35,1173.65 2208.25,1173.65 2215.14,1173.65 2222.03,1173.65 
  2228.92,1173.65 2235.81,1173.65 2242.7,1173.65 2249.59,1173.65 2256.48,1173.65 2263.38,1173.65 2270.27,1173.65 2277.16,1173.65 2284.05,1173.65 2290.94,1173.65 
  
  "/>
<polyline clip-path="url(#clip6303)" style="stroke:#e26f46; stroke-width:4; stroke-opacity:1; fill:none" points="
  230.442,1332.12 237.333,1326.53 244.224,1321.04 251.116,1315.65 258.007,1310.38 264.898,1305.22 271.79,1300.18 278.681,1295.26 285.572,1290.48 292.464,1285.83 
  299.355,1281.3 306.246,1276.91 313.137,1272.66 320.029,1268.54 326.92,1264.56 333.811,1260.7 340.703,1256.98 347.594,1253.39 354.485,1249.93 361.377,1246.59 
  368.268,1243.38 375.159,1240.29 382.05,1237.32 388.942,1234.46 395.833,1231.72 402.724,1229.09 409.616,1226.56 416.507,1224.14 423.398,1221.82 430.29,1219.59 
  437.181,1217.46 444.072,1215.42 450.964,1213.47 457.855,1211.6 464.746,1209.82 471.637,1208.11 478.529,1206.48 485.42,1204.92 492.311,1203.44 499.203,1202.01 
  506.094,1200.66 512.985,1199.36 519.877,1198.13 526.768,1196.95 533.659,1195.83 540.55,1194.76 547.442,1193.74 554.333,1192.76 561.224,1191.83 568.116,1190.95 
  575.007,1190.11 581.898,1189.31 588.79,1188.54 595.681,1187.81 602.572,1187.12 609.463,1186.46 616.355,1185.83 623.246,1185.23 630.137,1184.67 637.029,1184.12 
  643.92,1183.61 650.811,1183.12 657.703,1182.65 664.594,1182.21 671.485,1181.78 678.376,1181.38 685.268,1181 692.159,1180.64 699.05,1180.29 705.942,1179.96 
  712.833,1179.65 719.724,1179.35 726.616,1179.07 733.507,1178.8 740.398,1178.54 747.289,1178.3 754.181,1178.07 761.072,1177.85 767.963,1177.64 774.855,1177.44 
  781.746,1177.25 788.637,1177.08 795.529,1176.9 802.42,1176.74 809.311,1176.59 816.202,1176.44 823.094,1176.3 829.985,1176.17 836.876,1176.04 843.768,1175.93 
  850.659,1175.81 857.55,1175.7 864.442,1175.6 871.333,1175.5 878.224,1175.41 885.115,1175.32 892.007,1175.24 898.898,1175.16 905.789,1175.08 912.681,1175.01 
  919.572,1174.94 926.463,1174.88 933.355,1174.82 940.246,1174.76 947.137,1174.7 954.028,1174.65 960.92,1174.6 967.811,1174.55 974.702,1174.51 981.594,1174.47 
  988.485,1174.42 995.376,1174.39 1002.27,1174.35 1009.16,1174.31 1016.05,1174.28 1022.94,1174.25 1029.83,1174.22 1036.72,1174.19 1043.62,1174.16 1050.51,1174.14 
  1057.4,1174.11 1064.29,1174.09 1071.18,1174.07 1078.07,1174.05 1084.96,1174.03 1091.85,1174.01 1098.75,1173.99 1105.64,1173.97 1112.53,1173.96 1119.42,1173.94 
  1126.31,1173.93 1133.2,1173.91 1140.09,1173.9 1146.98,1173.89 1153.88,1173.87 1160.77,1173.86 1167.66,1173.85 1174.55,1173.84 1181.44,1173.83 1188.33,1173.82 
  1195.22,1173.81 1202.12,1173.81 1209.01,1173.8 1215.9,1173.79 1222.79,1173.78 1229.68,1173.78 1236.57,1173.77 1243.46,1173.76 1250.35,1173.76 1257.25,1173.75 
  1264.14,1173.75 1271.03,1173.74 1277.92,1173.74 1284.81,1173.73 1291.7,1173.73 1298.59,1173.72 1305.48,1173.72 1312.38,1173.72 1319.27,1173.71 1326.16,1173.71 
  1333.05,1173.71 1339.94,1173.7 1346.83,1173.7 1353.72,1173.7 1360.62,1173.7 1367.51,1173.69 1374.4,1173.69 1381.29,1173.69 1388.18,1173.69 1395.07,1173.68 
  1401.96,1173.68 1408.85,1173.68 1415.75,1173.68 1422.64,1173.68 1429.53,1173.68 1436.42,1173.67 1443.31,1173.67 1450.2,1173.67 1457.09,1173.67 1463.98,1173.67 
  1470.88,1173.67 1477.77,1173.67 1484.66,1173.67 1491.55,1173.67 1498.44,1173.66 1505.33,1173.66 1512.22,1173.66 1519.12,1173.66 1526.01,1173.66 1532.9,1173.66 
  1539.79,1173.66 1546.68,1173.66 1553.57,1173.66 1560.46,1173.66 1567.35,1173.66 1574.25,1173.66 1581.14,1173.66 1588.03,1173.66 1594.92,1173.66 1601.81,1173.65 
  1608.7,1173.65 1615.59,1173.65 1622.48,1173.65 1629.38,1173.65 1636.27,1173.65 1643.16,1173.65 1650.05,1173.65 1656.94,1173.65 1663.83,1173.65 1670.72,1173.65 
  1677.62,1173.65 1684.51,1173.65 1691.4,1173.65 1698.29,1173.65 1705.18,1173.65 1712.07,1173.65 1718.96,1173.65 1725.85,1173.65 1732.75,1173.65 1739.64,1173.65 
  1746.53,1173.65 1753.42,1173.65 1760.31,1173.65 1767.2,1173.65 1774.09,1173.65 1780.98,1173.65 1787.88,1173.65 1794.77,1173.65 1801.66,1173.65 1808.55,1173.65 
  1815.44,1173.65 1822.33,1173.65 1829.22,1173.65 1836.12,1173.65 1843.01,1173.65 1849.9,1173.65 1856.79,1173.65 1863.68,1173.65 1870.57,1173.65 1877.46,1173.65 
  1884.35,1173.65 1891.25,1173.65 1898.14,1173.65 1905.03,1173.65 1911.92,1173.65 1918.81,1173.65 1925.7,1173.65 1932.59,1173.65 1939.48,1173.65 1946.38,1173.65 
  1953.27,1173.65 1960.16,1173.65 1967.05,1173.65 1973.94,1173.65 1980.83,1173.65 1987.72,1173.65 1994.61,1173.65 2001.51,1173.65 2008.4,1173.65 2015.29,1173.65 
  2022.18,1173.65 2029.07,1173.65 2035.96,1173.65 2042.85,1173.65 2049.75,1173.65 2056.64,1173.65 2063.53,1173.65 2070.42,1173.65 2077.31,1173.65 2084.2,1173.65 
  2091.09,1173.65 2097.98,1173.65 2104.88,1173.65 2111.77,1173.65 2118.66,1173.65 2125.55,1173.65 2132.44,1173.65 2139.33,1173.65 2146.22,1173.65 2153.11,1173.65 
  2160.01,1173.65 2166.9,1173.65 2173.79,1173.65 2180.68,1173.65 2187.57,1173.65 2194.46,1173.65 2201.35,1173.65 2208.25,1173.65 2215.14,1173.65 2222.03,1173.65 
  2228.92,1173.65 2235.81,1173.65 2242.7,1173.65 2249.59,1173.65 2256.48,1173.65 2263.38,1173.65 2270.27,1173.65 2277.16,1173.65 2284.05,1173.65 2290.94,1173.65 
  
  "/>
<polyline clip-path="url(#clip6303)" style="stroke:#3da44d; stroke-width:4; stroke-opacity:1; fill:none" points="
  230.442,1252.88 237.333,1249.44 244.224,1246.12 251.116,1242.93 258.007,1239.85 264.898,1236.9 271.79,1234.06 278.681,1231.33 285.572,1228.72 292.464,1226.2 
  299.355,1223.8 306.246,1221.49 313.137,1219.28 320.029,1217.16 326.92,1215.13 333.811,1213.2 340.703,1211.34 347.594,1209.57 354.485,1207.87 361.377,1206.25 
  368.268,1204.7 375.159,1203.23 382.05,1201.82 388.942,1200.47 395.833,1199.18 402.724,1197.96 409.616,1196.79 416.507,1195.67 423.398,1194.61 430.29,1193.59 
  437.181,1192.63 444.072,1191.7 450.964,1190.83 457.855,1189.99 464.746,1189.19 471.637,1188.43 478.529,1187.71 485.42,1187.02 492.311,1186.37 499.203,1185.74 
  506.094,1185.15 512.985,1184.59 519.877,1184.05 526.768,1183.54 533.659,1183.05 540.55,1182.59 547.442,1182.14 554.333,1181.73 561.224,1181.33 568.116,1180.95 
  575.007,1180.59 581.898,1180.24 588.79,1179.92 595.681,1179.61 602.572,1179.31 609.463,1179.03 616.355,1178.76 623.246,1178.51 630.137,1178.27 637.029,1178.04 
  643.92,1177.82 650.811,1177.61 657.703,1177.42 664.594,1177.23 671.485,1177.05 678.376,1176.88 685.268,1176.72 692.159,1176.57 699.05,1176.42 705.942,1176.28 
  712.833,1176.15 719.724,1176.03 726.616,1175.91 733.507,1175.8 740.398,1175.69 747.289,1175.59 754.181,1175.49 761.072,1175.4 767.963,1175.31 774.855,1175.23 
  781.746,1175.15 788.637,1175.07 795.529,1175 802.42,1174.94 809.311,1174.87 816.202,1174.81 823.094,1174.75 829.985,1174.7 836.876,1174.64 843.768,1174.59 
  850.659,1174.55 857.55,1174.5 864.442,1174.46 871.333,1174.42 878.224,1174.38 885.115,1174.34 892.007,1174.31 898.898,1174.28 905.789,1174.24 912.681,1174.21 
  919.572,1174.19 926.463,1174.16 933.355,1174.13 940.246,1174.11 947.137,1174.09 954.028,1174.06 960.92,1174.04 967.811,1174.02 974.702,1174 981.594,1173.99 
  988.485,1173.97 995.376,1173.95 1002.27,1173.94 1009.16,1173.92 1016.05,1173.91 1022.94,1173.9 1029.83,1173.88 1036.72,1173.87 1043.62,1173.86 1050.51,1173.85 
  1057.4,1173.84 1064.29,1173.83 1071.18,1173.82 1078.07,1173.81 1084.96,1173.8 1091.85,1173.8 1098.75,1173.79 1105.64,1173.78 1112.53,1173.78 1119.42,1173.77 
  1126.31,1173.76 1133.2,1173.76 1140.09,1173.75 1146.98,1173.75 1153.88,1173.74 1160.77,1173.74 1167.66,1173.73 1174.55,1173.73 1181.44,1173.72 1188.33,1173.72 
  1195.22,1173.72 1202.12,1173.71 1209.01,1173.71 1215.9,1173.71 1222.79,1173.7 1229.68,1173.7 1236.57,1173.7 1243.46,1173.7 1250.35,1173.69 1257.25,1173.69 
  1264.14,1173.69 1271.03,1173.69 1277.92,1173.68 1284.81,1173.68 1291.7,1173.68 1298.59,1173.68 1305.48,1173.68 1312.38,1173.68 1319.27,1173.67 1326.16,1173.67 
  1333.05,1173.67 1339.94,1173.67 1346.83,1173.67 1353.72,1173.67 1360.62,1173.67 1367.51,1173.67 1374.4,1173.67 1381.29,1173.66 1388.18,1173.66 1395.07,1173.66 
  1401.96,1173.66 1408.85,1173.66 1415.75,1173.66 1422.64,1173.66 1429.53,1173.66 1436.42,1173.66 1443.31,1173.66 1450.2,1173.66 1457.09,1173.66 1463.98,1173.66 
  1470.88,1173.66 1477.77,1173.66 1484.66,1173.65 1491.55,1173.65 1498.44,1173.65 1505.33,1173.65 1512.22,1173.65 1519.12,1173.65 1526.01,1173.65 1532.9,1173.65 
  1539.79,1173.65 1546.68,1173.65 1553.57,1173.65 1560.46,1173.65 1567.35,1173.65 1574.25,1173.65 1581.14,1173.65 1588.03,1173.65 1594.92,1173.65 1601.81,1173.65 
  1608.7,1173.65 1615.59,1173.65 1622.48,1173.65 1629.38,1173.65 1636.27,1173.65 1643.16,1173.65 1650.05,1173.65 1656.94,1173.65 1663.83,1173.65 1670.72,1173.65 
  1677.62,1173.65 1684.51,1173.65 1691.4,1173.65 1698.29,1173.65 1705.18,1173.65 1712.07,1173.65 1718.96,1173.65 1725.85,1173.65 1732.75,1173.65 1739.64,1173.65 
  1746.53,1173.65 1753.42,1173.65 1760.31,1173.65 1767.2,1173.65 1774.09,1173.65 1780.98,1173.65 1787.88,1173.65 1794.77,1173.65 1801.66,1173.65 1808.55,1173.65 
  1815.44,1173.65 1822.33,1173.65 1829.22,1173.65 1836.12,1173.65 1843.01,1173.65 1849.9,1173.65 1856.79,1173.65 1863.68,1173.65 1870.57,1173.65 1877.46,1173.65 
  1884.35,1173.65 1891.25,1173.65 1898.14,1173.65 1905.03,1173.65 1911.92,1173.65 1918.81,1173.65 1925.7,1173.65 1932.59,1173.65 1939.48,1173.65 1946.38,1173.65 
  1953.27,1173.65 1960.16,1173.65 1967.05,1173.65 1973.94,1173.65 1980.83,1173.65 1987.72,1173.65 1994.61,1173.65 2001.51,1173.65 2008.4,1173.65 2015.29,1173.65 
  2022.18,1173.65 2029.07,1173.65 2035.96,1173.65 2042.85,1173.65 2049.75,1173.65 2056.64,1173.65 2063.53,1173.65 2070.42,1173.65 2077.31,1173.65 2084.2,1173.65 
  2091.09,1173.65 2097.98,1173.65 2104.88,1173.65 2111.77,1173.65 2118.66,1173.65 2125.55,1173.65 2132.44,1173.65 2139.33,1173.65 2146.22,1173.65 2153.11,1173.65 
  2160.01,1173.65 2166.9,1173.65 2173.79,1173.65 2180.68,1173.65 2187.57,1173.65 2194.46,1173.65 2201.35,1173.65 2208.25,1173.65 2215.14,1173.65 2222.03,1173.65 
  2228.92,1173.65 2235.81,1173.65 2242.7,1173.65 2249.59,1173.65 2256.48,1173.65 2263.38,1173.65 2270.27,1173.65 2277.16,1173.65 2284.05,1173.65 2290.94,1173.65 
  
  "/>
<polyline clip-path="url(#clip6303)" style="stroke:#c271d2; stroke-width:4; stroke-opacity:1; fill:none" points="
  230.442,1094.41 237.333,1098.81 244.224,1102.94 251.116,1106.82 258.007,1110.47 264.898,1113.91 271.79,1117.15 278.681,1120.2 285.572,1123.08 292.464,1125.79 
  299.355,1128.34 306.246,1130.75 313.137,1133.03 320.029,1135.18 326.92,1137.21 333.811,1139.13 340.703,1140.94 347.594,1142.65 354.485,1144.27 361.377,1145.8 
  368.268,1147.25 375.159,1148.62 382.05,1149.92 388.942,1151.15 395.833,1152.31 402.724,1153.41 409.616,1154.45 416.507,1155.44 423.398,1156.37 430.29,1157.26 
  437.181,1158.1 444.072,1158.89 450.964,1159.65 457.855,1160.36 464.746,1161.04 471.637,1161.68 478.529,1162.29 485.42,1162.87 492.311,1163.41 499.203,1163.93 
  506.094,1164.43 512.985,1164.89 519.877,1165.34 526.768,1165.76 533.659,1166.16 540.55,1166.54 547.442,1166.89 554.333,1167.24 561.224,1167.56 568.116,1167.87 
  575.007,1168.16 581.898,1168.43 588.79,1168.7 595.681,1168.95 602.572,1169.18 609.463,1169.41 616.355,1169.62 623.246,1169.82 630.137,1170.02 637.029,1170.2 
  643.92,1170.37 650.811,1170.54 657.703,1170.69 664.594,1170.84 671.485,1170.98 678.376,1171.12 685.268,1171.24 692.159,1171.36 699.05,1171.48 705.942,1171.59 
  712.833,1171.69 719.724,1171.79 726.616,1171.88 733.507,1171.97 740.398,1172.05 747.289,1172.13 754.181,1172.21 761.072,1172.28 767.963,1172.35 774.855,1172.41 
  781.746,1172.48 788.637,1172.54 795.529,1172.59 802.42,1172.64 809.311,1172.69 816.202,1172.74 823.094,1172.79 829.985,1172.83 836.876,1172.87 843.768,1172.91 
  850.659,1172.95 857.55,1172.98 864.442,1173.02 871.333,1173.05 878.224,1173.08 885.115,1173.11 892.007,1173.13 898.898,1173.16 905.789,1173.18 912.681,1173.21 
  919.572,1173.23 926.463,1173.25 933.355,1173.27 940.246,1173.29 947.137,1173.31 954.028,1173.32 960.92,1173.34 967.811,1173.35 974.702,1173.37 981.594,1173.38 
  988.485,1173.4 995.376,1173.41 1002.27,1173.42 1009.16,1173.43 1016.05,1173.44 1022.94,1173.45 1029.83,1173.46 1036.72,1173.47 1043.62,1173.48 1050.51,1173.49 
  1057.4,1173.5 1064.29,1173.5 1071.18,1173.51 1078.07,1173.52 1084.96,1173.52 1091.85,1173.53 1098.75,1173.54 1105.64,1173.54 1112.53,1173.55 1119.42,1173.55 
  1126.31,1173.56 1133.2,1173.56 1140.09,1173.57 1146.98,1173.57 1153.88,1173.57 1160.77,1173.58 1167.66,1173.58 1174.55,1173.58 1181.44,1173.59 1188.33,1173.59 
  1195.22,1173.59 1202.12,1173.6 1209.01,1173.6 1215.9,1173.6 1222.79,1173.6 1229.68,1173.61 1236.57,1173.61 1243.46,1173.61 1250.35,1173.61 1257.25,1173.61 
  1264.14,1173.61 1271.03,1173.62 1277.92,1173.62 1284.81,1173.62 1291.7,1173.62 1298.59,1173.62 1305.48,1173.62 1312.38,1173.62 1319.27,1173.63 1326.16,1173.63 
  1333.05,1173.63 1339.94,1173.63 1346.83,1173.63 1353.72,1173.63 1360.62,1173.63 1367.51,1173.63 1374.4,1173.63 1381.29,1173.63 1388.18,1173.63 1395.07,1173.63 
  1401.96,1173.64 1408.85,1173.64 1415.75,1173.64 1422.64,1173.64 1429.53,1173.64 1436.42,1173.64 1443.31,1173.64 1450.2,1173.64 1457.09,1173.64 1463.98,1173.64 
  1470.88,1173.64 1477.77,1173.64 1484.66,1173.64 1491.55,1173.64 1498.44,1173.64 1505.33,1173.64 1512.22,1173.64 1519.12,1173.64 1526.01,1173.64 1532.9,1173.64 
  1539.79,1173.64 1546.68,1173.64 1553.57,1173.64 1560.46,1173.64 1567.35,1173.64 1574.25,1173.64 1581.14,1173.64 1588.03,1173.64 1594.92,1173.64 1601.81,1173.64 
  1608.7,1173.64 1615.59,1173.64 1622.48,1173.64 1629.38,1173.64 1636.27,1173.64 1643.16,1173.64 1650.05,1173.65 1656.94,1173.65 1663.83,1173.65 1670.72,1173.65 
  1677.62,1173.65 1684.51,1173.65 1691.4,1173.65 1698.29,1173.65 1705.18,1173.65 1712.07,1173.65 1718.96,1173.65 1725.85,1173.65 1732.75,1173.65 1739.64,1173.65 
  1746.53,1173.65 1753.42,1173.65 1760.31,1173.65 1767.2,1173.65 1774.09,1173.65 1780.98,1173.65 1787.88,1173.65 1794.77,1173.65 1801.66,1173.65 1808.55,1173.65 
  1815.44,1173.65 1822.33,1173.65 1829.22,1173.65 1836.12,1173.65 1843.01,1173.65 1849.9,1173.65 1856.79,1173.65 1863.68,1173.65 1870.57,1173.65 1877.46,1173.65 
  1884.35,1173.65 1891.25,1173.65 1898.14,1173.65 1905.03,1173.65 1911.92,1173.65 1918.81,1173.65 1925.7,1173.65 1932.59,1173.65 1939.48,1173.65 1946.38,1173.65 
  1953.27,1173.65 1960.16,1173.65 1967.05,1173.65 1973.94,1173.65 1980.83,1173.65 1987.72,1173.65 1994.61,1173.65 2001.51,1173.65 2008.4,1173.65 2015.29,1173.65 
  2022.18,1173.65 2029.07,1173.65 2035.96,1173.65 2042.85,1173.65 2049.75,1173.65 2056.64,1173.65 2063.53,1173.65 2070.42,1173.65 2077.31,1173.65 2084.2,1173.65 
  2091.09,1173.65 2097.98,1173.65 2104.88,1173.65 2111.77,1173.65 2118.66,1173.65 2125.55,1173.65 2132.44,1173.65 2139.33,1173.65 2146.22,1173.65 2153.11,1173.65 
  2160.01,1173.65 2166.9,1173.65 2173.79,1173.65 2180.68,1173.65 2187.57,1173.65 2194.46,1173.65 2201.35,1173.65 2208.25,1173.65 2215.14,1173.65 2222.03,1173.65 
  2228.92,1173.65 2235.81,1173.65 2242.7,1173.65 2249.59,1173.65 2256.48,1173.65 2263.38,1173.65 2270.27,1173.65 2277.16,1173.65 2284.05,1173.65 2290.94,1173.65 
  
  "/>
<polyline clip-path="url(#clip6303)" style="stroke:#ac8d18; stroke-width:4; stroke-opacity:1; fill:none" points="
  230.442,1015.17 237.333,1024.72 244.224,1033.6 251.116,1041.89 258.007,1049.62 264.898,1056.84 271.79,1063.59 278.681,1069.91 285.572,1075.82 292.464,1081.36 
  299.355,1086.56 306.246,1091.43 313.137,1096.01 320.029,1100.31 326.92,1104.35 333.811,1108.15 340.703,1111.73 347.594,1115.09 354.485,1118.26 361.377,1121.25 
  368.268,1124.06 375.159,1126.72 382.05,1129.22 388.942,1131.58 395.833,1133.81 402.724,1135.92 409.616,1137.91 416.507,1139.79 423.398,1141.56 430.29,1143.24 
  437.181,1144.83 444.072,1146.33 450.964,1147.75 457.855,1149.09 464.746,1150.36 471.637,1151.57 478.529,1152.71 485.42,1153.79 492.311,1154.81 499.203,1155.78 
  506.094,1156.69 512.985,1157.56 519.877,1158.39 526.768,1159.17 533.659,1159.91 540.55,1160.61 547.442,1161.27 554.333,1161.9 561.224,1162.5 568.116,1163.07 
  575.007,1163.6 581.898,1164.11 588.79,1164.6 595.681,1165.05 602.572,1165.49 609.463,1165.9 616.355,1166.29 623.246,1166.67 630.137,1167.02 637.029,1167.35 
  643.92,1167.67 650.811,1167.97 657.703,1168.26 664.594,1168.53 671.485,1168.79 678.376,1169.03 685.268,1169.26 692.159,1169.49 699.05,1169.69 705.942,1169.89 
  712.833,1170.08 719.724,1170.26 726.616,1170.43 733.507,1170.59 740.398,1170.75 747.289,1170.89 754.181,1171.03 761.072,1171.16 767.963,1171.29 774.855,1171.4 
  781.746,1171.52 788.637,1171.62 795.529,1171.73 802.42,1171.82 809.311,1171.91 816.202,1172 823.094,1172.08 829.985,1172.16 836.876,1172.24 843.768,1172.31 
  850.659,1172.37 857.55,1172.44 864.442,1172.5 871.333,1172.56 878.224,1172.61 885.115,1172.66 892.007,1172.71 898.898,1172.76 905.789,1172.8 912.681,1172.84 
  919.572,1172.89 926.463,1172.92 933.355,1172.96 940.246,1172.99 947.137,1173.03 954.028,1173.06 960.92,1173.09 967.811,1173.12 974.702,1173.14 981.594,1173.17 
  988.485,1173.19 995.376,1173.21 1002.27,1173.24 1009.16,1173.26 1016.05,1173.28 1022.94,1173.29 1029.83,1173.31 1036.72,1173.33 1043.62,1173.34 1050.51,1173.36 
  1057.4,1173.37 1064.29,1173.39 1071.18,1173.4 1078.07,1173.41 1084.96,1173.42 1091.85,1173.44 1098.75,1173.45 1105.64,1173.46 1112.53,1173.47 1119.42,1173.47 
  1126.31,1173.48 1133.2,1173.49 1140.09,1173.5 1146.98,1173.51 1153.88,1173.51 1160.77,1173.52 1167.66,1173.53 1174.55,1173.53 1181.44,1173.54 1188.33,1173.54 
  1195.22,1173.55 1202.12,1173.55 1209.01,1173.56 1215.9,1173.56 1222.79,1173.57 1229.68,1173.57 1236.57,1173.57 1243.46,1173.58 1250.35,1173.58 1257.25,1173.59 
  1264.14,1173.59 1271.03,1173.59 1277.92,1173.59 1284.81,1173.6 1291.7,1173.6 1298.59,1173.6 1305.48,1173.6 1312.38,1173.61 1319.27,1173.61 1326.16,1173.61 
  1333.05,1173.61 1339.94,1173.61 1346.83,1173.62 1353.72,1173.62 1360.62,1173.62 1367.51,1173.62 1374.4,1173.62 1381.29,1173.62 1388.18,1173.62 1395.07,1173.62 
  1401.96,1173.63 1408.85,1173.63 1415.75,1173.63 1422.64,1173.63 1429.53,1173.63 1436.42,1173.63 1443.31,1173.63 1450.2,1173.63 1457.09,1173.63 1463.98,1173.63 
  1470.88,1173.63 1477.77,1173.63 1484.66,1173.64 1491.55,1173.64 1498.44,1173.64 1505.33,1173.64 1512.22,1173.64 1519.12,1173.64 1526.01,1173.64 1532.9,1173.64 
  1539.79,1173.64 1546.68,1173.64 1553.57,1173.64 1560.46,1173.64 1567.35,1173.64 1574.25,1173.64 1581.14,1173.64 1588.03,1173.64 1594.92,1173.64 1601.81,1173.64 
  1608.7,1173.64 1615.59,1173.64 1622.48,1173.64 1629.38,1173.64 1636.27,1173.64 1643.16,1173.64 1650.05,1173.64 1656.94,1173.64 1663.83,1173.64 1670.72,1173.64 
  1677.62,1173.64 1684.51,1173.64 1691.4,1173.64 1698.29,1173.64 1705.18,1173.64 1712.07,1173.64 1718.96,1173.64 1725.85,1173.64 1732.75,1173.65 1739.64,1173.65 
  1746.53,1173.65 1753.42,1173.65 1760.31,1173.65 1767.2,1173.65 1774.09,1173.65 1780.98,1173.65 1787.88,1173.65 1794.77,1173.65 1801.66,1173.65 1808.55,1173.65 
  1815.44,1173.65 1822.33,1173.65 1829.22,1173.65 1836.12,1173.65 1843.01,1173.65 1849.9,1173.65 1856.79,1173.65 1863.68,1173.65 1870.57,1173.65 1877.46,1173.65 
  1884.35,1173.65 1891.25,1173.65 1898.14,1173.65 1905.03,1173.65 1911.92,1173.65 1918.81,1173.65 1925.7,1173.65 1932.59,1173.65 1939.48,1173.65 1946.38,1173.65 
  1953.27,1173.65 1960.16,1173.65 1967.05,1173.65 1973.94,1173.65 1980.83,1173.65 1987.72,1173.65 1994.61,1173.65 2001.51,1173.65 2008.4,1173.65 2015.29,1173.65 
  2022.18,1173.65 2029.07,1173.65 2035.96,1173.65 2042.85,1173.65 2049.75,1173.65 2056.64,1173.65 2063.53,1173.65 2070.42,1173.65 2077.31,1173.65 2084.2,1173.65 
  2091.09,1173.65 2097.98,1173.65 2104.88,1173.65 2111.77,1173.65 2118.66,1173.65 2125.55,1173.65 2132.44,1173.65 2139.33,1173.65 2146.22,1173.65 2153.11,1173.65 
  2160.01,1173.65 2166.9,1173.65 2173.79,1173.65 2180.68,1173.65 2187.57,1173.65 2194.46,1173.65 2201.35,1173.65 2208.25,1173.65 2215.14,1173.65 2222.03,1173.65 
  2228.92,1173.65 2235.81,1173.65 2242.7,1173.65 2249.59,1173.65 2256.48,1173.65 2263.38,1173.65 2270.27,1173.65 2277.16,1173.65 2284.05,1173.65 2290.94,1173.65 
  
  "/>
<polyline clip-path="url(#clip6303)" style="stroke:#00a9ad; stroke-width:4; stroke-opacity:1; fill:none" points="
  230.442,935.938 237.333,951.242 244.224,965.39 251.116,978.487 258.007,990.626 264.898,1001.89 271.79,1012.36 278.681,1022.1 285.572,1031.16 292.464,1039.61 
  299.355,1047.49 306.246,1054.86 313.137,1061.74 320.029,1068.17 326.92,1074.19 333.811,1079.84 340.703,1085.13 347.594,1090.09 354.485,1094.75 361.377,1099.12 
  368.268,1103.24 375.159,1107.1 382.05,1110.74 388.942,1114.16 395.833,1117.39 402.724,1120.42 409.616,1123.28 416.507,1125.98 423.398,1128.53 430.29,1130.93 
  437.181,1133.2 444.072,1135.34 450.964,1137.36 457.855,1139.27 464.746,1141.07 471.637,1142.78 478.529,1144.39 485.42,1145.91 492.311,1147.36 499.203,1148.72 
  506.094,1150.01 512.985,1151.24 519.877,1152.39 526.768,1153.49 533.659,1154.53 540.55,1155.51 547.442,1156.44 554.333,1157.32 561.224,1158.16 568.116,1158.95 
  575.007,1159.7 581.898,1160.41 588.79,1161.09 595.681,1161.73 602.572,1162.33 609.463,1162.91 616.355,1163.45 623.246,1163.97 630.137,1164.46 637.029,1164.93 
  643.92,1165.37 650.811,1165.79 657.703,1166.19 664.594,1166.56 671.485,1166.92 678.376,1167.26 685.268,1167.58 692.159,1167.89 699.05,1168.18 705.942,1168.45 
  712.833,1168.72 719.724,1168.96 726.616,1169.2 733.507,1169.42 740.398,1169.64 747.289,1169.84 754.181,1170.03 761.072,1170.21 767.963,1170.38 774.855,1170.55 
  781.746,1170.7 788.637,1170.85 795.529,1170.99 802.42,1171.13 809.311,1171.25 816.202,1171.37 823.094,1171.49 829.985,1171.59 836.876,1171.7 843.768,1171.8 
  850.659,1171.89 857.55,1171.98 864.442,1172.06 871.333,1172.14 878.224,1172.22 885.115,1172.29 892.007,1172.35 898.898,1172.42 905.789,1172.48 912.681,1172.54 
  919.572,1172.6 926.463,1172.65 933.355,1172.7 940.246,1172.75 947.137,1172.79 954.028,1172.83 960.92,1172.87 967.811,1172.91 974.702,1172.95 981.594,1172.98 
  988.485,1173.02 995.376,1173.05 1002.27,1173.08 1009.16,1173.11 1016.05,1173.13 1022.94,1173.16 1029.83,1173.18 1036.72,1173.21 1043.62,1173.23 1050.51,1173.25 
  1057.4,1173.27 1064.29,1173.29 1071.18,1173.31 1078.07,1173.32 1084.96,1173.34 1091.85,1173.36 1098.75,1173.37 1105.64,1173.38 1112.53,1173.4 1119.42,1173.41 
  1126.31,1173.42 1133.2,1173.43 1140.09,1173.44 1146.98,1173.45 1153.88,1173.46 1160.77,1173.47 1167.66,1173.48 1174.55,1173.49 1181.44,1173.5 1188.33,1173.5 
  1195.22,1173.51 1202.12,1173.52 1209.01,1173.53 1215.9,1173.53 1222.79,1173.54 1229.68,1173.54 1236.57,1173.55 1243.46,1173.55 1250.35,1173.56 1257.25,1173.56 
  1264.14,1173.57 1271.03,1173.57 1277.92,1173.57 1284.81,1173.58 1291.7,1173.58 1298.59,1173.58 1305.48,1173.59 1312.38,1173.59 1319.27,1173.59 1326.16,1173.6 
  1333.05,1173.6 1339.94,1173.6 1346.83,1173.6 1353.72,1173.61 1360.62,1173.61 1367.51,1173.61 1374.4,1173.61 1381.29,1173.61 1388.18,1173.61 1395.07,1173.62 
  1401.96,1173.62 1408.85,1173.62 1415.75,1173.62 1422.64,1173.62 1429.53,1173.62 1436.42,1173.62 1443.31,1173.63 1450.2,1173.63 1457.09,1173.63 1463.98,1173.63 
  1470.88,1173.63 1477.77,1173.63 1484.66,1173.63 1491.55,1173.63 1498.44,1173.63 1505.33,1173.63 1512.22,1173.63 1519.12,1173.63 1526.01,1173.64 1532.9,1173.64 
  1539.79,1173.64 1546.68,1173.64 1553.57,1173.64 1560.46,1173.64 1567.35,1173.64 1574.25,1173.64 1581.14,1173.64 1588.03,1173.64 1594.92,1173.64 1601.81,1173.64 
  1608.7,1173.64 1615.59,1173.64 1622.48,1173.64 1629.38,1173.64 1636.27,1173.64 1643.16,1173.64 1650.05,1173.64 1656.94,1173.64 1663.83,1173.64 1670.72,1173.64 
  1677.62,1173.64 1684.51,1173.64 1691.4,1173.64 1698.29,1173.64 1705.18,1173.64 1712.07,1173.64 1718.96,1173.64 1725.85,1173.64 1732.75,1173.64 1739.64,1173.64 
  1746.53,1173.64 1753.42,1173.64 1760.31,1173.64 1767.2,1173.64 1774.09,1173.65 1780.98,1173.65 1787.88,1173.65 1794.77,1173.65 1801.66,1173.65 1808.55,1173.65 
  1815.44,1173.65 1822.33,1173.65 1829.22,1173.65 1836.12,1173.65 1843.01,1173.65 1849.9,1173.65 1856.79,1173.65 1863.68,1173.65 1870.57,1173.65 1877.46,1173.65 
  1884.35,1173.65 1891.25,1173.65 1898.14,1173.65 1905.03,1173.65 1911.92,1173.65 1918.81,1173.65 1925.7,1173.65 1932.59,1173.65 1939.48,1173.65 1946.38,1173.65 
  1953.27,1173.65 1960.16,1173.65 1967.05,1173.65 1973.94,1173.65 1980.83,1173.65 1987.72,1173.65 1994.61,1173.65 2001.51,1173.65 2008.4,1173.65 2015.29,1173.65 
  2022.18,1173.65 2029.07,1173.65 2035.96,1173.65 2042.85,1173.65 2049.75,1173.65 2056.64,1173.65 2063.53,1173.65 2070.42,1173.65 2077.31,1173.65 2084.2,1173.65 
  2091.09,1173.65 2097.98,1173.65 2104.88,1173.65 2111.77,1173.65 2118.66,1173.65 2125.55,1173.65 2132.44,1173.65 2139.33,1173.65 2146.22,1173.65 2153.11,1173.65 
  2160.01,1173.65 2166.9,1173.65 2173.79,1173.65 2180.68,1173.65 2187.57,1173.65 2194.46,1173.65 2201.35,1173.65 2208.25,1173.65 2215.14,1173.65 2222.03,1173.65 
  2228.92,1173.65 2235.81,1173.65 2242.7,1173.65 2249.59,1173.65 2256.48,1173.65 2263.38,1173.65 2270.27,1173.65 2277.16,1173.65 2284.05,1173.65 2290.94,1173.65 
  
  "/>
<path clip-path="url(#clip6300)" d="
M1556.58 1428.56 L2280.76 1428.56 L2280.76 1005.2 L1556.58 1005.2  Z
  " fill="#ffffff" fill-rule="evenodd" fill-opacity="1"/>
<polyline clip-path="url(#clip6300)" style="stroke:#000000; stroke-width:4; stroke-opacity:0; fill:none" points="
  1556.58,1428.56 2280.76,1428.56 2280.76,1005.2 1556.58,1005.2 1556.58,1428.56 
  "/>
<polyline clip-path="url(#clip6300)" style="stroke:#009af9; stroke-width:4; stroke-opacity:1; fill:none" points="
  1580.58,1065.68 1724.58,1065.68 
  "/>
<g clip-path="url(#clip6300)">
<text style="fill:#000000; fill-opacity:1; font-family:Arial,Helvetica Neue,Helvetica,sans-serif; font-size:48px; text-anchor:start;" transform="rotate(0, 1748.58, 1083.18)" x="1748.58" y="1083.18">z(t) z(1) = -75.0%</text>
</g>
<polyline clip-path="url(#clip6300)" style="stroke:#e26f46; stroke-width:4; stroke-opacity:1; fill:none" points="
  1580.58,1126.16 1724.58,1126.16 
  "/>
<g clip-path="url(#clip6300)">
<text style="fill:#000000; fill-opacity:1; font-family:Arial,Helvetica Neue,Helvetica,sans-serif; font-size:48px; text-anchor:start;" transform="rotate(0, 1748.58, 1143.66)" x="1748.58" y="1143.66">z(t) with z(1) = -50.0%</text>
</g>
<polyline clip-path="url(#clip6300)" style="stroke:#3da44d; stroke-width:4; stroke-opacity:1; fill:none" points="
  1580.58,1186.64 1724.58,1186.64 
  "/>
<g clip-path="url(#clip6300)">
<text style="fill:#000000; fill-opacity:1; font-family:Arial,Helvetica Neue,Helvetica,sans-serif; font-size:48px; text-anchor:start;" transform="rotate(0, 1748.58, 1204.14)" x="1748.58" y="1204.14">z(t) with z(1) = -25.0%</text>
</g>
<polyline clip-path="url(#clip6300)" style="stroke:#c271d2; stroke-width:4; stroke-opacity:1; fill:none" points="
  1580.58,1247.12 1724.58,1247.12 
  "/>
<g clip-path="url(#clip6300)">
<text style="fill:#000000; fill-opacity:1; font-family:Arial,Helvetica Neue,Helvetica,sans-serif; font-size:48px; text-anchor:start;" transform="rotate(0, 1748.58, 1264.62)" x="1748.58" y="1264.62">z(t) with z(1) = 25.0%</text>
</g>
<polyline clip-path="url(#clip6300)" style="stroke:#ac8d18; stroke-width:4; stroke-opacity:1; fill:none" points="
  1580.58,1307.6 1724.58,1307.6 
  "/>
<g clip-path="url(#clip6300)">
<text style="fill:#000000; fill-opacity:1; font-family:Arial,Helvetica Neue,Helvetica,sans-serif; font-size:48px; text-anchor:start;" transform="rotate(0, 1748.58, 1325.1)" x="1748.58" y="1325.1">z(t) with z(1) = 50.0%</text>
</g>
<polyline clip-path="url(#clip6300)" style="stroke:#00a9ad; stroke-width:4; stroke-opacity:1; fill:none" points="
  1580.58,1368.08 1724.58,1368.08 
  "/>
<g clip-path="url(#clip6300)">
<text style="fill:#000000; fill-opacity:1; font-family:Arial,Helvetica Neue,Helvetica,sans-serif; font-size:48px; text-anchor:start;" transform="rotate(0, 1748.58, 1385.58)" x="1748.58" y="1385.58">z(t) with z(1) = 75.0%</text>
</g>
</svg>
