<?xml version="1.0" encoding="utf-8"?>
<svg xmlns="http://www.w3.org/2000/svg" xmlns:xlink="http://www.w3.org/1999/xlink" width="600" height="400" viewBox="0 0 2400 1600">
<defs>
  <clipPath id="clip5500">
    <rect x="0" y="0" width="2400" height="1600"/>
  </clipPath>
</defs>
<path clip-path="url(#clip5500)" d="
M0 1600 L2400 1600 L2400 0 L0 0  Z
  " fill="#ffffff" fill-rule="evenodd" fill-opacity="1"/>
<defs>
  <clipPath id="clip5501">
    <rect x="480" y="0" width="1681" height="1600"/>
  </clipPath>
</defs>
<path clip-path="url(#clip5500)" d="
M140.517 1425.62 L2352.76 1425.62 L2352.76 121.675 L140.517 121.675  Z
  " fill="#ffffff" fill-rule="evenodd" fill-opacity="1"/>
<defs>
  <clipPath id="clip5502">
    <rect x="140" y="121" width="2213" height="1305"/>
  </clipPath>
</defs>
<polyline clip-path="url(#clip5502)" style="stroke:#000000; stroke-width:2; stroke-opacity:0.1; fill:none" points="
  196.147,1425.62 196.147,121.675 
  "/>
<polyline clip-path="url(#clip5502)" style="stroke:#000000; stroke-width:2; stroke-opacity:0.1; fill:none" points="
  894.147,1425.62 894.147,121.675 
  "/>
<polyline clip-path="url(#clip5502)" style="stroke:#000000; stroke-width:2; stroke-opacity:0.1; fill:none" points="
  1592.15,1425.62 1592.15,121.675 
  "/>
<polyline clip-path="url(#clip5502)" style="stroke:#000000; stroke-width:2; stroke-opacity:0.1; fill:none" points="
  2290.15,1425.62 2290.15,121.675 
  "/>
<polyline clip-path="url(#clip5502)" style="stroke:#000000; stroke-width:2; stroke-opacity:0.1; fill:none" points="
  140.517,1302.21 2352.76,1302.21 
  "/>
<polyline clip-path="url(#clip5502)" style="stroke:#000000; stroke-width:2; stroke-opacity:0.1; fill:none" points="
  140.517,1030.48 2352.76,1030.48 
  "/>
<polyline clip-path="url(#clip5502)" style="stroke:#000000; stroke-width:2; stroke-opacity:0.1; fill:none" points="
  140.517,758.751 2352.76,758.751 
  "/>
<polyline clip-path="url(#clip5502)" style="stroke:#000000; stroke-width:2; stroke-opacity:0.1; fill:none" points="
  140.517,487.019 2352.76,487.019 
  "/>
<polyline clip-path="url(#clip5502)" style="stroke:#000000; stroke-width:2; stroke-opacity:0.1; fill:none" points="
  140.517,215.288 2352.76,215.288 
  "/>
<polyline clip-path="url(#clip5500)" style="stroke:#000000; stroke-width:4; stroke-opacity:1; fill:none" points="
  140.517,1425.62 2352.76,1425.62 
  "/>
<polyline clip-path="url(#clip5500)" style="stroke:#000000; stroke-width:4; stroke-opacity:1; fill:none" points="
  140.517,1425.62 140.517,121.675 
  "/>
<polyline clip-path="url(#clip5500)" style="stroke:#000000; stroke-width:4; stroke-opacity:1; fill:none" points="
  196.147,1425.62 196.147,1409.97 
  "/>
<polyline clip-path="url(#clip5500)" style="stroke:#000000; stroke-width:4; stroke-opacity:1; fill:none" points="
  894.147,1425.62 894.147,1409.97 
  "/>
<polyline clip-path="url(#clip5500)" style="stroke:#000000; stroke-width:4; stroke-opacity:1; fill:none" points="
  1592.15,1425.62 1592.15,1409.97 
  "/>
<polyline clip-path="url(#clip5500)" style="stroke:#000000; stroke-width:4; stroke-opacity:1; fill:none" points="
  2290.15,1425.62 2290.15,1409.97 
  "/>
<polyline clip-path="url(#clip5500)" style="stroke:#000000; stroke-width:4; stroke-opacity:1; fill:none" points="
  140.517,1302.21 167.064,1302.21 
  "/>
<polyline clip-path="url(#clip5500)" style="stroke:#000000; stroke-width:4; stroke-opacity:1; fill:none" points="
  140.517,1030.48 167.064,1030.48 
  "/>
<polyline clip-path="url(#clip5500)" style="stroke:#000000; stroke-width:4; stroke-opacity:1; fill:none" points="
  140.517,758.751 167.064,758.751 
  "/>
<polyline clip-path="url(#clip5500)" style="stroke:#000000; stroke-width:4; stroke-opacity:1; fill:none" points="
  140.517,487.019 167.064,487.019 
  "/>
<polyline clip-path="url(#clip5500)" style="stroke:#000000; stroke-width:4; stroke-opacity:1; fill:none" points="
  140.517,215.288 167.064,215.288 
  "/>
<g clip-path="url(#clip5500)">
<text style="fill:#000000; fill-opacity:1; font-family:Arial,Helvetica Neue,Helvetica,sans-serif; font-size:48px; text-anchor:middle;" transform="rotate(0, 196.147, 1479.62)" x="196.147" y="1479.62">0</text>
</g>
<g clip-path="url(#clip5500)">
<text style="fill:#000000; fill-opacity:1; font-family:Arial,Helvetica Neue,Helvetica,sans-serif; font-size:48px; text-anchor:middle;" transform="rotate(0, 894.147, 1479.62)" x="894.147" y="1479.62">100</text>
</g>
<g clip-path="url(#clip5500)">
<text style="fill:#000000; fill-opacity:1; font-family:Arial,Helvetica Neue,Helvetica,sans-serif; font-size:48px; text-anchor:middle;" transform="rotate(0, 1592.15, 1479.62)" x="1592.15" y="1479.62">200</text>
</g>
<g clip-path="url(#clip5500)">
<text style="fill:#000000; fill-opacity:1; font-family:Arial,Helvetica Neue,Helvetica,sans-serif; font-size:48px; text-anchor:middle;" transform="rotate(0, 2290.15, 1479.62)" x="2290.15" y="1479.62">300</text>
</g>
<g clip-path="url(#clip5500)">
<text style="fill:#000000; fill-opacity:1; font-family:Arial,Helvetica Neue,Helvetica,sans-serif; font-size:48px; text-anchor:end;" transform="rotate(0, 116.517, 1319.71)" x="116.517" y="1319.71">50</text>
</g>
<g clip-path="url(#clip5500)">
<text style="fill:#000000; fill-opacity:1; font-family:Arial,Helvetica Neue,Helvetica,sans-serif; font-size:48px; text-anchor:end;" transform="rotate(0, 116.517, 1047.98)" x="116.517" y="1047.98">60</text>
</g>
<g clip-path="url(#clip5500)">
<text style="fill:#000000; fill-opacity:1; font-family:Arial,Helvetica Neue,Helvetica,sans-serif; font-size:48px; text-anchor:end;" transform="rotate(0, 116.517, 776.251)" x="116.517" y="776.251">70</text>
</g>
<g clip-path="url(#clip5500)">
<text style="fill:#000000; fill-opacity:1; font-family:Arial,Helvetica Neue,Helvetica,sans-serif; font-size:48px; text-anchor:end;" transform="rotate(0, 116.517, 504.519)" x="116.517" y="504.519">80</text>
</g>
<g clip-path="url(#clip5500)">
<text style="fill:#000000; fill-opacity:1; font-family:Arial,Helvetica Neue,Helvetica,sans-serif; font-size:48px; text-anchor:end;" transform="rotate(0, 116.517, 232.788)" x="116.517" y="232.788">90</text>
</g>
<g clip-path="url(#clip5500)">
<text style="fill:#000000; fill-opacity:1; font-family:Arial,Helvetica Neue,Helvetica,sans-serif; font-size:84px; text-anchor:middle;" transform="rotate(0, 1246.64, 73.2)" x="1246.64" y="73.2">IRF Aiyagari versus RBC</text>
</g>
<g clip-path="url(#clip5500)">
<text style="fill:#000000; fill-opacity:1; font-family:Arial,Helvetica Neue,Helvetica,sans-serif; font-size:66px; text-anchor:middle;" transform="rotate(0, 1246.64, 1559.48)" x="1246.64" y="1559.48">t</text>
</g>
<polyline clip-path="url(#clip5502)" style="stroke:#009af9; stroke-width:4; stroke-opacity:1; fill:none" points="
  203.127,1388.71 210.107,1288.67 217.087,1192.65 224.067,1101.04 231.047,1014.08 238.027,931.935 245.007,854.707 251.987,782.404 258.967,714.988 265.947,652.374 
  272.927,594.447 279.907,541.065 286.887,492.067 293.867,447.277 300.847,406.514 307.827,369.616 314.807,336.391 321.787,306.651 328.767,280.208 335.747,256.881 
  342.727,236.489 349.707,218.861 356.687,203.828 363.667,191.229 370.647,180.911 377.627,172.725 384.607,166.53 391.587,162.191 398.567,159.581 405.547,158.579 
  412.527,159.07 419.507,160.943 426.487,164.097 433.467,168.434 440.447,173.861 447.427,180.292 454.407,187.645 461.387,195.842 468.367,204.811 475.347,214.483 
  482.327,224.794 489.307,235.684 496.287,247.095 503.267,258.974 510.247,271.273 517.227,283.943 524.207,296.942 531.187,310.228 538.167,323.763 545.147,337.513 
  552.127,351.443 559.107,365.524 566.087,379.725 573.067,394.022 580.047,408.389 587.027,422.803 594.007,437.243 600.987,451.689 607.967,466.125 614.947,480.532 
  621.927,494.895 628.907,509.202 635.887,523.437 642.867,537.591 649.847,551.652 656.827,565.611 663.807,579.458 670.787,593.185 677.767,606.786 684.747,620.253 
  691.727,633.581 698.707,646.765 705.687,659.799 712.667,672.681 719.647,685.406 726.627,697.971 733.607,710.374 740.587,722.612 747.567,734.683 754.547,746.587 
  761.527,758.322 768.507,769.886 775.487,781.281 782.467,792.504 789.447,803.556 796.427,814.438 803.407,825.149 810.387,835.69 817.367,846.062 824.347,856.265 
  831.327,866.301 838.307,876.171 845.287,885.875 852.267,895.416 859.247,904.794 866.227,914.012 873.207,923.071 880.187,931.972 887.167,940.717 894.147,949.308 
  901.127,957.747 908.107,966.035 915.087,974.176 922.067,982.169 929.047,990.019 936.027,997.726 943.007,1005.29 949.987,1012.72 956.967,1020.01 963.947,1027.17 
  970.927,1034.19 977.907,1041.09 984.887,1047.85 991.867,1054.49 998.847,1061.01 1005.83,1067.4 1012.81,1073.67 1019.79,1079.83 1026.77,1085.87 1033.75,1091.79 
  1040.73,1097.6 1047.71,1103.3 1054.69,1108.9 1061.67,1114.38 1068.65,1119.77 1075.63,1125.04 1082.61,1130.22 1089.59,1135.3 1096.57,1140.28 1103.55,1145.17 
  1110.53,1149.96 1117.51,1154.65 1124.49,1159.26 1131.47,1163.78 1138.45,1168.21 1145.43,1172.56 1152.41,1176.82 1159.39,1181 1166.37,1185.1 1173.35,1189.12 
  1180.33,1193.06 1187.31,1196.93 1194.29,1200.71 1201.27,1204.43 1208.25,1208.07 1215.23,1211.65 1222.21,1215.15 1229.19,1218.59 1236.17,1221.95 1243.15,1225.26 
  1250.13,1228.49 1257.11,1231.67 1264.09,1234.78 1271.07,1237.83 1278.05,1240.83 1285.03,1243.76 1292.01,1246.64 1298.99,1249.46 1305.97,1252.23 1312.95,1254.94 
  1319.93,1257.6 1326.91,1260.2 1333.89,1262.76 1340.87,1265.27 1347.85,1267.72 1354.83,1270.13 1361.81,1272.49 1368.79,1274.81 1375.77,1277.08 1382.75,1279.31 
  1389.73,1281.49 1396.71,1283.63 1403.69,1285.73 1410.67,1287.78 1417.65,1289.8 1424.63,1291.78 1431.61,1293.72 1438.59,1295.62 1445.57,1297.48 1452.55,1299.31 
  1459.53,1301.1 1466.51,1302.86 1473.49,1304.58 1480.47,1306.27 1487.45,1307.92 1494.43,1309.54 1501.41,1311.13 1508.39,1312.69 1515.37,1314.22 1522.35,1315.72 
  1529.33,1317.19 1536.31,1318.64 1543.29,1320.05 1550.27,1321.43 1557.25,1322.79 1564.23,1324.12 1571.21,1325.43 1578.19,1326.71 1585.17,1327.97 1592.15,1329.2 
  1599.13,1330.4 1606.11,1331.59 1613.09,1332.75 1620.07,1333.88 1627.05,1335 1634.03,1336.09 1641.01,1337.16 1647.99,1338.21 1654.97,1339.24 1661.95,1340.25 
  1668.93,1341.24 1675.91,1342.21 1682.89,1343.16 1689.87,1344.1 1696.85,1345.01 1703.83,1345.91 1710.81,1346.79 1717.79,1347.65 1724.77,1348.5 1731.75,1349.32 
  1738.73,1350.14 1745.71,1350.93 1752.69,1351.71 1759.67,1352.48 1766.65,1353.23 1773.63,1353.96 1780.61,1354.69 1787.59,1355.39 1794.57,1356.09 1801.55,1356.77 
  1808.53,1357.43 1815.51,1358.08 1822.49,1358.72 1829.47,1359.35 1836.45,1359.97 1843.43,1360.57 1850.41,1361.16 1857.39,1361.74 1864.37,1362.31 1871.35,1362.87 
  1878.33,1363.41 1885.31,1363.95 1892.29,1364.47 1899.27,1364.99 1906.25,1365.49 1913.23,1365.99 1920.21,1366.47 1927.19,1366.95 1934.17,1367.41 1941.15,1367.87 
  1948.13,1368.31 1955.11,1368.75 1962.09,1369.18 1969.07,1369.6 1976.05,1370.02 1983.03,1370.42 1990.01,1370.82 1996.99,1371.21 2003.97,1371.59 2010.95,1371.96 
  2017.93,1372.33 2024.91,1372.68 2031.89,1373.03 2038.87,1373.38 2045.85,1373.72 2052.83,1374.05 2059.81,1374.37 2066.79,1374.69 2073.77,1375 2080.75,1375.3 
  2087.73,1375.6 2094.71,1375.89 2101.69,1376.18 2108.67,1376.46 2115.65,1376.73 2122.63,1377 2129.61,1377.26 2136.59,1377.52 2143.57,1377.77 2150.55,1378.02 
  2157.53,1378.26 2164.51,1378.49 2171.49,1378.72 2178.47,1378.95 2185.45,1379.17 2192.43,1379.38 2199.41,1379.59 2206.39,1379.8 2213.37,1380 2220.35,1380.19 
  2227.33,1380.38 2234.31,1380.57 2241.29,1380.75 2248.27,1380.92 2255.25,1381.09 2262.23,1381.26 2269.21,1381.42 2276.19,1381.58 2283.17,1381.73 2290.15,1381.87 
  
  "/>
<polyline clip-path="url(#clip5502)" style="stroke:#000000; stroke-width:4; stroke-opacity:1; fill:none" points="
  203.127,1301.51 210.107,1220.59 217.087,1145.61 224.067,1076.22 231.047,1012.1 238.027,952.956 245.007,898.494 251.987,848.441 258.967,802.541 265.947,760.55 
  272.927,722.236 279.907,687.38 286.887,655.776 293.867,627.228 300.847,601.549 307.827,578.565 314.807,558.11 321.787,540.026 328.767,524.166 335.747,510.389 
  342.727,498.562 349.707,488.559 356.687,480.263 363.667,473.562 370.647,468.349 377.627,464.524 384.607,461.993 391.587,460.668 398.567,460.463 405.547,461.3 
  412.527,463.104 419.507,465.804 426.487,469.333 433.467,473.628 440.447,478.631 447.427,484.286 454.407,490.539 461.387,497.342 468.367,504.648 475.347,512.414 
  482.327,520.597 489.307,529.16 496.287,538.066 503.267,547.28 510.247,556.771 517.227,566.508 524.207,576.463 531.187,586.61 538.167,596.924 545.147,607.381 
  552.127,617.96 559.107,628.64 566.087,639.403 573.067,650.231 580.047,661.106 587.027,672.014 594.007,682.941 600.987,693.872 607.967,704.796 614.947,715.7 
  621.927,726.575 628.907,737.41 635.887,748.196 642.867,758.925 649.847,769.588 656.827,780.179 663.807,790.691 670.787,801.119 677.767,811.455 684.747,821.697 
  691.727,831.838 698.707,841.875 705.687,851.805 712.667,861.623 719.647,871.327 726.627,880.914 733.607,890.383 740.587,899.73 747.567,908.954 754.547,918.054 
  761.527,927.028 768.507,935.876 775.487,944.597 782.467,953.189 789.447,961.653 796.427,969.989 803.407,978.195 810.387,986.273 817.367,994.223 824.347,1002.04 
  831.327,1009.74 838.307,1017.31 845.287,1024.75 852.267,1032.06 859.247,1039.25 866.227,1046.31 873.207,1053.26 880.187,1060.08 887.167,1066.78 894.147,1073.36 
  901.127,1079.82 908.107,1086.16 915.087,1092.39 922.067,1098.51 929.047,1104.51 936.027,1110.4 943.007,1116.18 949.987,1121.85 956.967,1127.41 963.947,1132.87 
  970.927,1138.22 977.907,1143.47 984.887,1148.62 991.867,1153.66 998.847,1158.61 1005.83,1163.47 1012.81,1168.22 1019.79,1172.89 1026.77,1177.46 1033.75,1181.94 
  1040.73,1186.33 1047.71,1190.63 1054.69,1194.85 1061.67,1198.98 1068.65,1203.02 1075.63,1206.99 1082.61,1210.87 1089.59,1214.68 1096.57,1218.41 1103.55,1222.06 
  1110.53,1225.64 1117.51,1229.14 1124.49,1232.57 1131.47,1235.93 1138.45,1239.22 1145.43,1242.44 1152.41,1245.6 1159.39,1248.69 1166.37,1251.71 1173.35,1254.68 
  1180.33,1257.58 1187.31,1260.41 1194.29,1263.19 1201.27,1265.91 1208.25,1268.58 1215.23,1271.18 1222.21,1273.74 1229.19,1276.23 1236.17,1278.68 1243.15,1281.07 
  1250.13,1283.41 1257.11,1285.71 1264.09,1287.95 1271.07,1290.15 1278.05,1292.29 1285.03,1294.4 1292.01,1296.46 1298.99,1298.47 1305.97,1300.44 1312.95,1302.37 
  1319.93,1304.25 1326.91,1306.1 1333.89,1307.91 1340.87,1309.68 1347.85,1311.4 1354.83,1313.1 1361.81,1314.75 1368.79,1316.37 1375.77,1317.96 1382.75,1319.51 
  1389.73,1321.03 1396.71,1322.51 1403.69,1323.96 1410.67,1325.38 1417.65,1326.77 1424.63,1328.13 1431.61,1329.46 1438.59,1330.76 1445.57,1332.04 1452.55,1333.28 
  1459.53,1334.5 1466.51,1335.69 1473.49,1336.86 1480.47,1338 1487.45,1339.11 1494.43,1340.2 1501.41,1341.27 1508.39,1342.31 1515.37,1343.34 1522.35,1344.33 
  1529.33,1345.31 1536.31,1346.27 1543.29,1347.2 1550.27,1348.12 1557.25,1349.01 1564.23,1349.88 1571.21,1350.74 1578.19,1351.58 1585.17,1352.39 
  "/>
<path clip-path="url(#clip5500)" d="
M1781.27 386.635 L2280.76 386.635 L2280.76 205.195 L1781.27 205.195  Z
  " fill="#ffffff" fill-rule="evenodd" fill-opacity="1"/>
<polyline clip-path="url(#clip5500)" style="stroke:#000000; stroke-width:4; stroke-opacity:1; fill:none" points="
  1781.27,386.635 2280.76,386.635 2280.76,205.195 1781.27,205.195 1781.27,386.635 
  "/>
<polyline clip-path="url(#clip5500)" style="stroke:#009af9; stroke-width:4; stroke-opacity:1; fill:none" points="
  1805.27,265.675 1949.27,265.675 
  "/>
<g clip-path="url(#clip5500)">
<text style="fill:#000000; fill-opacity:1; font-family:Arial,Helvetica Neue,Helvetica,sans-serif; font-size:48px; text-anchor:start;" transform="rotate(0, 1973.27, 283.175)" x="1973.27" y="283.175">K_t Aiyagari</text>
</g>
<polyline clip-path="url(#clip5500)" style="stroke:#000000; stroke-width:4; stroke-opacity:1; fill:none" points="
  1805.27,326.155 1949.27,326.155 
  "/>
<g clip-path="url(#clip5500)">
<text style="fill:#000000; fill-opacity:1; font-family:Arial,Helvetica Neue,Helvetica,sans-serif; font-size:48px; text-anchor:start;" transform="rotate(0, 1973.27, 343.655)" x="1973.27" y="343.655">K_t RBC</text>
</g>
</svg>
